<?xml version="1.0" encoding="UTF-8" standalone="no"?>
<svg
   xmlns:dc="http://purl.org/dc/elements/1.1/"
   xmlns:cc="http://creativecommons.org/ns#"
   xmlns:rdf="http://www.w3.org/1999/02/22-rdf-syntax-ns#"
   xmlns:svg="http://www.w3.org/2000/svg"
   xmlns="http://www.w3.org/2000/svg"
   xmlns:sodipodi="http://sodipodi.sourceforge.net/DTD/sodipodi-0.dtd"
   xmlns:inkscape="http://www.inkscape.org/namespaces/inkscape"
   sodipodi:docname="ev-charger.svg"
   viewBox="0 0 96 96.000001"
   inkscape:version="1.0 (1.0+r73+1)"
   version="1.1"
   id="svg4874"
   height="96"
   width="96">
  <defs
     id="defs4876" />
  <sodipodi:namedview
     inkscape:window-maximized="1"
     inkscape:window-y="27"
     inkscape:window-x="60"
     inkscape:window-height="873"
     inkscape:window-width="1380"
     inkscape:document-rotation="0"
     inkscape:snap-others="false"
     inkscape:snap-global="true"
     inkscape:guide-bbox="true"
     showguides="true"
     inkscape:snap-center="true"
     inkscape:snap-object-midpoints="true"
     inkscape:snap-midpoints="false"
     inkscape:snap-smooth-nodes="false"
     inkscape:object-nodes="false"
     inkscape:snap-intersection-paths="true"
     inkscape:object-paths="true"
     inkscape:snap-bbox-midpoints="true"
     inkscape:snap-bbox-edge-midpoints="true"
     inkscape:bbox-nodes="true"
     inkscape:bbox-paths="true"
     inkscape:snap-bbox="true"
     fit-margin-bottom="0"
     fit-margin-right="0"
     fit-margin-left="0"
     fit-margin-top="0"
     showborder="true"
     showgrid="true"
     inkscape:current-layer="g4778"
     inkscape:document-units="px"
     inkscape:cy="50.327439"
     inkscape:cx="40.178361"
     inkscape:zoom="6.4244404"
     inkscape:pageshadow="2"
     inkscape:pageopacity="0.0"
     borderopacity="1.0"
     bordercolor="#666666"
     pagecolor="#ffffff"
     id="base">
    <inkscape:grid
       empspacing="8"
       id="grid5451"
       type="xygrid" />
    <sodipodi:guide
       id="guide4063"
       position="8,-8.0000001"
       orientation="1,0" />
    <sodipodi:guide
       id="guide4065"
       position="4,-8.0000001"
       orientation="1,0" />
    <sodipodi:guide
       id="guide4067"
       position="-8,88.000001"
       orientation="0,1" />
    <sodipodi:guide
       id="guide4069"
       position="-8,92.000001"
       orientation="0,1" />
    <sodipodi:guide
       id="guide4071"
       position="104,4"
       orientation="0,1" />
    <sodipodi:guide
       id="guide4073"
       position="-5,8.0000001"
       orientation="0,1" />
    <sodipodi:guide
       id="guide4077"
       position="88,-8.0000001"
       orientation="1,0" />
    <sodipodi:guide
       id="guide4074"
       position="-8,84.000001"
       orientation="0,1" />
    <sodipodi:guide
       id="guide4076"
       position="12,-8.0000001"
       orientation="1,0" />
    <sodipodi:guide
       id="guide4080"
       position="84,-8.0000001"
       orientation="1,0" />
    <sodipodi:guide
       id="guide4170"
       orientation="1,0"
       position="48,-8.0000001" />
    <sodipodi:guide
       id="guide4172"
       orientation="0,1"
       position="-8,48" />
    <sodipodi:guide
       id="guide4760"
       orientation="1,0"
       position="92,-8.0000001" />
    <sodipodi:guide
       id="guide4182"
       orientation="0,1"
       position="108,12" />
  </sodipodi:namedview>
  <metadata
     id="metadata4879">
    <rdf:RDF>
      <cc:Work
         rdf:about="">
        <dc:format>image/svg+xml</dc:format>
        <dc:type
           rdf:resource="http://purl.org/dc/dcmitype/StillImage" />
        <dc:title></dc:title>
      </cc:Work>
    </rdf:RDF>
  </metadata>
  <g
     transform="translate(67.857146,-78.50504)"
     id="layer1"
     inkscape:groupmode="layer"
     inkscape:label="Layer 1">
    <g
       style="display:inline"
       id="g4845"
       transform="matrix(0,-1,-1,0,373.50506,516.50504)">
      <g
         inkscape:label="Layer 1"
         id="g4778"
         transform="matrix(-0.9996045,0,0,1,575.94296,-611.00001)"
         inkscape:export-filename="next01.png"
         inkscape:export-xdpi="90"
         inkscape:export-ydpi="90">
        <rect
           style="color:#000000;display:inline;overflow:visible;visibility:visible;fill:none;stroke:none;stroke-width:4;marker:none;enable-background:accumulate"
           id="rect4782"
           width="96.037987"
           height="96"
           x="143.99992"
           y="956.36218" />
        <path
           sodipodi:nodetypes="sscccccsssssscccccssscsscccccssscccccsscc"
           style="color:#000000;font-style:normal;font-variant:normal;font-weight:normal;font-stretch:normal;font-size:medium;line-height:normal;font-family:sans-serif;font-variant-ligatures:normal;font-variant-position:normal;font-variant-caps:normal;font-variant-numeric:normal;font-variant-alternates:normal;font-feature-settings:normal;text-indent:0;text-align:start;text-decoration:none;text-decoration-line:none;text-decoration-style:solid;text-decoration-color:#000000;letter-spacing:normal;word-spacing:normal;text-transform:none;writing-mode:lr-tb;direction:ltr;text-orientation:mixed;baseline-shift:baseline;text-anchor:start;white-space:normal;shape-padding:0;clip-rule:nonzero;display:inline;overflow:visible;visibility:visible;isolation:auto;mix-blend-mode:normal;color-interpolation:sRGB;color-interpolation-filters:linearRGB;solid-color:#000000;solid-opacity:1;fill:#808080;fill-opacity:1;fill-rule:nonzero;stroke:none;stroke-width:4.00079;stroke-linecap:butt;stroke-linejoin:miter;stroke-miterlimit:4;stroke-dasharray:none;stroke-dashoffset:0;stroke-opacity:1;marker:none;color-rendering:auto;image-rendering:auto;shape-rendering:auto;text-rendering:auto;enable-background:accumulate"
           d="m 196.02174,988.36133 c 2.6314,0 4.71356,0.23788 6.46875,0.89648 1.75519,0.6586 3.16115,1.84985 3.99219,3.35549 1.66208,3.0112 1.48476,6.6938 1.54297,11.7265 v 0.012 24.0215 0.012 c -0.0582,5.0328 0.11911,8.7154 -1.54297,11.7266 -0.83104,1.5056 -2.237,2.6969 -3.99219,3.3555 -1.75519,0.6586 -3.83735,0.8964 -6.46875,0.8964 h -38.01547 c -2.6314,0 -4.71552,-0.2378 -6.47071,-0.8964 -1.75519,-0.6586 -3.15919,-1.8499 -3.99023,-3.3555 -1.66208,-3.0112 -1.48672,-6.6938 -1.54492,-11.7266 v -0.012 -24.0215 -0.012 c 0.0582,-5.0327 -0.11716,-8.7153 1.54492,-11.7265 0.83104,-1.50564 2.23504,-2.69689 3.99023,-3.35549 1.75519,-0.6586 3.83931,-0.89648 6.47071,-0.89648 z m 0,4.00197 h -38.01547 c -2.37058,0 -4.02426,0.2503 -5.06446,0.6406 -1.04019,0.3903 -1.48966,0.8095 -1.89453,1.543 -0.80823,1.4643 -0.98613,4.7781 -1.04492,9.8164 v 23.9765 c 0.0584,5.0542 0.23518,8.3709 1.04492,9.8379 0.40487,0.7336 0.85434,1.1527 1.89453,1.543 1.0402,0.3903 2.69388,0.6406 5.06446,0.6406 h 38.01547 c 2.37058,0 4.02426,-0.2503 5.06445,-0.6406 1.0402,-0.3903 1.48771,-0.8094 1.89258,-1.543 0.80836,-1.4645 0.98616,-4.7768 1.04492,-9.8164 v -0.022 -23.9531 -0.023 c -0.0588,-5.0383 -0.23669,-8.3521 -1.04492,-9.8164 -0.40487,-0.7335 -0.85238,-1.1527 -1.89258,-1.543 -1.04019,-0.3903 -2.69387,-0.6406 -5.06445,-0.6406 z"
           id="path4297"
           inkscape:connector-curvature="0" />
        <path
           transform="matrix(0,-1,1.0003957,0,137.99754,1052.3622)"
           d="M 18 18 L 18 46 L 54 46 L 54 18 L 18 18 z M 34.908203 19.998047 L 40.910156 34.181641 L 37.091797 34.181641 L 37.091797 44.001953 L 31.089844 29.818359 L 34.908203 29.818359 L 34.908203 19.998047 z "
           style="color:#000000;display:inline;overflow:visible;visibility:visible;fill:#808080;fill-opacity:1;fill-rule:nonzero;stroke:none;stroke-width:4;stroke-linecap:butt;stroke-linejoin:miter;stroke-miterlimit:4;stroke-dasharray:none;stroke-dashoffset:0;stroke-opacity:1;marker:none;enable-background:accumulate"
           id="rect4204" />
        <ellipse
           ry="12.004748"
           rx="20"
           transform="rotate(-90)"
           cy="220.03"
           cx="-1000.3622"
           id="path856"
           style="fill:none;stroke-width:1.0002" />
        <rect
           id="rect4782-5"
           x="114.00539"
           y="988.36224"
           width="31.998497"
           height="31.985979"
           style="color:#000000;fill:none;stroke-width:0.333187" />
        <path
           sodipodi:nodetypes="cccssccsscc"
           transform="matrix(0,-1,1.0003957,0,137.99754,1052.3622)"
           d="M 66,23.78125 V 29.4375 L 84.412109,47.849609 V 72.0625 c 0,9.62929 -7.762615,17.390625 -17.390625,17.390625 -9.62802,1e-5 -17.392578,-7.761325 -17.392578,-17.390625 h -4 c 0,11.789785 9.601518,21.388682 21.392578,21.388672 11.79105,0 21.390625,-9.598897 21.390625,-21.388672 V 46.193359 Z"
           style="color:#000000;font-style:normal;font-variant:normal;font-weight:normal;font-stretch:normal;font-size:medium;line-height:normal;font-family:sans-serif;font-variant-ligatures:normal;font-variant-position:normal;font-variant-caps:normal;font-variant-numeric:normal;font-variant-alternates:normal;font-variant-east-asian:normal;font-feature-settings:normal;font-variation-settings:normal;text-indent:0;text-align:start;text-decoration:none;text-decoration-line:none;text-decoration-style:solid;text-decoration-color:#000000;letter-spacing:normal;word-spacing:normal;text-transform:none;writing-mode:lr-tb;direction:ltr;text-orientation:mixed;dominant-baseline:auto;baseline-shift:baseline;text-anchor:start;white-space:normal;shape-padding:0;shape-margin:0;inline-size:0;clip-rule:nonzero;display:inline;overflow:visible;visibility:visible;opacity:1;isolation:auto;mix-blend-mode:normal;color-interpolation:sRGB;color-interpolation-filters:linearRGB;solid-color:#000000;solid-opacity:1;vector-effect:none;fill:#808080;fill-opacity:1;fill-rule:nonzero;stroke:none;stroke-width:4;stroke-linecap:butt;stroke-linejoin:miter;stroke-miterlimit:4;stroke-dasharray:none;stroke-dashoffset:0;stroke-opacity:1;color-rendering:auto;image-rendering:auto;shape-rendering:auto;text-rendering:auto;enable-background:accumulate;stop-color:#000000;stop-opacity:1"
           id="path2141" />
      </g>
    </g>
  </g>
</svg>
