<?xml version="1.0" encoding="UTF-8" standalone="no"?>
<!-- Created with Inkscape (http://www.inkscape.org/) -->

<svg
   xmlns:dc="http://purl.org/dc/elements/1.1/"
   xmlns:cc="http://creativecommons.org/ns#"
   xmlns:rdf="http://www.w3.org/1999/02/22-rdf-syntax-ns#"
   xmlns:svg="http://www.w3.org/2000/svg"
   xmlns="http://www.w3.org/2000/svg"
   xmlns:sodipodi="http://sodipodi.sourceforge.net/DTD/sodipodi-0.dtd"
   xmlns:inkscape="http://www.inkscape.org/namespaces/inkscape"
   width="256"
   height="256"
   viewBox="0 0 67.733333 67.733335"
   version="1.1"
   id="svg8"
   inkscape:version="0.92.3 (2405546, 2018-03-11)"
   sodipodi:docname="fingerprint.svg">
  <defs
     id="defs2" />
  <sodipodi:namedview
     id="base"
     pagecolor="#ffffff"
     bordercolor="#666666"
     borderopacity="1.0"
     inkscape:pageopacity="0.0"
     inkscape:pageshadow="2"
     inkscape:zoom="1.4"
     inkscape:cx="253.21247"
     inkscape:cy="308.66818"
     inkscape:document-units="mm"
     inkscape:current-layer="layer1"
     showgrid="false"
     fit-margin-top="0"
     fit-margin-left="0"
     fit-margin-right="0"
     fit-margin-bottom="0"
     units="px"
     inkscape:window-width="2880"
     inkscape:window-height="1698"
     inkscape:window-x="0"
     inkscape:window-y="44"
     inkscape:window-maximized="1" />
  <metadata
     id="metadata5">
    <rdf:RDF>
      <cc:Work
         rdf:about="">
        <dc:format>image/svg+xml</dc:format>
        <dc:type
           rdf:resource="http://purl.org/dc/dcmitype/StillImage" />
        <dc:title></dc:title>
      </cc:Work>
    </rdf:RDF>
  </metadata>
  <g
     inkscape:label="Layer 1"
     inkscape:groupmode="layer"
     id="layer1"
     transform="translate(-31.771997,-157.48896)">
    <path
       style="fill:#808080;stroke-width:0.10040089;fill-opacity:1"
       d="m 60.771147,219.09138 c -1.020233,-1.1087 -1.750377,-2.13083 -2.280081,-3.19191 -0.570577,-1.14295 -1.093629,-2.63535 -0.965613,-2.75515 0.04758,-0.0445 0.227721,-0.11064 0.400322,-0.14695 l 0.31382,-0.066 0.274371,0.83354 c 0.34133,1.03696 1.115333,2.55582 1.692642,3.32153 0.240664,0.31921 0.760586,0.91561 1.155379,1.32532 0.394795,0.40972 0.717808,0.78449 0.717808,0.83284 0,0.12232 -0.440816,0.5245 -0.574881,0.5245 -0.06058,0 -0.39077,-0.30497 -0.733767,-0.67771 z m 3.467267,0.31194 c -1.313712,-0.94415 -2.794718,-2.72984 -3.625454,-4.37132 -1.014828,-2.00523 -1.829301,-5.05242 -2.048063,-7.66243 -0.06755,-0.80581 -0.09791,-3.47565 -0.07937,-6.97786 l 0.03003,-5.67264 h 0.451804 0.451804 l 0.05918,6.12445 c 0.0624,6.45732 0.118054,7.32946 0.599035,9.38748 0.841957,3.60255 2.531267,6.51695 4.721583,8.14569 0.38195,0.28402 0.694453,0.57102 0.694453,0.63776 0,0.0668 -0.07108,0.26386 -0.157955,0.438 -0.208093,0.41714 -0.464243,0.40567 -1.097056,-0.0492 z m 4.557267,-0.12561 c -1.963739,-0.90024 -3.933263,-2.50162 -5.217229,-4.24201 -0.381115,-0.5166 -0.693502,-0.96341 -0.694193,-0.99291 -0.0016,-0.0699 0.554286,-0.39816 0.674218,-0.39816 0.05076,0 0.306562,0.3136 0.56845,0.69688 1.193065,1.74612 3.469222,3.57243 5.457109,4.37861 0.317914,0.12893 0.591151,0.297 0.607183,0.37349 0.03715,0.17715 -0.14981,0.67597 -0.25257,0.67395 -0.04278,-7.7e-4 -0.557116,-0.22128 -1.142968,-0.48985 z m 3.479503,0.12971 c -0.0373,-0.19891 -0.04979,-0.37972 -0.02774,-0.40178 0.02205,-0.0221 0.533259,-0.12994 1.135983,-0.23972 3.657688,-0.6662 6.296648,-1.8035 7.98679,-3.44205 l 0.701599,-0.68017 0.29507,0.2101 c 0.162291,0.11557 0.295074,0.25323 0.295074,0.30593 0,0.18205 -0.822603,0.98728 -1.635962,1.60141 -1.587462,1.19863 -4.073918,2.16891 -7.053561,2.75248 -0.715202,0.14008 -1.374403,0.25487 -1.464894,0.25508 -0.109549,3e-4 -0.1872,-0.12046 -0.232375,-0.36128 z m -14.849496,-0.36624 c -1.989387,-3.19416 -2.785049,-6.01917 -3.230742,-11.4708 -0.209871,-2.56712 -0.328271,-12.63316 -0.151105,-12.84664 0.07553,-0.091 0.289212,-0.15528 0.516268,-0.15528 0.320506,0 0.395733,0.039 0.435676,0.2259 0.02655,0.12425 0.06887,2.82378 0.09404,5.99895 0.02517,3.17518 0.09554,6.29263 0.156374,6.92767 0.464337,4.84712 1.128976,7.23316 2.829537,10.15801 0.214293,0.36856 0.389624,0.73822 0.389624,0.82147 0,0.17631 -0.510494,0.56662 -0.741091,0.56662 -0.08684,0 -0.221202,-0.10165 -0.298584,-0.2259 z m -3.048986,-0.90361 c -0.05347,-0.0691 -0.303999,-0.5773 -0.55674,-1.12951 -0.818299,-1.78787 -1.330819,-3.77445 -1.618907,-6.27506 -0.335442,-2.91163 -0.39498,-4.85151 -0.403676,-13.15251 l -0.0087,-8.28308 h 0.502005 0.502004 l 0.06113,8.98589 c 0.06035,8.87184 0.103445,10.0882 0.448172,12.6505 0.31381,2.33252 0.837649,4.1811 1.669365,5.89107 0.444831,0.91455 0.436051,0.99983 -0.133249,1.29423 -0.338026,0.17479 -0.340271,0.17488 -0.461425,0.0185 z m 15.634763,-0.95538 v -0.40639 l 0.97891,-0.0627 c 3.656298,-0.23412 5.822134,-0.83845 7.631001,-2.12923 l 0.659458,-0.47057 0.234261,0.29276 c 0.128841,0.16103 0.234485,0.32123 0.234758,0.35601 0.0012,0.13236 -1.123126,0.90356 -1.875323,1.2865 -1.643175,0.83652 -3.842902,1.33188 -6.532753,1.47113 l -1.330312,0.0689 z M 51.40385,216.59188 c -0.02951,-0.10242 -0.19377,-0.64814 -0.365009,-1.2127 -0.488662,-1.61108 -0.785305,-3.38163 -1.004607,-5.99616 -0.111415,-1.32828 -0.222497,-2.56188 -0.246848,-2.74135 -0.04396,-0.32399 -0.04125,-0.3263 0.383378,-0.3263 h 0.427653 l 0.118383,1.70277 c 0.215839,3.10453 0.566948,5.26956 1.187639,7.32335 0.190265,0.62957 0.308419,1.18218 0.262565,1.22803 -0.04586,0.0459 -0.224249,0.11155 -0.39643,0.14599 -0.250778,0.0502 -0.323735,0.0256 -0.366724,-0.12363 z m 17.153054,-1.35155 c -0.788165,-0.083 -2.534084,-0.52586 -2.692359,-0.683 -0.04437,-0.044 -0.0015,-0.24621 0.09535,-0.44925 0.125986,-0.26419 0.220285,-0.35066 0.331686,-0.30413 1.122839,0.46904 2.491303,0.66865 4.297138,0.6268 1.541027,-0.0357 1.531164,-0.039 1.531164,0.51205 v 0.27773 l -1.069826,0.0654 c -1.214183,0.0743 -1.382853,0.0712 -2.493153,-0.0456 z m 4.800319,-0.25013 c -0.03385,-0.0883 -0.06633,-0.32295 -0.07215,-0.52155 l -0.01059,-0.36109 0.796637,-0.22334 c 1.040342,-0.29166 2.465718,-1.00773 3.21231,-1.61376 1.136939,-0.9229 2.059888,-2.38765 2.61231,-4.14585 0.660278,-2.10145 0.855013,-4.64887 0.857218,-11.21362 7.59e-4,-2.27332 0.0288,-4.20479 0.06234,-4.29213 0.08402,-0.21895 0.798105,-0.21895 0.882123,0 0.03351,0.0873 0.06064,2.35766 0.06028,5.04514 -0.0012,7.83308 -0.283091,10.13338 -1.553079,12.6674 -1.158838,2.31225 -2.890031,3.71566 -5.563061,4.50975 -1.211049,0.35978 -1.203797,0.35894 -1.284343,0.14905 z m 9.556774,-1.08246 -0.300189,-0.24245 0.46602,-0.93904 c 0.818474,-1.64925 1.310348,-3.50897 1.669036,-6.31049 l 0.173543,-1.3554 0.429933,0.009 c 0.236466,0.005 0.470077,0.0501 0.519139,0.1004 0.105147,0.1078 -0.103648,2.00671 -0.396441,3.60549 -0.29424,1.60667 -0.853462,3.38375 -1.390174,4.41763 -0.52395,1.00931 -0.684772,1.10751 -1.170867,0.7149 z M 48.084198,213.7325 c -0.06148,-0.19644 -0.436229,-4.23061 -0.586405,-6.31272 -0.152888,-2.11972 -0.162894,-20.79247 -0.01149,-21.43559 0.09283,-0.3943 0.102688,-0.40161 0.541858,-0.40161 h 0.44731 l -0.0502,3.76503 c -0.08238,6.17857 -0.03589,14.96774 0.09082,17.16855 0.125351,2.17729 0.344779,4.81238 0.517544,6.21511 0.05715,0.46401 0.06789,0.87962 0.02388,0.92357 -0.04401,0.044 -0.271297,0.11047 -0.505065,0.14781 -0.318123,0.0508 -0.435903,0.0331 -0.468248,-0.0701 z m 32.243459,-0.19982 c -0.151855,-0.1133 -0.276104,-0.2542 -0.276104,-0.3131 0,-0.0589 0.233668,-0.47137 0.51926,-0.91657 1.221932,-1.90489 1.854498,-4.22644 2.208856,-8.10663 0.146231,-1.60119 0.193794,-16.10359 0.0594,-18.11179 -0.04066,-0.60742 -0.04066,-1.15521 0,-1.2173 0.129166,-0.19729 0.662436,-0.25731 0.879068,-0.0989 0.194932,0.14251 0.199527,0.30891 0.233281,8.44858 0.04046,9.75645 -0.0695,12.31877 -0.648302,15.10644 -0.372793,1.79549 -1.21695,3.88414 -1.99849,4.94474 -0.386697,0.52478 -0.563871,0.57277 -0.976972,0.26456 z m -18.405858,-1.06775 c -0.943879,-2.12967 -1.280063,-4.26627 -1.228266,-7.80618 l 0.03085,-2.10842 h 0.451804 0.451804 l 0.06465,2.45982 c 0.08413,3.20099 0.358061,4.82141 1.140644,6.74736 0.318949,0.78494 0.314612,0.90236 -0.04108,1.11247 -0.471011,0.27823 -0.592665,0.22162 -0.870411,-0.40505 z m 6.131849,0.46522 c -1.662809,-0.24178 -3.321582,-0.9795 -4.335909,-1.92836 -0.348664,-0.32616 -0.633935,-0.65633 -0.633935,-0.73373 0,-0.0774 0.146836,-0.21043 0.326303,-0.29564 l 0.326303,-0.15493 0.561389,0.54481 c 1.329017,1.28976 3.854256,2.00145 6.526092,1.83924 1.843705,-0.11192 3.514426,-0.65979 4.644854,-1.52315 l 0.487434,-0.37227 0.304136,0.30414 0.304136,0.30414 -0.64097,0.47223 c -1.103721,0.81316 -2.160418,1.25128 -3.650403,1.51351 -0.883272,0.15544 -3.241388,0.17221 -4.21943,0.03 z m -11.043989,-1.19296 c -0.103279,-0.1671 -0.429805,-2.28348 -0.549938,-3.56441 -0.06214,-0.66264 -0.12199,-2.31173 -0.132985,-3.66463 l -0.01999,-2.45982 h 0.451804 0.451804 l 0.02272,0.85341 c 0.07983,2.99869 0.280223,5.52394 0.595372,7.50253 0.136039,0.85409 0.141207,1.05359 0.03074,1.1867 -0.07304,0.088 -0.214971,0.13851 -0.315411,0.11225 -0.100437,-0.0263 -0.207916,-0.007 -0.23884,0.0432 -0.07428,0.12018 -0.218062,0.11568 -0.295268,-0.009 z M 68.55956,210.7284 c -1.473164,-0.23106 -2.658314,-0.77833 -3.543039,-1.63611 -0.289908,-0.28107 -0.527104,-0.55053 -0.527104,-0.59878 0,-0.10359 0.413462,-0.46316 0.538127,-0.46799 0.04748,-0.002 0.33219,0.22137 0.632695,0.49602 0.629655,0.57546 1.489515,1.0099 2.49381,1.25997 1.023159,0.25475 2.958825,0.23375 4.007531,-0.0435 0.437086,-0.11556 0.803117,-0.19874 0.813401,-0.18485 0.101948,0.13759 0.234506,0.73126 0.175329,0.78522 -0.37066,0.33796 -3.323301,0.58881 -4.59075,0.39002 z m -23.075308,-0.66797 c -0.16299,-0.27548 -0.319462,-5.21398 -0.32066,-10.12052 l -0.0013,-5.52205 h 0.451804 0.451804 l 0.06206,5.12045 c 0.03413,2.81624 0.11843,6.137 0.187325,7.37946 0.0689,1.24247 0.131329,2.46234 0.138741,2.71082 l 0.01347,0.45181 -0.467809,0.0302 c -0.257295,0.0166 -0.489223,-0.006 -0.515396,-0.0502 z m 31.375895,-0.15803 c -0.292846,-0.31172 -0.280404,-0.50408 0.06524,-1.00872 0.396199,-0.57844 0.665181,-1.12696 0.912143,-1.86006 0.487475,-1.44704 0.542149,-1.92775 0.601263,-5.2865 l 0.05655,-3.21283 h 0.502006 0.502002 l 0.03058,2.30923 c 0.03415,2.57964 -0.08934,4.42377 -0.376603,5.62289 -0.375146,1.56601 -1.405534,3.57727 -1.866481,3.64326 -0.114512,0.0164 -0.302247,-0.0747 -0.426704,-0.20727 z m -2.513944,-0.50618 c -0.347767,-0.37017 -0.276325,-0.64245 0.337412,-1.28589 0.582213,-0.61039 1.018575,-1.41952 1.319967,-2.44757 0.158982,-0.54229 0.18191,-1.32877 0.229772,-7.88147 l 0.05317,-7.27906 h 0.502006 0.502002 l 0.02987,6.47586 c 0.03841,8.32263 -0.03734,9.11769 -1.039363,10.91022 -0.39607,0.70853 -1.330958,1.74028 -1.576895,1.74028 -0.07681,0 -0.237884,-0.10457 -0.357951,-0.23237 z m -5.188146,-0.77527 c -1.887706,-0.29702 -3.078841,-1.30797 -3.734883,-3.1699 l -0.279164,-0.7923 -10e-4,-3.31323 -0.001,-3.31323 h 0.502005 0.502005 l 0.05433,3.26303 c 0.05734,3.44324 0.06117,3.47283 0.580123,4.47761 0.29388,0.56899 0.984032,1.19382 1.674765,1.51625 0.540826,0.25245 0.710164,0.28102 1.656613,0.27941 0.940599,-0.002 1.120402,-0.0322 1.668407,-0.28385 0.337806,-0.15512 0.79738,-0.47058 1.02127,-0.70101 0.397246,-0.40883 0.924775,-1.27936 0.924775,-1.52603 0,-0.24678 0.289928,-0.38103 0.619037,-0.28664 0.511853,0.1468 0.552756,0.32492 0.248908,1.08391 -0.449017,1.12163 -1.257773,1.98619 -2.273555,2.43041 -0.830205,0.36307 -2.118866,0.4998 -3.162631,0.33557 z m -5.742024,-1.82868 c -0.04468,-0.0691 -0.166988,-0.39658 -0.271805,-0.72791 -0.175115,-0.55353 -0.194006,-1.04969 -0.232835,-6.11509 -0.02324,-3.03198 -0.01508,-5.62098 0.01814,-5.75332 0.05455,-0.21734 0.106232,-0.23768 0.534036,-0.21016 l 0.473645,0.0305 0.05325,5.67266 c 0.0469,4.99639 0.0737,5.73249 0.224814,6.17465 0.234492,0.68611 0.22369,0.74238 -0.174436,0.90873 -0.425783,0.1779 -0.52063,0.18093 -0.624805,0.02 z m 7.396955,-0.73234 c -0.239558,-0.63008 -0.228234,-0.6959 0.164105,-0.95395 0.206078,-0.13553 0.468446,-0.42715 0.583037,-0.64803 0.202655,-0.39063 0.209125,-0.55745 0.236625,-6.10295 l 0.02827,-5.70135 0.225575,-0.10278 c 0.154249,-0.0703 0.311972,-0.07 0.498829,8.4e-4 l 0.273255,0.1039 -0.0012,5.85083 -0.0012,5.85084 -0.256877,0.55188 c -0.303419,0.65186 -0.466837,0.84881 -0.969077,1.16796 -0.478904,0.30431 -0.660995,0.30025 -0.781784,-0.0174 z m -2.684659,-0.33373 c -0.207294,-0.21361 -0.467031,-0.63153 -0.577193,-0.92871 -0.18903,-0.50995 -0.200295,-0.79162 -0.200295,-5.00818 v -4.46784 h 0.502005 0.502004 l 0.0502,4.41764 c 0.05399,4.75084 0.05066,4.72152 0.592126,5.21154 0.249538,0.22583 0.273027,0.62919 0.05479,0.94078 -0.226667,0.3236 -0.495989,0.27542 -0.923637,-0.16523 z m -18.465788,-1.09255 c -0.03947,-0.15185 -0.07422,-4.4327 -0.07721,-9.51298 -0.0058,-9.85643 0.01943,-10.53526 0.505737,-13.60433 0.25595,-1.61528 0.570484,-2.89696 0.985562,-4.01603 0.239592,-0.64595 0.245825,-0.65248 0.611202,-0.64039 0.203028,0.007 0.442755,0.0858 0.532729,0.17581 0.151183,0.15117 0.149419,0.19974 -0.02326,0.64038 -0.612679,1.56347 -1.116984,3.86732 -1.368067,6.24986 -0.173612,1.6474 -0.270737,8.22279 -0.215933,14.61863 0.02749,3.20846 0.01997,5.95317 -0.01672,6.09935 -0.05811,0.23152 -0.118022,0.2658 -0.464488,0.2658 -0.349607,0 -0.40647,-0.0335 -0.469549,-0.2761 z m 35.660061,-0.81544 c -0.270056,-0.0603 -0.298953,-0.10342 -0.279444,-0.41658 0.01196,-0.19211 0.05154,-3.01494 0.08793,-6.27295 0.12335,-11.0428 -0.363807,-16.68368 -1.824285,-21.12373 -1.057269,-3.21425 -2.454182,-5.33495 -4.580189,-6.95333 -0.430909,-0.32803 -0.783305,-0.65086 -0.783101,-0.71741 7.6e-4,-0.20752 0.391403,-0.77359 0.534011,-0.77359 0.37093,0 2.178518,1.52978 3.084463,2.61042 1.084136,1.2932 2.224672,3.59385 2.901207,5.85224 0.526982,1.75916 1.150289,5.31207 1.421639,8.10349 0.197543,2.03216 0.223593,2.99506 0.259382,9.58828 0.0219,4.0311 0.0041,7.96179 -0.03951,8.73488 -0.08754,1.55186 -0.07314,1.52667 -0.782098,1.36828 z m 2.068562,-0.0215 c -0.237998,-0.0952 -0.239709,-0.10596 -0.154959,-0.97255 0.04713,-0.48196 0.08775,-4.25522 0.09026,-8.38504 0.0049,-8.19664 -0.03207,-7.69695 0.570719,-7.70044 0.150456,-7.6e-4 0.29175,0.0672 0.326304,0.15727 0.105481,0.27489 0.06973,16.47154 -0.03696,16.75221 -0.105139,0.27653 -0.357519,0.32368 -0.795346,0.14855 z m -17.709642,-0.0536 c -0.03942,-0.0394 -0.07166,-0.76585 -0.07166,-1.61429 0,-1.68958 -0.0019,-1.68458 0.602406,-1.55389 l 0.351402,0.076 v 1.5521 1.5521 l -0.405245,0.0299 c -0.222888,0.0164 -0.437493,-0.003 -0.476904,-0.0419 z m 4.394455,-0.0575 c -0.02755,-0.0722 -0.03843,-4.19756 -0.02417,-9.1674 l 0.02592,-9.03608 0.359993,-0.0302 c 0.219629,-0.0184 0.405792,0.025 0.477443,0.11134 0.08817,0.10624 0.111056,2.39161 0.09181,9.16666 l -0.02565,9.02515 -0.427622,0.0309 c -0.283406,0.0205 -0.444517,-0.0133 -0.477713,-0.1004 z m -31.049225,-2.86138 0.02707,-2.18958 h 0.401603 0.401603 v 2.15862 2.15862 l -0.428677,0.0309 -0.428679,0.031 z m 17.695742,0.25095 c -0.02764,-0.0722 -0.03852,-2.68401 -0.02418,-5.80396 l 0.02607,-5.67266 h 0.451804 0.451804 v 5.77305 5.77305 l -0.427622,0.031 c -0.283349,0.0205 -0.444576,-0.0134 -0.477874,-0.1004 z m -4.405008,-0.13952 c -0.108153,-0.28185 -0.06713,-16.50913 0.04351,-17.21055 0.122929,-0.77934 0.569754,-2.20314 0.752411,-2.39754 0.144761,-0.15407 0.488064,-0.1019 0.791911,0.12034 0.188539,0.13789 0.185831,0.16275 -0.118058,1.08367 -0.171062,0.51839 -0.359552,1.29594 -0.418866,1.7279 -0.06926,0.50436 -0.107844,3.59983 -0.107844,8.65137 0,4.32629 -0.02743,7.93746 -0.06094,8.02481 -0.04072,0.10611 -0.187061,0.15881 -0.441062,0.15881 -0.254002,0 -0.40034,-0.0527 -0.441062,-0.15881 z m 13.364036,-1.71062 c -0.03942,-0.0394 -0.07245,-2.58293 -0.0734,-5.65228 -0.0019,-6.03623 -0.03115,-6.43579 -0.548979,-7.49419 -0.13763,-0.28131 -0.453717,-0.71131 -0.70241,-0.95556 -0.248693,-0.24425 -0.45251,-0.50653 -0.452926,-0.58284 -0.001,-0.19003 0.394215,-0.81506 0.515416,-0.81506 0.194079,0 1.00608,0.76214 1.283634,1.20482 0.155806,0.24849 0.413229,0.79065 0.572051,1.2048 l 0.288768,0.75301 v 6.17465 6.17466 l -0.405245,0.0299 c -0.222888,0.0164 -0.437493,-0.003 -0.476904,-0.0419 z M 43.031019,190.2261 c 0.03363,-5.93168 0.06951,-7.38508 0.210064,-8.50897 0.187603,-1.50012 0.548671,-3.70638 0.627422,-3.83381 0.07848,-0.12698 0.684296,-0.0964 0.865449,0.0437 0.149089,0.11529 0.146624,0.21535 -0.0303,1.22991 -0.585781,3.35905 -0.79488,6.8327 -0.795766,13.21961 -3.57e-4,2.57704 -0.02807,4.75699 -0.06159,4.84435 -0.04137,0.1078 -0.188588,0.15881 -0.458387,0.15881 h -0.397444 z m 35.46626,6.7324 c -0.02542,-0.0721 -0.06339,-3.13554 -0.08436,-6.8077 -0.04132,-7.23224 -0.03853,-7.19148 -0.635472,-9.32031 -0.292312,-1.04245 -0.266508,-1.14286 0.325394,-1.26636 0.380613,-0.0795 0.468839,0.0163 0.688643,0.74738 0.631245,2.09948 0.776862,4.3173 0.738316,11.2449 l -0.03047,5.47185 -0.477924,0.0307 c -0.325292,0.0209 -0.49269,-0.0112 -0.524144,-0.1004 z m -13.35739,-0.4016 c -0.02765,-0.0721 -0.03849,-2.05121 -0.02408,-4.39808 l 0.02621,-4.26705 h 0.502004 0.502005 v 4.36745 4.36743 l -0.477929,0.0306 c -0.323867,0.0207 -0.494138,-0.0116 -0.528214,-0.1004 z m 2.209473,-2.61597 c -0.02496,-0.0691 -0.05743,-1.57934 -0.07215,-3.35625 -0.02556,-3.08426 -0.03616,-3.24331 -0.233778,-3.50782 -0.766959,-1.0266 -2.031632,-1.02664 -2.798818,-1e-4 -0.19366,0.25913 -0.210241,0.44967 -0.257206,2.95562 l -0.0502,2.67864 H 63.435205 62.9332 v -2.76103 c 0,-2.59906 0.01245,-2.78793 0.212257,-3.21984 0.453136,-0.97951 1.319032,-1.499 2.498568,-1.499 1.179536,0 2.045431,0.51949 2.498567,1.499 0.200102,0.43254 0.214053,0.64753 0.243619,3.75422 0.02315,2.43218 2.01e-4,3.33294 -0.08759,3.43873 -0.147262,0.17744 -0.886527,0.19132 -0.949257,0.0179 z m -13.354209,-0.79828 c -0.02779,-0.0724 -0.03862,-1.69011 -0.02408,-3.59488 l 0.02644,-3.46321 0.410284,-0.03 c 0.263077,-0.0193 0.452678,0.0211 0.528438,0.11229 0.08672,0.1045 0.111121,1.06077 0.09172,3.59431 l -0.02644,3.45193 -0.477927,0.0307 c -0.324913,0.0208 -0.494105,-0.0115 -0.528452,-0.10102 z m 4.690275,0.0148 -0.231738,-0.093 0.03667,-4.34342 c 0.03229,-3.82424 0.05855,-4.42142 0.219673,-4.99601 0.406231,-1.44873 1.153806,-2.71873 2.12033,-3.60207 0.671103,-0.61335 0.907105,-0.63472 1.18929,-0.10769 l 0.190866,0.35648 -0.743591,0.74793 c -1.042469,1.04855 -1.634479,2.27147 -1.893083,3.91056 -0.05663,0.35893 -0.103304,2.31139 -0.103722,4.3388 -7.22e-4,3.54127 -0.0084,3.69029 -0.19496,3.79013 -0.227862,0.12196 -0.281766,0.12179 -0.589742,-0.002 z m -13.538083,-0.24833 c -0.0965,-0.25147 0.03666,-7.7651 0.161876,-9.13386 0.272233,-2.97593 0.672936,-5.36251 1.216989,-7.24834 0.636263,-2.20547 1.834948,-4.76779 2.259215,-4.82933 0.231358,-0.0336 0.744259,0.32874 0.744259,0.52572 0,0.0716 -0.201177,0.48624 -0.447061,0.92142 -1.462607,2.58864 -2.389745,6.4259 -2.774687,11.48394 -0.06094,0.8007 -0.140334,3.01454 -0.176439,4.91965 l -0.06564,3.46383 -0.427622,0.031 c -0.323333,0.0234 -0.443052,-0.009 -0.490887,-0.13394 z m 26.742994,-1.8166 c -0.03941,-0.0394 -0.07323,-1.2953 -0.07516,-2.79084 -0.0038,-2.86848 -0.08807,-3.70015 -0.48976,-4.82762 l -0.214623,-0.6024 0.278643,-0.22803 c 0.431849,-0.3534 0.720697,-0.26235 0.939217,0.29607 0.429125,1.09664 0.501012,1.8743 0.471667,5.10261 l -0.02785,3.06222 -0.405245,0.0299 c -0.222884,0.0164 -0.437492,-0.003 -0.476903,-0.0419 z m 8.921432,-0.0575 c -0.02262,-0.0722 -0.06975,-1.41896 -0.104714,-2.99274 -0.104726,-4.71422 -0.426552,-7.16957 -1.265005,-9.65121 -0.231066,-0.68389 -0.966168,-2.26679 -1.265174,-2.72429 -0.136911,-0.20947 -0.155031,-0.31859 -0.07418,-0.44676 0.172707,-0.27379 0.61615,-0.5631 0.771648,-0.50343 0.238704,0.0916 1.444104,2.66126 1.776725,3.7876 0.744615,2.52147 1.032545,5.11752 1.046721,9.43768 l 0.0104,3.16263 -0.427622,0.031 c -0.286479,0.0207 -0.441204,-0.0124 -0.468776,-0.1004 z m -4.50389,-1.95065 c -0.03936,-0.0394 -0.07156,-1.07609 -0.07156,-2.30386 0,-1.76069 -0.0415,-2.47305 -0.196458,-3.3718 -0.333575,-1.93482 -0.953004,-3.4336 -1.969355,-4.76514 -0.299757,-0.39271 -0.545011,-0.80275 -0.545011,-0.91121 0,-0.23458 0.396452,-0.63378 0.629415,-0.63378 0.455283,0 2.011825,2.55393 2.478253,4.06623 0.522303,1.69348 0.737218,3.65286 0.688279,6.27506 l -0.03093,1.65661 -0.455539,0.0298 c -0.250552,0.0164 -0.487746,-0.003 -0.527108,-0.0419 z m -24.117574,-1.032 -0.401603,-0.0603 0.03342,-1.65662 c 0.03503,-1.73624 0.301658,-4.31238 0.561139,-5.42165 0.223231,-0.95429 0.68532,-2.26737 1.056074,-3.00095 0.45093,-0.89221 1.214662,-2.01909 1.368421,-2.01909 0.18415,0 0.74598,0.4946 0.74598,0.65672 0,0.0752 -0.19778,0.42141 -0.439512,0.76918 -1.435211,2.06482 -2.117473,4.74209 -2.257073,8.85705 -0.03853,1.13567 -0.104812,1.90682 -0.164841,1.91773 -0.05522,0.01 -0.281122,-0.009 -0.502004,-0.0421 z m 8.532671,-0.0123 c -0.09926,-0.16061 0.03763,-1.13613 0.260838,-1.8588 0.222975,-0.72191 0.824185,-1.69169 1.293647,-2.08672 0.889215,-0.74822 1.937385,-1.06942 3.495215,-1.07105 1.271834,-0.002 1.328985,0.0324 1.165688,0.6876 l -0.09107,0.36542 -0.724292,-0.0328 c -2.272864,-0.10296 -3.879735,1.09562 -4.262331,3.1793 -0.05739,0.31259 -0.137832,0.63611 -0.178745,0.71895 -0.0901,0.18239 -0.85829,0.261 -0.958953,0.0981 z m 26.517408,-2.5917 c -0.02853,-0.0461 -0.124051,-0.84811 -0.212258,-1.78211 -0.404324,-4.28127 -1.114335,-7.66543 -2.146206,-10.22959 -0.220301,-0.54744 -0.378778,-1.03057 -0.352173,-1.07361 0.0894,-0.14466 0.739635,-0.4075 0.87736,-0.35465 0.208961,0.0802 1.229726,3.05014 1.628722,4.73884 0.672815,2.8476 1.334752,8.28871 1.05009,8.63171 -0.134104,0.16158 -0.756966,0.21272 -0.845535,0.0694 z m -33.135447,-0.7079 c -0.118074,-0.19105 0.331405,-2.61272 0.691932,-3.72794 0.622807,-1.92654 1.262921,-3.00285 2.491915,-4.18999 0.414465,-0.40034 0.823082,-0.7279 0.908037,-0.7279 0.173858,0 0.569742,0.50601 0.569742,0.72823 0,0.0798 -0.356636,0.50697 -0.792524,0.94936 -1.470407,1.49229 -2.292247,3.29257 -2.714575,5.94639 l -0.168798,1.0607 -0.462176,0.0302 c -0.254197,0.0166 -0.489795,-0.0144 -0.523553,-0.069 z m -6.386933,-0.46853 c -0.107909,-0.13003 -0.0911,-0.47542 0.09654,-1.98365 0.124961,-1.00442 0.334405,-2.35974 0.465429,-3.01183 0.69214,-3.44467 2.05883,-6.28127 3.913787,-8.12317 0.776279,-0.77081 2.477135,-1.93795 2.699698,-1.85254 0.189642,0.0727 0.489139,0.64812 0.424739,0.81594 -0.02709,0.0706 -0.380511,0.34568 -0.785371,0.61128 -0.903478,0.5927 -2.300973,1.97981 -2.878034,2.85665 -1.394412,2.11879 -2.358776,5.14641 -2.782256,8.73488 -0.244328,2.07037 -0.237689,2.04954 -0.663607,2.08222 -0.232259,0.0179 -0.406694,-0.0283 -0.490927,-0.12978 z m 26.237975,-0.17033 c -0.05286,-0.0691 -0.153211,-0.39658 -0.223006,-0.72791 -0.543197,-2.57862 -2.263173,-4.6158 -4.624777,-5.47768 -2.135464,-0.77935 -4.880861,-0.7674 -7.001157,0.0305 -1.138492,0.42842 -1.865806,0.91957 -2.726466,1.84115 -0.382477,0.40956 -0.756163,0.74442 -0.830413,0.74415 -0.07425,-3.1e-4 -0.266106,-0.10541 -0.426347,-0.23363 -0.38286,-0.30635 -0.318135,-0.54459 0.354087,-1.30324 0.923317,-1.04204 2.491,-1.94752 4.154098,-2.39936 1.042265,-0.28316 3.987863,-0.36092 5.259456,-0.13883 1.098341,0.19184 2.753811,0.81168 3.484094,1.30451 1.669146,1.12643 2.923474,3.10178 3.409937,5.37004 0.175458,0.81811 0.175268,0.84585 -0.0067,0.97891 -0.234348,0.17136 -0.695435,0.17776 -0.822812,0.0114 z m -12.955496,-0.4758 c -0.179467,-0.10943 -0.326302,-0.25692 -0.326302,-0.32777 0,-0.20845 0.787381,-1.10149 1.291392,-1.46468 1.051498,-0.75772 2.108524,-1.06325 3.678452,-1.06325 1.570213,0 2.628691,0.30602 3.677607,1.06325 0.564037,0.40719 1.191837,1.14037 1.191837,1.39188 0,0.1831 -0.493157,0.49987 -0.778198,0.49987 -0.07971,0 -0.341028,-0.2181 -0.580696,-0.48467 -1.714484,-1.90692 -5.367152,-1.88019 -7.0611,0.0517 -0.256017,0.29197 -0.533257,0.53127 -0.616087,0.53175 -0.08283,3.8e-4 -0.297438,-0.0886 -0.476905,-0.19805 z m 21.673039,-0.22701 c -0.04614,-0.12424 -0.114846,-0.51957 -0.15269,-0.8785 -0.104631,-0.99237 -0.342481,-2.33642 -0.635707,-3.59223 -0.29506,-1.26365 -0.275836,-1.34496 0.348799,-1.47561 0.277835,-0.0581 0.339578,-0.0341 0.425805,0.16561 0.186561,0.43211 0.682658,2.93259 0.861024,4.3398 0.171409,1.35232 0.171136,1.39958 -0.0087,1.53112 -0.300371,0.21963 -0.741047,0.17224 -0.838491,-0.0902 z m -12.812659,-2.22807 c -0.669579,-0.69229 -1.496682,-1.15243 -2.560224,-1.42433 -0.856062,-0.21886 -2.457789,-0.21954 -3.297284,-0.002 -0.350162,0.091 -0.676474,0.14082 -0.725138,0.11075 -0.156724,-0.0969 -0.337339,-0.8471 -0.229818,-0.95462 0.253127,-0.25313 1.591731,-0.41747 2.947029,-0.36181 1.718071,0.0706 2.706375,0.33674 3.714832,1.00056 0.702505,0.46243 1.606413,1.38531 1.606413,1.64014 0,0.23224 -0.476236,0.64697 -0.718302,0.62552 -0.07431,-0.007 -0.406187,-0.29224 -0.737508,-0.63479 z m 7.016481,-2.74177 c -1.653996,-2.73765 -3.542323,-4.18335 -6.564678,-5.02591 l -1.054208,-0.29389 -0.02956,-0.33958 c -0.01628,-0.18676 0.03145,-0.42294 0.106054,-0.52484 0.130335,-0.17806 0.188208,-0.17087 1.485381,0.18442 3.153914,0.86384 5.278206,2.43906 6.810854,5.05042 0.370087,0.63056 0.389053,0.85889 0.08881,1.06919 -0.341039,0.23888 -0.652715,0.19456 -0.842646,-0.11981 z m -5.040739,-1.79695 c -1.53242,-1.00853 -3.655439,-1.53608 -6.19258,-1.5388 -1.667516,-0.002 -3.013652,0.20301 -4.300229,0.65422 -1.49232,0.52336 -1.527197,0.52665 -1.715952,0.16163 -0.262332,-0.50729 -0.208674,-0.60746 0.496731,-0.9273 2.56948,-1.16506 7.252351,-1.29221 10.23829,-0.27799 0.882897,0.29988 2.122429,0.91578 2.566072,1.27501 l 0.22197,0.17975 -0.277853,0.41985 c -0.152816,0.23093 -0.328324,0.41658 -0.39001,0.41256 -0.06169,-0.004 -0.352587,-0.16553 -0.646439,-0.35893 z m -27.304093,-0.0374 c -0.12547,-0.0514 -0.254078,-0.16115 -0.285796,-0.2438 -0.0862,-0.22462 0.674364,-2.65331 1.247117,-3.98241 0.538316,-1.24918 1.578815,-3.00568 2.31274,-3.9042 0.600949,-0.73572 1.431832,-1.49628 1.640521,-1.50167 0.190982,-0.005 0.584592,0.44844 0.584592,0.67335 0,0.0817 -0.35851,0.52735 -0.79669,0.99025 -1.498148,1.58269 -2.67669,3.70037 -3.480833,6.25457 -0.253668,0.80574 -0.495238,1.53274 -0.536821,1.61557 -0.09198,0.18322 -0.377685,0.22425 -0.68483,0.0983 z M 81.1547,176.32059 c -0.05685,-0.0966 -0.303897,-0.59295 -0.548995,-1.10292 -1.561507,-3.24905 -3.968271,-5.14871 -7.732813,-6.1035 -2.292271,-0.58139 -3.567522,-0.70076 -7.429668,-0.6955 -4.246777,0.006 -5.180974,0.12469 -8.509585,1.08318 -0.464143,0.13365 -0.686637,-0.0367 -0.711124,-0.54475 -0.01614,-0.33487 -0.01455,-0.33606 0.837236,-0.61984 4.151315,-1.38309 12.584097,-1.38683 17.153005,-0.008 1.729774,0.52217 3.604357,1.57088 4.818832,2.69582 0.868985,0.80491 1.931417,2.33709 2.584769,3.72758 0.298991,0.63631 0.543614,1.22338 0.543614,1.30459 0,0.0812 -0.156678,0.21314 -0.348176,0.29314 -0.44764,0.18705 -0.531552,0.18319 -0.657095,-0.0302 z m -28.738491,-0.53866 c -0.151856,-0.11329 -0.276102,-0.27441 -0.276102,-0.35803 0,-0.25597 1.046887,-1.6533 1.721646,-2.29797 0.660159,-0.63072 1.809441,-1.45042 2.595593,-1.85125 0.734962,-0.37473 2.98541,-1.09991 4.066235,-1.3103 1.596674,-0.3108 3.574962,-0.42605 6.224855,-0.36263 4.344509,0.10397 7.067031,0.77713 9.337283,2.30869 0.793508,0.53531 1.955614,1.58594 1.956843,1.76913 0.0012,0.19064 -0.498123,0.7083 -0.683308,0.7083 -0.07959,0 -0.447639,-0.28577 -0.817886,-0.63504 -2.241213,-2.11425 -5.867276,-3.17695 -10.847141,-3.17899 -5.768872,-0.003 -9.809163,1.52514 -12.064354,4.56115 -0.349997,0.47117 -0.704129,0.85584 -0.786959,0.85481 -0.08283,-8.4e-4 -0.274848,-0.0946 -0.426705,-0.20787 z m 3.708517,-0.47084 c -0.148383,-0.15488 -0.269786,-0.35842 -0.269786,-0.45232 0,-0.24248 1.192087,-1.09284 2.274974,-1.62283 1.487609,-0.72808 3.226722,-1.17139 5.366819,-1.36802 1.434418,-0.1318 4.259238,-0.0769 4.422075,0.0859 0.07277,0.0727 0.0785,0.23504 0.01743,0.49314 l -0.09102,0.38467 -2.004203,0.0145 c -2.173708,0.0158 -3.47126,0.16724 -5.06643,0.59142 -1.138622,0.30278 -2.734601,1.05787 -3.581476,1.69448 -0.336994,0.25333 -0.65454,0.4606 -0.705656,0.4606 -0.05112,0 -0.214342,-0.12672 -0.362725,-0.28161 z m -6.325255,-4.31726 c -0.148383,-0.15487 -0.269787,-0.3414 -0.269787,-0.41449 0,-0.22038 1.291926,-1.5224 2.153821,-2.17065 1.588533,-1.19477 3.266756,-1.94279 5.609948,-2.50048 2.878,-0.68498 5.741015,-0.92044 10.007188,-0.82301 2.699467,0.0617 4.002589,0.18423 5.98013,0.56254 1.181784,0.22608 3.521261,0.95172 3.744847,1.16153 0.111299,0.10444 0.114084,0.19679 0.01499,0.49703 -0.06693,0.20282 -0.177948,0.39034 -0.246692,0.41672 -0.06875,0.0264 -0.730609,-0.15402 -1.470806,-0.40089 -2.615658,-0.87237 -5.136627,-1.19271 -9.428089,-1.19802 -3.973109,-0.005 -6.452456,0.27071 -8.985879,0.99896 -2.28632,0.65721 -4.099738,1.68216 -5.667065,3.20303 -0.538086,0.52213 -1.022098,0.94933 -1.075583,0.94933 -0.05349,0 -0.218649,-0.12672 -0.367031,-0.2816 z m 33.31813,-0.92793 c -1.72203,-2.52028 -4.261202,-4.23521 -7.651042,-5.16743 -2.556555,-0.70308 -4.808064,-0.95184 -9.420929,-1.04088 l -3.212829,-0.062 -0.03087,-0.4267 -0.03088,-0.4267 h 3.81481 c 4.901237,0 7.080381,0.2358 9.816467,1.06219 2.429168,0.73371 4.427051,1.90079 6.068375,3.54491 0.940219,0.94182 2.098886,2.43804 2.098886,2.71034 0,0.16154 -0.513405,0.51383 -0.748823,0.51383 -0.159532,0 -0.352199,-0.19387 -0.703169,-0.70752 z m -32.524783,-3.31622 c -0.350279,-0.41628 -0.32952,-0.54303 0.145274,-0.88697 1.203461,-0.87177 3.887854,-1.89627 6.193897,-2.36387 1.36519,-0.27682 4.166941,-0.60782 4.397173,-0.51947 0.182065,0.0699 0.202637,0.77182 0.02775,0.94671 -0.06626,0.0663 -0.289852,0.12049 -0.496861,0.12049 -0.20701,0 -0.909565,0.0696 -1.561234,0.15473 -3.090249,0.40356 -5.564954,1.17978 -7.53033,2.36199 -0.452885,0.27241 -0.844197,0.49531 -0.869582,0.49531 -0.02539,0 -0.163123,-0.13901 -0.306082,-0.30892 z"
       id="path828"
       inkscape:connector-curvature="0" />
  </g>
</svg>
