<?xml version="1.0" encoding="UTF-8" standalone="no"?>
<!-- Created with Inkscape (http://www.inkscape.org/) -->

<svg
   xmlns:dc="http://purl.org/dc/elements/1.1/"
   xmlns:cc="http://creativecommons.org/ns#"
   xmlns:rdf="http://www.w3.org/1999/02/22-rdf-syntax-ns#"
   xmlns:svg="http://www.w3.org/2000/svg"
   xmlns="http://www.w3.org/2000/svg"
   xmlns:sodipodi="http://sodipodi.sourceforge.net/DTD/sodipodi-0.dtd"
   xmlns:inkscape="http://www.inkscape.org/namespaces/inkscape"
   width="96"
   height="96"
   id="svg4874"
   version="1.1"
   inkscape:version="0.92.4 (5da689c313, 2019-01-14)"
   viewBox="0 0 96 96.000001"
   sodipodi:docname="irrigation.svg">
  <defs
     id="defs4876" />
  <sodipodi:namedview
     id="base"
     pagecolor="#ffffff"
     bordercolor="#666666"
     borderopacity="1.0"
     inkscape:pageopacity="0.0"
     inkscape:pageshadow="2"
     inkscape:zoom="8.9919988"
     inkscape:cx="18.629722"
     inkscape:cy="38.242072"
     inkscape:document-units="px"
     inkscape:current-layer="g4780"
     showgrid="true"
     showborder="true"
     fit-margin-top="0"
     fit-margin-left="0"
     fit-margin-right="0"
     fit-margin-bottom="0"
     inkscape:snap-bbox="true"
     inkscape:bbox-paths="true"
     inkscape:bbox-nodes="true"
     inkscape:snap-bbox-edge-midpoints="true"
     inkscape:snap-bbox-midpoints="true"
     inkscape:object-paths="true"
     inkscape:snap-intersection-paths="true"
     inkscape:object-nodes="true"
     inkscape:snap-smooth-nodes="true"
     inkscape:snap-midpoints="true"
     inkscape:snap-object-midpoints="true"
     inkscape:snap-center="true"
     showguides="true"
     inkscape:guide-bbox="true"
     inkscape:snap-global="true"
     inkscape:window-width="2792"
     inkscape:window-height="1698"
     inkscape:window-x="88"
     inkscape:window-y="44"
     inkscape:window-maximized="1">
    <inkscape:grid
       type="xygrid"
       id="grid5451"
       empspacing="8" />
    <sodipodi:guide
       orientation="1,0"
       position="8,-8.0000001"
       id="guide4063"
       inkscape:locked="false" />
    <sodipodi:guide
       orientation="1,0"
       position="4,-8.0000001"
       id="guide4065"
       inkscape:locked="false" />
    <sodipodi:guide
       orientation="0,1"
       position="-8,88.000001"
       id="guide4067"
       inkscape:locked="false" />
    <sodipodi:guide
       orientation="0,1"
       position="-8,92.000001"
       id="guide4069"
       inkscape:locked="false" />
    <sodipodi:guide
       orientation="0,1"
       position="104,4"
       id="guide4071"
       inkscape:locked="false" />
    <sodipodi:guide
       orientation="0,1"
       position="-5,8.0000001"
       id="guide4073"
       inkscape:locked="false" />
    <sodipodi:guide
       orientation="1,0"
       position="88,-8.0000001"
       id="guide4077"
       inkscape:locked="false" />
    <sodipodi:guide
       orientation="0,1"
       position="-8,84.000001"
       id="guide4074"
       inkscape:locked="false" />
    <sodipodi:guide
       orientation="1,0"
       position="12,-8.0000001"
       id="guide4076"
       inkscape:locked="false" />
    <sodipodi:guide
       orientation="1,0"
       position="84,-8.0000001"
       id="guide4080"
       inkscape:locked="false" />
    <sodipodi:guide
       position="48,-8.0000001"
       orientation="1,0"
       id="guide4170"
       inkscape:locked="false" />
    <sodipodi:guide
       position="-8,48"
       orientation="0,1"
       id="guide4172"
       inkscape:locked="false" />
    <sodipodi:guide
       position="92,-8.0000001"
       orientation="1,0"
       id="guide4760"
       inkscape:locked="false" />
  </sodipodi:namedview>
  <metadata
     id="metadata4879">
    <rdf:RDF>
      <cc:Work
         rdf:about="">
        <dc:format>image/svg+xml</dc:format>
        <dc:type
           rdf:resource="http://purl.org/dc/dcmitype/StillImage" />
        <dc:title></dc:title>
      </cc:Work>
    </rdf:RDF>
  </metadata>
  <g
     inkscape:label="Layer 1"
     inkscape:groupmode="layer"
     id="layer1"
     transform="translate(67.857146,-78.50504)">
    <g
       transform="matrix(0,-1,-1,0,373.50506,516.50504)"
       id="g4845"
       style="display:inline">
      <g
         inkscape:export-ydpi="90"
         inkscape:export-xdpi="90"
         inkscape:export-filename="next01.png"
         transform="matrix(-0.9996045,0,0,1,575.94296,-611.00001)"
         id="g4778"
         inkscape:label="Layer 1">
        <g
           transform="matrix(-1,0,0,1,575.99999,611)"
           id="g4780"
           style="display:inline">
          <rect
             style="color:#000000;display:inline;overflow:visible;visibility:visible;fill:none;stroke:none;stroke-width:4;marker:none;enable-background:accumulate"
             id="rect4782"
             width="96.037987"
             height="96"
             x="-438.00244"
             y="345.36221"
             transform="scale(-1,1)" />
          <path
             style="color:#000000;display:inline;overflow:visible;visibility:visible;fill:#808080;fill-opacity:1;fill-rule:nonzero;stroke:none;stroke-width:3;marker:none;enable-background:accumulate"
             d="m 363.73764,393.75985 c 0,6.20596 5.03079,11.23696 11.23678,11.23696 1.23225,0 2.4145,-0.2078 3.52391,-0.57429 0.11279,-0.0375 0.22912,-0.067 0.34033,-0.10764 0.94707,-0.28613 14.711,-4.48106 27.05409,-10.56657 0,0 -8.7e-4,0 -0.003,0 -8.7e-4,0 -0.003,0 -0.006,0 -0.002,0 -0.005,0 -0.006,0 -10e-4,0 -0.003,0 -0.003,0 -13.48078,-6.50207 -27.37612,-10.6352 -27.37612,-10.6352 v 0 c -1.10877,-0.36602 -2.29241,-0.56696 -3.52385,-0.56696 -6.20601,0 -11.23681,5.03084 -11.23681,11.2368 z"
             id="path4253"
             inkscape:connector-curvature="0"
             inkscape:transform-center-y="-74.885928"
             inkscape:transform-center-x="-8.5053576e-06" />
          <path
             inkscape:transform-center-x="-91.389306"
             inkscape:transform-center-y="-62.666565"
             inkscape:connector-curvature="0"
             id="path4248-8"
             d="m 374.2764,366.74653 c 0,5.19327 4.20985,9.40332 9.4031,9.40332 1.03116,0 2.0205,-0.17395 2.94886,-0.48068 0.0944,-0.0312 0.19173,-0.0561 0.28477,-0.0905 0.79255,-0.23948 12.31041,-3.74997 22.63929,-8.84229 0,0 -8.9e-4,0 -0.002,0 -8.9e-4,0 -0.003,0 -0.006,0 -0.002,0 -0.003,0 -0.005,0 -0.001,0 -0.002,0 -0.002,0 -11.28092,-5.44086 -22.90874,-8.8997 -22.90874,-8.8997 v 0 c -0.92783,-0.30626 -1.91833,-0.47444 -2.94883,-0.47444 -5.19325,0 -9.40311,4.2099 -9.40311,9.40316 z"
             style="color:#000000;display:inline;overflow:visible;visibility:visible;fill:#808080;fill-opacity:1;fill-rule:nonzero;stroke:none;stroke-width:3;marker:none;enable-background:accumulate" />
          <path
             inkscape:transform-center-x="81.943867"
             inkscape:transform-center-y="-56.189419"
             inkscape:connector-curvature="0"
             id="path4250-0"
             d="m 376.03287,420.78051 c 0,4.65642 3.77476,8.43135 8.43131,8.43135 0.92458,0 1.81167,-0.15601 2.6441,-0.43091 0.0846,-0.0281 0.17191,-0.0499 0.25535,-0.0812 0.71063,-0.21468 11.03813,-3.36228 20.29954,-7.92835 0,0 -8.8e-4,0 -0.002,0 -8.8e-4,0 -0.003,0 -0.005,0 -10e-4,0 -0.003,0 -0.005,0 -8.9e-4,0 -0.002,0 -0.002,0 -10.11507,-4.87858 -20.54117,-7.97985 -20.54117,-7.97985 v 0 c -0.83195,-0.27474 -1.72006,-0.42545 -2.64408,-0.42545 -4.65654,0 -8.43132,3.77493 -8.43132,8.43151 z"
             style="color:#000000;display:inline;overflow:visible;visibility:visible;fill:#808080;fill-opacity:1;fill-rule:nonzero;stroke:none;stroke-width:3;marker:none;enable-background:accumulate" />
        </g>
      </g>
    </g>
  </g>
</svg>
