<?xml version="1.0" encoding="UTF-8"?>
<!-- Created with Inkscape (http://www.inkscape.org/) -->
<svg id="svg4874" width="96" height="96" version="1.1" viewBox="0 0 96 96" xmlns="http://www.w3.org/2000/svg" xmlns:cc="http://creativecommons.org/ns#" xmlns:dc="http://purl.org/dc/elements/1.1/" xmlns:rdf="http://www.w3.org/1999/02/22-rdf-syntax-ns#">
 <metadata id="metadata4879">
  <rdf:RDF>
   <cc:Work rdf:about="">
    <dc:format>image/svg+xml</dc:format>
    <dc:type rdf:resource="http://purl.org/dc/dcmitype/StillImage"/>
    <dc:title/>
   </cc:Work>
  </rdf:RDF>
 </metadata>
 <g id="layer1" transform="translate(67.857 -78.505)">
  <rect id="rect4782-45" transform="rotate(90)" x="78.505" y="-28.143" width="96" height="96" style="color:#000000;fill:none"/>
  <path id="path4174" d="m24.144 146.51c0 2.6304-0.23773 4.7117-0.8965 6.4662-0.65858 1.7545-1.8499 3.1599-3.3555 3.9906-3.0112 1.6614-6.6938 1.4842-11.727 1.5424h-0.01134-56.021-0.01134c-5.0327-0.0582-8.7153 0.11905-11.727-1.5424-1.5056-0.83071-2.6968-2.2361-3.3555-3.9906-0.65858-1.7545-0.89647-3.8358-0.89647-6.4662v-36.001c0-2.6304 0.23773-4.7117 0.89647-6.4662 0.65862-1.7545 1.8499-3.1599 3.3555-3.9906 3.0113-1.6614 6.6938-1.4842 11.727-1.5424h0.01134 16.08v3.9984h-16.047c-5.0542 0.0584-8.3709 0.23705-9.8379 1.0465-0.73353 0.40471-1.1527 0.85205-1.543 1.8918-0.39031 1.0398-0.64063 2.6928-0.64063 5.0624v36.001c0 2.3696 0.2502 4.0227 0.64063 5.0624 0.39031 1.0398 0.80946 1.4871 1.543 1.8918 1.4645 0.80804 4.7768 0.98773 9.8164 1.0465h0.02268 55.953 0.02268c5.0383-0.0588 8.3521-0.23856 9.8164-1.0465 0.73353-0.40471 1.1526-0.85205 1.543-1.8918 0.39035-1.0398 0.64063-2.6928 0.64063-5.0624v-36.001c0-2.3696-0.2502-4.0227-0.64063-5.0624-0.39031-1.0398-0.80942-1.4871-1.543-1.8918-1.4643-0.80792-4.7782-0.98769-9.8164-1.0465h-14.025v-3.9984h14.037 0.01134c5.0328 0.0582 8.7153-0.11906 11.727 1.5424 1.5056 0.83071 2.6969 2.2361 3.3555 3.9906 0.65862 1.7545 0.8965 3.8358 0.8965 6.4662v36.001z" style="color-rendering:auto;color:#000000;fill:#808080;font-feature-settings:normal;font-variant-alternates:normal;font-variant-caps:normal;font-variant-ligatures:none;font-variant-numeric:normal;font-variant-position:normal;image-rendering:auto;isolation:auto;mix-blend-mode:normal;shape-padding:0;shape-rendering:auto;solid-color:#000000;text-decoration-color:#000000;text-decoration-line:none;text-decoration-style:solid;text-indent:0;text-transform:none;white-space:normal"/>
  <path id="path5588-9-2-96" d="m-36.856 88.505 0.0076 24c3.6501-1.6688 7.366-3.5359 11.149-5.5987 3.7477-2.0678 7.3628-4.2005 10.843-6.4003-3.48-2.1557-7.0951-4.2681-10.843-6.3358-3.7853-2.0639-7.5033-3.9519-11.155-5.6652z" style="color:#000000;fill:#808080"/>
 </g>
</svg>
