<?xml version="1.0" encoding="UTF-8" standalone="no"?>
<svg
   xmlns:dc="http://purl.org/dc/elements/1.1/"
   xmlns:cc="http://creativecommons.org/ns#"
   xmlns:rdf="http://www.w3.org/1999/02/22-rdf-syntax-ns#"
   xmlns:svg="http://www.w3.org/2000/svg"
   xmlns="http://www.w3.org/2000/svg"
   xmlns:sodipodi="http://sodipodi.sourceforge.net/DTD/sodipodi-0.dtd"
   xmlns:inkscape="http://www.inkscape.org/namespaces/inkscape"
   viewBox="0 0 96 96.000001"
   version="1.1"
   id="svg4874"
   height="96"
   width="96"
   sodipodi:docname="powersocket.svg"
   inkscape:version="0.92.3 (2405546, 2018-03-11)">
  <sodipodi:namedview
     pagecolor="#ffffff"
     bordercolor="#666666"
     borderopacity="1"
     objecttolerance="10"
     gridtolerance="10"
     guidetolerance="10"
     inkscape:pageopacity="0"
     inkscape:pageshadow="2"
     inkscape:window-width="2792"
     inkscape:window-height="1698"
     id="namedview29"
     showgrid="false"
     inkscape:zoom="4.9166667"
     inkscape:cx="-46.727922"
     inkscape:cy="64.085507"
     inkscape:window-x="88"
     inkscape:window-y="44"
     inkscape:window-maximized="1"
     inkscape:current-layer="svg4874">
    <inkscape:grid
       type="xygrid"
       id="grid922" />
  </sodipodi:namedview>
  <defs
     id="defs4876" />
  <metadata
     id="metadata4879">
    <rdf:RDF>
      <cc:Work
         rdf:about="">
        <dc:format>image/svg+xml</dc:format>
        <dc:type
           rdf:resource="http://purl.org/dc/dcmitype/StillImage" />
        <dc:title></dc:title>
      </cc:Work>
    </rdf:RDF>
  </metadata>
  <rect
     transform="rotate(90)"
     y="-95.999985"
     x="8.5593265e-06"
     height="96"
     width="96"
     id="rect4782"
     style="color:#000000;display:inline;overflow:visible;visibility:visible;fill:none;stroke:none;stroke-width:3.99920893;marker:none;enable-background:accumulate" />
  <g
     id="g4672"
     transform="matrix(0.69491525,0,0,0.69491525,14.644068,14.644068)">
    <path
       sodipodi:nodetypes="ssssssscccscccssscccscccss"
       inkscape:connector-curvature="0"
       id="path833"
       d="M 48,6 C 24.82773,5.9999998 6,24.82773 6,48 6,71.17227 24.82773,90 48,90 71.17227,90 90,71.17227 90,48 90,24.82773 71.17227,6 48,6 Z m 0,4 c 10.505255,0 20.005255,4.247373 26.878941,11.121059 1.718422,1.718421 4.637502,5.622369 4.637502,5.622369 L 79.458236,44 c 0,0 2.541764,0 6.345835,0.110817 C 85.933635,45.389393 86,46.686843 86,48 c 0,1.313157 -0.06637,2.610607 -0.195929,3.889183 -3.383454,0.110817 -6.363812,-0.0712 -6.363812,-0.0712 l 0.07618,17.438585 c 0,0 -2.91908,3.903948 -4.637502,5.622369 C 68.005255,81.752627 58.505255,86 48,86 37.494745,86 27.994745,81.752627 21.121059,74.878941 19.402637,73.16052 16.483557,69.256572 16.483557,69.256572 l 0.0043,-17.492517 c 0,0 -2.487832,0.05541 -6.291903,0.125128 C 10.066365,50.610607 10,49.313157 10,48 c 0,-1.313157 0.06819,-2.721423 0.19775,-4 2.595072,0 4.042709,0 6.322237,0 -0.04759,-10.80225 -0.03643,-17.256572 -0.03643,-17.256572 0,0 2.91908,-3.903948 4.637502,-5.622369 C 27.994745,14.247372 37.494745,9.9999999 48,10 Z"
       style="color:#000000;font-style:normal;font-variant:normal;font-weight:normal;font-stretch:normal;font-size:medium;line-height:normal;font-family:sans-serif;font-variant-ligatures:normal;font-variant-position:normal;font-variant-caps:normal;font-variant-numeric:normal;font-variant-alternates:normal;font-feature-settings:normal;text-indent:0;text-align:start;text-decoration:none;text-decoration-line:none;text-decoration-style:solid;text-decoration-color:#000000;letter-spacing:normal;word-spacing:normal;text-transform:none;writing-mode:lr-tb;direction:ltr;text-orientation:mixed;dominant-baseline:auto;baseline-shift:baseline;text-anchor:start;white-space:normal;shape-padding:0;clip-rule:nonzero;display:inline;overflow:visible;visibility:visible;opacity:1;isolation:auto;mix-blend-mode:normal;color-interpolation:sRGB;color-interpolation-filters:linearRGB;solid-color:#000000;solid-opacity:1;vector-effect:none;fill:#808080;fill-opacity:1;fill-rule:nonzero;stroke:none;stroke-width:3.99999976;stroke-linecap:butt;stroke-linejoin:miter;stroke-miterlimit:4;stroke-dasharray:none;stroke-dashoffset:0;stroke-opacity:1;color-rendering:auto;image-rendering:auto;shape-rendering:auto;text-rendering:auto;enable-background:accumulate" />
    <g
       transform="translate(0.32623959)"
       id="g965">
      <circle
         style="opacity:1;fill:#808080;fill-opacity:1;stroke:none;stroke-width:0.37795275;stroke-miterlimit:4;stroke-dasharray:none;stroke-opacity:1"
         id="path957"
         cx="30.419512"
         cy="48"
         r="5" />
      <circle
         r="5"
         cy="48"
         cx="64.928009"
         id="circle959"
         style="opacity:1;fill:#808080;fill-opacity:1;stroke:none;stroke-width:0.37795275;stroke-miterlimit:4;stroke-dasharray:none;stroke-opacity:1" />
    </g>
    <rect
       y="11"
       x="45"
       height="10"
       width="6"
       id="rect961"
       style="opacity:1;fill:#808080;fill-opacity:1;stroke:none;stroke-width:0.37795275;stroke-miterlimit:4;stroke-dasharray:none;stroke-opacity:1" />
    <rect
       style="opacity:1;fill:#808080;fill-opacity:1;stroke:none;stroke-width:0.37795275;stroke-miterlimit:4;stroke-dasharray:none;stroke-opacity:1"
       id="rect967"
       width="6"
       height="10"
       x="45"
       y="75" />
  </g>
  <g
     transform="translate(67.857,-78.504997)"
     id="layer1">
    <rect
       x="78.504997"
       y="-28.143"
       width="96"
       height="96"
       transform="rotate(90)"
       style="color:#000000;fill:none"
       id="rect4782-7" />
    <path
       d="m -43.869,86.504 -0.01172,0.002 c -5.0328,0.05818 -8.7136,-0.12027 -11.725,1.541 -1.5055,0.83064 -2.6968,2.2356 -3.3555,3.9902 -0.65866,1.7547 -0.89648,3.8364 -0.89648,6.4668 v 56.002 c 0,2.6304 0.23782,4.7121 0.89648,6.4668 0.65866,1.7546 1.85,3.1596 3.3555,3.9902 3.011,1.6613 6.6918,1.4848 11.725,1.543 H -43.869 4.154 4.165719 c 5.0328,-0.0582 8.7136,0.11832 11.725,-1.543 1.5055,-0.83064 2.6968,-2.2356 3.3555,-3.9902 0.65866,-1.7547 0.89648,-3.8364 0.89648,-6.4668 V 98.504 c 0,-2.6304 -0.23782,-4.7121 -0.89648,-6.4668 -0.66,-1.759 -1.851,-3.163 -3.356,-3.994 -3.011,-1.661 -6.6922,-1.483 -11.725,-1.541 L 4.1535,86.5002 h -48.023 z m 0.01172,4 h 48 c 5.0383,0.05877 8.3519,0.23688 9.8164,1.0449 0.73364,0.40478 1.1527,0.85491 1.543,1.8945 0.39025,1.0396 0.64062,2.691 0.64062,5.0605 v 56.002 c 0,2.3696 -0.25037,4.0209 -0.64062,5.0606 -0.39025,1.0396 -0.80933,1.4898 -1.543,1.8945 -1.4645,0.80804 -4.7782,0.98616 -9.8164,1.0449 h -47.977 -0.02344 c -5.0383,-0.0588 -8.3519,-0.23688 -9.8164,-1.0449 -0.73364,-0.40478 -1.1508,-0.85491 -1.541,-1.8945 -0.39025,-1.0396 -0.64258,-2.691 -0.64258,-5.0606 v -56.002 c 0,-2.3696 0.25232,-4.0209 0.64258,-5.0605 0.39025,-1.0396 0.80738,-1.4898 1.541,-1.8945 1.4645,-0.80804 4.7782,-0.98616 9.8164,-1.0449 z"
       style="color:#000000;font-variant-ligatures:none;font-variant-position:normal;font-variant-caps:normal;font-variant-numeric:normal;font-variant-alternates:normal;font-feature-settings:normal;text-indent:0;text-decoration:none;text-decoration-line:none;text-decoration-style:solid;text-decoration-color:#000000;text-transform:none;white-space:normal;shape-padding:0;isolation:auto;mix-blend-mode:normal;solid-color:#000000;fill:#808080;color-rendering:auto;image-rendering:auto;shape-rendering:auto"
       id="path4643"
       inkscape:connector-curvature="0" />
  </g>
</svg>
