<?xml version="1.0" encoding="UTF-8" standalone="no"?>
<svg
   xmlns:dc="http://purl.org/dc/elements/1.1/"
   xmlns:cc="http://creativecommons.org/ns#"
   xmlns:rdf="http://www.w3.org/1999/02/22-rdf-syntax-ns#"
   xmlns:svg="http://www.w3.org/2000/svg"
   xmlns="http://www.w3.org/2000/svg"
   xmlns:sodipodi="http://sodipodi.sourceforge.net/DTD/sodipodi-0.dtd"
   xmlns:inkscape="http://www.inkscape.org/namespaces/inkscape"
   sodipodi:docname="qrcode.svg"
   viewBox="0 0 96 96.000001"
   inkscape:version="1.0 (1.0+r73+1)"
   version="1.1"
   id="svg4874"
   height="96"
   width="96">
  <defs
     id="defs4876" />
  <sodipodi:namedview
     inkscape:window-maximized="1"
     inkscape:window-y="27"
     inkscape:window-x="60"
     inkscape:window-height="873"
     inkscape:window-width="1380"
     inkscape:document-rotation="0"
     inkscape:guide-bbox="true"
     showguides="true"
     inkscape:snap-center="true"
     inkscape:snap-object-midpoints="true"
     inkscape:snap-midpoints="true"
     inkscape:snap-smooth-nodes="true"
     inkscape:object-nodes="true"
     inkscape:snap-intersection-paths="true"
     inkscape:object-paths="true"
     inkscape:snap-bbox-midpoints="true"
     inkscape:snap-bbox-edge-midpoints="true"
     inkscape:bbox-nodes="true"
     inkscape:bbox-paths="true"
     inkscape:snap-bbox="true"
     fit-margin-bottom="0"
     fit-margin-right="0"
     fit-margin-left="0"
     fit-margin-top="0"
     showborder="true"
     showgrid="true"
     inkscape:current-layer="g4780"
     inkscape:document-units="px"
     inkscape:cy="45.553096"
     inkscape:cx="-5.5135502"
     inkscape:zoom="2.8658741"
     inkscape:pageshadow="2"
     inkscape:pageopacity="0.0"
     borderopacity="1.0"
     bordercolor="#666666"
     pagecolor="#ffffff"
     id="base">
    <inkscape:grid
       empspacing="8"
       id="grid5451"
       type="xygrid" />
    <sodipodi:guide
       id="guide4063"
       position="8,-8.0000001"
       orientation="1,0" />
    <sodipodi:guide
       id="guide4065"
       position="4,-8.0000001"
       orientation="1,0" />
    <sodipodi:guide
       id="guide4067"
       position="-8,88.000001"
       orientation="0,1" />
    <sodipodi:guide
       id="guide4069"
       position="-8,92.000001"
       orientation="0,1" />
    <sodipodi:guide
       id="guide4071"
       position="104,4"
       orientation="0,1" />
    <sodipodi:guide
       id="guide4073"
       position="-5,8.0000001"
       orientation="0,1" />
    <sodipodi:guide
       id="guide4075"
       position="92,-8.0000001"
       orientation="1,0" />
    <sodipodi:guide
       id="guide4077"
       position="88,-8.0000001"
       orientation="1,0" />
    <sodipodi:guide
       id="guide4074"
       position="-8,84.000001"
       orientation="0,1" />
    <sodipodi:guide
       id="guide4076"
       position="12,-8.0000001"
       orientation="1,0" />
    <sodipodi:guide
       id="guide4078"
       position="-5,12"
       orientation="0,1" />
    <sodipodi:guide
       id="guide4080"
       position="84,-9.0000001"
       orientation="1,0" />
    <sodipodi:guide
       id="guide4170"
       orientation="1,0"
       position="48,-8.0000001" />
    <sodipodi:guide
       id="guide4172"
       orientation="0,1"
       position="-8,48" />
  </sodipodi:namedview>
  <metadata
     id="metadata4879">
    <rdf:RDF>
      <cc:Work
         rdf:about="">
        <dc:format>image/svg+xml</dc:format>
        <dc:type
           rdf:resource="http://purl.org/dc/dcmitype/StillImage" />
        <dc:title></dc:title>
      </cc:Work>
    </rdf:RDF>
  </metadata>
  <g
     transform="translate(67.857146,-78.50504)"
     id="layer1"
     inkscape:groupmode="layer"
     inkscape:label="Layer 1">
    <g
       style="display:inline"
       id="g4845"
       transform="matrix(0,-1,-1,0,373.50506,516.50504)">
      <g
         inkscape:label="Layer 1"
         id="g4778"
         transform="matrix(-0.9996045,0,0,1,575.94296,-611.00001)"
         inkscape:export-filename="next01.png"
         inkscape:export-xdpi="90"
         inkscape:export-ydpi="90">
        <g
           style="display:inline"
           id="g4780"
           transform="matrix(-1,0,0,1,575.99999,611)">
          <rect
             transform="scale(-1,1)"
             y="345.36221"
             x="-438.00244"
             height="96"
             width="96.037987"
             id="rect4782"
             style="color:#000000;display:inline;overflow:visible;visibility:visible;fill:none;stroke:none;stroke-width:4;marker:none;enable-background:accumulate" />
          <path
             id="path880"
             d="m 361.19909,433.36222 h 11.23126 V 422.1354 410.90856 h -11.23126 -11.23128 v 11.22684 11.22682 z m 0.0674,-18.95786 h 7.80136 v 7.73104 7.73102 h -7.80136 -7.80136 v -7.73102 -7.73104 z m 0,12.5041 h 4.84223 v -4.84028 -4.84034 h -4.84223 -4.84223 v 4.84034 4.84028 z m -9.6172,-19.09233 h 1.68134 v -1.6134 -1.61345 h 3.08939 3.08934 l 0.0378,1.57984 0.0378,1.57981 7.9695,0.0346 7.96945,0.0346 v 3.15858 3.15859 h 1.6141 1.61408 v 1.61344 1.61341 h 1.61407 1.61408 v 1.54621 1.5462 h -3.23229 -3.2323 l 0.0378,1.64708 0.0378,1.64701 1.58044,0.0378 1.58046,0.0378 v 1.54196 1.54192 h 1.61407 1.61408 v 1.5462 1.54621 h -3.22815 -3.22815 v 1.68068 1.68067 h 8.07037 8.07037 v -3.22689 -3.22687 h 1.54682 1.54683 v 3.22687 3.22689 h 4.84223 4.84222 v -1.68067 -1.68068 h -1.61407 -1.61408 v -3.08811 -3.08818 l 1.58045,-0.0378 1.58046,-0.0378 0.0344,-9.57973 0.0344,-9.5798 h 1.54594 1.54592 v 1.61346 1.61343 h 1.61407 1.61408 v -1.68068 -1.68063 h -1.54682 -1.54683 v -1.54622 -1.54621 h 3.09365 3.09365 v 3.22685 3.22689 h 1.68371 1.6837 l -0.036,-3.26051 -0.036,-3.26047 -1.58041,-0.0377 -1.58048,-0.0378 v -4.70159 -4.70157 h 1.61409 1.61408 v -1.61345 -1.61341 h 1.54682 1.54681 v 3.15962 3.15964 h -1.61821 -1.6182 l 0.0377,1.64707 0.0378,1.64702 1.58044,0.0378 1.58044,0.0378 v 4.76881 4.76883 h 4.84223 4.84219 v -1.68068 -1.68064 h -1.61402 -1.61409 v -1.54621 -1.54622 h 1.61409 1.61402 v -3.22687 -3.22687 h -1.61402 -1.61409 v -1.5462 -1.54619 h 1.61409 1.61402 v -4.84032 -4.84032 h -3.22811 -3.22816 v 1.61344 1.61345 h -1.5444 -1.54438 l -0.036,-3.19327 -0.036,-3.19323 -1.6477,-0.0377 -1.64771,-0.0378 v 1.61757 1.61758 h -1.61408 -1.61407 v 1.61341 1.61344 h -3.09365 -3.09365 v -1.54618 -1.54621 h 1.54687 1.54678 v -1.68066 -1.68068 h -3.15662 -3.15662 l -0.0378,-1.57983 -0.0377,-1.5798 -4.74138,-0.0354 -4.74133,-0.0356 v -4.70411 -4.70414 h 1.47957 1.47957 v 3.15967 3.15963 h 1.68132 1.68131 v -1.5462 -1.54621 h 1.61407 1.6141 v -1.68067 -1.68068 h -1.6141 -1.61407 v -1.54621 -1.5462 h 1.61407 1.6141 v -4.84027 -4.84034 h -1.68131 -1.68134 v 1.61344 1.61344 h -1.54683 -1.54682 v -1.61344 -1.61344 h -4.84221 -4.84225 v 1.61344 1.61344 h -1.54681 -1.54682 v -1.61344 -1.61344 h -3.22817 -3.22815 v 1.61344 1.61344 h -3.16089 -3.16088 v -1.61344 -1.61344 H 361.19896 349.9677 v 1.68068 1.68064 h 1.61407 1.61405 v 3.09244 3.09241 h -1.61405 -1.61407 v 1.68064 1.68067 h 1.61407 1.61405 v 3.15967 3.15963 h -1.61405 -1.61407 v 1.61342 1.61346 h 3.22812 3.22816 v 1.61341 1.61345 h 1.54683 1.5468 v 1.5462 1.5462 h -1.5468 -1.54683 v 1.68238 1.68237 l 4.80861,-0.0353 4.80859,-0.0352 0.0378,-1.57982 0.0377,-1.57979 h 6.3175 6.31755 v 4.70583 4.70585 h -1.61409 -1.61407 v 1.61341 1.61345 h -1.54683 -1.54682 v -4.77306 -4.77312 h -1.61408 -1.61407 v 1.54533 1.54531 l -9.58356,0.0344 -9.58357,0.0344 v 4.84033 4.84031 l 1.58043,0.0378 1.58048,0.0378 v 3.08815 3.08815 h -1.61408 -1.6141 v 1.68068 1.68065 z m 3.22815,-44.77281 h 1.54682 v 1.54622 1.5462 h -1.54682 -1.54681 v -1.5462 -1.54622 z m 3.16089,35.22667 h 1.61408 v -1.61343 -1.61343 h 1.5468 1.54683 v 3.0924 3.09244 h -3.16087 -3.16091 v -1.47897 -1.47901 z m -0.0674,-6.45372 h 1.54682 v 1.5462 1.54621 h -1.54682 -1.54682 v -1.54621 -1.5462 z m 0.0674,-22.31918 h 1.61408 v -4.84033 -4.84029 h 1.61408 1.61408 v -1.54621 -1.54623 h 4.70773 4.7077 v 3.15967 3.15962 h 3.22814 3.22815 v 1.54622 1.5462 h -8.00311 -8.00314 v 3.22689 3.2269 h -1.61403 -1.61409 v 1.54617 1.54621 h -1.54683 -1.54683 v -3.09238 -3.09244 z m 6.38905,31.86534 h 1.54682 v 1.54618 1.54621 h -1.54682 -1.54681 v -1.54621 -1.54618 z m 1.61408,-9.54616 h 3.16091 v 1.5462 1.54621 h -3.16091 -3.16089 v -1.54621 -1.5462 z m 1.61407,6.45372 h 1.54684 v 1.47901 1.47897 h -1.54684 -1.54681 v -1.47897 -1.47901 z m 3.16092,-28.7729 h 4.70769 v 4.70585 4.70586 h -4.70769 -4.70773 v -4.70586 -4.70585 z m 0,6.31929 h 1.61407 v -1.61344 -1.61341 h -1.61407 -1.61408 v 1.61341 1.61344 z m -0.0674,19.22675 h 1.54681 v 1.54619 1.54621 h -1.54681 -1.54681 v -1.54621 -1.54619 z m 6.45633,9.54615 h 1.54681 v 1.54622 1.54621 h -1.54681 -1.54684 v -1.54621 -1.54622 z m 0.0336,-6.34862 1.58048,-0.0378 0.0377,-1.57558 0.0378,-1.57561 1.57624,-0.0378 1.57621,-0.0377 0.036,-3.19324 0.036,-3.19326 h 1.54437 1.54441 v -1.54623 -1.54619 h 1.54681 1.54681 v 3.08812 3.08819 l -1.58044,0.0378 -1.58045,0.0377 v 1.61345 1.61342 l 1.64772,0.0376 1.6477,0.0376 v -1.61759 -1.61755 h 1.61405 1.61407 v -1.61343 -1.61344 h 4.70773 4.70772 v 1.61344 1.61343 h 1.61164 1.61164 l 0.036,3.19325 0.036,3.19328 1.58048,0.0377 1.58043,0.0378 v 1.47471 1.4747 h -3.16091 -3.16089 v -3.15961 -3.15965 h -1.61407 -1.61407 v -1.61346 -1.61339 h -1.61407 -1.61408 v 1.68064 1.68067 h 1.54434 1.54434 l 0.036,3.126 0.0364,3.12604 1.58045,0.0377 1.58047,0.0378 v 1.5377 1.53768 l -1.58047,0.0378 -1.58045,0.0377 -0.036,3.19326 -0.036,3.19324 h -1.54437 -1.5444 v 1.61345 1.61342 h -1.54682 -1.54681 v -3.15537 -3.15538 l 1.58044,-0.0378 1.58045,-0.0378 v -1.61344 -1.61343 l -3.26178,-0.036 -3.26176,-0.036 v 1.61583 1.61583 h -1.54682 -1.54685 v -4.77309 -4.77308 h -1.61408 -1.61406 v 3.15964 3.15963 h -1.54255 -1.54255 l -0.0377,-1.57979 -0.0378,-1.57984 -1.58044,-0.0378 -1.58046,-0.0378 v -1.47046 -1.47045 z m 14.35857,3.12177 h 3.29539 v -1.61343 -1.61347 h -3.29539 -3.2954 v 1.61347 1.61343 z m -11.16402,9.68059 h 1.54682 v 1.54623 1.54621 h -1.54682 -1.54681 v -1.54621 -1.54623 z m 0,-31.99979 h 1.54682 v 1.54621 1.54621 h -1.54682 -1.54681 v -1.54621 -1.54621 z m 0,-12.77302 h 1.54682 v 1.5462 1.54622 h -1.54682 -1.54681 v -1.54622 -1.5462 z m 0,-9.54618 h 1.54682 v 1.54623 1.54621 h -1.54682 -1.54681 v -1.54621 -1.54623 z m 3.16087,63.86516 h 1.4796 v 1.54621 1.54621 h -1.4796 -1.47953 v -1.54621 -1.54621 z m 0,-12.77306 h 1.4796 v 1.54622 1.54621 h -1.4796 -1.47953 v -1.54621 -1.54622 z m 1.61409,-38.31904 h 3.09366 v 3.15964 3.15965 h 3.22814 3.22815 v 1.54621 1.54621 h -4.77497 -4.77498 v -1.61345 -1.61344 h -1.54683 -1.54679 v -3.09238 -3.09244 z m 1.54685,57.41137 h 1.54681 v 1.54622 1.54622 h -1.54681 -1.54685 v -1.54622 -1.54622 z m 0,-9.54615 h 1.54681 v 1.5462 1.54622 h -1.54681 -1.54685 v -1.54622 -1.5462 z m 0,-6.31929 h 1.54681 v 1.54623 1.54621 h -1.54681 -1.54685 v -1.54621 -1.54623 z m 0.0674,-51.22655 h 1.61408 v -1.54621 -1.54623 h 1.54683 1.54684 v 6.31929 6.31931 h -1.54684 -1.54683 v -1.61344 -1.61345 h -1.61408 -1.61407 v -3.15962 -3.15965 z m 4.77499,22.45365 h 3.16091 v 1.54621 1.54617 h -3.16091 -3.16091 v -1.54617 -1.54621 z m 4.77499,38.31907 h 4.70769 v 1.54621 1.54621 h -4.70769 -4.70773 v -1.54621 -1.54621 z m 0,-63.86516 h 1.47957 v 3.09244 3.09242 h -1.47957 -1.4796 v -3.09242 -3.09244 z m 3.16087,54.31899 h 1.54682 v 1.54623 1.54621 h -1.54682 -1.5468 v -1.54621 -1.54623 z m 0,-31.99979 h 1.54682 v 1.54621 1.54621 h -1.54682 -1.5468 v -1.54621 -1.54621 z m 3.22815,3.22689 h 1.54684 v 1.54621 1.54617 h -1.54684 -1.54682 v -1.54617 -1.54621 z m 4.84224,6.31929 h 3.1609 v 1.54618 1.54623 h -3.1609 -3.16089 v -1.54623 -1.54618 z m 1.61409,6.45372 h 1.54681 v 1.54619 1.54621 h -1.54681 -1.54686 v -1.54621 -1.54619 z m 6.32178,-9.54616 h 1.54681 v 1.479 1.47895 h -1.54681 -1.54684 v -1.47895 -1.479 z m 9.54991,12.77302 h 1.54687 v 1.47901 1.47897 h -1.54687 -1.54681 v -1.47897 -1.47901 z m -73.44038,-15.99987 h 1.68133 v -1.68068 -1.68064 h -1.68133 -1.68135 v 1.68064 1.68068 z m 67.11862,51.0921 h 11.23128 V 422.1354 410.90856 H 418.768 407.53673 v 11.22684 11.22682 z m -0.0674,-18.95786 h 7.80134 v 7.73104 7.73102 h -7.80134 -7.80135 v -7.73102 -7.73104 z m 0,12.5041 h 4.84222 v -4.84028 -4.84034 h -4.84222 -4.84222 v 4.84034 4.84028 z m 0.0674,-51.09208 h 11.23128 V 364.58954 353.36273 H 418.768 407.53673 v 11.22681 11.22684 z m -0.0674,-18.95786 h 7.80134 v 7.73102 7.73104 h -7.80134 -7.80135 v -7.73104 -7.73102 z m 0,12.63857 h 4.84222 v -4.84033 -4.84029 h -4.84222 -4.84222 v 4.84029 4.84033 z"
             style="fill:#808080;fill-opacity:1;stroke-width:0.13448" />
        </g>
      </g>
    </g>
  </g>
</svg>
