<?xml version="1.0" encoding="UTF-8" standalone="no"?>
<svg
   xmlns:dc="http://purl.org/dc/elements/1.1/"
   xmlns:cc="http://creativecommons.org/ns#"
   xmlns:rdf="http://www.w3.org/1999/02/22-rdf-syntax-ns#"
   xmlns:svg="http://www.w3.org/2000/svg"
   xmlns="http://www.w3.org/2000/svg"
   version="1.1"
   width="96"
   viewBox="0 0 96 96.000001"
   height="96"
   id="svg4874">
  <defs
     id="defs875" />
  <metadata
     id="metadata4879">
    <rdf:RDF>
      <cc:Work
         rdf:about="">
        <dc:format>image/svg+xml</dc:format>
        <dc:type
           rdf:resource="http://purl.org/dc/dcmitype/StillImage" />
        <dc:title></dc:title>
      </cc:Work>
    </rdf:RDF>
  </metadata>
  <path
     id="rect4199"
     style="color:#000000;fill:#808080;stroke-width:2.82842588"
     d="m 45.99995,81.99995 h 4 V 18 h -4 z" />
  <rect
     id="rect4782"
     style="color:#000000;fill:none"
     transform="rotate(90)"
     height="96"
     width="96"
     y="-96"
     x="-2.7465819e-06" />
  <path
     id="path4179"
     style="color:#000000;font-variant-ligatures:none;font-variant-position:normal;font-variant-caps:normal;font-variant-numeric:normal;font-variant-alternates:normal;font-feature-settings:normal;text-indent:0;text-decoration:none;text-decoration-line:none;text-decoration-style:solid;text-decoration-color:#000000;text-transform:none;white-space:normal;shape-padding:0;isolation:auto;mix-blend-mode:normal;solid-color:#000000;fill:#808080;color-rendering:auto;image-rendering:auto;shape-rendering:auto"
     d="m 29.976,12.001 c -5.0328,0.05818 -8.7136,-0.12028 -11.725,1.541 -1.5055,0.83064 -2.6968,2.2356 -3.3555,3.9902 -0.65866,1.7547 -0.89648,3.8383 -0.89648,6.4688 v 52 c 0,2.6304 0.23782,4.7121 0.89648,6.4668 0.65866,1.7546 1.85,3.1596 3.3555,3.9902 3.011,1.6613 6.6918,1.4848 11.725,1.543 h 0.01172 36.023 0.01172 c 5.0328,-0.0582 8.7136,0.11832 11.725,-1.543 1.5055,-0.83064 2.6968,-2.2356 3.3555,-3.9902 0.65866,-1.7547 0.89648,-3.8364 0.89648,-6.4668 v -52 c 0,-2.6304 -0.23782,-4.7141 -0.89648,-6.4688 -0.66,-1.759 -1.851,-3.163 -3.356,-3.994 -3.011,-1.661 -6.692,-1.483 -11.725,-1.541 h -0.01172 -36.023 -0.01172 z m 0.02344,4 h 36 c 5.0383,0.05877 8.3519,0.23688 9.8164,1.0449 0.73364,0.40478 1.1527,0.85295 1.543,1.8926 0.39025,1.0396 0.64062,2.6929 0.64062,5.0625 v 52 c 0,2.3696 -0.25037,4.0229 -0.64062,5.0625 -0.39025,1.0396 -0.80933,1.4878 -1.543,1.8926 -1.4645,0.80804 -4.7782,0.98616 -9.8164,1.0449 H 30.02244 29.999 c -5.0383,-0.0588 -8.3519,-0.23688 -9.8164,-1.0449 -0.73364,-0.40478 -1.1508,-0.85296 -1.541,-1.8926 -0.39025,-1.0396 -0.64258,-2.6929 -0.64258,-5.0625 v -52 c 0,-2.3696 0.25232,-4.0229 0.64258,-5.0625 0.39025,-1.0396 0.80738,-1.4878 1.541,-1.8926 1.4645,-0.80804 4.7782,-0.98616 9.8164,-1.0449 z" />
  <path
     d="m 29.99995,81.99995 h 4 V 18 h -4 z"
     style="color:#000000;fill:#808080;stroke-width:2.82842588"
     id="path2070" />
  <path
     id="path2072"
     style="color:#000000;fill:#808080;stroke-width:2.82842588"
     d="m 61.99995,81.99995 h 4 V 18 h -4 z" />
  <path
     id="path2074"
     style="color:#000000;fill:#808080;stroke-width:1.00000155"
     d="m 16,31.999975 v -4 H 7.999975 v 4 z" />
  <path
     d="m 87.999925,31.999975 v -4 H 80 v 4 z"
     style="color:#000000;fill:#808080;stroke-width:0.99999529"
     id="path2076" />
  <path
     id="path2078"
     style="color:#000000;fill:#808080;stroke-width:1.06065571"
     d="m 87.999925,71.999975 v -4 H 79 v 4 z" />
  <path
     d="m 16,71.999975 v -4 H 7.999975 v 4 z"
     style="color:#000000;fill:#808080;stroke-width:1.00000155"
     id="path2080" />
  <path
     id="path2082"
     style="color:#000000;fill:#808080;stroke-width:0.99999529"
     d="m 87.999963,26.000013 h -4 v 7.999925 h 4 z" />
</svg>
