<?xml version="1.0" encoding="UTF-8" standalone="no"?>
<!-- Created with Inkscape (http://www.inkscape.org/) -->
<svg id="svg4874" xmlns:rdf="http://www.w3.org/1999/02/22-rdf-syntax-ns#" xmlns="http://www.w3.org/2000/svg" height="96" viewBox="0 0 96 96.000001" width="96" version="1.1" xmlns:cc="http://creativecommons.org/ns#" xmlns:dc="http://purl.org/dc/elements/1.1/">
 <metadata id="metadata4879">
  <rdf:RDF>
   <cc:Work rdf:about="">
    <dc:format>image/svg+xml</dc:format>
    <dc:type rdf:resource="http://purl.org/dc/dcmitype/StillImage"/>
    <dc:title/>
   </cc:Work>
  </rdf:RDF>
 </metadata>
 <g id="layer1" transform="translate(67.857 -78.505)">
  <rect id="rect4782" style="color:#000000;fill:none" transform="rotate(90)" height="96" width="96" y="-28.143" x="78.505"/>
  <path id="rect4747-4" d="m-21.857 84.505 4-1v35h-4z" style="color:#000000;fill:#808080"/>
  <path id="path4145" style="color-rendering:auto;text-decoration-color:#000000;color:#000000;font-variant-numeric:normal;shape-rendering:auto;solid-color:#000000;text-decoration-line:none;fill:#808080;font-variant-position:normal;mix-blend-mode:normal;block-progression:tb;font-feature-settings:normal;shape-padding:0;font-variant-alternates:normal;text-indent:0;font-variant-caps:normal;image-rendering:auto;white-space:normal;text-decoration-style:solid;font-variant-ligatures:none;isolation:auto;text-transform:none" d="m-37.852 95.303c-14.099 8.1442-20.983 24.771-16.77 40.504 4.2132 15.732 18.484 26.688 34.764 26.688s30.55-10.955 34.764-26.688c4.2132-15.732-2.669-32.36-16.768-40.504l-2.002 3.4629c12.548 7.244 18.657 22.004 14.907 36.004-3.7501 14.003-16.412 23.723-30.9 23.723s-27.148-9.7195-30.898-23.723c-3.7501-14.003 2.3571-28.758 14.904-36.006l-2-3.4629z"/>
 </g>
</svg>
