<?xml version="1.0" encoding="UTF-8"?>
<!-- Created with Inkscape (http://www.inkscape.org/) -->
<svg id="svg4874" width="96" height="96" version="1.1" viewBox="0 0 96 96" xmlns="http://www.w3.org/2000/svg" xmlns:cc="http://creativecommons.org/ns#" xmlns:dc="http://purl.org/dc/elements/1.1/" xmlns:rdf="http://www.w3.org/1999/02/22-rdf-syntax-ns#">
 <metadata id="metadata4879">
  <rdf:RDF>
   <cc:Work rdf:about="">
    <dc:format>image/svg+xml</dc:format>
    <dc:type rdf:resource="http://purl.org/dc/dcmitype/StillImage"/>
    <dc:title/>
   </cc:Work>
  </rdf:RDF>
 </metadata>
 <g id="layer1" transform="translate(67.857 -78.505)">
  <rect id="rect4782-30" transform="rotate(90)" x="78.505" y="-28.143" width="96" height="96" style="color:#000000;fill:none"/>
  <path id="path4116-17" d="m-21.223 90.588c-3.8018 0.13947-7.624 0.88592-11.326 2.2793-14.809 5.5735-24.24 20.2-23.205 35.988 1.0349 15.789 12.293 29.059 27.703 32.652 15.41 3.5929 31.378-3.3305 39.289-17.033l-3.4648-2c-7.0391 12.192-21.206 18.333-34.916 15.137-13.71-3.1967-23.698-14.97-24.619-29.018-0.92073-14.048 7.4453-27.024 20.621-31.982 13.176-4.9589 28.024-0.7194 36.594 10.449l3.1719-2.4356c-7.2243-9.4147-18.442-14.456-29.848-14.037z" style="color-rendering:auto;color:#000000;fill:#808080;font-feature-settings:normal;font-variant-alternates:normal;font-variant-caps:normal;font-variant-ligatures:none;font-variant-numeric:normal;font-variant-position:normal;image-rendering:auto;isolation:auto;mix-blend-mode:normal;shape-padding:0;shape-rendering:auto;solid-color:#000000;text-decoration-color:#000000;text-decoration-line:none;text-decoration-style:solid;text-indent:0;text-transform:none;white-space:normal"/>
  <path id="path5839-5" d="m10.449 92.17-16.965 16.976c3.7609 1.401 7.7088 2.7082 11.843 3.9248 4.1122 1.1879 8.1765 2.2361 12.193 3.1414-0.93638-3.9851-1.999-8.035-3.1869-12.147-1.2172-4.1361-2.5113-8.1001-3.8821-11.894z" style="color:#000000;fill:#808080"/>
 </g>
</svg>
