<?xml version="1.0" encoding="UTF-8"?>
<!-- Created with Inkscape (http://www.inkscape.org/) -->
<svg id="svg4874" width="96" height="96" version="1.1" viewBox="0 0 96 96" xmlns="http://www.w3.org/2000/svg" xmlns:cc="http://creativecommons.org/ns#" xmlns:dc="http://purl.org/dc/elements/1.1/" xmlns:rdf="http://www.w3.org/1999/02/22-rdf-syntax-ns#">
 <metadata id="metadata4879">
  <rdf:RDF>
   <cc:Work rdf:about="">
    <dc:format>image/svg+xml</dc:format>
    <dc:type rdf:resource="http://purl.org/dc/dcmitype/StillImage"/>
    <dc:title/>
   </cc:Work>
  </rdf:RDF>
 </metadata>
 <g id="layer1" transform="translate(67.857 -78.505)">
  <g id="g4845" transform="matrix(0 -1 -1 0 373.51 516.51)">
   <g id="g4778" transform="matrix(-.9996 0 0 1 575.94 -611)">
    <g id="g4780" transform="matrix(-1 0 0 1 576 611)">
     <rect id="rect4782" transform="scale(-1,1)" x="-438" y="345.36" width="96.038" height="96" style="color:#000000;fill:none"/>
     <path id="path2993" d="m427.74 352.44c-0.0235 0.64229-0.18584 1.3205-0.49593 2.0032l-30.761 79.721c-2.1835 5.4416-5.2211 5.4095-6.5743 0.99147l-6.3844-20.452-23.156-7.038c-2.5539-0.92471-3.5674-0.46828-3.5674-3.1495 0-2.069 0.94403-2.9854 2.0704-4.1373 0.69645-0.71219 5.1114-5.2551 9.6716-9.9442l-15.285-20.681c-2.1008-3.806-1.0138-6.5523 3.5342-7.5005l64.003-13.576c4.5296-1.1294 7.0467 0.97992 6.9449 3.7632zm-18.679 18.657-29.907 33.133a1.6774 1.6767 0 0 1-1.1283 0.55103l-17.42 1.2016c0.13256 0.0451 0.10968 0.0283 0.25258 0.0793l21.928 6.6657 26.275-41.631z" style="fill:#808080"/>
    </g>
   </g>
  </g>
 </g>
</svg>
