<?xml version="1.0" encoding="UTF-8" standalone="no"?>
<!-- Created with Inkscape (http://www.inkscape.org/) -->
<svg id="svg4874" xmlns:rdf="http://www.w3.org/1999/02/22-rdf-syntax-ns#" xmlns="http://www.w3.org/2000/svg" height="96" viewBox="0 0 96 96.000001" width="96" version="1.1" xmlns:cc="http://creativecommons.org/ns#" xmlns:dc="http://purl.org/dc/elements/1.1/">
 <metadata id="metadata4879">
  <rdf:RDF>
   <cc:Work rdf:about="">
    <dc:format>image/svg+xml</dc:format>
    <dc:type rdf:resource="http://purl.org/dc/dcmitype/StillImage"/>
    <dc:title/>
   </cc:Work>
  </rdf:RDF>
 </metadata>
 <g id="layer1" transform="translate(67.857 -78.505)">
  <rect id="rect4782" style="color:#000000;fill:none" transform="rotate(90)" height="96" width="96" y="-28.143" x="78.505"/>
  <path id="path4643" style="color-rendering:auto;text-decoration-color:#000000;color:#000000;font-variant-numeric:normal;shape-rendering:auto;solid-color:#000000;text-decoration-line:none;fill:#808080;font-variant-position:normal;mix-blend-mode:normal;block-progression:tb;font-feature-settings:normal;shape-padding:0;font-variant-alternates:normal;text-indent:0;font-variant-caps:normal;image-rendering:auto;white-space:normal;text-decoration-style:solid;font-variant-ligatures:none;isolation:auto;text-transform:none" d="m-38.828 94.504c-3.971 0.04591-6.9155-0.12972-9.4551 1.2715-1.2698 0.7006-2.2916 1.9086-2.8398 3.3691-0.54825 1.4605-0.73438 3.1517-0.73438 5.2559v44.211c0 2.1041 0.18612 3.7934 0.73438 5.2539 0.54825 1.4605 1.57 2.6686 2.8398 3.3692 2.5396 1.4012 5.4841 1.2256 9.4551 1.2715h0.01172 37.918 0.011719c3.971-0.0459 6.9155 0.12972 9.4551-1.2715 1.2698-0.70061 2.2916-1.9086 2.8398-3.3692 0.54825-1.4605 0.73438-3.1498 0.73438-5.2539v-44.211c0-2.1041-0.18612-3.7953-0.73438-5.2559-0.549-1.46-1.5708-2.668-2.8406-3.369-2.5396-1.401-5.4841-1.225-9.4551-1.271h-0.011719-37.918-0.01172zm0.02344 4h37.895c3.9762 0.04667 6.5534 0.22528 7.5469 0.77344 0.49794 0.27474 0.7475 0.52794 1.0273 1.2734 0.27984 0.7455 0.47852 2.0064 0.47852 3.8496v44.211c0 1.8433-0.19867 3.1022-0.47852 3.8476-0.27984 0.7455-0.5294 0.99871-1.0273 1.2734-0.99351 0.54817-3.5707 0.72678-7.5469 0.77344h-37.871-0.02344c-3.9762-0.0467-6.5534-0.22528-7.5469-0.77344-0.49794-0.27473-0.74555-0.52795-1.0254-1.2734-0.27984-0.74548-0.48047-2.0044-0.48047-3.8476v-44.211c0-1.8433 0.20062-3.1041 0.48047-3.8496 0.27984-0.74549 0.52745-0.9987 1.0254-1.2734 0.99351-0.54816 3.5707-0.72677 7.5469-0.77344z"/>
  <rect id="rect4174" style="color:#000000;fill:#808080" height="4" width="32" y="124.51" x="-35.857"/>
  <path id="rect4195" style="color:#000000;fill:#808080" d="m109.51 17.857h33v4h-32z" transform="rotate(90)"/>
 </g>
</svg>
