<?xml version="1.0" encoding="UTF-8" standalone="no"?>
<!-- Created with Inkscape (http://www.inkscape.org/) -->
<svg id="svg4874" xmlns:rdf="http://www.w3.org/1999/02/22-rdf-syntax-ns#" xmlns="http://www.w3.org/2000/svg" height="96" viewBox="0 0 96 96.000001" width="96" version="1.1" xmlns:cc="http://creativecommons.org/ns#" xmlns:dc="http://purl.org/dc/elements/1.1/">
 <metadata id="metadata4879">
  <rdf:RDF>
   <cc:Work rdf:about="">
    <dc:format>image/svg+xml</dc:format>
    <dc:type rdf:resource="http://purl.org/dc/dcmitype/StillImage"/>
    <dc:title/>
   </cc:Work>
  </rdf:RDF>
 </metadata>
 <g id="layer1" transform="translate(67.857 -78.505)">
  <rect id="rect4782-05" style="color:#000000;fill:none" transform="rotate(90)" height="96" width="96" y="-28.143" x="78.505"/>
  <path id="path4205-0" d="m16.144 164.5h-72v-3.9984h72z" style="color-rendering:auto;text-decoration-color:#000000;color:#000000;font-variant-numeric:normal;shape-rendering:auto;solid-color:#000000;text-decoration-line:none;fill:#808080;font-variant-position:normal;mix-blend-mode:normal;font-feature-settings:normal;shape-padding:0;font-variant-alternates:normal;text-indent:0;font-variant-caps:normal;image-rendering:auto;white-space:normal;text-decoration-style:solid;font-variant-ligatures:normal;isolation:auto;text-transform:none"/>
  <path id="path4207" d="m-17.856 162.51h-4.002v-14h4.002z" style="color-rendering:auto;text-decoration-color:#000000;color:#000000;font-variant-numeric:normal;shape-rendering:auto;solid-color:#000000;text-decoration-line:none;fill:#808080;font-variant-position:normal;mix-blend-mode:normal;font-feature-settings:normal;shape-padding:0;font-variant-alternates:normal;text-indent:0;font-variant-caps:normal;image-rendering:auto;white-space:normal;text-decoration-style:solid;font-variant-ligatures:normal;isolation:auto;text-transform:none"/>
  <ellipse id="path4221" style="color:#000000;fill:#808080" rx="6" ry="6" cy="162.51" cx="-19.857"/>
  <path id="path4179" d="m-47.881 88.506c-5.0328 0.0582-8.7136-0.12018-11.725 1.541-1.5055 0.83067-2.6968 2.2356-3.3555 3.9903-0.65866 1.7546-0.89647 3.8383-0.89647 6.4687v40c0 2.6304 0.23773 4.7122 0.89647 6.4668 0.65866 1.7546 1.85 3.1596 3.3555 3.9902 3.011 1.6613 6.6918 1.4848 11.725 1.543h56.045c5.0328-0.0582 8.7136 0.1183 11.725-1.543 1.5055-0.83066 2.6968-2.2356 3.3555-3.9902s0.89651-3.8364 0.89651-6.4668v-40c0-2.6304-0.23774-4.7141-0.89651-6.4687-0.65866-1.7547-1.85-3.1596-3.3555-3.9903-3.011-1.6612-6.6918-1.4828-11.725-1.541h-56.034zm0.02268 4h56c5.0382 0.0586 8.3518 0.23698 9.8164 1.0449 0.73365 0.40479 1.1527 0.85296 1.543 1.8926 0.39024 1.0396 0.64063 2.693 0.64063 5.0625v40c0 2.3696-0.25058 4.0229-0.64063 5.0625-0.39027 1.0396-0.80934 1.4878-1.543 1.8926-1.4645 0.80803-4.7782 0.98615-9.8164 1.0449h-56c-5.0383-0.0586-8.3519-0.23698-9.8164-1.0449-0.73364-0.40479-1.1508-0.85296-1.541-1.8926-0.39027-1.0396-0.6426-2.693-0.6426-5.0625v-40c0-2.3696 0.25247-4.0229 0.6426-5.0625 0.39024-1.0396 0.80734-1.4878 1.541-1.8926 1.4645-0.80803 4.7782-0.98616 9.8164-1.0449z" style="color-rendering:auto;text-decoration-color:#000000;color:#000000;font-variant-numeric:normal;shape-rendering:auto;solid-color:#000000;text-decoration-line:none;fill:#808080;font-variant-position:normal;mix-blend-mode:normal;font-feature-settings:normal;shape-padding:0;font-variant-alternates:normal;text-indent:0;font-variant-caps:normal;image-rendering:auto;white-space:normal;text-decoration-style:solid;font-variant-ligatures:none;isolation:auto;text-transform:none"/>
  <path id="path4122-16" d="m-1.1825 122.51h-36.674v-4.0004l36.675 0.002z" style="color-rendering:auto;text-decoration-color:#000000;color:#000000;font-variant-numeric:normal;shape-rendering:auto;solid-color:#000000;text-decoration-line:none;fill:#808080;font-variant-position:normal;mix-blend-mode:normal;font-feature-settings:normal;shape-padding:0;font-variant-alternates:normal;text-indent:0;font-variant-caps:normal;image-rendering:auto;white-space:normal;text-decoration-style:solid;font-variant-ligatures:normal;isolation:auto;text-transform:none"/>
  <path id="path5888" style="color:#000000;fill:#808080" d="m-35.858 110.51-0.0038 20c-2.9866-1.3906-6.0272-2.9466-9.1228-4.6656-3.0666-1.7232-6.0246-3.5004-8.8722-5.3336 2.8475-1.7965 5.8056-3.5567 8.8722-5.2798 3.0973-1.72 6.1396-3.2932 9.1278-4.721z"/>
  <path id="path5900" style="color:#000000;fill:#808080" d="m-3.8559 110.51 0.0038 20c2.9866-1.3906 6.0272-2.9466 9.1228-4.6656 3.0666-1.7232 6.0246-3.5004 8.8722-5.3336-2.8475-1.7965-5.8056-3.5567-8.8722-5.2798-3.0973-1.72-6.1396-3.2932-9.1278-4.721z"/>
 </g>
</svg>
