<?xml version="1.0" encoding="UTF-8" standalone="no"?>
<!-- Created with Inkscape (http://www.inkscape.org/) -->
<svg id="svg4874" xmlns:rdf="http://www.w3.org/1999/02/22-rdf-syntax-ns#" xmlns="http://www.w3.org/2000/svg" height="96" viewBox="0 0 96 96.000001" width="96" version="1.1" xmlns:cc="http://creativecommons.org/ns#" xmlns:dc="http://purl.org/dc/elements/1.1/">
 <metadata id="metadata4879">
  <rdf:RDF>
   <cc:Work rdf:about="">
    <dc:format>image/svg+xml</dc:format>
    <dc:type rdf:resource="http://purl.org/dc/dcmitype/StillImage"/>
    <dc:title/>
   </cc:Work>
  </rdf:RDF>
 </metadata>
 <g id="layer1" transform="translate(67.857 -78.505)">
  <rect id="rect4782" style="color:#000000;fill:none" transform="rotate(90)" height="96" width="96" y="-28.143" x="78.505"/>
  <path id="path4178" style="color-rendering:auto;text-decoration-color:#000000;color:#000000;shape-rendering:auto;solid-color:#000000;text-decoration-line:none;fill:#808080;mix-blend-mode:normal;block-progression:tb;shape-padding:0;text-indent:0;image-rendering:auto;white-space:normal;text-decoration-style:solid;isolation:auto;text-transform:none" d="m-19.84 90.506c-15.662-0.0038-31.324 5.0321-44.404 15.109l-1.5859 1.2227 1.2227 1.584 44.75 58.031 46.002-59.594-1.5859-1.2207c-13.076-10.085-28.737-15.13-44.399-15.134z"/>
  <path id="rect4174" style="color:#000000;fill:#808080" d="m81 60c-4.951 0-9 4.049-9 9v3h-2v16h11 11v-16h-2v-3c0-4.951-4.049-9-9-9zm0 4c2.805 0 5 2.195 5 5v3h-10v-3c0-2.805 2.195-5 5-5z" transform="translate(-67.857 78.505)"/>
 </g>
</svg>
