<?xml version="1.0" encoding="UTF-8" standalone="no"?>
<!-- Generator: Adobe Illustrator 19.2.1, SVG Export Plug-In . SVG Version: 6.00 Build 0)  -->

<svg
   version="1.1"
   id="layer"
   x="0px"
   y="0px"
   viewBox="0 0 750 500"
   xml:space="preserve"
   sodipodi:docname="z-wave-plus-wide.svg"
   width="750"
   height="500"
   inkscape:version="1.1.2 (0a00cf5339, 2022-02-04)"
   xmlns:inkscape="http://www.inkscape.org/namespaces/inkscape"
   xmlns:sodipodi="http://sodipodi.sourceforge.net/DTD/sodipodi-0.dtd"
   xmlns="http://www.w3.org/2000/svg"
   xmlns:svg="http://www.w3.org/2000/svg"><defs
   id="defs29">
	
	
	
	
	
	
	
	
	
	
</defs><sodipodi:namedview
   id="namedview27"
   pagecolor="#ffffff"
   bordercolor="#666666"
   borderopacity="1.0"
   inkscape:pageshadow="2"
   inkscape:pageopacity="0.0"
   inkscape:pagecheckerboard="0"
   showgrid="false"
   fit-margin-top="0"
   fit-margin-left="0"
   fit-margin-right="0"
   fit-margin-bottom="0"
   inkscape:zoom="0.37567801"
   inkscape:cx="461.83166"
   inkscape:cy="330.06989"
   inkscape:window-width="1462"
   inkscape:window-height="933"
   inkscape:window-x="74"
   inkscape:window-y="27"
   inkscape:window-maximized="1"
   inkscape:current-layer="layer"
   width="750px" />
<style
   type="text/css"
   id="style2">
	.st0{fill:#FFFFFF;}
	.st1{fill:#808080;}
</style>
<path
   class="st1"
   d="m 124.60014,0 h 500.8 c 33.3,0 60.3,24.4 60.3,54.4 0,-30 -27.1,-54.4 -60.3,-54.4 h -500.8 C 91.300136,0 64.300136,24.4 64.300136,54.4 v 0.8 389.6 0.8 c 0,8.7 2.3,16.9 6.4,24.3 0.9,1.6 1.9,3.2 2.9,4.7 0.6,0.8 1.1,1.6 1.7,2.3 10.9,14 28.900004,23.1 49.300004,23.1 h 500.8 c 24.9,0 46.4,-13.7 55.6,-33.2 3.1,-6.5 4.7,-13.7 4.7,-21.2 v -0.8 0 0 -389.6 c 0,-30 -27.1,-54.4 -60.3,-54.4 h -500.8 C 91.300136,0.8 64.300136,25.2 64.300136,55.2 v -0.8 c -0.1,-30 27,-54.4 60.300004,-54.4 m 196.8,425.7 h -13.5 v 30.4 h -23.8 v -91.6 h 36.4 c 19.7,0 33.3,9.1 33.3,30.1 0,21.7 -11.6,31.1 -32.4,31.1 m 117.9,30.4 h -52.3 v -91.6 h 23.8 v 71.4 h 28.5 z m 111.7,-40.1 c 0,11.8 -0.5,23.4 -9.6,32.3 -7.6,7.5 -19.6,10.2 -30.3,10.2 -10.7,0 -22.7,-2.7 -30.4,-10.2 -9.1,-8.9 -9.6,-20.5 -9.6,-32.3 v -51.5 h 23.8 v 48.2 c 0,11.9 0.9,24.9 16.2,24.9 15.3,0 16.2,-13 16.2,-24.9 v -48.2 h 23.8 V 416 Z m 96.6,33.9 c -7.2,6.1 -16.8,8.6 -26,8.6 -11.5,0 -22.8,-3.9 -32.2,-10.4 l 10.2,-19.2 c 6,5.2 13,9.5 21.1,9.5 5.6,0 11.5,-2.8 11.5,-9.2 0,-6.7 -9.4,-9 -14.4,-10.4 -14.9,-4.3 -24.8,-8.1 -24.8,-25.9 0,-18.6 13.2,-30.7 31.6,-30.7 9.2,0 20.5,2.9 28.7,7.5 l -9.5,18.5 c -4.4,-3.6 -10,-6.1 -15.8,-6.1 -4.4,0 -10.2,2.5 -10.2,7.6 0,5.3 6.4,7.4 10.6,8.7 l 6.1,1.8 c 12.7,3.8 22.6,10.2 22.6,25 0,9.2 -2.2,18.5 -9.5,24.7 M 80.400136,55.2 c 0,-21.1 19.800004,-38.3 44.200004,-38.3 h 500.8 c 24.4,0 44.2,17.1 44.2,38.3 V 299 h -312 l -2.4,0.1 c -19.7,21 -47.7,34.1 -78.7,34.1 -31,0 -59.1,-13.1 -78.8,-34.2 l -1.8,0.1 H 80.400136 Z"
   id="path6"
   style="fill:#808080;fill-opacity:1" /><path
   class="st1"
   d="m 276.60014,83.3 v -22 c -89.8,0 -162.9,73.1 -162.9,162.9 h 22 c 0,-77.7 63.2,-140.9 140.9,-140.9"
   id="path8"
   style="fill:#808080;fill-opacity:1" /><path
   class="st1"
   d="m 470.80014,257 2.1,-8.7 h 18.7 l 2.2,8.7 h 26.6 l -24,-68.8 h -27.5 l -24.6,68.7 z m 8.4,-32.7 c 1,-3.7 2.4,-8.5 2.8,-15.1 h 0.5 c 0.4,6.6 1.8,11.4 2.8,15.1 l 2.1,7.8 h -10.3 z"
   id="path10"
   style="fill:#808080;fill-opacity:1" /><path
   class="st1"
   d="m 388.70014,257 5.2,-23.5 c 0.7,-3.1 1.6,-6.7 1.9,-11.3 h 0.9 c 0.3,4.6 1.2,8.3 1.9,11.3 l 5.2,23.5 h 21.5 l 20.2,-68.7 h -24.8 l -5.4,30.3 c -0.5,3 -1.3,7.4 -1.5,13.5 h -0.6 c -0.2,-5.4 -1.2,-9.2 -1.6,-11.7 l -6.5,-32.1 h -17.4 l -6.6,32.1 c -0.5,2.5 -1.4,6.3 -1.6,11.7 h -0.7 c -0.2,-6.1 -1.1,-10.6 -1.5,-13.6 l -5.3,-30.3 h -24.8 l 20,68.8 z"
   id="path12"
   style="fill:#808080;fill-opacity:1" /><path
   class="st1"
   d="m 211.50014,224.2 c 0,35.9 29.1,65.1 65.1,65.1 36,0 65.1,-29.1 65.1,-65.1 0,-35.9 -29.1,-65.1 -65.1,-65.1 -36,0 -65.1,29.2 -65.1,65.1 m 97.4,11.2 -12.8,20.5 h -55.2 l 29.9,-46.8 h -28.6 l 12.4,-19.9 h 54.4 l -29,46.2 z"
   id="path14"
   style="fill:#808080;fill-opacity:1" /><path
   class="st1"
   d="m 276.60014,126.7 v -22 c -65.9,0 -119.4,53.6 -119.4,119.4 h 22 c -0.1,-53.6 43.6,-97.4 97.4,-97.4"
   id="path16"
   style="fill:#808080;fill-opacity:1" /><path
   class="st1"
   d="m 564.40014,257.1 26.2,-68.7 h -26.2 l -7.7,25.5 c -1.3,4.1 -2.7,9.3 -3.6,15.7 h -0.5 c -0.7,-7.4 -2.3,-12.6 -3.4,-16.3 l -7.3,-24.9 h -26.7 l 26.2,68.8 z"
   id="path18"
   style="fill:#808080;fill-opacity:1" /><polygon
   class="st1"
   points="547.4,260.9 547.3,329.7 593.9,329.7 593.9,311.1 571.6,311 571.6,303.8 591.3,303.8 591.3,286.2 571.6,286.2 571.6,279.6 593.3,279.6 593.4,260.9 "
   id="polygon20"
   transform="translate(54.800136,-72.5)"
   style="fill:#808080;fill-opacity:1" /><path
   class="st1"
   d="m 313.30014,382.9 h -4 v 22.8 h 4 c 8.6,0 17.1,0 17.1,-11.2 0,-11.5 -7.9,-11.6 -17.1,-11.6"
   id="path22"
   style="fill:#808080;fill-opacity:1" />
</svg>
