<?xml version="1.0" encoding="UTF-8" standalone="no"?>
<!-- Created with Inkscape (http://www.inkscape.org/) -->

<svg
   width="256"
   height="256"
   id="svg2"
   version="1.1"
   inkscape:version="1.1.2 (0a00cf5339, 2022-02-04)"
   sodipodi:docname="icon_monochrome.svg"
   inkscape:export-filename="/home/micha/Develop/nymea-app/packaging/android/res/drawable-mdpi/notifiyicon.png"
   inkscape:export-xdpi="9"
   inkscape:export-ydpi="9"
   xmlns:inkscape="http://www.inkscape.org/namespaces/inkscape"
   xmlns:sodipodi="http://sodipodi.sourceforge.net/DTD/sodipodi-0.dtd"
   xmlns="http://www.w3.org/2000/svg"
   xmlns:svg="http://www.w3.org/2000/svg"
   xmlns:rdf="http://www.w3.org/1999/02/22-rdf-syntax-ns#"
   xmlns:cc="http://creativecommons.org/ns#"
   xmlns:dc="http://purl.org/dc/elements/1.1/">
  <defs
     id="defs4">
    <linearGradient
       id="SVGID_1_"
       gradientUnits="userSpaceOnUse"
       x1="369.02579"
       y1="171.88429"
       x2="441.68719"
       y2="262.58051">
      <stop
         offset="0.1296"
         style="stop-color:#7CC099"
         id="stop46" />
      <stop
         offset="0.3785"
         style="stop-color:#6FB594"
         id="stop48" />
      <stop
         offset="0.835"
         style="stop-color:#4E9688"
         id="stop50" />
      <stop
         offset="1"
         style="stop-color:#408A83"
         id="stop52" />
    </linearGradient>
    <linearGradient
       id="SVGID_2_"
       gradientUnits="userSpaceOnUse"
       x1="936.13898"
       y1="154.45329"
       x2="918.56207"
       y2="154.45329"
       gradientTransform="matrix(0.9669,0.2553,-0.2553,0.9669,-399.6603,-163.1002)">
      <stop
         offset="0"
         style="stop-color:#DBE6E0"
         id="stop61" />
      <stop
         offset="1"
         style="stop-color:#BCDED3"
         id="stop63" />
    </linearGradient>
    <linearGradient
       id="SVGID_3_"
       gradientUnits="userSpaceOnUse"
       x1="451.01599"
       y1="201.9489"
       x2="442.73761"
       y2="243.37801">
      <stop
         offset="0"
         style="stop-color:#7CC099"
         id="stop72" />
      <stop
         offset="0.2568"
         style="stop-color:#78BC98"
         id="stop74" />
      <stop
         offset="0.5165"
         style="stop-color:#6CB193"
         id="stop76" />
      <stop
         offset="0.7767"
         style="stop-color:#589F8C"
         id="stop78" />
      <stop
         offset="1"
         style="stop-color:#408A83"
         id="stop80" />
    </linearGradient>
    <linearGradient
       id="SVGID_4_"
       gradientUnits="userSpaceOnUse"
       x1="457.62369"
       y1="234.5722"
       x2="457.47629"
       y2="234.5722">
      <stop
         offset="0"
         style="stop-color:#DBE6E0"
         id="stop87" />
      <stop
         offset="1"
         style="stop-color:#BCDED3"
         id="stop89" />
    </linearGradient>
    <linearGradient
       id="SVGID_5_"
       gradientUnits="userSpaceOnUse"
       x1="467.88159"
       y1="223.4929"
       x2="457.62369"
       y2="223.4929">
      <stop
         offset="0"
         style="stop-color:#DBE6E0"
         id="stop96" />
      <stop
         offset="1"
         style="stop-color:#BCDED3"
         id="stop98" />
    </linearGradient>
    <linearGradient
       id="SVGID_6_"
       gradientUnits="userSpaceOnUse"
       x1="457.47629"
       y1="235.823"
       x2="452.43719"
       y2="235.823">
      <stop
         offset="0"
         style="stop-color:#DBE6E0"
         id="stop105" />
      <stop
         offset="1"
         style="stop-color:#BCDED3"
         id="stop107" />
    </linearGradient>
    <linearGradient
       id="SVGID_7_"
       gradientUnits="userSpaceOnUse"
       x1="452.19159"
       y1="227.27921"
       x2="460.47461"
       y2="227.27921">
      <stop
         offset="0"
         style="stop-color:#6AA583"
         id="stop112" />
      <stop
         offset="1"
         style="stop-color:#4C9E96"
         id="stop114" />
    </linearGradient>
    <linearGradient
       id="SVGID_8_"
       gradientUnits="userSpaceOnUse"
       x1="473.17111"
       y1="268.90411"
       x2="455.23529"
       y2="283.95389"
       gradientTransform="matrix(0.9997,0.0227,-0.0227,0.9997,-36.4014,-7.9207)">
      <stop
         offset="0"
         style="stop-color:#7CC099"
         id="stop119" />
      <stop
         offset="1"
         style="stop-color:#57BAAE"
         id="stop121" />
    </linearGradient>
    <linearGradient
       id="SVGID_9_"
       gradientUnits="userSpaceOnUse"
       x1="447.13129"
       y1="274.66199"
       x2="470.95151"
       y2="274.66199"
       gradientTransform="matrix(0.9997,0.0227,-0.0227,0.9997,-36.4014,-7.9207)">
      <stop
         offset="0"
         style="stop-color:#7CC099"
         id="stop126" />
      <stop
         offset="0.2327"
         style="stop-color:#76BA97"
         id="stop128" />
      <stop
         offset="0.5485"
         style="stop-color:#65AB90"
         id="stop130" />
      <stop
         offset="0.9106"
         style="stop-color:#489186"
         id="stop132" />
      <stop
         offset="1"
         style="stop-color:#408A83"
         id="stop134" />
    </linearGradient>
    <linearGradient
       id="SVGID_10_"
       gradientUnits="userSpaceOnUse"
       x1="415.2153"
       y1="260.93829"
       x2="422.0509"
       y2="252.7919">
      <stop
         offset="0"
         style="stop-color:#4C9E96"
         id="stop141" />
      <stop
         offset="0.4859"
         style="stop-color:#489790"
         id="stop143" />
      <stop
         offset="1"
         style="stop-color:#408A83"
         id="stop145" />
    </linearGradient>
    <linearGradient
       id="SVGID_11_"
       gradientUnits="userSpaceOnUse"
       x1="425.60641"
       y1="203.1666"
       x2="393.7475"
       y2="239.4308">
      <stop
         offset="0"
         style="stop-color:#7CC099"
         id="stop152" />
      <stop
         offset="0.3183"
         style="stop-color:#77BF9C"
         id="stop154" />
      <stop
         offset="0.6757"
         style="stop-color:#6ABDA3"
         id="stop156" />
      <stop
         offset="1"
         style="stop-color:#57BAAE"
         id="stop158" />
    </linearGradient>
    <linearGradient
       gradientTransform="matrix(0.9997,0.0227,-0.0227,0.9997,-36.4014,-7.9207)"
       y2="283.95389"
       x2="455.23529"
       y1="268.90411"
       x1="473.17111"
       gradientUnits="userSpaceOnUse"
       id="linearGradient3614">
      <stop
         id="stop3616"
         style="stop-color:#7CC099"
         offset="0" />
      <stop
         id="stop3618"
         style="stop-color:#57BAAE"
         offset="1" />
    </linearGradient>
    <linearGradient
       gradientTransform="matrix(0.9997,0.0227,-0.0227,0.9997,-36.4014,-7.9207)"
       y2="274.66199"
       x2="470.95151"
       y1="274.66199"
       x1="447.13129"
       gradientUnits="userSpaceOnUse"
       id="linearGradient3621">
      <stop
         id="stop3623"
         style="stop-color:#7CC099"
         offset="0" />
      <stop
         id="stop3625"
         style="stop-color:#76BA97"
         offset="0.2327" />
      <stop
         id="stop3627"
         style="stop-color:#65AB90"
         offset="0.5485" />
      <stop
         id="stop3629"
         style="stop-color:#489186"
         offset="0.9106" />
      <stop
         id="stop3631"
         style="stop-color:#408A83"
         offset="1" />
    </linearGradient>
    <linearGradient
       id="linearGradient3645"
       gradientUnits="userSpaceOnUse"
       x1="425.60641"
       y1="203.1666"
       x2="393.7475"
       y2="239.4308">
      <stop
         offset="0"
         style="stop-color:#7CC099"
         id="stop3647" />
      <stop
         offset="0.3183"
         style="stop-color:#77BF9C"
         id="stop3649" />
      <stop
         offset="0.6757"
         style="stop-color:#6ABDA3"
         id="stop3651" />
      <stop
         offset="1"
         style="stop-color:#57BAAE"
         id="stop3653" />
    </linearGradient>
  </defs>
  <sodipodi:namedview
     id="base"
     pagecolor="#ffffff"
     bordercolor="#666666"
     borderopacity="1.0"
     inkscape:pageopacity="0.0"
     inkscape:pageshadow="2"
     inkscape:zoom="1.2616735"
     inkscape:cx="112.94523"
     inkscape:cy="158.51962"
     inkscape:document-units="px"
     inkscape:current-layer="layer1"
     showgrid="true"
     inkscape:window-width="1462"
     inkscape:window-height="933"
     inkscape:window-x="74"
     inkscape:window-y="27"
     inkscape:window-maximized="1"
     fit-margin-top="0"
     fit-margin-left="0"
     fit-margin-right="0"
     fit-margin-bottom="0"
     inkscape:pagecheckerboard="true">
    <inkscape:grid
       type="xygrid"
       id="grid1085" />
  </sodipodi:namedview>
  <metadata
     id="metadata7">
    <rdf:RDF>
      <cc:Work
         rdf:about="">
        <dc:format>image/svg+xml</dc:format>
        <dc:type
           rdf:resource="http://purl.org/dc/dcmitype/StillImage" />
      </cc:Work>
    </rdf:RDF>
  </metadata>
  <g
     inkscape:label="Layer 1"
     inkscape:groupmode="layer"
     id="layer1"
     transform="translate(-143.41788,-709.27353)">
    <g
       id="g1970"
       transform="matrix(0.62509304,0,0,0.62509304,101.75673,313.89968)"
       style="stroke-width:1.59977">
      <path
         style="fill:#000000;fill-opacity:1;stroke:none;stroke-width:5.95837;stroke-miterlimit:4;stroke-dasharray:none;stroke-opacity:1"
         d="m 195.24805,88.396484 c 0.3847,0.338908 0.66829,0.676926 0.97265,1.021485 -0.21326,-0.23757 -0.24685,-0.461873 -0.49804,-0.697266 -0.12616,-0.118223 -0.3396,-0.207315 -0.47461,-0.324219 z"
         id="path2420"
         transform="translate(143.41788,709.27353)" />
      <path
         style="fill:#000000;fill-opacity:1;stroke:none;stroke-width:5.95837;stroke-miterlimit:4;stroke-dasharray:none;stroke-opacity:1"
         d="m 192.65039,86.623047 c 0.95802,0.550263 1.85882,1.133721 2.59766,1.773437 -0.21402,-0.188541 -0.30502,-0.384643 -0.54102,-0.568359 -0.58406,-0.454675 -1.35989,-0.803366 -2.05664,-1.205078 z"
         id="path2418"
         transform="translate(143.41788,709.27353)" />
      <path
         style="fill:#000000;fill-opacity:1;stroke:none;stroke-width:5.95837;stroke-miterlimit:4;stroke-dasharray:none;stroke-opacity:1"
         d="m 191.50195,85.951172 c 0.41644,0.199634 0.75953,0.447646 1.14844,0.671875 -0.31037,-0.178271 -0.51382,-0.411204 -0.8418,-0.574219 -0.0941,-0.04676 -0.21126,-0.05231 -0.30664,-0.09766 z"
         id="path2416"
         transform="translate(143.41788,709.27353)" />
      <path
         style="fill:#000000;fill-opacity:1;stroke:none;stroke-width:5.95837;stroke-miterlimit:4;stroke-dasharray:none;stroke-opacity:1"
         d="m 187.66797,84.726562 c 1.33138,0.275528 2.64115,0.657447 3.83398,1.22461 -0.2296,-0.110069 -0.39612,-0.269869 -0.63281,-0.371094 -1.00554,-0.430043 -2.11092,-0.629124 -3.20117,-0.853516 z"
         id="path2414"
         transform="translate(143.41788,709.27353)" />
      <path
         style="fill:#000000;fill-opacity:1;stroke:none;stroke-width:5.95837;stroke-miterlimit:4;stroke-dasharray:none;stroke-opacity:1"
         d="m 186.64062,84.453125 c 0.35383,0.04576 0.6775,0.201432 1.02735,0.273437 -0.2883,-0.05966 -0.53877,-0.223416 -0.83008,-0.265624 -0.0653,-0.0095 -0.13182,7.33e-4 -0.19727,-0.0078 z"
         id="path2412"
         transform="translate(143.41788,709.27353)" />
      <path
         style="fill:#000000;fill-opacity:1;stroke:none;stroke-width:5.95837;stroke-miterlimit:4;stroke-dasharray:none;stroke-opacity:1"
         d="m 184.21289,84.34375 c 0.80863,-0.04939 1.62216,0.0042 2.42773,0.109375 -0.11715,-0.01515 -0.22241,-0.0797 -0.33984,-0.0918 -0.69498,-0.07159 -1.39371,-0.06391 -2.08789,-0.01758 z"
         id="path2410"
         transform="translate(143.41788,709.27353)" />
      <path
         style="fill:#000000;fill-opacity:1;stroke:none;stroke-width:5.95837;stroke-miterlimit:4;stroke-dasharray:none;stroke-opacity:1"
         d="m 181.60938,84.822266 c 0.84777,-0.270568 1.71751,-0.424258 2.59374,-0.478516 -0.0903,0.0061 -0.1814,-0.01023 -0.27148,-0.002 -0.78606,0.0722 -1.56412,0.227755 -2.32226,0.480469 z"
         id="path2408"
         transform="translate(143.41788,709.27353)" />
      <path
         style="fill:#000000;fill-opacity:1;stroke:none;stroke-width:5.95837;stroke-miterlimit:4;stroke-dasharray:none;stroke-opacity:1"
         d="m 175.88867,124.75781 c -0.0106,0.0116 -0.0447,0.0534 -0.0547,0.0645 0.14441,0.57763 0.28711,0.72289 0.28711,1.01171 0.0313,0 0.0652,-0.02 0.0937,-0.0215 -0.12645,-0.35534 -0.20519,-0.69995 -0.32617,-1.05469 z"
         id="path2406"
         transform="translate(143.41788,709.27353)" />
      <path
         style="fill:#000000;fill-opacity:1;stroke:none;stroke-width:5.95837;stroke-miterlimit:4;stroke-dasharray:none;stroke-opacity:1"
         d="m 175.88867,124.75781 c 0.12098,0.35474 0.19972,0.69935 0.32617,1.05469 0.36746,-0.0186 0.53711,-0.13359 1.20704,-0.26758 0.61373,-0.68593 1.52578,-1.74171 2.55468,-3.11133 1.02891,-1.36961 2.17476,-3.05366 3.25782,-4.99414 1.08305,-1.94048 2.10271,-4.13663 2.8789,-6.53515 0.3881,-1.19927 0.7153,-2.44957 0.95899,-3.74219 0.24368,-1.29262 0.40287,-2.62813 0.45703,-4 0.18051,-0.54153 0.22619,-1.0925 0.15625,-1.625 -0.07,-0.53251 -0.25537,-1.0463 -0.53516,-1.51563 -0.27979,-0.469322 -0.6545,-0.894095 -1.10351,-1.246089 -0.44902,-0.351995 -0.9712,-0.63199 -1.54883,-0.8125 -0.72204,-0.21661 -1.44493,-0.217147 -2.13086,-0.05469 -0.68594,0.162459 -1.33448,0.48865 -1.91211,0.921875 -0.28881,0.43322 -0.43372,0.865608 -0.57813,1.298834 -0.1444,0.57763 -0.17272,1.16442 -0.0937,1.72851 0.079,0.5641 0.26513,1.10638 0.54492,1.59375 0.2798,0.48738 0.65329,0.9201 1.11133,1.26758 0.45805,0.34748 0.99955,0.6095 1.61328,0.75391 0.50543,0.14441 0.97646,0.18063 1.42774,0.14453 0.45127,-0.0361 0.88318,-0.14466 1.31641,-0.28907 -0.16247,1.24552 -0.41756,2.45894 -0.74219,3.63282 -0.32464,1.17388 -0.71904,2.30726 -1.16016,3.39258 -0.88224,2.17063 -1.95136,4.14843 -3.02539,5.86328 -1.07403,1.71484 -2.15244,3.16734 -3.05273,4.29101 -0.87532,1.09251 -1.5574,1.84253 -1.92774,2.25 z"
         id="path2404"
         transform="translate(143.41788,709.27353)" />
      <path
         style="fill:#000000;fill-opacity:1;stroke:none;stroke-width:5.95837;stroke-miterlimit:4;stroke-dasharray:none;stroke-opacity:1"
         d="m 176.25391,125.93945 c -0.0153,-0.0428 -0.0238,-0.0842 -0.0391,-0.12695 -0.0286,0.001 -0.0625,0.0215 -0.0937,0.0215 0,-0.28882 -0.1427,-0.43408 -0.28711,-1.01171 0.01,-0.011 0.0441,-0.0528 0.0547,-0.0645 -0.68335,-2.0038 -1.33226,-4.00762 -1.83789,-5.95898 -0.60922,-2.35114 -1.08867,-4.64396 -1.43164,-6.82813 -0.34297,-2.18417 -0.5495,-4.25981 -0.61719,-6.17773 -0.0677,-1.91792 0.004,-3.67809 0.22071,-5.23047 -0.25272,1.55238 -0.35207,3.3208 -0.30469,5.25 0.0474,1.9292 0.24223,4.0197 0.57617,6.21289 0.33394,2.1932 0.8071,4.48961 1.41406,6.83399 0.60697,2.34437 1.34645,4.73641 2.21289,7.11914 0,0 0.12633,-0.0382 0.13282,-0.0391 z"
         id="path2402"
         transform="translate(143.41788,709.27353)" />
      <path
         style="fill:#000000;fill-opacity:1;stroke:none;stroke-width:5.95837;stroke-miterlimit:4;stroke-dasharray:none;stroke-opacity:1"
         d="m 176.26562,125.97852 c 0,0 0.41155,-0.15884 0.4961,-0.18555 -0.11757,0.0235 -0.48304,0.14328 -0.50781,0.14648 0.005,0.0131 0.007,0.0259 0.0117,0.0391 z"
         id="path2400"
         transform="translate(143.41788,709.27353)" />
      <path
         style="fill:#000000;fill-opacity:1;stroke:none;stroke-width:5.95837;stroke-miterlimit:4;stroke-dasharray:none;stroke-opacity:1"
         d="m 176.26562,125.97852 c -0.005,-0.0131 -0.007,-0.0259 -0.0117,-0.0391 -0.006,8.4e-4 -0.13282,0.0391 -0.13282,0.0391 z"
         id="path2398"
         transform="translate(143.41788,709.27353)" />
      <path
         style="fill:#000000;fill-opacity:1;stroke:none;stroke-width:5.95837;stroke-miterlimit:4;stroke-dasharray:none;stroke-opacity:1"
         d="m 177.88281,125.4707 c -0.6892,0.25124 -0.86161,0.27033 -1.12109,0.32227 -0.0846,0.0267 -0.4961,0.18555 -0.4961,0.18555 -0.0534,0 0.79776,-0.23854 1.61719,-0.50782 z"
         id="path2396"
         transform="translate(143.41788,709.27353)" />
      <path
         style="fill:#000000;fill-opacity:1;stroke:none;stroke-width:5.95837;stroke-miterlimit:4;stroke-dasharray:none;stroke-opacity:1"
         d="m 178.01367,125.42969 c -0.0717,0.0249 -0.0646,0.0192 -0.13086,0.041 0.072,-0.0262 0.0407,-0.004 0.11719,-0.0332 0.003,-10e-4 0.0105,-0.007 0.0137,-0.008 z"
         id="path2394"
         transform="translate(143.41788,709.27353)" />
      <path
         style="fill:#000000;fill-opacity:1;stroke:none;stroke-width:5.95837;stroke-miterlimit:4;stroke-dasharray:none;stroke-opacity:1"
         d="m 183.33008,122.51758 c -1.80068,1.22288 -3.56429,2.09017 -4.87891,2.64844 -1.01839,0.43246 -1.40179,0.53606 -1.68945,0.62695 0.25948,-0.0519 0.43189,-0.071 1.12109,-0.32227 0.0663,-0.0218 0.0591,-0.0161 0.13086,-0.041 1.22463,-0.46915 3.01899,-1.33424 5.31641,-2.91211 z"
         id="path2392"
         transform="translate(143.41788,709.27353)" />
      <path
         style="fill:#000000;fill-opacity:1;stroke:none;stroke-width:5.95837;stroke-miterlimit:4;stroke-dasharray:none;stroke-opacity:1"
         d="m 183.33008,122.51758 c -2.29742,1.57787 -4.09178,2.44296 -5.31641,2.91211 0.23982,-0.0832 0.13769,-0.0139 0.4375,-0.13672 0.74912,-0.30687 1.68314,-0.75042 2.79102,-1.38672 0.60341,-0.34656 1.38322,-0.91751 2.08789,-1.38867 z"
         id="path2390"
         transform="translate(143.41788,709.27353)" />
      <path
         style="fill:#000000;fill-opacity:0.210219;stroke:none;stroke-width:5.95837;stroke-miterlimit:4;stroke-dasharray:none;stroke-opacity:1"
         d="m 340.72452,800.21494 c -0.25637,-0.49822 -0.6203,-1.00474 -1.08594,-1.52344 -0.30436,-0.34456 -0.58795,-0.68258 -0.97265,-1.02149 -0.73884,-0.63971 -1.63964,-1.22317 -2.59766,-1.77343 -0.38891,-0.22423 -0.732,-0.47224 -1.14844,-0.67188 -1.19283,-0.56716 -2.5026,-0.94908 -3.83398,-1.22461 -0.34985,-0.072 -0.67352,-0.22767 -1.02735,-0.27343 -0.80557,-0.10521 -1.6191,-0.15877 -2.42773,-0.10938 -0.003,1.7e-4 -0.005,-1.7e-4 -0.008,0 0,0 -0.002,0 -0.002,0 -0.87623,0.0543 -1.74597,0.20795 -2.59374,0.47852 -0.92061,0.30686 -1.7487,0.71928 -2.49415,1.21484 -0.74544,0.49555 -1.408,1.07351 -1.99804,1.71094 -1.18009,1.27485 -2.06918,2.78624 -2.7461,4.34765 -0.67691,1.56141 -1.14097,3.17308 -1.47265,4.64649 -0.33169,1.47341 -0.53138,2.80946 -0.67578,3.82031 -0.21662,1.55238 -0.2884,3.31255 -0.22071,5.23047 0.0677,1.91792 0.27422,3.99356 0.61719,6.17773 0.34297,2.18417 0.82242,4.47699 1.43164,6.82813 0.50563,1.95136 1.15454,3.95518 1.83789,5.95898 0.37034,-0.40747 1.05242,-1.15749 1.92774,-2.25 0.90029,-1.12367 1.9787,-2.57617 3.05273,-4.29101 1.07403,-1.71485 2.14315,-3.69265 3.02539,-5.86328 0.44112,-1.08532 0.83552,-2.2187 1.16016,-3.39258 0.32463,-1.17388 0.57972,-2.3873 0.74219,-3.63282 -0.43323,0.14441 -0.86514,0.25297 -1.31641,0.28907 -0.45128,0.0361 -0.92231,-1.2e-4 -1.42774,-0.14453 -0.61373,-0.14441 -1.15523,-0.40643 -1.61328,-0.75391 -0.45804,-0.34748 -0.83153,-0.7802 -1.11133,-1.26758 -0.27979,-0.48737 -0.46594,-1.02965 -0.54492,-1.59375 -0.079,-0.56409 -0.0507,-1.15088 0.0937,-1.72851 0.14441,-0.43322 0.28932,-0.86561 0.57813,-1.29883 0.57763,-0.43323 1.22617,-0.75942 1.91211,-0.92188 0.68593,-0.16246 1.40882,-0.16192 2.13086,0.0547 0.57763,0.18051 1.09981,0.46051 1.54883,0.8125 0.44901,0.352 0.82372,0.77677 1.10351,1.24609 0.27979,0.46933 0.46521,0.98312 0.53516,1.51563 0.0699,0.5325 0.0243,1.08347 -0.15625,1.625 -0.0542,1.37187 -0.21335,2.70738 -0.45703,4 -0.24369,1.29262 -0.57089,2.54292 -0.95899,3.74219 -0.77619,2.39852 -1.79585,4.59467 -2.8789,6.53515 -1.08306,1.94048 -2.22891,3.62453 -3.25782,4.99414 -1.0289,1.36962 -1.94095,2.4254 -2.55468,3.11133 -0.66993,0.13399 -0.83958,0.24894 -1.20704,0.26758 0.0152,0.0427 0.0238,0.0842 0.0391,0.12695 0.0248,-0.003 0.39024,-0.12295 0.50781,-0.14648 0.28766,-0.0909 0.67106,-0.19449 1.68945,-0.62695 1.31462,-0.55827 3.07823,-1.42556 4.87891,-2.64844 0,0 0.002,0 0.002,0 0.004,-0.003 0.005,-0.003 0.01,-0.006 0.5859,-0.39205 1.08089,-0.66419 1.73437,-1.1543 1.769,-1.29967 3.2762,-2.65287 4.57813,-4.05859 1.30192,-1.40572 2.39802,-2.86384 3.3457,-4.3711 0.94768,-1.50725 1.74688,-3.06368 2.45312,-4.66796 0.70625,-1.60429 1.31886,-3.25634 1.89649,-4.95313 0.50543,-1.51628 0.97426,-3.32103 1.13672,-5.30664 0.0812,-0.9928 0.0865,-2.03204 -0.0195,-3.10156 -0.10605,-1.06952 -0.32258,-2.1699 -0.6836,-3.28906 0.32492,1.11916 0.52377,2.21984 0.62305,3.2871 0.0993,1.06727 0.0995,2.10021 0.0273,3.08399 -0.1444,1.96756 -0.57855,3.73756 -1.08398,5.18164 -0.57763,1.69679 -1.19024,3.34884 -1.89649,4.95312 -0.70624,1.60429 -1.50544,3.16072 -2.45312,4.66797 -0.94768,1.50726 -2.04378,2.96538 -3.3457,4.3711 -1.30193,1.40572 -2.80913,2.75892 -4.57813,4.05859 -0.57764,0.43322 -1.01209,0.72291 -1.44531,1.01172 0.86644,-0.57763 1.73411,-1.26482 2.56445,-2.04102 0.83035,-0.77619 1.62367,-1.64142 2.34571,-2.58007 1.55238,-2.09392 2.74372,-3.86299 3.6914,-5.44922 0.94768,-1.58623 1.65089,-2.99067 2.22852,-4.35352 1.15526,-2.7257 1.80561,-5.28818 2.88867,-8.82617 0.50543,-1.58849 0.72165,-3.10522 0.68555,-4.53125 -0.0317,-1.25153 -0.33194,-2.40166 -0.72852,-3.50195 z"
         id="path2388" />
      <path
         style="fill:#000000;fill-opacity:1;stroke:none;stroke-width:5.95837;stroke-miterlimit:4;stroke-dasharray:none;stroke-opacity:1"
         d="m 340.72452,800.21494 c 0.39658,1.10029 0.69683,2.25042 0.72852,3.50195 0.0361,1.42603 -0.18012,2.94276 -0.68555,4.53125 -1.08306,3.53799 -1.73341,6.10047 -2.88867,8.82617 -0.57763,1.36285 -1.28084,2.76729 -2.22852,4.35352 -0.94768,1.58623 -2.13902,3.3553 -3.6914,5.44922 -0.72204,0.93865 -1.51536,1.80388 -2.34571,2.58007 -0.83034,0.7762 -1.69801,1.46339 -2.56445,2.04102 0.43322,-0.28881 0.86767,-0.5785 1.44531,-1.01172 1.769,-1.29967 3.2762,-2.65287 4.57813,-4.05859 1.30192,-1.40572 2.39802,-2.86384 3.3457,-4.3711 0.94768,-1.50725 1.74688,-3.06368 2.45312,-4.66797 0.70625,-1.60428 1.31886,-3.25633 1.89649,-4.95312 0.50543,-1.44408 0.93958,-3.21408 1.08398,-5.18164 0.0722,-0.98378 0.0719,-2.01672 -0.0273,-3.08399 -0.0993,-1.06726 -0.29813,-2.16794 -0.62305,-3.2871 -0.0668,-0.20872 -0.36412,-0.44946 -0.47656,-0.66797 z"
         id="path2386" />
      <path
         style="fill:#000000;fill-opacity:1;stroke:none;stroke-width:5.95837;stroke-miterlimit:4;stroke-dasharray:none;stroke-opacity:1"
         d="m 197.20508,90.453125 c -0.21348,-0.34156 -0.67614,-0.686205 -0.98438,-1.035156 0.46564,0.5187 0.82957,1.02522 1.08594,1.523437 -0.0553,-0.153414 -0.0397,-0.338077 -0.10156,-0.488281 z"
         id="path2384"
         transform="translate(143.41788,709.27353)" />
      <path
         style="fill:#000000;fill-opacity:1;stroke:none;stroke-width:5.95837;stroke-miterlimit:4;stroke-dasharray:none;stroke-opacity:1"
         d="m 197.20508,90.453125 c 0.0618,0.150204 0.0463,0.334867 0.10156,0.488281 0.11244,0.218514 0.40977,0.459253 0.47656,0.667969 -0.14441,-0.28882 -0.28931,-0.72302 -0.57812,-1.15625 z"
         id="path2382"
         transform="translate(143.41788,709.27353)" />
      <path
         style="fill:#000000;fill-opacity:1;stroke:none;stroke-width:5.95837;stroke-miterlimit:4;stroke-dasharray:none;stroke-opacity:1"
         d="m 160.82812,134.01758 c 0.0272,-0.49476 0.13303,-1.01069 0.14844,-1.50196 0.0287,-0.91629 -0.0752,-1.78766 -0.0859,-2.6914 0.0222,1.38474 0.0103,2.78013 -0.0625,4.19336 z"
         id="path2380"
         transform="translate(143.41788,709.27353)" />
      <path
         style="fill:#000000;fill-opacity:1;stroke:none;stroke-width:5.95837;stroke-miterlimit:4;stroke-dasharray:none;stroke-opacity:1"
         d="m 78.853516,59.130859 c -1.151026,-0.797692 -2.412171,-1.603267 -3.44336,-2.388671 -0.03143,-0.02394 -0.05266,-0.04639 -0.08398,-0.07031 0.0022,0.0461 -0.0023,0.08863 0,0.134766 1.011417,0.770603 2.408837,1.548262 3.527344,2.324218 z"
         id="path2378"
         transform="translate(143.41788,709.27353)" />
      <path
         style="fill:#000000;fill-opacity:1;stroke:none;stroke-width:5.95837;stroke-miterlimit:4;stroke-dasharray:none;stroke-opacity:1"
         d="m 83.386719,62.117188 c -1.62432,-0.995893 -3.09584,-1.989168 -4.533203,-2.986329 1.078556,0.74747 2.037901,1.486227 3.226562,2.238282 0.395654,0.250326 0.898439,0.497655 1.306641,0.748047 z"
         id="path2376"
         transform="translate(143.41788,709.27353)" />
      <path
         style="fill:#000000;fill-opacity:1;stroke:none;stroke-width:5.95837;stroke-miterlimit:4;stroke-dasharray:none;stroke-opacity:1"
         d="m 118.87305,78.328125 0.49609,0.140625 -9.38672,-3.755859 c -0.14441,-0.14441 -7.65249,-3.17665 -10.10742,-4.1875 -3.501891,-1.46213 -6.722971,-2.972915 -9.681641,-4.507813 -2.482268,-1.287751 -4.679723,-2.595738 -6.80664,-3.90039 0.901552,0.552753 1.553755,1.108563 2.515625,1.658203 2.02171,1.155263 4.178968,2.3015 6.480468,3.429687 2.301501,1.128187 4.748314,2.237253 7.347657,3.320313 2.454931,1.01085 9.963011,4.04309 10.107421,4.1875 z"
         id="path2374"
         transform="translate(143.41788,709.27353)" />
      <path
         style="fill:#000000;fill-opacity:1;stroke:none;stroke-width:5.95837;stroke-miterlimit:4;stroke-dasharray:none;stroke-opacity:1"
         d="m 96.691406,71.542969 c 0.831066,0.324286 1.452072,0.686136 2.316406,1.003906 2.599338,0.86645 10.254148,3.033334 10.542968,3.177734 l 9.67383,2.744141 -0.35156,-0.140625 -9.17969,-2.603516 c -0.28881,-0.1444 -7.94168,-2.311284 -10.541016,-3.177734 C 98.272291,72.226393 97.537363,71.872 96.691406,71.542969 Z"
         id="path2372"
         transform="translate(143.41788,709.27353)" />
      <path
         style="fill:#000000;fill-opacity:1;stroke:none;stroke-width:5.95837;stroke-miterlimit:4;stroke-dasharray:none;stroke-opacity:1"
         d="m 88.169922,67.849609 c 0.773336,0.375063 1.440686,0.766036 2.25,1.134766 1.941557,0.884589 4.115611,1.720075 6.271484,2.558594 -3.057315,-1.192981 -5.895704,-2.424668 -8.521484,-3.69336 z"
         id="path2370"
         transform="translate(143.41788,709.27353)" />
      <path
         style="fill:#000000;fill-opacity:1;stroke:none;stroke-width:5.95837;stroke-miterlimit:4;stroke-dasharray:none;stroke-opacity:1"
         d="m 84.121094,65.806641 c 0.62789,0.339281 1.073085,0.701772 1.728515,1.037109 0.684386,0.350151 1.605318,0.660397 2.320313,1.005859 -1.391738,-0.674983 -2.770252,-1.351934 -4.048828,-2.042968 z"
         id="path2368"
         transform="translate(143.41788,709.27353)" />
      <path
         style="fill:#000000;fill-opacity:1;stroke:none;stroke-width:5.95837;stroke-miterlimit:4;stroke-dasharray:none;stroke-opacity:1"
         d="m 76.269531,61.099609 c 0.09177,0.0623 0.161345,0.123254 0.253907,0.185547 1.947531,1.310671 4.069205,2.618686 6.380859,3.908203 0.374201,0.208742 0.832633,0.405652 1.216797,0.613282 -2.851486,-1.540805 -5.53827,-3.104744 -7.851563,-4.707032 z"
         id="path2366"
         transform="translate(143.41788,709.27353)" />
      <path
         style="fill:#000000;fill-opacity:0.516216;stroke:none;stroke-width:5.95837;stroke-miterlimit:4;stroke-dasharray:none;stroke-opacity:1"
         d="m 79.785156,82.583984 c -1.144421,-3.658303 -2.045113,-7.31666 -2.726562,-10.957031 -0.685938,-3.664349 -1.156498,-7.31168 -1.445313,-10.921875 0.189914,0.134329 0.462756,0.260509 0.65625,0.394531 -1.839142,-1.248466 -3.543644,-2.498819 -5.078125,-3.732421 -1.61105,-1.295158 -3.061072,-2.573428 -4.363281,-3.816407 -1.302209,-1.242979 -2.455554,-2.451334 -3.476563,-3.605469 -2.042017,-2.308268 -3.549754,-4.401873 -4.632812,-6.134765 -0.57763,3.53799 -0.975739,7.363776 -1.15625,11.371094 -0.180511,4.007317 -0.144284,8.195048 0.144531,12.455078 1.877303,1.696792 4.080721,3.538677 6.619141,5.445312 2.538419,1.906636 5.412665,3.879359 8.634766,5.837891 2.051329,1.246886 4.488299,2.448529 6.824218,3.664062 z"
         id="path2364"
         transform="translate(143.41788,709.27353)" />
      <path
         style="fill:#000000;fill-opacity:1;stroke:none;stroke-width:5.95837;stroke-miterlimit:4;stroke-dasharray:none;stroke-opacity:1"
         d="m 80.765625,83.111328 c -0.341691,-0.17358 -0.644726,-0.352634 -0.980469,-0.527344 0.0075,0.0241 0.01002,0.04817 0.01758,0.07227 0.301789,0.159771 0.656671,0.297456 0.962891,0.455078 z"
         id="path2362"
         transform="translate(143.41788,709.27353)" />
      <path
         style="fill:#000000;fill-opacity:1;stroke:none;stroke-width:5.95837;stroke-miterlimit:4;stroke-dasharray:none;stroke-opacity:1"
         d="m 86.449219,85.794922 c -1.977669,-0.863445 -3.876401,-1.753371 -5.683594,-2.683594 1.015126,0.515687 1.846136,1.060853 2.914063,1.564453 0.845167,0.398554 1.891038,0.729938 2.769531,1.119141 z"
         id="path2360"
         transform="translate(143.41788,709.27353)" />
      <path
         style="fill:#000000;fill-opacity:1;stroke:none;stroke-width:5.95837;stroke-miterlimit:4;stroke-dasharray:none;stroke-opacity:1"
         d="m 90.835938,87.568359 c -1.475898,-0.587945 -2.995167,-1.156931 -4.386719,-1.773437 0.413183,0.180395 0.766148,0.382703 1.1875,0.560547 0.99758,0.421057 2.153477,0.804947 3.199219,1.21289 z"
         id="path2358"
         transform="translate(143.41788,709.27353)" />
      <path
         style="fill:#000000;fill-opacity:1;stroke:none;stroke-width:5.95837;stroke-miterlimit:4;stroke-dasharray:none;stroke-opacity:1"
         d="m 105.97266,93.244141 0.68945,0.09766 -4.91016,-1.732422 c 0,0 -3.899546,-1.443733 -5.199216,-1.876953 -2.036882,-0.694392 -3.848481,-1.435233 -5.716796,-2.164063 1.923098,0.766094 3.648749,1.603214 5.716796,2.308594 1.29967,0.43323 5.199216,1.876953 5.199216,1.876953 z"
         id="path2356"
         transform="translate(143.41788,709.27353)" />
      <path
         style="fill:#000000;fill-opacity:1;stroke:none;stroke-width:5.95837;stroke-miterlimit:4;stroke-dasharray:none;stroke-opacity:1"
         d="m 90.314453,90.181641 c 1.851427,0.566797 3.529766,1.240379 5.517578,1.716797 1.44408,0.288819 5.630989,0.865234 5.775389,0.865234 l 5.05469,0.722656 -0.68945,-0.242187 -4.36524,-0.625 c -0.1444,0 -4.331309,-0.576425 -5.775389,-0.865235 -1.939602,-0.471798 -3.723304,-1.024351 -5.517578,-1.572265 z"
         id="path2354"
         transform="translate(143.41788,709.27353)" />
      <path
         style="fill:#000000;fill-opacity:1;stroke:none;stroke-width:5.95837;stroke-miterlimit:4;stroke-dasharray:none;stroke-opacity:1"
         d="m 87.439453,89.287109 c 0.274827,0.09397 0.514777,0.208748 0.792969,0.300782 0.657759,0.217604 1.404931,0.386985 2.082031,0.59375 -0.964705,-0.295336 -1.946534,-0.577467 -2.875,-0.894532 z"
         id="path2352"
         transform="translate(143.41788,709.27353)" />
      <path
         style="fill:#000000;fill-opacity:1;stroke:none;stroke-width:5.95837;stroke-miterlimit:4;stroke-dasharray:none;stroke-opacity:1"
         d="m 81.431641,87.070312 c 0.796021,0.336132 1.44862,0.733807 2.27539,1.054688 1.145403,0.444547 2.526983,0.75046 3.732422,1.162109 -2.096913,-0.717003 -4.133709,-1.468944 -6.048828,-2.298828 0.01176,0.02972 0.02922,0.05236 0.04102,0.08203 z"
         id="path2350"
         transform="translate(143.41788,709.27353)" />
      <path
         style="fill:#000000;fill-opacity:0.516216;stroke:none;stroke-width:5.95837;stroke-miterlimit:4;stroke-dasharray:none;stroke-opacity:1"
         d="m 96.998047,106.15039 0.710937,0.0449 -5.488281,-1.44531 h -0.144531 c -2.166115,-2.52713 -4.150453,-5.235424 -5.9375,-8.177734 -1.771724,-2.917081 -3.343238,-6.070794 -4.707031,-9.501954 -2.786357,-1.176579 -5.54295,-2.371649 -7.964844,-3.691406 -3.113794,-1.696792 -5.934977,-3.483964 -8.482422,-5.289062 -2.547445,-1.805098 -4.82204,-3.629443 -6.84375,-5.398438 0.36102,3.10477 0.86727,6.209213 1.535156,9.332032 0.667887,3.122818 1.496958,6.264431 2.507813,9.441406 0.43322,1.44408 1.012214,3.032351 1.589844,4.332031 3.176974,1.444075 6.642825,2.853147 10.361328,4.134766 3.718502,1.281619 7.689128,2.436349 11.876953,3.374999 1.58849,0.28882 6.208984,1.58789 6.208984,1.58789 z"
         id="path2348"
         transform="translate(143.41788,709.27353)" />
      <path
         style="fill:#000000;fill-opacity:1;stroke:none;stroke-width:5.95837;stroke-miterlimit:4;stroke-dasharray:none;stroke-opacity:1"
         d="m 93.306641,106.11914 4.402343,0.21875 -0.710937,-0.1875 -3.910156,-0.24414 c 0.06729,0.0751 0.15113,0.13807 0.21875,0.21289 z"
         id="path2346"
         transform="translate(143.41788,709.27353)" />
      <path
         style="fill:#000000;fill-opacity:0.516216;stroke:none;stroke-width:5.95837;stroke-miterlimit:4;stroke-dasharray:none;stroke-opacity:1"
         d="m 107.80859,136.64648 c 0.005,-0.0411 0.003,-0.0858 0.008,-0.12695 2.74375,1.15526 6.93215,2.31154 9.82031,3.4668 3.14087,1.15526 5.90878,2.52606 8.34961,4.04883 2.44083,1.52277 4.55485,3.19623 6.38476,4.95507 1.82992,1.75885 3.37547,3.60332 4.6836,5.4668 1.30813,1.86348 2.37843,3.7473 3.2539,5.58399 0.87548,1.83668 1.55791,3.62622 2.08985,5.30468 0.53194,1.67846 0.91387,3.24597 1.1914,4.63477 0.55507,2.77759 0.68952,4.84348 0.76172,5.67383 v 0.28906 c 0,0 0.38848,-1.4794 0.66602,-3.94336 0.13877,-1.23198 0.25033,-2.71123 0.27148,-4.37305 0.0212,-1.66182 -0.0484,-3.50705 -0.26953,-5.47461 -0.22112,-1.96755 -0.59357,-4.05588 -1.18164,-6.20507 -0.58807,-2.1492 -1.39103,-4.35968 -2.4707,-6.56641 -1.07968,-2.20673 -2.43687,-4.41061 -4.13281,-6.55078 -0.84798,-1.07009 -1.78123,-2.12412 -2.80665,-3.1543 -1.02541,-1.03017 -2.14288,-2.03696 -3.36132,-3.01172 -7.2204,-5.77631 -14.22377,-10.6853 -20.66797,-15.54101 -3.2221,-2.42786 -6.30369,-4.84339 -9.20313,-7.34571 -2.821113,-2.43472 -5.453095,-4.96333 -7.888669,-7.6582 l -1.375,-0.0684 c -0.14441,0 -4.909557,-0.2893 -6.498047,-0.57812 -3.6824,-0.50543 -7.220643,-1.22683 -10.578125,-2.11133 -3.357483,-0.8845 -6.533781,-1.93263 -9.494141,-3.08789 1.191365,2.47298 2.509089,4.81076 3.949219,7.02539 1.44013,2.21463 3.002596,4.30601 4.683594,6.28711 1.680998,1.98109 3.480562,3.85262 5.394531,5.625 1.913968,1.77238 3.94299,3.44667 6.082031,5.03515 2.139042,1.58849 4.387923,3.09012 6.744141,4.51953 2.356217,1.42942 4.819269,2.78688 7.384765,4.08204 2.565501,1.29515 5.233121,2.52912 8.000001,3.71484 0.0674,0.0289 0.1415,0.0552 0.20898,0.084 z"
         id="path2344"
         transform="translate(143.41788,709.27353)" />
      <path
         style="fill:#000000;fill-opacity:1;stroke:none;stroke-width:5.95837;stroke-miterlimit:4;stroke-dasharray:none;stroke-opacity:1"
         d="m 133.84961,216.32031 c 0.9632,1.07761 1.81611,2.16343 2.84961,3.23438 0.007,-0.0163 0.0144,-0.0442 0.0215,-0.0606 -1.0126,-1.0534 -1.92677,-2.1138 -2.87109,-3.17383 z"
         id="path2342"
         transform="translate(143.41788,709.27353)" />
      <path
         style="fill:#000000;fill-opacity:1;stroke:none;stroke-width:5.95837;stroke-miterlimit:4;stroke-dasharray:none;stroke-opacity:1"
         d="m 128.70508,210.21289 c 0.53142,0.69156 0.9419,1.38357 1.5,2.07422 1.09346,1.35317 2.44511,2.68681 3.64453,4.0332 -1.3584,-1.51974 -2.79339,-3.03482 -4.01758,-4.5625 -0.41236,-0.51459 -0.72932,-1.0299 -1.12695,-1.54492 z"
         id="path2340"
         transform="translate(143.41788,709.27353)" />
      <path
         style="fill:#000000;fill-opacity:1;stroke:none;stroke-width:5.95837;stroke-miterlimit:4;stroke-dasharray:none;stroke-opacity:1"
         d="m 123.91992,203.59766 c 0.0708,0.10797 0.12192,0.21425 0.19336,0.32226 1.38592,2.09518 2.97195,4.19491 4.5918,6.29297 -1.695,-2.20576 -3.34818,-4.41267 -4.78516,-6.61523 z"
         id="path2338"
         transform="translate(143.41788,709.27353)" />
      <path
         style="fill:#000000;fill-opacity:1;stroke:none;stroke-width:5.95837;stroke-miterlimit:4;stroke-dasharray:none;stroke-opacity:1"
         d="m 122.10547,200.57227 c 0.50166,0.83098 0.88547,1.64888 1.42187,2.48242 0.11627,0.18066 0.27466,0.36221 0.39258,0.54297 -0.66502,-1.01356 -1.20106,-2.01549 -1.81445,-3.02539 z"
         id="path2336"
         transform="translate(143.41788,709.27353)" />
      <path
         style="fill:#000000;fill-opacity:1;stroke:none;stroke-width:5.95837;stroke-miterlimit:4;stroke-dasharray:none;stroke-opacity:1"
         d="m 118.76367,194.73633 c 0.24395,0.46907 0.42527,0.92571 0.67969,1.39648 0.79399,1.46916 1.76205,2.95759 2.66211,4.43946 -1.17929,-1.95344 -2.34426,-3.90607 -3.3418,-5.83594 z"
         id="path2334"
         transform="translate(143.41788,709.27353)" />
      <path
         style="fill:#000000;fill-opacity:1;stroke:none;stroke-width:5.95837;stroke-miterlimit:4;stroke-dasharray:none;stroke-opacity:1"
         d="m 117.51953,192.17773 c 0.27966,0.58147 0.47221,1.14195 0.76758,1.72657 0.1387,0.27452 0.33433,0.55687 0.47656,0.83203 -0.44686,-0.85927 -0.83149,-1.70591 -1.24414,-2.5586 z"
         id="path2332"
         transform="translate(143.41788,709.27353)" />
      <path
         style="fill:#000000;fill-opacity:1;stroke:none;stroke-width:5.95837;stroke-miterlimit:4;stroke-dasharray:none;stroke-opacity:1"
         d="m 114.70703,185.86523 c 0.35188,0.87974 0.6288,1.73272 1.01563,2.62305 0.52713,1.21328 1.20166,2.45952 1.79687,3.68945 -1.02283,-2.12666 -1.98725,-4.23954 -2.8125,-6.3125 z"
         id="path2330"
         transform="translate(143.41788,709.27353)" />
      <path
         style="fill:#000000;fill-opacity:1;stroke:none;stroke-width:5.95837;stroke-miterlimit:4;stroke-dasharray:none;stroke-opacity:1"
         d="m 113.98438,183.99609 c 0.12672,0.33823 0.20228,0.6541 0.33398,0.99414 0.11075,0.28597 0.27434,0.58781 0.38867,0.875 -0.25069,-0.62676 -0.48906,-1.24835 -0.72265,-1.86914 z"
         id="path2328"
         transform="translate(143.41788,709.27353)" />
      <path
         style="fill:#000000;fill-opacity:1;stroke:none;stroke-width:5.95837;stroke-miterlimit:4;stroke-dasharray:none;stroke-opacity:1"
         d="m 111.6582,177.06055 c 0.3901,1.33638 0.73087,2.64673 1.19922,4.02148 0.32425,0.95178 0.76276,1.9462 1.12696,2.91406 -0.88392,-2.35922 -1.66745,-4.68043 -2.32618,-6.93554 z"
         id="path2326"
         transform="translate(143.41788,709.27353)" />
      <path
         style="fill:#000000;fill-opacity:1;stroke:none;stroke-width:5.95837;stroke-miterlimit:4;stroke-dasharray:none;stroke-opacity:1"
         d="m 111.36719,176.08789 c 0.0369,0.1313 0.0542,0.24914 0.0918,0.38086 0.0547,0.19163 0.14299,0.3993 0.19922,0.5918 -0.0944,-0.32331 -0.201,-0.6518 -0.29101,-0.97266 z"
         id="path2324"
         transform="translate(143.41788,709.27353)" />
      <path
         style="fill:#000000;fill-opacity:1;stroke:none;stroke-width:5.95837;stroke-miterlimit:4;stroke-dasharray:none;stroke-opacity:1"
         d="m 110.35742,171.89453 c 0.17114,0.74118 0.19428,1.35423 0.38867,2.11133 0.17328,0.67484 0.42846,1.39538 0.6211,2.08203 -0.40616,-1.44557 -0.68555,-2.8024 -1.00977,-4.19336 z"
         id="path2322"
         transform="translate(143.41788,709.27353)" />
      <path
         style="fill:#000000;fill-opacity:1;stroke:none;stroke-width:5.95837;stroke-miterlimit:4;stroke-dasharray:none;stroke-opacity:1"
         d="m 108.39453,161.21289 c 0.27077,2.29247 0.64305,4.72819 1.14453,7.2793 0.2139,1.08811 0.55532,2.27383 0.81836,3.40234 -0.86576,-3.74955 -1.60117,-7.42615 -1.96289,-10.68164 z"
         id="path2320"
         transform="translate(143.41788,709.27353)" />
      <path
         style="fill:#000000;fill-opacity:1;stroke:none;stroke-width:5.95837;stroke-miterlimit:4;stroke-dasharray:none;stroke-opacity:1"
         d="m 107.53125,148.21875 c 0.003,-0.0522 -0.007,-0.0942 -0.004,-0.14648 4e-5,0.051 0,0.0934 0,0.14453 9.8e-4,3.5e-4 0.003,0.002 0.004,0.002 z"
         id="path2318"
         transform="translate(143.41788,709.27353)" />
      <path
         style="fill:#000000;fill-opacity:1;stroke:none;stroke-width:5.95837;stroke-miterlimit:4;stroke-dasharray:none;stroke-opacity:1"
         d="m 107.5332,148.21875 c 0.001,-0.0474 -0.007,-0.0993 -0.006,-0.14648 -0.003,0.0523 0.007,0.0943 0.004,0.14648 0,0 0.002,0 0.002,0 z"
         id="path2316"
         transform="translate(143.41788,709.27353)" />
      <path
         style="fill:#000000;fill-opacity:1;stroke:none;stroke-width:5.95837;stroke-miterlimit:4;stroke-dasharray:none;stroke-opacity:1"
         d="m 107.5332,148.21875 c 0,0 -0.002,0 -0.002,0 -0.13019,2.54128 6.4e-4,4.95333 0.21289,7.12891 0.21661,2.22027 0.50599,4.20454 0.65039,5.86523 -0.1444,-1.51628 -0.39714,-3.64603 -0.5957,-5.97461 -0.1945,-2.28097 -0.32775,-4.74773 -0.26563,-7.01953 z"
         id="path2314"
         transform="translate(143.41788,709.27353)" />
      <path
         style="fill:#000000;fill-opacity:1;stroke:none;stroke-width:5.95837;stroke-miterlimit:4;stroke-dasharray:none;stroke-opacity:1"
         d="m 107.99219,148.4082 c -0.15054,-0.0949 -0.31523,-0.24367 -0.46485,-0.33593 -10e-4,0.0472 0.007,0.0991 0.006,0.14648 0.11196,0.0407 0.34058,0.14601 0.45899,0.18945 z"
         id="path2312"
         transform="translate(143.41788,709.27353)" />
      <path
         style="fill:#000000;fill-opacity:0.62973;stroke:none;stroke-width:5.95837;stroke-miterlimit:4;stroke-dasharray:none;stroke-opacity:1"
         d="m 107.99219,148.4082 c -0.11841,-0.0434 -0.34703,-0.14874 -0.45899,-0.18945 -0.0621,2.2718 0.0711,4.73856 0.26563,7.01953 0.19856,2.32858 0.4513,4.45833 0.5957,5.97461 0.36172,3.25549 1.09713,6.93209 1.96289,10.68164 0.32422,1.39096 0.60361,2.74779 1.00977,4.19336 0.09,0.32086 0.19664,0.64935 0.29101,0.97266 0.65873,2.25511 1.44226,4.57632 2.32618,6.93554 0.23359,0.62079 0.47196,1.24238 0.72265,1.86914 0.82525,2.07296 1.78967,4.18584 2.8125,6.3125 0.41265,0.85269 0.79728,1.69933 1.24414,2.5586 0.99754,1.92987 2.16251,3.8825 3.3418,5.83594 0.61339,1.0099 1.14943,2.01183 1.81445,3.02539 1.43698,2.20256 3.09016,4.40947 4.78516,6.61523 0.39763,0.51502 0.71459,1.03033 1.12695,1.54492 1.22419,1.52768 2.65918,3.04276 4.01758,4.5625 0.94432,1.06003 1.85849,2.12043 2.87109,3.17383 0.86036,-1.97784 1.78018,-4.45741 2.52539,-7.35547 0.37569,-1.461 0.70651,-3.02605 0.96289,-4.67969 0.25639,-1.65363 0.43891,-3.3962 0.51563,-5.21484 0.0767,-1.81864 0.0481,-3.71393 -0.11523,-5.66992 -0.16331,-1.95599 -0.4621,-3.97335 -0.92579,-6.03906 -0.46368,-2.06571 -1.09159,-4.17839 -1.91601,-6.32618 -0.82442,-2.14778 -1.84433,-4.33098 -3.08985,-6.5332 -2.05781,-3.61019 -4.24197,-6.93197 -6.49609,-9.9668 -2.25412,-3.03482 -4.57841,-5.78213 -6.91602,-8.24609 -2.3376,-2.46396 -4.68977,-4.64341 -6.99804,-6.54101 -2.14884,-1.76655 -4.24637,-3.23418 -6.27539,-4.51368 z"
         id="path2310"
         transform="translate(143.41788,709.27353)" />
      <path
         style="fill:#000000;fill-opacity:1;stroke:none;stroke-width:5.95837;stroke-miterlimit:4;stroke-dasharray:none;stroke-opacity:1"
         d="m 139.05273,169.4707 c -0.44785,-0.50452 -0.87747,-1.11541 -1.32812,-1.59765 -1.99576,-2.13566 -4.01364,-4.05597 -6.01758,-5.78125 -2.00394,-1.72528 -3.99372,-3.2569 -5.92969,-4.61524 -1.93596,-1.35833 -3.81948,-2.54329 -5.61132,-3.57812 -1.79185,-1.03483 -3.49094,-1.91907 -5.0625,-2.67383 -3.14313,-1.50951 -5.77108,-2.50251 -7.57618,-3.15234 0.14962,0.0923 0.31431,0.241 0.46485,0.33593 1.56145,0.57289 3.56272,1.3239 6.06054,2.47852 2.6896,1.24326 5.82221,2.88197 9.17969,5.03906 1.67874,1.07855 3.41325,2.28513 5.17774,3.63867 1.76448,1.35355 3.55939,2.85216 5.35546,4.51172 1.76923,1.63475 3.53939,3.43296 5.28711,5.39453 z"
         id="path2308"
         transform="translate(143.41788,709.27353)" />
      <path
         style="fill:#000000;fill-opacity:0.443243;stroke:none;stroke-width:5.95837;stroke-miterlimit:4;stroke-dasharray:none;stroke-opacity:1"
         d="m 139.43359,169.92969 c 1.40393,1.60536 2.81596,3.18263 4.17188,5.01953 0.19578,0.26523 0.36999,0.60085 0.56445,0.87109 -0.009,-0.19057 -0.059,-1.52095 -0.54297,-3.95117 -0.25835,-1.29741 -0.62819,-2.83832 -1.16211,-4.53906 -0.53391,-1.70074 -1.23161,-3.56147 -2.13867,-5.50196 -0.90706,-1.94048 -2.02454,-3.95992 -3.40234,-5.97656 -1.3778,-2.01663 -3.01482,-4.03174 -4.96094,-5.96094 -1.94612,-1.92919 -4.20047,-3.77299 -6.8125,-5.45117 -1.30602,-0.83909 -2.70257,-1.63715 -4.19336,-2.38281 -1.49079,-0.74566 -3.0759,-1.43853 -4.76367,-2.07031 -2.88829,-1.0743 -5.68057,-2.18529 -8.38477,-3.33985 -0.20529,1.76564 -0.28119,3.5637 -0.29882,5.45118 -0.0176,1.88583 0.016,3.86628 0.0176,5.97461 1.8051,0.64983 4.43305,1.64283 7.57618,3.15234 1.57156,0.75476 3.27065,1.639 5.0625,2.67383 1.79184,1.03483 3.67536,2.21979 5.61132,3.57812 1.93597,1.35834 3.92575,2.88996 5.92969,4.61524 2.00394,1.72528 4.02182,3.64559 6.01758,5.78125 0.45065,0.48224 0.88027,1.09313 1.32812,1.59765 0.0265,0.0298 0.0536,0.0522 0.0801,0.082 0.10227,0.11513 0.19869,0.26065 0.30078,0.37696 z"
         id="path2306"
         transform="translate(143.41788,709.27353)" />
      <path
         style="fill:#000000;fill-opacity:1;stroke:none;stroke-width:5.95837;stroke-miterlimit:4;stroke-dasharray:none;stroke-opacity:1"
         d="m 139.43359,169.92969 c -0.10209,-0.11631 -0.19851,-0.26183 -0.30078,-0.37696 -0.0265,-0.0298 -0.0536,-0.0523 -0.0801,-0.082 0.12857,0.14484 0.25257,0.31229 0.38086,0.45899 z"
         id="path2304"
         transform="translate(143.41788,709.27353)" />
      <path
         style="fill:#000000;fill-opacity:1;stroke:none;stroke-width:5.95837;stroke-miterlimit:4;stroke-dasharray:none;stroke-opacity:1"
         d="m 144.17773,175.86914 c -8e-5,-0.002 -0.008,-0.0465 -0.008,-0.0488 -0.19446,-0.27024 -0.36867,-0.60586 -0.56445,-0.87109 -1.35592,-1.8369 -2.76795,-3.41417 -4.17188,-5.01953 1.60931,1.8333 3.19876,3.80176 4.74414,5.93945 z"
         id="path2302"
         transform="translate(143.41788,709.27353)" />
      <path
         style="fill:#000000;fill-opacity:1;stroke:none;stroke-width:5.95837;stroke-miterlimit:4;stroke-dasharray:none;stroke-opacity:1"
         d="m 144.28906,176.00977 c -0.0364,-0.0506 -0.0749,-0.0902 -0.11133,-0.14063 4e-4,0.009 0.0293,0.21875 0.0293,0.21875 0,0 0.0781,-0.0751 0.082,-0.0781 z"
         id="path2300"
         transform="translate(143.41788,709.27353)" />
      <path
         style="fill:#000000;fill-opacity:1;stroke:none;stroke-width:5.95837;stroke-miterlimit:4;stroke-dasharray:none;stroke-opacity:1"
         d="m 144.28906,176.00977 c -0.004,0.003 -0.082,0.0781 -0.082,0.0781 0,0 -0.0289,-0.21011 -0.0293,-0.21875 -1.54538,-2.13769 -3.13483,-4.10615 -4.74414,-5.93945 -0.12829,-0.1467 -0.25229,-0.31415 -0.38086,-0.45899 -1.74772,-1.96157 -3.51788,-3.75978 -5.28711,-5.39453 -1.79607,-1.65956 -3.59098,-3.15817 -5.35546,-4.51172 -1.76449,-1.35354 -3.499,-2.56012 -5.17774,-3.63867 -3.35748,-2.15709 -6.49009,-3.7958 -9.17969,-5.03906 -2.49782,-1.15462 -4.49909,-1.90563 -6.06054,-2.47852 2.02902,1.2795 4.12655,2.74713 6.27539,4.51368 2.30827,1.8976 4.66044,4.07705 6.99804,6.54101 2.33761,2.46396 4.6619,5.21127 6.91602,8.24609 2.25412,3.03483 4.43828,6.35661 6.49609,9.9668 1.24552,2.20222 2.26543,4.38542 3.08985,6.5332 0.82442,2.14779 1.45233,4.26047 1.91601,6.32618 0.46369,2.06571 0.76248,4.08307 0.92579,6.03906 0.1633,1.95599 0.19195,3.85128 0.11523,5.66992 -0.0767,1.81864 -0.25924,3.56121 -0.51563,5.21484 -0.25638,1.65364 -0.5872,3.21869 -0.96289,4.67969 -0.74521,2.89806 -1.66503,5.37763 -2.52539,7.35547 0.6233,0.64841 1.11575,1.30984 1.76563,1.95508 3.04667,3.02495 6.38838,6.01129 10.05273,8.93555 0,0 0.91206,-1.38865 2.06055,-3.85938 0.57425,-1.23536 1.20803,-2.74139 1.81641,-4.47851 0.60837,-1.73713 1.19217,-3.70559 1.66601,-5.86719 0.47384,-2.16161 0.83718,-4.51659 1.00781,-7.02539 0.17064,-2.50881 0.14889,-5.17245 -0.15234,-7.95118 -0.30123,-2.77872 -0.88051,-5.67317 -1.82227,-8.64453 -0.47087,-1.48568 -1.03267,-2.99041 -1.69531,-4.50976 -0.66263,-1.51935 -1.42726,-3.05235 -2.30273,-4.59571 -1.52742,-2.69266 -3.15535,-5.1058 -4.8086,-7.41796 -0.007,-0.009 -0.013,-0.0164 -0.0195,-0.0254 z"
         id="path2298"
         transform="translate(143.41788,709.27353)" />
      <path
         style="fill:#000000;fill-opacity:1;stroke:none;stroke-width:5.95837;stroke-miterlimit:4;stroke-dasharray:none;stroke-opacity:1"
         d="m 144.29102,176.00781 c -0.0418,-0.0583 -0.0793,-0.12939 -0.1211,-0.1875 1.1e-4,0.002 0.008,0.0469 0.008,0.0488 0.0365,0.0504 0.0749,0.09 0.11133,0.14063 0,0 0.002,-0.002 0.002,-0.002 z"
         id="path2296"
         transform="translate(143.41788,709.27353)" />
      <path
         style="fill:#000000;fill-opacity:1;stroke:none;stroke-width:5.95837;stroke-miterlimit:4;stroke-dasharray:none;stroke-opacity:1"
         d="m 144.35156,175.95117 v -0.008 -0.28906 c -0.0722,-0.83035 -0.20665,-2.89624 -0.76172,-5.67383 -0.27753,-1.3888 -0.65946,-2.95631 -1.1914,-4.63477 -0.53194,-1.67846 -1.21437,-3.468 -2.08985,-5.30468 -0.87547,-1.83669 -1.94577,-3.72051 -3.2539,-5.58399 -1.30813,-1.86348 -2.85368,-3.70795 -4.6836,-5.4668 -1.82991,-1.75884 -3.94393,-3.4323 -6.38476,-4.95507 -2.44083,-1.52277 -5.20874,-2.89357 -8.34961,-4.04883 -2.88816,-1.15526 -7.07656,-2.31154 -9.82031,-3.4668 -0.005,0.0411 -0.003,0.0858 -0.008,0.12695 2.7042,1.15456 5.49648,2.26555 8.38477,3.33985 1.68777,0.63178 3.27288,1.32465 4.76367,2.07031 1.49079,0.74566 2.88734,1.54372 4.19336,2.38281 2.61203,1.67818 4.86638,3.52198 6.8125,5.45117 1.94612,1.9292 3.58314,3.94431 4.96094,5.96094 1.3778,2.01664 2.49528,4.03608 3.40234,5.97656 0.90706,1.94049 1.60476,3.80122 2.13867,5.50196 0.53392,1.70074 0.90376,3.24165 1.16211,4.53906 0.48393,2.43022 0.53399,3.7606 0.54297,3.95117 0.0418,0.0581 0.0793,0.12916 0.1211,0.1875 0.003,-0.002 0.0555,-0.0527 0.0605,-0.0566 z"
         id="path2294"
         transform="translate(143.41788,709.27353)" />
      <path
         style="fill:#000000;fill-opacity:1;stroke:none;stroke-width:5.95837;stroke-miterlimit:4;stroke-dasharray:none;stroke-opacity:1"
         d="m 144.35156,175.95117 c -0.005,0.004 -0.0576,0.0544 -0.0605,0.0566 0.006,0.008 0.0115,0.0188 0.0176,0.0273 0.0138,0.0192 0.0292,0.0335 0.043,0.0527 z"
         id="path2292"
         transform="translate(143.41788,709.27353)" />
      <path
         style="fill:#000000;fill-opacity:1;stroke:none;stroke-width:5.95837;stroke-miterlimit:4;stroke-dasharray:none;stroke-opacity:1"
         d="m 145.6875,174.60742 c -0.57401,0.55756 -1.33594,1.33594 -1.33594,1.33594 v 0.008 c 0.0923,-0.0718 0.40863,-0.30411 1.10938,-1.05078 0.0554,-0.059 0.16801,-0.22904 0.22656,-0.29297 z"
         id="path2290"
         transform="translate(143.41788,709.27353)" />
      <path
         style="fill:#000000;fill-opacity:1;stroke:none;stroke-width:5.95837;stroke-miterlimit:4;stroke-dasharray:none;stroke-opacity:1"
         d="m 160.81641,134.76953 c 0.0163,-0.2543 -10e-4,-0.49853 0.0117,-0.75195 -0.1243,2.25827 -0.28812,4.52915 -0.67773,6.85547 -0.47497,2.83598 -1.15948,5.72027 -2.08008,8.64453 -0.81229,2.63544 -1.63764,5.02555 -2.46093,7.19336 -0.8233,2.16781 -1.64318,4.1119 -2.44532,5.85156 -1.60428,3.47933 -3.13419,6.14283 -4.46094,8.14648 -1.23402,1.86363 -2.23645,3.0477 -3.01562,3.89844 0.35666,-0.34644 0.44269,-0.33201 0.83008,-0.83008 0.64983,-0.75814 1.43642,-1.76882 2.3164,-3.08203 0.87999,-1.31321 1.85391,-2.92892 2.88282,-4.89648 1.0289,-1.96756 2.11238,-4.28663 3.20898,-7.00781 1.0966,-2.72119 2.20601,-5.84388 3.28906,-9.41797 0.90255,-2.90621 1.57011,-5.7755 2.03125,-8.59766 0.33279,-2.03663 0.44237,-4.01958 0.57032,-6.00586 z"
         id="path2288"
         transform="translate(143.41788,709.27353)" />
      <path
         style="fill:#000000;fill-opacity:1;stroke:none;stroke-width:5.95837;stroke-miterlimit:4;stroke-dasharray:none;stroke-opacity:1"
         d="m 160.90625,128.74805 c 0.0116,0.35341 -0.0213,0.7208 -0.0156,1.07617 0.0108,0.90374 0.11468,1.77511 0.0859,2.6914 -0.0154,0.49127 -0.1212,1.0072 -0.14844,1.50196 -0.0131,0.25342 0.005,0.49765 -0.0117,0.75195 0.0494,-0.76611 0.19966,-1.55835 0.2207,-2.31641 0.035,-1.26071 -0.092,-2.46781 -0.13086,-3.70507 z"
         id="path2286"
         transform="translate(143.41788,709.27353)" />
      <path
         style="fill:#000000;fill-opacity:1;stroke:none;stroke-width:5.95837;stroke-miterlimit:4;stroke-dasharray:none;stroke-opacity:1"
         d="m 160.89062,128.3125 c -0.0125,-0.31498 -0.061,-0.6163 -0.0781,-0.92969 0.0406,0.80904 0.0684,1.62162 0.0781,2.44141 -0.006,-0.35537 0.0273,-0.72276 0.0156,-1.07617 -0.005,-0.14545 -0.0101,-0.29044 -0.0156,-0.43555 z"
         id="path2284"
         transform="translate(143.41788,709.27353)" />
      <path
         style="fill:#000000;fill-opacity:1;stroke:none;stroke-width:5.95837;stroke-miterlimit:4;stroke-dasharray:none;stroke-opacity:1"
         d="m 160.89062,128.3125 c 0.006,0.14511 0.0111,0.2901 0.0156,0.43555 -0.002,-0.0712 0.006,-0.14568 0.004,-0.2168 -0.003,-0.0742 -0.0166,-0.1446 -0.0195,-0.21875 z"
         id="path2282"
         transform="translate(143.41788,709.27353)" />
      <path
         style="fill:#000000;fill-opacity:1;stroke:none;stroke-width:5.95837;stroke-miterlimit:4;stroke-dasharray:none;stroke-opacity:1"
         d="m 149.11719,90.742188 c 2.13001,3.646297 4.21517,7.680793 6.02929,12.046872 0.90707,2.18304 1.74676,4.44918 2.49024,6.79102 0.74347,2.34183 1.39058,4.75957 1.91406,7.24609 0.52348,2.48653 0.92285,5.04305 1.16992,7.66016 0.0891,0.94409 0.0436,1.93665 0.0918,2.89648 0.0171,0.31339 0.0656,0.61471 0.0781,0.92969 -0.0492,-1.2871 -0.0121,-2.60348 -0.13476,-3.86328 -0.25412,-2.61006 -0.65951,-5.15862 -1.1875,-7.64063 -0.52799,-2.48201 -1.17782,-4.89703 -1.92383,-7.23632 -0.74601,-2.3393 -1.5879,-4.60325 -2.49609,-6.78516 -1.81638,-4.363826 -3.90124,-8.398625 -6.03125,-12.044922 z"
         id="path2280"
         transform="translate(143.41788,709.27353)" />
      <path
         style="fill:#000000;fill-opacity:1;stroke:none;stroke-width:5.95837;stroke-miterlimit:4;stroke-dasharray:none;stroke-opacity:1"
         d="m 145.82422,85.953125 c -0.0104,0.0088 -0.0169,0.0146 -0.0273,0.02344 1.15525,1.58849 2.30933,3.177136 3.17578,4.765626 1.66069,2.888157 3.30463,6.01139 4.8164,9.341789 1.51177,3.33041 2.89209,6.86939 4.0293,10.5879 0.56861,1.85925 1.07711,3.76286 1.50976,5.70898 0.43266,1.94612 0.79009,3.93471 1.0586,5.96094 0.21868,1.65024 0.33295,3.34171 0.42578,5.04101 -0.0482,-0.95983 -0.003,-1.95239 -0.0918,-2.89648 -0.24707,-2.61711 -0.64644,-5.17363 -1.16992,-7.66016 -0.52348,-2.48652 -1.17059,-4.90426 -1.91406,-7.24609 -0.74348,-2.34184 -1.58317,-4.60798 -2.49024,-6.79102 -1.81412,-4.366076 -3.89928,-8.400572 -6.02929,-12.046869 -0.96117,-1.645391 -2.09162,-3.233188 -3.29297,-4.789063 z"
         id="path2278"
         transform="translate(143.41788,709.27353)" />
      <path
         style="fill:#000000;fill-opacity:1;stroke:none;stroke-width:5.95837;stroke-miterlimit:4;stroke-dasharray:none;stroke-opacity:1"
         d="m 289.2421,795.22666 c 1.20135,1.55587 2.3318,3.14367 3.29297,4.78906 2.13001,3.6463 4.21487,7.68109 6.03125,12.04492 0.90819,2.18191 1.75008,4.44586 2.49609,6.78516 0.74601,2.33929 1.39584,4.75431 1.92383,7.23632 0.52799,2.48201 0.93338,5.03057 1.1875,7.64063 0.12266,1.2598 0.0856,2.57618 0.13476,3.86328 0.003,0.0741 0.0168,0.14452 0.0195,0.21875 0.003,0.0711 -0.006,0.1456 -0.004,0.2168 0.0389,1.23726 0.16585,2.44436 0.13086,3.70507 -0.021,0.75806 -0.17135,1.5503 -0.2207,2.31641 -0.004,0.0548 0.002,0.10725 -0.002,0.16211 0.54153,-0.90255 1.16595,-1.71644 1.84766,-2.45117 0.68171,-0.73473 1.42116,-1.39134 2.18945,-1.97461 1.53659,-1.16655 3.1925,-2.04622 4.75391,-2.70508 1.56141,-0.65886 3.02803,-1.09686 4.18555,-1.3789 1.15751,-0.28205 2.00516,-0.40726 2.33007,-0.44336 -0.86644,-2.38273 -1.60592,-4.77477 -2.21289,-7.11914 -0.60696,-2.34438 -1.08012,-4.64079 -1.41406,-6.83399 -0.33394,-2.19319 -0.52879,-4.28369 -0.57617,-6.21289 -0.0474,-1.9292 0.052,-3.69762 0.30469,-5.25 0.1444,-1.01085 0.34409,-2.3469 0.67578,-3.82031 0.33168,-1.47341 0.79574,-3.08508 1.47265,-4.64649 0.67692,-1.56141 1.56601,-3.0728 2.7461,-4.34765 0.59004,-0.63743 1.2526,-1.21539 1.99804,-1.71094 0.74545,-0.49556 1.57354,-0.90798 2.49415,-1.21484 0.75814,-0.25272 1.5362,-0.40827 2.32226,-0.48047 0.0901,-0.008 0.18123,0.008 0.27148,0.002 0,0 0.002,0 0.002,0 0.003,-1.7e-4 0.005,1.7e-4 0.008,0 0.69418,-0.0463 1.39291,-0.054 2.08789,0.0176 0.11743,0.0121 0.22269,0.0766 0.33984,0.0918 0.0654,0.009 0.13194,-0.002 0.19727,0.008 0.29131,0.0422 0.54178,0.20596 0.83008,0.26562 1.09025,0.22439 2.19563,0.42348 3.20117,0.85352 0.23669,0.10122 0.40321,0.26102 0.63281,0.37109 0.0954,0.0453 0.21257,0.0509 0.30664,0.0977 0.32798,0.16301 0.53143,0.39595 0.8418,0.57422 0.69675,0.40171 1.47258,0.7504 2.05664,1.20508 0.236,0.18371 0.327,0.37981 0.54102,0.56835 0.13501,0.11691 0.34845,0.206 0.47461,0.32422 0.25119,0.2354 0.28478,0.4597 0.49804,0.69727 0.30824,0.34895 0.7709,0.6936 0.98438,1.03516 -0.54153,-1.40798 -1.31751,-2.70647 -2.25391,-3.90235 -0.93639,-1.19587 -2.0325,-2.28844 -3.21484,-3.28125 -1.18234,-0.9928 -2.45111,-1.88679 -3.73047,-2.68555 -1.27936,-0.79875 -2.56941,-1.50149 -3.79688,-2.11523 -1.73289,-0.90255 -3.57504,-1.61563 -5.47265,-2.15039 -1.89761,-0.53476 -3.85006,-0.8925 -5.8086,-1.08203 -1.95853,-0.18954 -3.92223,-0.21125 -5.83789,-0.0781 -1.91566,0.13313 -3.78373,0.42225 -5.55273,0.85547 -1.66069,0.39712 -3.12365,0.92035 -4.4707,1.55664 -1.34706,0.6363 -2.57891,1.38598 -3.7793,2.23438 -2.39187,1.69049 -4.66138,3.77668 -7.46289,6.14844 z"
         id="path2276" />
      <path
         style="fill:#000000;fill-opacity:0.727027;stroke:none;stroke-width:5.95837;stroke-miterlimit:4;stroke-dasharray:none;stroke-opacity:1"
         d="m 76.21875,40.296875 c -0.08656,-0.07896 -0.231386,-0.16324 -0.316406,-0.242187 -0.288815,2.599339 -0.504976,5.307566 -0.613282,8.105468 -0.106616,2.754295 -0.100622,5.599719 0.03711,8.511719 0.03132,0.02392 0.05256,0.04637 0.08398,0.07031 1.031189,0.785404 2.292334,1.590979 3.44336,2.388671 1.437363,0.997161 2.908883,1.990436 4.533203,2.986329 2.126917,1.304652 4.324372,2.612639 6.80664,3.90039 2.95867,1.534898 6.17975,3.045683 9.681641,4.507813 2.454934,1.01085 9.963014,4.04309 10.107424,4.1875 l 9.38672,3.755859 -0.49609,-0.140625 0.35156,0.140625 -9.67383,-2.744141 c -0.28882,-0.1444 -7.94363,-2.311284 -10.542972,-3.177734 -0.864334,-0.31777 -1.48534,-0.67962 -2.316406,-1.003906 -2.155873,-0.838519 -4.329927,-1.674005 -6.271484,-2.558594 -0.809314,-0.36873 -1.476664,-0.759703 -2.25,-1.134766 -0.714995,-0.345462 -1.635927,-0.655708 -2.320313,-1.005859 -0.65543,-0.335337 -1.100625,-0.697828 -1.728515,-1.037109 -0.384164,-0.20763 -0.842596,-0.40454 -1.216797,-0.613282 -2.311654,-1.289517 -4.433328,-2.597532 -6.380859,-3.908203 -0.09256,-0.06229 -0.162135,-0.123249 -0.253907,-0.185547 -0.193494,-0.134022 -0.466336,-0.260202 -0.65625,-0.394531 0.288815,3.610195 0.759375,7.257526 1.445313,10.921875 0.681449,3.640371 1.582141,7.298728 2.726562,10.957031 0.335743,0.17471 0.638778,0.353764 0.980469,0.527344 1.807193,0.930223 3.705925,1.820149 5.683594,2.683594 1.391552,0.616506 2.910821,1.185492 4.386719,1.773437 1.868315,0.72883 3.679914,1.469671 5.716796,2.164063 1.29967,0.43322 5.19922,1.876953 5.19922,1.876953 l 4.91016,1.732422 -0.68945,-0.09766 0.68945,0.242187 -5.05469,-0.722656 c -0.1444,0 -4.331313,-0.576415 -5.775393,-0.865234 -1.987812,-0.476418 -3.666151,-1.15 -5.517578,-1.716797 -0.6771,-0.206765 -1.424272,-0.376146 -2.082031,-0.59375 C 87.95423,89.495857 87.71428,89.381082 87.439453,89.287109 86.234014,88.87546 84.852434,88.569547 83.707031,88.125 c -0.82677,-0.320881 -1.479369,-0.718556 -2.27539,-1.054688 1.363793,3.43116 2.935307,6.584873 4.707031,9.501954 1.787047,2.94231 3.771385,5.650604 5.9375,8.177734 h 0.144531 l 5.488281,1.44531 -0.710937,-0.0449 0.710937,0.1875 -4.402343,-0.21875 c 2.435574,2.69487 5.067556,5.22348 7.888669,7.6582 2.89944,2.50232 5.98103,4.91785 9.20313,7.34571 6.4442,4.85571 13.44757,9.7647 20.66797,15.54101 1.21844,0.97476 2.33591,1.98155 3.36132,3.01172 1.02542,1.03018 1.95867,2.08421 2.80665,3.1543 1.69594,2.14017 3.05313,4.34405 4.13281,6.55078 1.07967,2.20673 1.88263,4.41721 2.4707,6.56641 0.58807,2.14919 0.96052,4.23752 1.18164,6.20507 0.22113,1.96756 0.29069,3.81279 0.26953,5.47461 -0.0212,1.66182 -0.13271,3.14107 -0.27148,4.37305 -0.27754,2.46396 -0.66602,3.94336 -0.66602,3.94336 0,0 0.76193,-0.77838 1.33594,-1.33594 0.77917,-0.85074 1.7816,-2.03481 3.01562,-3.89844 1.32675,-2.00365 2.85666,-4.66715 4.46094,-8.14648 0.80214,-1.73966 1.62202,-3.68375 2.44532,-5.85156 0.82329,-2.16781 1.64864,-4.55792 2.46093,-7.19336 0.9206,-2.92426 1.60511,-5.80855 2.08008,-8.64453 0.38961,-2.32632 0.55343,-4.5972 0.67773,-6.85547 0.0728,-1.41323 0.0847,-2.80862 0.0625,-4.19336 -0.01,-0.81979 -0.0375,-1.63237 -0.0781,-2.44141 -0.0928,-1.6993 -0.2071,-3.39077 -0.42578,-5.04101 -0.26851,-2.02623 -0.62594,-4.01482 -1.0586,-5.96094 -0.43265,-1.94612 -0.94115,-3.84973 -1.50976,-5.70898 -1.13721,-3.71851 -2.51753,-7.25749 -4.0293,-10.5879 -1.51177,-3.330402 -3.15571,-6.453635 -4.8164,-9.341792 -0.86645,-1.58849 -2.02053,-3.177136 -3.17578,-4.765626 0.0104,-0.0088 0.0169,-0.01461 0.0273,-0.02344 -0.12979,-0.168088 -0.2232,-0.3506 -0.35547,-0.517578 -1.35664,-1.712587 -2.84211,-3.366592 -4.42383,-4.955078 -1.58172,-1.588487 -3.25977,-3.111652 -5,-4.5625 -1.74023,-1.450848 -3.54282,-2.829236 -5.375,-4.128907 -3.66435,-2.599341 -7.44732,-4.88347 -11.08008,-6.796874 -3.63276,-1.913405 -7.11492,-3.455059 -10.18359,-4.574219 -3.06867,-1.155263 -6.22798,-2.644543 -9.24023,-4.228516 -3.012263,-1.583973 -5.877369,-3.262542 -8.359379,-4.796875 -4.964022,-3.068666 -8.394532,-5.560547 -8.394532,-5.560547 -2.707647,-1.8051 -4.936508,-3.519736 -6.847656,-5.189453 -0.134022,-0.117091 -0.214755,-0.22904 -0.345703,-0.345703 z"
         id="path2274"
         transform="translate(143.41788,709.27353)" />
      <path
         style="fill:#000000;fill-opacity:1;stroke:none;stroke-width:5.95837;stroke-miterlimit:4;stroke-dasharray:none;stroke-opacity:1"
         d="m 76.21875,40.296875 c 0.130948,0.116663 0.211681,0.228612 0.345703,0.345703 1.911148,1.669717 4.140009,3.384353 6.847656,5.189453 C 80.50708,43.895342 78.19059,42.095473 76.21875,40.296875 Z"
         id="path2272"
         transform="translate(143.41788,709.27353)" />
      <path
         style="fill:#000000;fill-opacity:0.516216;stroke:none;stroke-width:5.95837;stroke-miterlimit:4;stroke-dasharray:none;stroke-opacity:1"
         d="m 63.628906,25.615234 c -0.86645,1.8773 -1.660772,3.970725 -2.382812,6.28125 -0.72204,2.310525 -1.371589,4.838282 -1.949219,7.582032 0.649835,1.11916 1.758687,2.887017 3.496094,5.09375 0.868703,1.103366 1.894445,2.317559 3.097656,3.613281 1.203211,1.295722 2.584602,2.674322 4.164063,4.109375 1.554609,1.412473 3.31225,2.880464 5.271484,4.376953 -0.137732,-2.912 -0.143726,-5.757424 -0.03711,-8.511719 0.108306,-2.797902 0.324467,-5.506129 0.613282,-8.105468 0.08502,0.07895 0.229843,0.163229 0.316406,0.242187 C 74.482384,38.749929 72.959417,37.233318 71.625,35.722656 68.754895,32.47348 66.517061,29.225429 63.628906,25.615234 Z"
         id="path2270"
         transform="translate(143.41788,709.27353)" />
      <g
         style="fill:#feffff;fill-opacity:1;stroke-width:1.59977"
         id="g43"
         transform="matrix(1.4440786,0,0,1.4440786,-333.76137,493.00519)">
        <linearGradient
           y2="262.58051"
           x2="441.68719"
           y1="171.88429"
           x1="369.02579"
           gradientUnits="userSpaceOnUse"
           id="linearGradient3548">
          <stop
             id="stop3550"
             style="stop-color:#7CC099"
             offset="0.1296" />
          <stop
             id="stop3552"
             style="stop-color:#6FB594"
             offset="0.3785" />
          <stop
             id="stop3554"
             style="stop-color:#4E9688"
             offset="0.835" />
          <stop
             id="stop3556"
             style="stop-color:#408A83"
             offset="1" />
        </linearGradient>
      </g>
      <g
         style="fill:#feffff;fill-opacity:1;stroke-width:1.59977"
         id="g56"
         transform="matrix(1.4440786,0,0,1.4440786,-333.76137,493.00519)">
        <g
           style="fill:#feffff;fill-opacity:1;stroke-width:1.59977"
           id="g58">
          <linearGradient
             gradientTransform="matrix(0.9669,0.2553,-0.2553,0.9669,-399.6603,-163.1002)"
             y2="154.45329"
             x2="918.56207"
             y1="154.45329"
             x1="936.13898"
             gradientUnits="userSpaceOnUse"
             id="linearGradient3561">
            <stop
               id="stop3563"
               style="stop-color:#DBE6E0"
               offset="0" />
            <stop
               id="stop3565"
               style="stop-color:#BCDED3"
               offset="1" />
          </linearGradient>
        </g>
        <g
           style="fill:#feffff;fill-opacity:1;stroke-width:1.59977"
           id="g67">
          <g
             style="fill:#feffff;fill-opacity:1;stroke-width:1.59977"
             id="g69">
            <linearGradient
               y2="243.37801"
               x2="442.73761"
               y1="201.9489"
               x1="451.01599"
               gradientUnits="userSpaceOnUse"
               id="linearGradient3570">
              <stop
                 id="stop3572"
                 style="stop-color:#7CC099"
                 offset="0" />
              <stop
                 id="stop3574"
                 style="stop-color:#78BC98"
                 offset="0.2568" />
              <stop
                 id="stop3576"
                 style="stop-color:#6CB193"
                 offset="0.5165" />
              <stop
                 id="stop3578"
                 style="stop-color:#589F8C"
                 offset="0.7767" />
              <stop
                 id="stop3580"
                 style="stop-color:#408A83"
                 offset="1" />
            </linearGradient>
          </g>
          <g
             style="fill:#feffff;fill-opacity:1;stroke-width:1.59977"
             id="g84">
            <linearGradient
               y2="234.5722"
               x2="457.47629"
               y1="234.5722"
               x1="457.62369"
               gradientUnits="userSpaceOnUse"
               id="linearGradient3584">
              <stop
                 id="stop3586"
                 style="stop-color:#DBE6E0"
                 offset="0" />
              <stop
                 id="stop3588"
                 style="stop-color:#BCDED3"
                 offset="1" />
            </linearGradient>
          </g>
          <g
             style="fill:#feffff;fill-opacity:1;stroke-width:1.59977"
             id="g93">
            <linearGradient
               y2="223.4929"
               x2="457.62369"
               y1="223.4929"
               x1="467.88159"
               gradientUnits="userSpaceOnUse"
               id="linearGradient3592">
              <stop
                 id="stop3594"
                 style="stop-color:#DBE6E0"
                 offset="0" />
              <stop
                 id="stop3596"
                 style="stop-color:#BCDED3"
                 offset="1" />
            </linearGradient>
          </g>
          <g
             style="fill:#feffff;fill-opacity:1;stroke-width:1.59977"
             id="g102">
            <linearGradient
               y2="235.823"
               x2="452.43719"
               y1="235.823"
               x1="457.47629"
               gradientUnits="userSpaceOnUse"
               id="linearGradient3600">
              <stop
                 id="stop3602"
                 style="stop-color:#DBE6E0"
                 offset="0" />
              <stop
                 id="stop3604"
                 style="stop-color:#BCDED3"
                 offset="1" />
            </linearGradient>
          </g>
        </g>
        <linearGradient
           y2="227.27921"
           x2="460.47461"
           y1="227.27921"
           x1="452.19159"
           gradientUnits="userSpaceOnUse"
           id="linearGradient3607">
          <stop
             id="stop3609"
             style="stop-color:#6AA583"
             offset="0" />
          <stop
             id="stop3611"
             style="stop-color:#4C9E96"
             offset="1" />
        </linearGradient>
      </g>
      <g
         style="fill:#feffff;fill-opacity:1;stroke-width:1.59977"
         id="g138"
         transform="matrix(1.4440786,0,0,1.4440786,-333.76137,493.00519)">
        <linearGradient
           y2="252.7919"
           x2="422.0509"
           y1="260.93829"
           x1="415.2153"
           gradientUnits="userSpaceOnUse"
           id="linearGradient3635">
          <stop
             id="stop3637"
             style="stop-color:#4C9E96"
             offset="0" />
          <stop
             id="stop3639"
             style="stop-color:#489790"
             offset="0.4859" />
          <stop
             id="stop3641"
             style="stop-color:#408A83"
             offset="1" />
        </linearGradient>
      </g>
    </g>
  </g>
</svg>
