<?xml version="1.0" encoding="UTF-8" standalone="no"?>
<!-- Created with Inkscape (http://www.inkscape.org/) -->

<svg
   xmlns:dc="http://purl.org/dc/elements/1.1/"
   xmlns:cc="http://creativecommons.org/ns#"
   xmlns:rdf="http://www.w3.org/1999/02/22-rdf-syntax-ns#"
   xmlns:svg="http://www.w3.org/2000/svg"
   xmlns="http://www.w3.org/2000/svg"
   xmlns:sodipodi="http://sodipodi.sourceforge.net/DTD/sodipodi-0.dtd"
   xmlns:inkscape="http://www.inkscape.org/namespaces/inkscape"
   width="256"
   height="256"
   id="svg2"
   version="1.1"
   inkscape:version="0.92.3 (2405546, 2018-03-11)"
   sodipodi:docname="notificationicon.svg"
   inkscape:export-filename="/home/micha/Develop/nymea-app/packaging/android/res/drawable-mdpi/notifiyicon.png"
   inkscape:export-xdpi="9"
   inkscape:export-ydpi="9">
  <defs
     id="defs4">
    <linearGradient
       id="SVGID_1_"
       gradientUnits="userSpaceOnUse"
       x1="369.02579"
       y1="171.88429"
       x2="441.68719"
       y2="262.58051">
      <stop
         offset="0.1296"
         style="stop-color:#7CC099"
         id="stop46" />
      <stop
         offset="0.3785"
         style="stop-color:#6FB594"
         id="stop48" />
      <stop
         offset="0.835"
         style="stop-color:#4E9688"
         id="stop50" />
      <stop
         offset="1"
         style="stop-color:#408A83"
         id="stop52" />
    </linearGradient>
    <linearGradient
       id="SVGID_2_"
       gradientUnits="userSpaceOnUse"
       x1="936.13898"
       y1="154.45329"
       x2="918.56207"
       y2="154.45329"
       gradientTransform="matrix(0.9669,0.2553,-0.2553,0.9669,-399.6603,-163.1002)">
      <stop
         offset="0"
         style="stop-color:#DBE6E0"
         id="stop61" />
      <stop
         offset="1"
         style="stop-color:#BCDED3"
         id="stop63" />
    </linearGradient>
    <linearGradient
       id="SVGID_3_"
       gradientUnits="userSpaceOnUse"
       x1="451.01599"
       y1="201.9489"
       x2="442.73761"
       y2="243.37801">
      <stop
         offset="0"
         style="stop-color:#7CC099"
         id="stop72" />
      <stop
         offset="0.2568"
         style="stop-color:#78BC98"
         id="stop74" />
      <stop
         offset="0.5165"
         style="stop-color:#6CB193"
         id="stop76" />
      <stop
         offset="0.7767"
         style="stop-color:#589F8C"
         id="stop78" />
      <stop
         offset="1"
         style="stop-color:#408A83"
         id="stop80" />
    </linearGradient>
    <linearGradient
       id="SVGID_4_"
       gradientUnits="userSpaceOnUse"
       x1="457.62369"
       y1="234.5722"
       x2="457.47629"
       y2="234.5722">
      <stop
         offset="0"
         style="stop-color:#DBE6E0"
         id="stop87" />
      <stop
         offset="1"
         style="stop-color:#BCDED3"
         id="stop89" />
    </linearGradient>
    <linearGradient
       id="SVGID_5_"
       gradientUnits="userSpaceOnUse"
       x1="467.88159"
       y1="223.4929"
       x2="457.62369"
       y2="223.4929">
      <stop
         offset="0"
         style="stop-color:#DBE6E0"
         id="stop96" />
      <stop
         offset="1"
         style="stop-color:#BCDED3"
         id="stop98" />
    </linearGradient>
    <linearGradient
       id="SVGID_6_"
       gradientUnits="userSpaceOnUse"
       x1="457.47629"
       y1="235.823"
       x2="452.43719"
       y2="235.823">
      <stop
         offset="0"
         style="stop-color:#DBE6E0"
         id="stop105" />
      <stop
         offset="1"
         style="stop-color:#BCDED3"
         id="stop107" />
    </linearGradient>
    <linearGradient
       id="SVGID_7_"
       gradientUnits="userSpaceOnUse"
       x1="452.19159"
       y1="227.27921"
       x2="460.47461"
       y2="227.27921">
      <stop
         offset="0"
         style="stop-color:#6AA583"
         id="stop112" />
      <stop
         offset="1"
         style="stop-color:#4C9E96"
         id="stop114" />
    </linearGradient>
    <linearGradient
       id="SVGID_8_"
       gradientUnits="userSpaceOnUse"
       x1="473.17111"
       y1="268.90411"
       x2="455.23529"
       y2="283.95389"
       gradientTransform="matrix(0.9997,0.0227,-0.0227,0.9997,-36.4014,-7.9207)">
      <stop
         offset="0"
         style="stop-color:#7CC099"
         id="stop119" />
      <stop
         offset="1"
         style="stop-color:#57BAAE"
         id="stop121" />
    </linearGradient>
    <linearGradient
       id="SVGID_9_"
       gradientUnits="userSpaceOnUse"
       x1="447.13129"
       y1="274.66199"
       x2="470.95151"
       y2="274.66199"
       gradientTransform="matrix(0.9997,0.0227,-0.0227,0.9997,-36.4014,-7.9207)">
      <stop
         offset="0"
         style="stop-color:#7CC099"
         id="stop126" />
      <stop
         offset="0.2327"
         style="stop-color:#76BA97"
         id="stop128" />
      <stop
         offset="0.5485"
         style="stop-color:#65AB90"
         id="stop130" />
      <stop
         offset="0.9106"
         style="stop-color:#489186"
         id="stop132" />
      <stop
         offset="1"
         style="stop-color:#408A83"
         id="stop134" />
    </linearGradient>
    <linearGradient
       id="SVGID_10_"
       gradientUnits="userSpaceOnUse"
       x1="415.2153"
       y1="260.93829"
       x2="422.0509"
       y2="252.7919">
      <stop
         offset="0"
         style="stop-color:#4C9E96"
         id="stop141" />
      <stop
         offset="0.4859"
         style="stop-color:#489790"
         id="stop143" />
      <stop
         offset="1"
         style="stop-color:#408A83"
         id="stop145" />
    </linearGradient>
    <linearGradient
       id="SVGID_11_"
       gradientUnits="userSpaceOnUse"
       x1="425.60641"
       y1="203.1666"
       x2="393.7475"
       y2="239.4308">
      <stop
         offset="0"
         style="stop-color:#7CC099"
         id="stop152" />
      <stop
         offset="0.3183"
         style="stop-color:#77BF9C"
         id="stop154" />
      <stop
         offset="0.6757"
         style="stop-color:#6ABDA3"
         id="stop156" />
      <stop
         offset="1"
         style="stop-color:#57BAAE"
         id="stop158" />
    </linearGradient>
    <linearGradient
       gradientTransform="matrix(0.9997,0.0227,-0.0227,0.9997,-36.4014,-7.9207)"
       y2="283.95389"
       x2="455.23529"
       y1="268.90411"
       x1="473.17111"
       gradientUnits="userSpaceOnUse"
       id="linearGradient3614">
      <stop
         id="stop3616"
         style="stop-color:#7CC099"
         offset="0" />
      <stop
         id="stop3618"
         style="stop-color:#57BAAE"
         offset="1" />
    </linearGradient>
    <linearGradient
       gradientTransform="matrix(0.9997,0.0227,-0.0227,0.9997,-36.4014,-7.9207)"
       y2="274.66199"
       x2="470.95151"
       y1="274.66199"
       x1="447.13129"
       gradientUnits="userSpaceOnUse"
       id="linearGradient3621">
      <stop
         id="stop3623"
         style="stop-color:#7CC099"
         offset="0" />
      <stop
         id="stop3625"
         style="stop-color:#76BA97"
         offset="0.2327" />
      <stop
         id="stop3627"
         style="stop-color:#65AB90"
         offset="0.5485" />
      <stop
         id="stop3629"
         style="stop-color:#489186"
         offset="0.9106" />
      <stop
         id="stop3631"
         style="stop-color:#408A83"
         offset="1" />
    </linearGradient>
    <linearGradient
       id="linearGradient3645"
       gradientUnits="userSpaceOnUse"
       x1="425.60641"
       y1="203.1666"
       x2="393.7475"
       y2="239.4308">
      <stop
         offset="0"
         style="stop-color:#7CC099"
         id="stop3647" />
      <stop
         offset="0.3183"
         style="stop-color:#77BF9C"
         id="stop3649" />
      <stop
         offset="0.6757"
         style="stop-color:#6ABDA3"
         id="stop3651" />
      <stop
         offset="1"
         style="stop-color:#57BAAE"
         id="stop3653" />
    </linearGradient>
  </defs>
  <sodipodi:namedview
     id="base"
     pagecolor="#ffffff"
     bordercolor="#666666"
     borderopacity="1.0"
     inkscape:pageopacity="0.0"
     inkscape:pageshadow="2"
     inkscape:zoom="3.959798"
     inkscape:cx="36.013859"
     inkscape:cy="163.07275"
     inkscape:document-units="px"
     inkscape:current-layer="layer1"
     showgrid="true"
     inkscape:window-width="2880"
     inkscape:window-height="1698"
     inkscape:window-x="0"
     inkscape:window-y="44"
     inkscape:window-maximized="1"
     fit-margin-top="0"
     fit-margin-left="0"
     fit-margin-right="0"
     fit-margin-bottom="0"
     inkscape:pagecheckerboard="true">
    <inkscape:grid
       type="xygrid"
       id="grid1085" />
  </sodipodi:namedview>
  <metadata
     id="metadata7">
    <rdf:RDF>
      <cc:Work
         rdf:about="">
        <dc:format>image/svg+xml</dc:format>
        <dc:type
           rdf:resource="http://purl.org/dc/dcmitype/StillImage" />
        <dc:title></dc:title>
      </cc:Work>
    </rdf:RDF>
  </metadata>
  <g
     inkscape:label="Layer 1"
     inkscape:groupmode="layer"
     id="layer1"
     transform="translate(-143.41788,-709.27353)">
    <path
       style="fill:#000000;fill-opacity:1;stroke:none;stroke-width:3.72453928;stroke-miterlimit:4;stroke-dasharray:none;stroke-opacity:1"
       d="M 195.24805 88.396484 C 195.63275 88.735392 195.91634 89.07341 196.2207 89.417969 C 196.00744 89.180399 195.97385 88.956096 195.72266 88.720703 C 195.5965 88.60248 195.38306 88.513388 195.24805 88.396484 z "
       id="path2420"
       transform="translate(143.41788,709.27353)" />
    <path
       style="fill:#000000;fill-opacity:1;stroke:none;stroke-width:3.72453928;stroke-miterlimit:4;stroke-dasharray:none;stroke-opacity:1"
       d="M 192.65039 86.623047 C 193.60841 87.17331 194.50921 87.756768 195.24805 88.396484 C 195.03403 88.207943 194.94303 88.011841 194.70703 87.828125 C 194.12297 87.37345 193.34714 87.024759 192.65039 86.623047 z "
       id="path2418"
       transform="translate(143.41788,709.27353)" />
    <path
       style="fill:#000000;fill-opacity:1;stroke:none;stroke-width:3.72453928;stroke-miterlimit:4;stroke-dasharray:none;stroke-opacity:1"
       d="M 191.50195 85.951172 C 191.91839 86.150806 192.26148 86.398818 192.65039 86.623047 C 192.34002 86.444776 192.13657 86.211843 191.80859 86.048828 C 191.71452 86.002072 191.59733 85.996521 191.50195 85.951172 z "
       id="path2416"
       transform="translate(143.41788,709.27353)" />
    <path
       style="fill:#000000;fill-opacity:1;stroke:none;stroke-width:3.72453928;stroke-miterlimit:4;stroke-dasharray:none;stroke-opacity:1"
       d="M 187.66797 84.726562 C 188.99935 85.00209 190.30912 85.384009 191.50195 85.951172 C 191.27235 85.841103 191.10583 85.681303 190.86914 85.580078 C 189.8636 85.150035 188.75822 84.950954 187.66797 84.726562 z "
       id="path2414"
       transform="translate(143.41788,709.27353)" />
    <path
       style="fill:#000000;fill-opacity:1;stroke:none;stroke-width:3.72453928;stroke-miterlimit:4;stroke-dasharray:none;stroke-opacity:1"
       d="M 186.64062 84.453125 C 186.99445 84.498886 187.31812 84.654557 187.66797 84.726562 C 187.37967 84.666899 187.1292 84.503146 186.83789 84.460938 C 186.77256 84.451472 186.70607 84.461671 186.64062 84.453125 z "
       id="path2412"
       transform="translate(143.41788,709.27353)" />
    <path
       style="fill:#000000;fill-opacity:1;stroke:none;stroke-width:3.72453928;stroke-miterlimit:4;stroke-dasharray:none;stroke-opacity:1"
       d="M 184.21289 84.34375 C 185.02152 84.294356 185.83505 84.347923 186.64062 84.453125 C 186.52347 84.437972 186.41821 84.373424 186.30078 84.361328 C 185.6058 84.289742 184.90707 84.297418 184.21289 84.34375 z "
       id="path2410"
       transform="translate(143.41788,709.27353)" />
    <path
       style="fill:#000000;fill-opacity:1;stroke:none;stroke-width:3.72453928;stroke-miterlimit:4;stroke-dasharray:none;stroke-opacity:1"
       d="M 181.60938 84.822266 C 182.45715 84.551698 183.32689 84.398008 184.20312 84.34375 C 184.11287 84.349852 184.02172 84.333523 183.93164 84.341797 C 183.14558 84.414001 182.36752 84.569552 181.60938 84.822266 z "
       id="path2408"
       transform="translate(143.41788,709.27353)" />
    <path
       style="fill:#000000;fill-opacity:1;stroke:none;stroke-width:3.72453928;stroke-miterlimit:4;stroke-dasharray:none;stroke-opacity:1"
       d="M 175.88867 124.75781 C 175.87811 124.76944 175.844 124.81125 175.83398 124.82227 C 175.97839 125.3999 176.12109 125.54516 176.12109 125.83398 C 176.15236 125.83398 176.18626 125.81395 176.21484 125.8125 C 176.08839 125.45716 176.00965 125.11255 175.88867 124.75781 z "
       id="path2406"
       transform="translate(143.41788,709.27353)" />
    <path
       style="fill:#000000;fill-opacity:1;stroke:none;stroke-width:3.72453928;stroke-miterlimit:4;stroke-dasharray:none;stroke-opacity:1"
       d="M 175.88867 124.75781 C 176.00965 125.11255 176.08839 125.45716 176.21484 125.8125 C 176.5823 125.79386 176.75195 125.67891 177.42188 125.54492 C 178.03561 124.85899 178.94766 123.80321 179.97656 122.43359 C 181.00547 121.06398 182.15132 119.37993 183.23438 117.43945 C 184.31743 115.49897 185.33709 113.30282 186.11328 110.9043 C 186.50138 109.70503 186.82858 108.45473 187.07227 107.16211 C 187.31595 105.86949 187.47514 104.53398 187.5293 103.16211 C 187.70981 102.62058 187.75549 102.06961 187.68555 101.53711 C 187.6156 101.0046 187.43018 100.49081 187.15039 100.02148 C 186.8706 99.552158 186.49589 99.127385 186.04688 98.775391 C 185.59786 98.423396 185.07568 98.143401 184.49805 97.962891 C 183.77601 97.746281 183.05312 97.745744 182.36719 97.908203 C 181.68125 98.070662 181.03271 98.396853 180.45508 98.830078 C 180.16627 99.263298 180.02136 99.695686 179.87695 100.12891 C 179.73255 100.70654 179.70423 101.29333 179.7832 101.85742 C 179.86218 102.42152 180.04833 102.9638 180.32812 103.45117 C 180.60792 103.93855 180.98141 104.37127 181.43945 104.71875 C 181.8975 105.06623 182.439 105.32825 183.05273 105.47266 C 183.55816 105.61707 184.02919 105.65329 184.48047 105.61719 C 184.93174 105.58109 185.36365 105.47253 185.79688 105.32812 C 185.63441 106.57364 185.37932 107.78706 185.05469 108.96094 C 184.73005 110.13482 184.33565 111.2682 183.89453 112.35352 C 183.01229 114.52415 181.94317 116.50195 180.86914 118.2168 C 179.79511 119.93164 178.7167 121.38414 177.81641 122.50781 C 176.94109 123.60032 176.25901 124.35034 175.88867 124.75781 z "
       id="path2404"
       transform="translate(143.41788,709.27353)" />
    <path
       style="fill:#000000;fill-opacity:1;stroke:none;stroke-width:3.72453928;stroke-miterlimit:4;stroke-dasharray:none;stroke-opacity:1"
       d="M 176.25391 125.93945 C 176.23861 125.89669 176.23006 125.85525 176.21484 125.8125 C 176.18626 125.81395 176.15236 125.83398 176.12109 125.83398 C 176.12109 125.54516 175.97839 125.3999 175.83398 124.82227 C 175.844 124.81125 175.87811 124.76944 175.88867 124.75781 C 175.20532 122.75401 174.55641 120.75019 174.05078 118.79883 C 173.44156 116.44769 172.96211 114.15487 172.61914 111.9707 C 172.27617 109.78653 172.06964 107.71089 172.00195 105.79297 C 171.93426 103.87505 172.00604 102.11488 172.22266 100.5625 C 171.96994 102.11488 171.87059 103.8833 171.91797 105.8125 C 171.96535 107.7417 172.1602 109.8322 172.49414 112.02539 C 172.82808 114.21859 173.30124 116.515 173.9082 118.85938 C 174.51517 121.20375 175.25465 123.59579 176.12109 125.97852 C 176.12109 125.97852 176.24742 125.94029 176.25391 125.93945 z "
       id="path2402"
       transform="translate(143.41788,709.27353)" />
    <path
       style="fill:#000000;fill-opacity:1;stroke:none;stroke-width:3.72453928;stroke-miterlimit:4;stroke-dasharray:none;stroke-opacity:1"
       d="M 176.26562 125.97852 C 176.26562 125.97852 176.67717 125.81968 176.76172 125.79297 C 176.64415 125.8165 176.27868 125.93625 176.25391 125.93945 C 176.2586 125.95258 176.26092 125.96539 176.26562 125.97852 z "
       id="path2400"
       transform="translate(143.41788,709.27353)" />
    <path
       style="fill:#000000;fill-opacity:1;stroke:none;stroke-width:3.72453928;stroke-miterlimit:4;stroke-dasharray:none;stroke-opacity:1"
       d="M 176.26562 125.97852 C 176.26092 125.96539 176.2586 125.95258 176.25391 125.93945 C 176.24742 125.94029 176.12109 125.97852 176.12109 125.97852 L 176.26562 125.97852 z "
       id="path2398"
       transform="translate(143.41788,709.27353)" />
    <path
       style="fill:#000000;fill-opacity:1;stroke:none;stroke-width:3.72453928;stroke-miterlimit:4;stroke-dasharray:none;stroke-opacity:1"
       d="M 177.88281 125.4707 C 177.19361 125.72194 177.0212 125.74103 176.76172 125.79297 C 176.67717 125.81968 176.26562 125.97852 176.26562 125.97852 C 176.21219 125.97852 177.06338 125.73998 177.88281 125.4707 z "
       id="path2396"
       transform="translate(143.41788,709.27353)" />
    <path
       style="fill:#000000;fill-opacity:1;stroke:none;stroke-width:3.72453928;stroke-miterlimit:4;stroke-dasharray:none;stroke-opacity:1"
       d="M 178.01367 125.42969 C 177.94192 125.45458 177.94911 125.44892 177.88281 125.4707 C 177.95478 125.44447 177.92354 125.46674 178 125.4375 C 178.00317 125.43629 178.01049 125.43091 178.01367 125.42969 z "
       id="path2394"
       transform="translate(143.41788,709.27353)" />
    <path
       style="fill:#000000;fill-opacity:1;stroke:none;stroke-width:3.72453928;stroke-miterlimit:4;stroke-dasharray:none;stroke-opacity:1"
       d="M 183.33008 122.51758 C 181.5294 123.74046 179.76579 124.60775 178.45117 125.16602 C 177.43278 125.59848 177.04938 125.70208 176.76172 125.79297 C 177.0212 125.74103 177.19361 125.72194 177.88281 125.4707 C 177.94911 125.44892 177.94192 125.45458 178.01367 125.42969 C 179.2383 124.96054 181.03266 124.09545 183.33008 122.51758 z "
       id="path2392"
       transform="translate(143.41788,709.27353)" />
    <path
       style="fill:#000000;fill-opacity:1;stroke:none;stroke-width:3.72453928;stroke-miterlimit:4;stroke-dasharray:none;stroke-opacity:1"
       d="M 183.33008 122.51758 C 181.03266 124.09545 179.2383 124.96054 178.01367 125.42969 C 178.25349 125.34648 178.15136 125.41578 178.45117 125.29297 C 179.20029 124.9861 180.13431 124.54255 181.24219 123.90625 C 181.8456 123.55969 182.62541 122.98874 183.33008 122.51758 z "
       id="path2390"
       transform="translate(143.41788,709.27353)" />
    <path
       style="fill:#000000;fill-opacity:0.41621622;stroke:none;stroke-width:3.72453928;stroke-miterlimit:4;stroke-dasharray:none;stroke-opacity:1"
       d="M 197.30664 90.941406 C 197.05027 90.443189 196.68634 89.936669 196.2207 89.417969 C 195.91634 89.07341 195.63275 88.735392 195.24805 88.396484 C 194.50921 87.756768 193.60841 87.17331 192.65039 86.623047 C 192.26148 86.398818 191.91839 86.150806 191.50195 85.951172 C 190.30912 85.384009 188.99935 85.00209 187.66797 84.726562 C 187.31812 84.654557 186.99445 84.498886 186.64062 84.453125 C 185.83505 84.347923 185.02152 84.294356 184.21289 84.34375 C 184.21029 84.343923 184.20768 84.343575 184.20508 84.34375 C 184.20508 84.34375 184.20312 84.34375 184.20312 84.34375 C 183.32689 84.398008 182.45715 84.551698 181.60938 84.822266 C 180.68877 85.129132 179.86068 85.541554 179.11523 86.037109 C 178.36979 86.532665 177.70723 87.110622 177.11719 87.748047 C 175.9371 89.022897 175.04801 90.534294 174.37109 92.095703 C 173.69418 93.657113 173.23012 95.268776 172.89844 96.742188 C 172.56675 98.215599 172.36706 99.551645 172.22266 100.5625 C 172.00604 102.11488 171.93426 103.87505 172.00195 105.79297 C 172.06964 107.71089 172.27617 109.78653 172.61914 111.9707 C 172.96211 114.15487 173.44156 116.44769 174.05078 118.79883 C 174.55641 120.75019 175.20532 122.75401 175.88867 124.75781 C 176.25901 124.35034 176.94109 123.60032 177.81641 122.50781 C 178.7167 121.38414 179.79511 119.93164 180.86914 118.2168 C 181.94317 116.50195 183.01229 114.52415 183.89453 112.35352 C 184.33565 111.2682 184.73005 110.13482 185.05469 108.96094 C 185.37932 107.78706 185.63441 106.57364 185.79688 105.32812 C 185.36365 105.47253 184.93174 105.58109 184.48047 105.61719 C 184.02919 105.65329 183.55816 105.61707 183.05273 105.47266 C 182.439 105.32825 181.8975 105.06623 181.43945 104.71875 C 180.98141 104.37127 180.60792 103.93855 180.32812 103.45117 C 180.04833 102.9638 179.86218 102.42152 179.7832 101.85742 C 179.70423 101.29333 179.73255 100.70654 179.87695 100.12891 C 180.02136 99.695686 180.16627 99.263298 180.45508 98.830078 C 181.03271 98.396853 181.68125 98.070662 182.36719 97.908203 C 183.05312 97.745744 183.77601 97.746281 184.49805 97.962891 C 185.07568 98.143401 185.59786 98.423396 186.04688 98.775391 C 186.49589 99.127385 186.8706 99.552158 187.15039 100.02148 C 187.43018 100.49081 187.6156 101.0046 187.68555 101.53711 C 187.75549 102.06961 187.70981 102.62058 187.5293 103.16211 C 187.47514 104.53398 187.31595 105.86949 187.07227 107.16211 C 186.82858 108.45473 186.50138 109.70503 186.11328 110.9043 C 185.33709 113.30282 184.31743 115.49897 183.23438 117.43945 C 182.15132 119.37993 181.00547 121.06398 179.97656 122.43359 C 178.94766 123.80321 178.03561 124.85899 177.42188 125.54492 C 176.75195 125.67891 176.5823 125.79386 176.21484 125.8125 C 176.23006 125.85525 176.23861 125.89669 176.25391 125.93945 C 176.27868 125.93625 176.64415 125.8165 176.76172 125.79297 C 177.04938 125.70208 177.43278 125.59848 178.45117 125.16602 C 179.76579 124.60775 181.5294 123.74046 183.33008 122.51758 C 183.33008 122.51758 183.33203 122.51758 183.33203 122.51758 C 183.33634 122.51462 183.33748 122.51469 183.3418 122.51172 C 183.9277 122.11967 184.42269 121.84753 185.07617 121.35742 C 186.84517 120.05775 188.35237 118.70455 189.6543 117.29883 C 190.95622 115.89311 192.05232 114.43499 193 112.92773 C 193.94768 111.42048 194.74688 109.86405 195.45312 108.25977 C 196.15937 106.65548 196.77198 105.00343 197.34961 103.30664 C 197.85504 101.79036 198.32387 99.985608 198.48633 98 C 198.56756 97.007196 198.57285 95.967958 198.4668 94.898438 C 198.36075 93.828917 198.14422 92.728535 197.7832 91.609375 C 198.10812 92.728535 198.30697 93.82922 198.40625 94.896484 C 198.50553 95.963748 198.5058 96.99669 198.43359 97.980469 C 198.28919 99.948026 197.85504 101.71803 197.34961 103.16211 C 196.77198 104.8589 196.15937 106.51095 195.45312 108.11523 C 194.74688 109.71952 193.94768 111.27595 193 112.7832 C 192.05232 114.29046 190.95622 115.74858 189.6543 117.1543 C 188.35237 118.56002 186.84517 119.91322 185.07617 121.21289 C 184.49853 121.64611 184.06408 121.9358 183.63086 122.22461 C 184.4973 121.64698 185.36497 120.95979 186.19531 120.18359 C 187.02566 119.4074 187.81898 118.54217 188.54102 117.60352 C 190.0934 115.5096 191.28474 113.74053 192.23242 112.1543 C 193.1801 110.56807 193.88331 109.16363 194.46094 107.80078 C 195.6162 105.07508 196.26655 102.5126 197.34961 98.974609 C 197.85504 97.386124 198.07126 95.869388 198.03516 94.443359 C 198.00347 93.191831 197.70322 92.041698 197.30664 90.941406 z "
       id="path2388"
       transform="translate(143.41788,709.27353)" />
    <path
       style="fill:#000000;fill-opacity:1;stroke:none;stroke-width:3.72453928;stroke-miterlimit:4;stroke-dasharray:none;stroke-opacity:1"
       d="M 197.30664 90.941406 C 197.70322 92.041698 198.00347 93.191831 198.03516 94.443359 C 198.07126 95.869388 197.85504 97.386124 197.34961 98.974609 C 196.26655 102.5126 195.6162 105.07508 194.46094 107.80078 C 193.88331 109.16363 193.1801 110.56807 192.23242 112.1543 C 191.28474 113.74053 190.0934 115.5096 188.54102 117.60352 C 187.81898 118.54217 187.02566 119.4074 186.19531 120.18359 C 185.36497 120.95979 184.4973 121.64698 183.63086 122.22461 C 184.06408 121.9358 184.49853 121.64611 185.07617 121.21289 C 186.84517 119.91322 188.35237 118.56002 189.6543 117.1543 C 190.95622 115.74858 192.05232 114.29046 193 112.7832 C 193.94768 111.27595 194.74688 109.71952 195.45312 108.11523 C 196.15937 106.51095 196.77198 104.8589 197.34961 103.16211 C 197.85504 101.71803 198.28919 99.948026 198.43359 97.980469 C 198.5058 96.99669 198.50553 95.963748 198.40625 94.896484 C 198.30697 93.82922 198.10812 92.728535 197.7832 91.609375 C 197.71641 91.400659 197.41908 91.15992 197.30664 90.941406 z "
       id="path2386"
       transform="translate(143.41788,709.27353)" />
    <path
       style="fill:#000000;fill-opacity:1;stroke:none;stroke-width:3.72453928;stroke-miterlimit:4;stroke-dasharray:none;stroke-opacity:1"
       d="M 197.20508 90.453125 C 196.9916 90.111565 196.52894 89.76692 196.2207 89.417969 C 196.68634 89.936669 197.05027 90.443189 197.30664 90.941406 C 197.25135 90.787992 197.26693 90.603329 197.20508 90.453125 z "
       id="path2384"
       transform="translate(143.41788,709.27353)" />
    <path
       style="fill:#000000;fill-opacity:1;stroke:none;stroke-width:3.72453928;stroke-miterlimit:4;stroke-dasharray:none;stroke-opacity:1"
       d="M 197.20508 90.453125 C 197.26693 90.603329 197.25135 90.787992 197.30664 90.941406 C 197.41908 91.15992 197.71641 91.400659 197.7832 91.609375 C 197.63879 91.320555 197.49389 90.886355 197.20508 90.453125 z "
       id="path2382"
       transform="translate(143.41788,709.27353)" />
    <path
       style="fill:#000000;fill-opacity:1;stroke:none;stroke-width:3.72453928;stroke-miterlimit:4;stroke-dasharray:none;stroke-opacity:1"
       d="M 160.82812 134.01758 C 160.85536 133.52282 160.96115 133.00689 160.97656 132.51562 C 161.0053 131.59933 160.90139 130.72796 160.89062 129.82422 C 160.91282 131.20896 160.90097 132.60435 160.82812 134.01758 z "
       id="path2380"
       transform="translate(143.41788,709.27353)" />
    <path
       style="fill:#000000;fill-opacity:1;stroke:none;stroke-width:3.72453928;stroke-miterlimit:4;stroke-dasharray:none;stroke-opacity:1"
       d="M 78.853516 59.130859 C 77.70249 58.333167 76.441345 57.527592 75.410156 56.742188 C 75.378728 56.71825 75.357492 56.695798 75.326172 56.671875 C 75.328353 56.71798 75.323921 56.760501 75.326172 56.806641 C 76.337589 57.577244 77.735009 58.354903 78.853516 59.130859 z "
       id="path2378"
       transform="translate(143.41788,709.27353)" />
    <path
       style="fill:#000000;fill-opacity:1;stroke:none;stroke-width:3.72453928;stroke-miterlimit:4;stroke-dasharray:none;stroke-opacity:1"
       d="M 83.386719 62.117188 C 81.762399 61.121295 80.290879 60.12802 78.853516 59.130859 C 79.932072 59.878329 80.891417 60.617086 82.080078 61.369141 C 82.475732 61.619467 82.978517 61.866796 83.386719 62.117188 z "
       id="path2376"
       transform="translate(143.41788,709.27353)" />
    <path
       style="fill:#000000;fill-opacity:1;stroke:none;stroke-width:3.72453928;stroke-miterlimit:4;stroke-dasharray:none;stroke-opacity:1"
       d="M 118.87305 78.328125 L 119.36914 78.46875 L 109.98242 74.712891 C 109.83801 74.568481 102.32993 71.536241 99.875 70.525391 C 96.373109 69.063261 93.152029 67.552476 90.193359 66.017578 C 87.711091 64.729827 85.513636 63.42184 83.386719 62.117188 C 84.288271 62.669941 84.940474 63.225751 85.902344 63.775391 C 87.924054 64.930654 90.081312 66.076891 92.382812 67.205078 C 94.684313 68.333265 97.131126 69.442331 99.730469 70.525391 C 102.1854 71.536241 109.69348 74.568481 109.83789 74.712891 L 118.87305 78.328125 z "
       id="path2374"
       transform="translate(143.41788,709.27353)" />
    <path
       style="fill:#000000;fill-opacity:1;stroke:none;stroke-width:3.72453928;stroke-miterlimit:4;stroke-dasharray:none;stroke-opacity:1"
       d="M 96.691406 71.542969 C 97.522472 71.867255 98.143478 72.229105 99.007812 72.546875 C 101.60715 73.413325 109.26196 75.580209 109.55078 75.724609 L 119.22461 78.46875 L 118.87305 78.328125 L 109.69336 75.724609 C 109.40455 75.580209 101.75168 73.413325 99.152344 72.546875 C 98.272291 72.226393 97.537363 71.872 96.691406 71.542969 z "
       id="path2372"
       transform="translate(143.41788,709.27353)" />
    <path
       style="fill:#000000;fill-opacity:1;stroke:none;stroke-width:3.72453928;stroke-miterlimit:4;stroke-dasharray:none;stroke-opacity:1"
       d="M 88.169922 67.849609 C 88.943258 68.224672 89.610608 68.615645 90.419922 68.984375 C 92.361479 69.868964 94.535533 70.70445 96.691406 71.542969 C 93.634091 70.349988 90.795702 69.118301 88.169922 67.849609 z "
       id="path2370"
       transform="translate(143.41788,709.27353)" />
    <path
       style="fill:#000000;fill-opacity:1;stroke:none;stroke-width:3.72453928;stroke-miterlimit:4;stroke-dasharray:none;stroke-opacity:1"
       d="M 84.121094 65.806641 C 84.748984 66.145922 85.194179 66.508413 85.849609 66.84375 C 86.533995 67.193901 87.454927 67.504147 88.169922 67.849609 C 86.778184 67.174626 85.39967 66.497675 84.121094 65.806641 z "
       id="path2368"
       transform="translate(143.41788,709.27353)" />
    <path
       style="fill:#000000;fill-opacity:1;stroke:none;stroke-width:3.72453928;stroke-miterlimit:4;stroke-dasharray:none;stroke-opacity:1"
       d="M 76.269531 61.099609 C 76.361303 61.161907 76.430876 61.222863 76.523438 61.285156 C 78.470969 62.595827 80.592643 63.903842 82.904297 65.193359 C 83.278498 65.402101 83.73693 65.599011 84.121094 65.806641 C 81.269608 64.265836 78.582824 62.701897 76.269531 61.099609 z "
       id="path2366"
       transform="translate(143.41788,709.27353)" />
    <path
       style="fill:#000000;fill-opacity:0.51621622;stroke:none;stroke-width:3.72453928;stroke-miterlimit:4;stroke-dasharray:none;stroke-opacity:1"
       d="M 79.785156 82.583984 C 78.640735 78.925681 77.740043 75.267324 77.058594 71.626953 C 76.372656 67.962604 75.902096 64.315273 75.613281 60.705078 C 75.803195 60.839407 76.076037 60.965587 76.269531 61.099609 C 74.430389 59.851143 72.725887 58.60079 71.191406 57.367188 C 69.580356 56.07203 68.130334 54.79376 66.828125 53.550781 C 65.525916 52.307802 64.372571 51.099447 63.351562 49.945312 C 61.309545 47.637044 59.801808 45.543439 58.71875 43.810547 C 58.14112 47.348537 57.743011 51.174323 57.5625 55.181641 C 57.381989 59.188958 57.418216 63.376689 57.707031 67.636719 C 59.584334 69.333511 61.787752 71.175396 64.326172 73.082031 C 66.864591 74.988667 69.738837 76.96139 72.960938 78.919922 C 75.012267 80.166808 77.449237 81.368451 79.785156 82.583984 z "
       id="path2364"
       transform="translate(143.41788,709.27353)" />
    <path
       style="fill:#000000;fill-opacity:1;stroke:none;stroke-width:3.72453928;stroke-miterlimit:4;stroke-dasharray:none;stroke-opacity:1"
       d="M 80.765625 83.111328 C 80.423934 82.937748 80.120899 82.758694 79.785156 82.583984 C 79.792694 82.608081 79.795175 82.632154 79.802734 82.65625 C 80.104523 82.816021 80.459405 82.953706 80.765625 83.111328 z "
       id="path2362"
       transform="translate(143.41788,709.27353)" />
    <path
       style="fill:#000000;fill-opacity:1;stroke:none;stroke-width:3.72453928;stroke-miterlimit:4;stroke-dasharray:none;stroke-opacity:1"
       d="M 86.449219 85.794922 C 84.47155 84.931477 82.572818 84.041551 80.765625 83.111328 C 81.780751 83.627015 82.611761 84.172181 83.679688 84.675781 C 84.524855 85.074335 85.570726 85.405719 86.449219 85.794922 z "
       id="path2360"
       transform="translate(143.41788,709.27353)" />
    <path
       style="fill:#000000;fill-opacity:1;stroke:none;stroke-width:3.72453928;stroke-miterlimit:4;stroke-dasharray:none;stroke-opacity:1"
       d="M 90.835938 87.568359 C 89.36004 86.980414 87.840771 86.411428 86.449219 85.794922 C 86.862402 85.975317 87.215367 86.177625 87.636719 86.355469 C 88.634299 86.776526 89.790196 87.160416 90.835938 87.568359 z "
       id="path2358"
       transform="translate(143.41788,709.27353)" />
    <path
       style="fill:#000000;fill-opacity:1;stroke:none;stroke-width:3.72453928;stroke-miterlimit:4;stroke-dasharray:none;stroke-opacity:1"
       d="M 105.97266 93.244141 L 106.66211 93.341797 L 101.75195 91.609375 C 101.75195 91.609375 97.852404 90.165642 96.552734 89.732422 C 94.515852 89.03803 92.704253 88.297189 90.835938 87.568359 C 92.759036 88.334453 94.484687 89.171573 96.552734 89.876953 C 97.852404 90.310183 101.75195 91.753906 101.75195 91.753906 L 105.97266 93.244141 z "
       id="path2356"
       transform="translate(143.41788,709.27353)" />
    <path
       style="fill:#000000;fill-opacity:1;stroke:none;stroke-width:3.72453928;stroke-miterlimit:4;stroke-dasharray:none;stroke-opacity:1"
       d="M 90.314453 90.181641 C 92.16588 90.748438 93.844219 91.42202 95.832031 91.898438 C 97.276111 92.187257 101.46302 92.763672 101.60742 92.763672 L 106.66211 93.486328 L 105.97266 93.244141 L 101.60742 92.619141 C 101.46302 92.619141 97.276111 92.042716 95.832031 91.753906 C 93.892429 91.282108 92.108727 90.729555 90.314453 90.181641 z "
       id="path2354"
       transform="translate(143.41788,709.27353)" />
    <path
       style="fill:#000000;fill-opacity:1;stroke:none;stroke-width:3.72453928;stroke-miterlimit:4;stroke-dasharray:none;stroke-opacity:1"
       d="M 87.439453 89.287109 C 87.71428 89.381082 87.95423 89.495857 88.232422 89.587891 C 88.890181 89.805495 89.637353 89.974876 90.314453 90.181641 C 89.349748 89.886305 88.367919 89.604174 87.439453 89.287109 z "
       id="path2352"
       transform="translate(143.41788,709.27353)" />
    <path
       style="fill:#000000;fill-opacity:1;stroke:none;stroke-width:3.72453928;stroke-miterlimit:4;stroke-dasharray:none;stroke-opacity:1"
       d="M 81.431641 87.070312 C 82.227662 87.406444 82.880261 87.804119 83.707031 88.125 C 84.852434 88.569547 86.234014 88.87546 87.439453 89.287109 C 85.34254 88.570106 83.305744 87.818165 81.390625 86.988281 C 81.402389 87.018 81.419845 87.040636 81.431641 87.070312 z "
       id="path2350"
       transform="translate(143.41788,709.27353)" />
    <path
       style="fill:#000000;fill-opacity:0.51621622;stroke:none;stroke-width:3.72453928;stroke-miterlimit:4;stroke-dasharray:none;stroke-opacity:1"
       d="M 96.998047 106.15039 L 97.708984 106.19531 L 92.220703 104.75 L 92.076172 104.75 C 89.910057 102.22287 87.925719 99.514576 86.138672 96.572266 C 84.366948 93.655185 82.795434 90.501472 81.431641 87.070312 C 78.645284 85.893733 75.888691 84.698663 73.466797 83.378906 C 70.353003 81.682114 67.53182 79.894942 64.984375 78.089844 C 62.43693 76.284746 60.162335 74.460401 58.140625 72.691406 C 58.501645 75.796176 59.007895 78.900619 59.675781 82.023438 C 60.343668 85.146256 61.172739 88.287869 62.183594 91.464844 C 62.616814 92.908924 63.195808 94.497195 63.773438 95.796875 C 66.950412 97.24095 70.416263 98.650022 74.134766 99.931641 C 77.853268 101.21326 81.823894 102.36799 86.011719 103.30664 C 87.600209 103.59546 92.220703 104.89453 92.220703 104.89453 L 96.998047 106.15039 z "
       id="path2348"
       transform="translate(143.41788,709.27353)" />
    <path
       style="fill:#000000;fill-opacity:1;stroke:none;stroke-width:3.72453928;stroke-miterlimit:4;stroke-dasharray:none;stroke-opacity:1"
       d="M 93.306641 106.11914 L 97.708984 106.33789 L 96.998047 106.15039 L 93.087891 105.90625 C 93.155182 105.98134 93.239021 106.04432 93.306641 106.11914 z "
       id="path2346"
       transform="translate(143.41788,709.27353)" />
    <path
       style="fill:#000000;fill-opacity:0.51621622;stroke:none;stroke-width:3.72453928;stroke-miterlimit:4;stroke-dasharray:none;stroke-opacity:1"
       d="M 107.80859 136.64648 C 107.81338 136.60535 107.81147 136.56063 107.81641 136.51953 C 110.56016 137.67479 114.74856 138.83107 117.63672 139.98633 C 120.77759 141.14159 123.5455 142.51239 125.98633 144.03516 C 128.42716 145.55793 130.54118 147.23139 132.37109 148.99023 C 134.20101 150.74908 135.74656 152.59355 137.05469 154.45703 C 138.36282 156.32051 139.43312 158.20433 140.30859 160.04102 C 141.18407 161.8777 141.8665 163.66724 142.39844 165.3457 C 142.93038 167.02416 143.31231 168.59167 143.58984 169.98047 C 144.14491 172.75806 144.27936 174.82395 144.35156 175.6543 L 144.35156 175.94336 C 144.35156 175.94336 144.74004 174.46396 145.01758 172 C 145.15635 170.76802 145.26791 169.28877 145.28906 167.62695 C 145.31022 165.96513 145.24066 164.1199 145.01953 162.15234 C 144.79841 160.18479 144.42596 158.09646 143.83789 155.94727 C 143.24982 153.79807 142.44686 151.58759 141.36719 149.38086 C 140.28751 147.17413 138.93032 144.97025 137.23438 142.83008 C 136.3864 141.75999 135.45315 140.70596 134.42773 139.67578 C 133.40232 138.64561 132.28485 137.63882 131.06641 136.66406 C 123.84601 130.88775 116.84264 125.97876 110.39844 121.12305 C 107.17634 118.69519 104.09475 116.27966 101.19531 113.77734 C 98.374197 111.34262 95.742215 108.81401 93.306641 106.11914 L 91.931641 106.05078 C 91.787231 106.05078 87.022084 105.76148 85.433594 105.47266 C 81.751194 104.96723 78.212951 104.24583 74.855469 103.36133 C 71.497986 102.47683 68.321688 101.4287 65.361328 100.27344 C 66.552693 102.74642 67.870417 105.0842 69.310547 107.29883 C 70.750677 109.51346 72.313143 111.60484 73.994141 113.58594 C 75.675139 115.56703 77.474703 117.43856 79.388672 119.21094 C 81.30264 120.98332 83.331662 122.65761 85.470703 124.24609 C 87.609745 125.83458 89.858626 127.33621 92.214844 128.76562 C 94.571061 130.19504 97.034113 131.5525 99.599609 132.84766 C 102.16511 134.14281 104.83273 135.37678 107.59961 136.5625 C 107.66697 136.59137 107.74111 136.61767 107.80859 136.64648 z "
       id="path2344"
       transform="translate(143.41788,709.27353)" />
    <path
       style="fill:#000000;fill-opacity:1;stroke:none;stroke-width:3.72453928;stroke-miterlimit:4;stroke-dasharray:none;stroke-opacity:1"
       d="M 133.84961 216.32031 C 134.81281 217.39792 135.66572 218.48374 136.69922 219.55469 C 136.70632 219.53842 136.7136 219.51048 136.7207 219.49414 C 135.7081 218.44074 134.79393 217.38034 133.84961 216.32031 z "
       id="path2342"
       transform="translate(143.41788,709.27353)" />
    <path
       style="fill:#000000;fill-opacity:1;stroke:none;stroke-width:3.72453928;stroke-miterlimit:4;stroke-dasharray:none;stroke-opacity:1"
       d="M 128.70508 210.21289 C 129.2365 210.90445 129.64698 211.59646 130.20508 212.28711 C 131.29854 213.64028 132.65019 214.97392 133.84961 216.32031 C 132.49121 214.80057 131.05622 213.28549 129.83203 211.75781 C 129.41967 211.24322 129.10271 210.72791 128.70508 210.21289 z "
       id="path2340"
       transform="translate(143.41788,709.27353)" />
    <path
       style="fill:#000000;fill-opacity:1;stroke:none;stroke-width:3.72453928;stroke-miterlimit:4;stroke-dasharray:none;stroke-opacity:1"
       d="M 123.91992 203.59766 C 123.99077 203.70563 124.04184 203.81191 124.11328 203.91992 C 125.4992 206.0151 127.08523 208.11483 128.70508 210.21289 C 127.01008 208.00713 125.3569 205.80022 123.91992 203.59766 z "
       id="path2338"
       transform="translate(143.41788,709.27353)" />
    <path
       style="fill:#000000;fill-opacity:1;stroke:none;stroke-width:3.72453928;stroke-miterlimit:4;stroke-dasharray:none;stroke-opacity:1"
       d="M 122.10547 200.57227 C 122.60713 201.40325 122.99094 202.22115 123.52734 203.05469 C 123.64361 203.23535 123.802 203.4169 123.91992 203.59766 C 123.2549 202.5841 122.71886 201.58217 122.10547 200.57227 z "
       id="path2336"
       transform="translate(143.41788,709.27353)" />
    <path
       style="fill:#000000;fill-opacity:1;stroke:none;stroke-width:3.72453928;stroke-miterlimit:4;stroke-dasharray:none;stroke-opacity:1"
       d="M 118.76367 194.73633 C 119.00762 195.2054 119.18894 195.66204 119.44336 196.13281 C 120.23735 197.60197 121.20541 199.0904 122.10547 200.57227 C 120.92618 198.61883 119.76121 196.6662 118.76367 194.73633 z "
       id="path2334"
       transform="translate(143.41788,709.27353)" />
    <path
       style="fill:#000000;fill-opacity:1;stroke:none;stroke-width:3.72453928;stroke-miterlimit:4;stroke-dasharray:none;stroke-opacity:1"
       d="M 117.51953 192.17773 C 117.79919 192.7592 117.99174 193.31968 118.28711 193.9043 C 118.42581 194.17882 118.62144 194.46117 118.76367 194.73633 C 118.31681 193.87706 117.93218 193.03042 117.51953 192.17773 z "
       id="path2332"
       transform="translate(143.41788,709.27353)" />
    <path
       style="fill:#000000;fill-opacity:1;stroke:none;stroke-width:3.72453928;stroke-miterlimit:4;stroke-dasharray:none;stroke-opacity:1"
       d="M 114.70703 185.86523 C 115.05891 186.74497 115.33583 187.59795 115.72266 188.48828 C 116.24979 189.70156 116.92432 190.9478 117.51953 192.17773 C 116.4967 190.05107 115.53228 187.93819 114.70703 185.86523 z "
       id="path2330"
       transform="translate(143.41788,709.27353)" />
    <path
       style="fill:#000000;fill-opacity:1;stroke:none;stroke-width:3.72453928;stroke-miterlimit:4;stroke-dasharray:none;stroke-opacity:1"
       d="M 113.98438 183.99609 C 114.1111 184.33432 114.18666 184.65019 114.31836 184.99023 C 114.42911 185.2762 114.5927 185.57804 114.70703 185.86523 C 114.45634 185.23847 114.21797 184.61688 113.98438 183.99609 z "
       id="path2328"
       transform="translate(143.41788,709.27353)" />
    <path
       style="fill:#000000;fill-opacity:1;stroke:none;stroke-width:3.72453928;stroke-miterlimit:4;stroke-dasharray:none;stroke-opacity:1"
       d="M 111.6582 177.06055 C 112.0483 178.39693 112.38907 179.70728 112.85742 181.08203 C 113.18167 182.03381 113.62018 183.02823 113.98438 183.99609 C 113.10046 181.63687 112.31693 179.31566 111.6582 177.06055 z "
       id="path2326"
       transform="translate(143.41788,709.27353)" />
    <path
       style="fill:#000000;fill-opacity:1;stroke:none;stroke-width:3.72453928;stroke-miterlimit:4;stroke-dasharray:none;stroke-opacity:1"
       d="M 111.36719 176.08789 C 111.40408 176.21919 111.42138 176.33703 111.45898 176.46875 C 111.51369 176.66038 111.60197 176.86805 111.6582 177.06055 C 111.56383 176.73724 111.4572 176.40875 111.36719 176.08789 z "
       id="path2324"
       transform="translate(143.41788,709.27353)" />
    <path
       style="fill:#000000;fill-opacity:1;stroke:none;stroke-width:3.72453928;stroke-miterlimit:4;stroke-dasharray:none;stroke-opacity:1"
       d="M 110.35742 171.89453 C 110.52856 172.63571 110.5517 173.24876 110.74609 174.00586 C 110.91937 174.6807 111.17455 175.40124 111.36719 176.08789 C 110.96103 174.64232 110.68164 173.28549 110.35742 171.89453 z "
       id="path2322"
       transform="translate(143.41788,709.27353)" />
    <path
       style="fill:#000000;fill-opacity:1;stroke:none;stroke-width:3.72453928;stroke-miterlimit:4;stroke-dasharray:none;stroke-opacity:1"
       d="M 108.39453 161.21289 C 108.6653 163.50536 109.03758 165.94108 109.53906 168.49219 C 109.75296 169.5803 110.09438 170.76602 110.35742 171.89453 C 109.49166 168.14498 108.75625 164.46838 108.39453 161.21289 z "
       id="path2320"
       transform="translate(143.41788,709.27353)" />
    <path
       style="fill:#000000;fill-opacity:1;stroke:none;stroke-width:3.72453928;stroke-miterlimit:4;stroke-dasharray:none;stroke-opacity:1"
       d="M 107.53125 148.21875 C 107.53392 148.16654 107.52444 148.1246 107.52734 148.07227 C 107.52738 148.12327 107.52734 148.16563 107.52734 148.2168 C 107.52832 148.21715 107.53027 148.21839 107.53125 148.21875 z "
       id="path2318"
       transform="translate(143.41788,709.27353)" />
    <path
       style="fill:#000000;fill-opacity:1;stroke:none;stroke-width:3.72453928;stroke-miterlimit:4;stroke-dasharray:none;stroke-opacity:1"
       d="M 107.5332 148.21875 C 107.5345 148.17134 107.52587 148.1195 107.52734 148.07227 C 107.52444 148.1246 107.53392 148.16654 107.53125 148.21875 C 107.53125 148.21875 107.5332 148.21875 107.5332 148.21875 z "
       id="path2316"
       transform="translate(143.41788,709.27353)" />
    <path
       style="fill:#000000;fill-opacity:1;stroke:none;stroke-width:3.72453928;stroke-miterlimit:4;stroke-dasharray:none;stroke-opacity:1"
       d="M 107.5332 148.21875 C 107.5332 148.21875 107.53125 148.21875 107.53125 148.21875 C 107.40106 150.76003 107.53189 153.17208 107.74414 155.34766 C 107.96075 157.56793 108.25013 159.5522 108.39453 161.21289 C 108.25013 159.69661 107.99739 157.56686 107.79883 155.23828 C 107.60433 152.95731 107.47108 150.49055 107.5332 148.21875 z "
       id="path2314"
       transform="translate(143.41788,709.27353)" />
    <path
       style="fill:#000000;fill-opacity:1;stroke:none;stroke-width:3.72453928;stroke-miterlimit:4;stroke-dasharray:none;stroke-opacity:1"
       d="M 107.99219 148.4082 C 107.84165 148.31327 107.67696 148.16453 107.52734 148.07227 C 107.52587 148.1195 107.5345 148.17134 107.5332 148.21875 C 107.64516 148.25946 107.87378 148.36476 107.99219 148.4082 z "
       id="path2312"
       transform="translate(143.41788,709.27353)" />
    <path
       style="fill:#000000;fill-opacity:0.62972975;stroke:none;stroke-width:3.72453928;stroke-miterlimit:4;stroke-dasharray:none;stroke-opacity:1"
       d="M 107.99219 148.4082 C 107.87378 148.36476 107.64516 148.25946 107.5332 148.21875 C 107.47108 150.49055 107.60433 152.95731 107.79883 155.23828 C 107.99739 157.56686 108.25013 159.69661 108.39453 161.21289 C 108.75625 164.46838 109.49166 168.14498 110.35742 171.89453 C 110.68164 173.28549 110.96103 174.64232 111.36719 176.08789 C 111.4572 176.40875 111.56383 176.73724 111.6582 177.06055 C 112.31693 179.31566 113.10046 181.63687 113.98438 183.99609 C 114.21797 184.61688 114.45634 185.23847 114.70703 185.86523 C 115.53228 187.93819 116.4967 190.05107 117.51953 192.17773 C 117.93218 193.03042 118.31681 193.87706 118.76367 194.73633 C 119.76121 196.6662 120.92618 198.61883 122.10547 200.57227 C 122.71886 201.58217 123.2549 202.5841 123.91992 203.59766 C 125.3569 205.80022 127.01008 208.00713 128.70508 210.21289 C 129.10271 210.72791 129.41967 211.24322 129.83203 211.75781 C 131.05622 213.28549 132.49121 214.80057 133.84961 216.32031 C 134.79393 217.38034 135.7081 218.44074 136.7207 219.49414 C 137.58106 217.5163 138.50088 215.03673 139.24609 212.13867 C 139.62178 210.67767 139.9526 209.11262 140.20898 207.45898 C 140.46537 205.80535 140.64789 204.06278 140.72461 202.24414 C 140.80133 200.4255 140.77268 198.53021 140.60938 196.57422 C 140.44607 194.61823 140.14728 192.60087 139.68359 190.53516 C 139.21991 188.46945 138.592 186.35677 137.76758 184.20898 C 136.94316 182.0612 135.92325 179.878 134.67773 177.67578 C 132.61992 174.06559 130.43576 170.74381 128.18164 167.70898 C 125.92752 164.67416 123.60323 161.92685 121.26562 159.46289 C 118.92802 156.99893 116.57585 154.81948 114.26758 152.92188 C 112.11874 151.15533 110.02121 149.6877 107.99219 148.4082 z "
       id="path2310"
       transform="translate(143.41788,709.27353)" />
    <path
       style="fill:#000000;fill-opacity:1;stroke:none;stroke-width:3.72453928;stroke-miterlimit:4;stroke-dasharray:none;stroke-opacity:1"
       d="M 139.05273 169.4707 C 138.60488 168.96618 138.17526 168.35529 137.72461 167.87305 C 135.72885 165.73739 133.71097 163.81708 131.70703 162.0918 C 129.70309 160.36652 127.71331 158.8349 125.77734 157.47656 C 123.84138 156.11823 121.95786 154.93327 120.16602 153.89844 C 118.37417 152.86361 116.67508 151.97937 115.10352 151.22461 C 111.96039 149.7151 109.33244 148.7221 107.52734 148.07227 C 107.67696 148.16453 107.84165 148.31327 107.99219 148.4082 C 109.55364 148.98109 111.55491 149.7321 114.05273 150.88672 C 116.74233 152.12998 119.87494 153.76869 123.23242 155.92578 C 124.91116 157.00433 126.64567 158.21091 128.41016 159.56445 C 130.17464 160.918 131.96955 162.41661 133.76562 164.07617 C 135.53485 165.71092 137.30501 167.50913 139.05273 169.4707 z "
       id="path2308"
       transform="translate(143.41788,709.27353)" />
    <path
       style="fill:#000000;fill-opacity:0.44324324;stroke:none;stroke-width:3.72453928;stroke-miterlimit:4;stroke-dasharray:none;stroke-opacity:1"
       d="M 139.43359 169.92969 C 140.83752 171.53505 142.24955 173.11232 143.60547 174.94922 C 143.80125 175.21445 143.97546 175.55007 144.16992 175.82031 C 144.16094 175.62974 144.11088 174.29936 143.62695 171.86914 C 143.3686 170.57173 142.99876 169.03082 142.46484 167.33008 C 141.93093 165.62934 141.23323 163.76861 140.32617 161.82812 C 139.41911 159.88764 138.30163 157.8682 136.92383 155.85156 C 135.54603 153.83493 133.90901 151.81982 131.96289 149.89062 C 130.01677 147.96143 127.76242 146.11763 125.15039 144.43945 C 123.84437 143.60036 122.44782 142.8023 120.95703 142.05664 C 119.46624 141.31098 117.88113 140.61811 116.19336 139.98633 C 113.30507 138.91203 110.51279 137.80104 107.80859 136.64648 C 107.6033 138.41212 107.5274 140.21018 107.50977 142.09766 C 107.49214 143.98349 107.52573 145.96394 107.52734 148.07227 C 109.33244 148.7221 111.96039 149.7151 115.10352 151.22461 C 116.67508 151.97937 118.37417 152.86361 120.16602 153.89844 C 121.95786 154.93327 123.84138 156.11823 125.77734 157.47656 C 127.71331 158.8349 129.70309 160.36652 131.70703 162.0918 C 133.71097 163.81708 135.72885 165.73739 137.72461 167.87305 C 138.17526 168.35529 138.60488 168.96618 139.05273 169.4707 C 139.07926 169.50047 139.1063 169.52289 139.13281 169.55273 C 139.23508 169.66786 139.3315 169.81338 139.43359 169.92969 z "
       id="path2306"
       transform="translate(143.41788,709.27353)" />
    <path
       style="fill:#000000;fill-opacity:1;stroke:none;stroke-width:3.72453928;stroke-miterlimit:4;stroke-dasharray:none;stroke-opacity:1"
       d="M 139.43359 169.92969 C 139.3315 169.81338 139.23508 169.66786 139.13281 169.55273 C 139.1063 169.52289 139.07926 169.50047 139.05273 169.4707 C 139.1813 169.61554 139.3053 169.78299 139.43359 169.92969 z "
       id="path2304"
       transform="translate(143.41788,709.27353)" />
    <path
       style="fill:#000000;fill-opacity:1;stroke:none;stroke-width:3.72453928;stroke-miterlimit:4;stroke-dasharray:none;stroke-opacity:1"
       d="M 144.17773 175.86914 C 144.17765 175.86721 144.17003 175.82267 144.16992 175.82031 C 143.97546 175.55007 143.80125 175.21445 143.60547 174.94922 C 142.24955 173.11232 140.83752 171.53505 139.43359 169.92969 C 141.0429 171.76299 142.63235 173.73145 144.17773 175.86914 z "
       id="path2302"
       transform="translate(143.41788,709.27353)" />
    <path
       style="fill:#000000;fill-opacity:1;stroke:none;stroke-width:3.72453928;stroke-miterlimit:4;stroke-dasharray:none;stroke-opacity:1"
       d="M 144.28906 176.00977 C 144.25265 175.95915 144.2142 175.91958 144.17773 175.86914 C 144.17813 175.87778 144.20703 176.08789 144.20703 176.08789 C 144.20703 176.08789 144.28514 176.01276 144.28906 176.00977 z "
       id="path2300"
       transform="translate(143.41788,709.27353)" />
    <path
       style="fill:#000000;fill-opacity:1;stroke:none;stroke-width:3.72453928;stroke-miterlimit:4;stroke-dasharray:none;stroke-opacity:1"
       d="M 144.28906 176.00977 C 144.28514 176.01276 144.20703 176.08789 144.20703 176.08789 C 144.20703 176.08789 144.17813 175.87778 144.17773 175.86914 C 142.63235 173.73145 141.0429 171.76299 139.43359 169.92969 C 139.3053 169.78299 139.1813 169.61554 139.05273 169.4707 C 137.30501 167.50913 135.53485 165.71092 133.76562 164.07617 C 131.96955 162.41661 130.17464 160.918 128.41016 159.56445 C 126.64567 158.21091 124.91116 157.00433 123.23242 155.92578 C 119.87494 153.76869 116.74233 152.12998 114.05273 150.88672 C 111.55491 149.7321 109.55364 148.98109 107.99219 148.4082 C 110.02121 149.6877 112.11874 151.15533 114.26758 152.92188 C 116.57585 154.81948 118.92802 156.99893 121.26562 159.46289 C 123.60323 161.92685 125.92752 164.67416 128.18164 167.70898 C 130.43576 170.74381 132.61992 174.06559 134.67773 177.67578 C 135.92325 179.878 136.94316 182.0612 137.76758 184.20898 C 138.592 186.35677 139.21991 188.46945 139.68359 190.53516 C 140.14728 192.60087 140.44607 194.61823 140.60938 196.57422 C 140.77268 198.53021 140.80133 200.4255 140.72461 202.24414 C 140.64789 204.06278 140.46537 205.80535 140.20898 207.45898 C 139.9526 209.11262 139.62178 210.67767 139.24609 212.13867 C 138.50088 215.03673 137.58106 217.5163 136.7207 219.49414 C 137.344 220.14255 137.83645 220.80398 138.48633 221.44922 C 141.533 224.47417 144.87471 227.46051 148.53906 230.38477 C 148.53906 230.38477 149.45112 228.99612 150.59961 226.52539 C 151.17386 225.29003 151.80764 223.784 152.41602 222.04688 C 153.02439 220.30975 153.60819 218.34129 154.08203 216.17969 C 154.55587 214.01808 154.91921 211.6631 155.08984 209.1543 C 155.26048 206.64549 155.23873 203.98185 154.9375 201.20312 C 154.63627 198.4244 154.05699 195.52995 153.11523 192.55859 C 152.64436 191.07291 152.08256 189.56818 151.41992 188.04883 C 150.75729 186.52948 149.99266 184.99648 149.11719 183.45312 C 147.58977 180.76046 145.96184 178.34732 144.30859 176.03516 C 144.30209 176.02611 144.29557 176.0188 144.28906 176.00977 z "
       id="path2298"
       transform="translate(143.41788,709.27353)" />
    <path
       style="fill:#000000;fill-opacity:1;stroke:none;stroke-width:3.72453928;stroke-miterlimit:4;stroke-dasharray:none;stroke-opacity:1"
       d="M 144.29102 176.00781 C 144.24926 175.94947 144.21174 175.87842 144.16992 175.82031 C 144.17003 175.82267 144.17765 175.86721 144.17773 175.86914 C 144.2142 175.91958 144.25265 175.95915 144.28906 176.00977 C 144.28906 176.00977 144.29102 176.00781 144.29102 176.00781 z "
       id="path2296"
       transform="translate(143.41788,709.27353)" />
    <path
       style="fill:#000000;fill-opacity:1;stroke:none;stroke-width:3.72453928;stroke-miterlimit:4;stroke-dasharray:none;stroke-opacity:1"
       d="M 144.35156 175.95117 L 144.35156 175.94336 L 144.35156 175.6543 C 144.27936 174.82395 144.14491 172.75806 143.58984 169.98047 C 143.31231 168.59167 142.93038 167.02416 142.39844 165.3457 C 141.8665 163.66724 141.18407 161.8777 140.30859 160.04102 C 139.43312 158.20433 138.36282 156.32051 137.05469 154.45703 C 135.74656 152.59355 134.20101 150.74908 132.37109 148.99023 C 130.54118 147.23139 128.42716 145.55793 125.98633 144.03516 C 123.5455 142.51239 120.77759 141.14159 117.63672 139.98633 C 114.74856 138.83107 110.56016 137.67479 107.81641 136.51953 C 107.81147 136.56063 107.81338 136.60535 107.80859 136.64648 C 110.51279 137.80104 113.30507 138.91203 116.19336 139.98633 C 117.88113 140.61811 119.46624 141.31098 120.95703 142.05664 C 122.44782 142.8023 123.84437 143.60036 125.15039 144.43945 C 127.76242 146.11763 130.01677 147.96143 131.96289 149.89062 C 133.90901 151.81982 135.54603 153.83493 136.92383 155.85156 C 138.30163 157.8682 139.41911 159.88764 140.32617 161.82812 C 141.23323 163.76861 141.93093 165.62934 142.46484 167.33008 C 142.99876 169.03082 143.3686 170.57173 143.62695 171.86914 C 144.11088 174.29936 144.16094 175.62974 144.16992 175.82031 C 144.21174 175.87842 144.24926 175.94947 144.29102 176.00781 C 144.29396 176.00557 144.34655 175.95507 144.35156 175.95117 z "
       id="path2294"
       transform="translate(143.41788,709.27353)" />
    <path
       style="fill:#000000;fill-opacity:1;stroke:none;stroke-width:3.72453928;stroke-miterlimit:4;stroke-dasharray:none;stroke-opacity:1"
       d="M 144.35156 175.95117 C 144.34655 175.95507 144.29396 176.00557 144.29102 176.00781 C 144.2971 176.01631 144.30251 176.02665 144.30859 176.03516 C 144.3224 176.05436 144.33776 176.06866 144.35156 176.08789 L 144.35156 175.95117 z "
       id="path2292"
       transform="translate(143.41788,709.27353)" />
    <path
       style="fill:#000000;fill-opacity:1;stroke:none;stroke-width:3.72453928;stroke-miterlimit:4;stroke-dasharray:none;stroke-opacity:1"
       d="M 145.6875 174.60742 C 145.11349 175.16498 144.35156 175.94336 144.35156 175.94336 L 144.35156 175.95117 C 144.44389 175.8794 144.76019 175.64706 145.46094 174.90039 C 145.51629 174.84141 145.62895 174.67135 145.6875 174.60742 z "
       id="path2290"
       transform="translate(143.41788,709.27353)" />
    <path
       style="fill:#000000;fill-opacity:1;stroke:none;stroke-width:3.72453928;stroke-miterlimit:4;stroke-dasharray:none;stroke-opacity:1"
       d="M 160.81641 134.76953 C 160.83268 134.51523 160.81506 134.271 160.82812 134.01758 C 160.70382 136.27585 160.54 138.54673 160.15039 140.87305 C 159.67542 143.70903 158.99091 146.59332 158.07031 149.51758 C 157.25802 152.15302 156.43267 154.54313 155.60938 156.71094 C 154.78608 158.87875 153.9662 160.82284 153.16406 162.5625 C 151.55978 166.04183 150.02987 168.70533 148.70312 170.70898 C 147.4691 172.57261 146.46667 173.75668 145.6875 174.60742 C 146.04416 174.26098 146.13019 174.27541 146.51758 173.77734 C 147.16741 173.0192 147.954 172.00852 148.83398 170.69531 C 149.71397 169.3821 150.68789 167.76639 151.7168 165.79883 C 152.7457 163.83127 153.82918 161.5122 154.92578 158.79102 C 156.02238 156.06983 157.13179 152.94714 158.21484 149.37305 C 159.11739 146.46684 159.78495 143.59755 160.24609 140.77539 C 160.57888 138.73876 160.68846 136.75581 160.81641 134.76953 z "
       id="path2288"
       transform="translate(143.41788,709.27353)" />
    <path
       style="fill:#000000;fill-opacity:1;stroke:none;stroke-width:3.72453928;stroke-miterlimit:4;stroke-dasharray:none;stroke-opacity:1"
       d="M 160.90625 128.74805 C 160.91788 129.10146 160.88493 129.46885 160.89062 129.82422 C 160.90139 130.72796 161.0053 131.59933 160.97656 132.51562 C 160.96115 133.00689 160.85536 133.52282 160.82812 134.01758 C 160.81506 134.271 160.83268 134.51523 160.81641 134.76953 C 160.86576 134.00342 161.01607 133.21118 161.03711 132.45312 C 161.0721 131.19241 160.94513 129.98531 160.90625 128.74805 z "
       id="path2286"
       transform="translate(143.41788,709.27353)" />
    <path
       style="fill:#000000;fill-opacity:1;stroke:none;stroke-width:3.72453928;stroke-miterlimit:4;stroke-dasharray:none;stroke-opacity:1"
       d="M 160.89062 128.3125 C 160.87809 127.99752 160.82962 127.6962 160.8125 127.38281 C 160.8531 128.19185 160.88086 129.00443 160.89062 129.82422 C 160.88493 129.46885 160.91788 129.10146 160.90625 128.74805 C 160.90168 128.6026 160.89617 128.45761 160.89062 128.3125 z "
       id="path2284"
       transform="translate(143.41788,709.27353)" />
    <path
       style="fill:#000000;fill-opacity:1;stroke:none;stroke-width:3.72453928;stroke-miterlimit:4;stroke-dasharray:none;stroke-opacity:1"
       d="M 160.89062 128.3125 C 160.89617 128.45761 160.90168 128.6026 160.90625 128.74805 C 160.90391 128.67685 160.91274 128.60237 160.91016 128.53125 C 160.90746 128.45702 160.89357 128.38665 160.89062 128.3125 z "
       id="path2282"
       transform="translate(143.41788,709.27353)" />
    <path
       style="fill:#000000;fill-opacity:1;stroke:none;stroke-width:3.72453928;stroke-miterlimit:4;stroke-dasharray:none;stroke-opacity:1"
       d="M 149.11719 90.742188 C 151.2472 94.388485 153.33236 98.422981 155.14648 102.78906 C 156.05355 104.9721 156.89324 107.23824 157.63672 109.58008 C 158.38019 111.92191 159.0273 114.33965 159.55078 116.82617 C 160.07426 119.3127 160.47363 121.86922 160.7207 124.48633 C 160.80983 125.43042 160.76433 126.42298 160.8125 127.38281 C 160.82962 127.6962 160.87809 127.99752 160.89062 128.3125 C 160.84141 127.0254 160.87852 125.70902 160.75586 124.44922 C 160.50174 121.83916 160.09635 119.2906 159.56836 116.80859 C 159.04037 114.32658 158.39054 111.91156 157.64453 109.57227 C 156.89852 107.23297 156.05663 104.96902 155.14844 102.78711 C 153.33206 98.423284 151.2472 94.388485 149.11719 90.742188 z "
       id="path2280"
       transform="translate(143.41788,709.27353)" />
    <path
       style="fill:#000000;fill-opacity:1;stroke:none;stroke-width:3.72453928;stroke-miterlimit:4;stroke-dasharray:none;stroke-opacity:1"
       d="M 145.82422 85.953125 C 145.81379 85.961957 145.80732 85.967723 145.79688 85.976562 C 146.95213 87.565052 148.10621 89.153698 148.97266 90.742188 C 150.63335 93.630345 152.27729 96.753578 153.78906 100.08398 C 155.30083 103.41439 156.68115 106.95337 157.81836 110.67188 C 158.38697 112.53113 158.89547 114.43474 159.32812 116.38086 C 159.76078 118.32698 160.11821 120.31557 160.38672 122.3418 C 160.6054 123.99204 160.71967 125.68351 160.8125 127.38281 C 160.76433 126.42298 160.80983 125.43042 160.7207 124.48633 C 160.47363 121.86922 160.07426 119.3127 159.55078 116.82617 C 159.0273 114.33965 158.38019 111.92191 157.63672 109.58008 C 156.89324 107.23824 156.05355 104.9721 155.14648 102.78906 C 153.33236 98.422981 151.2472 94.388485 149.11719 90.742188 C 148.15602 89.096797 147.02557 87.509 145.82422 85.953125 z "
       id="path2278"
       transform="translate(143.41788,709.27353)" />
    <path
       style="fill:#000000;fill-opacity:1;stroke:none;stroke-width:3.72453928;stroke-miterlimit:4;stroke-dasharray:none;stroke-opacity:1"
       d="M 145.82422 85.953125 C 147.02557 87.509 148.15602 89.096797 149.11719 90.742188 C 151.2472 94.388485 153.33206 98.423284 155.14844 102.78711 C 156.05663 104.96902 156.89852 107.23297 157.64453 109.57227 C 158.39054 111.91156 159.04037 114.32658 159.56836 116.80859 C 160.09635 119.2906 160.50174 121.83916 160.75586 124.44922 C 160.87852 125.70902 160.84141 127.0254 160.89062 128.3125 C 160.89357 128.38665 160.90746 128.45702 160.91016 128.53125 C 160.91274 128.60237 160.90391 128.67685 160.90625 128.74805 C 160.94513 129.98531 161.0721 131.19241 161.03711 132.45312 C 161.01607 133.21118 160.86576 134.00342 160.81641 134.76953 C 160.8129 134.82435 160.81811 134.87678 160.81445 134.93164 C 161.35598 134.02909 161.9804 133.2152 162.66211 132.48047 C 163.34382 131.74574 164.08327 131.08913 164.85156 130.50586 C 166.38815 129.33931 168.04406 128.45964 169.60547 127.80078 C 171.16688 127.14192 172.6335 126.70392 173.79102 126.42188 C 174.94853 126.13983 175.79618 126.01462 176.12109 125.97852 C 175.25465 123.59579 174.51517 121.20375 173.9082 118.85938 C 173.30124 116.515 172.82808 114.21859 172.49414 112.02539 C 172.1602 109.8322 171.96535 107.7417 171.91797 105.8125 C 171.87059 103.8833 171.96994 102.11488 172.22266 100.5625 C 172.36706 99.551645 172.56675 98.215599 172.89844 96.742188 C 173.23012 95.268776 173.69418 93.657113 174.37109 92.095703 C 175.04801 90.534294 175.9371 89.022897 177.11719 87.748047 C 177.70723 87.110622 178.36979 86.532665 179.11523 86.037109 C 179.86068 85.541554 180.68877 85.129132 181.60938 84.822266 C 182.36752 84.569552 183.14558 84.414001 183.93164 84.341797 C 184.02172 84.333523 184.11287 84.349852 184.20312 84.34375 C 184.20312 84.34375 184.20508 84.34375 184.20508 84.34375 C 184.20768 84.343575 184.21029 84.343923 184.21289 84.34375 C 184.90707 84.297418 185.6058 84.289742 186.30078 84.361328 C 186.41821 84.373424 186.52347 84.437972 186.64062 84.453125 C 186.70607 84.461671 186.77256 84.451472 186.83789 84.460938 C 187.1292 84.503146 187.37967 84.666899 187.66797 84.726562 C 188.75822 84.950954 189.8636 85.150035 190.86914 85.580078 C 191.10583 85.681303 191.27235 85.841103 191.50195 85.951172 C 191.59733 85.996521 191.71452 86.002072 191.80859 86.048828 C 192.13657 86.211843 192.34002 86.444776 192.65039 86.623047 C 193.34714 87.024759 194.12297 87.37345 194.70703 87.828125 C 194.94303 88.011841 195.03403 88.207943 195.24805 88.396484 C 195.38306 88.513388 195.5965 88.60248 195.72266 88.720703 C 195.97385 88.956096 196.00744 89.180399 196.2207 89.417969 C 196.52894 89.76692 196.9916 90.111565 197.20508 90.453125 C 196.66355 89.04515 195.88757 87.746658 194.95117 86.550781 C 194.01478 85.354905 192.91867 84.262335 191.73633 83.269531 C 190.55399 82.276727 189.28522 81.382741 188.00586 80.583984 C 186.7265 79.785228 185.43645 79.082485 184.20898 78.46875 C 182.47609 77.566203 180.63394 76.85312 178.73633 76.318359 C 176.83872 75.783599 174.88627 75.425864 172.92773 75.236328 C 170.9692 75.046793 169.0055 75.025077 167.08984 75.158203 C 165.17418 75.291329 163.30611 75.580447 161.53711 76.013672 C 159.87642 76.410794 158.41346 76.934015 157.06641 77.570312 C 155.71935 78.20661 154.4875 78.956292 153.28711 79.804688 C 150.89524 81.495184 148.62573 83.581371 145.82422 85.953125 z "
       id="path2276"
       transform="translate(143.41788,709.27353)" />
    <path
       style="fill:#000000;fill-opacity:0.727027;stroke:none;stroke-width:3.72453928;stroke-miterlimit:4;stroke-dasharray:none;stroke-opacity:1"
       d="M 76.21875 40.296875 C 76.132187 40.217917 75.987364 40.133635 75.902344 40.054688 C 75.613529 42.654027 75.397368 45.362254 75.289062 48.160156 C 75.182446 50.914451 75.18844 53.759875 75.326172 56.671875 C 75.357492 56.695798 75.378728 56.71825 75.410156 56.742188 C 76.441345 57.527592 77.70249 58.333167 78.853516 59.130859 C 80.290879 60.12802 81.762399 61.121295 83.386719 62.117188 C 85.513636 63.42184 87.711091 64.729827 90.193359 66.017578 C 93.152029 67.552476 96.373109 69.063261 99.875 70.525391 C 102.32993 71.536241 109.83801 74.568481 109.98242 74.712891 L 119.36914 78.46875 L 118.87305 78.328125 L 119.22461 78.46875 L 109.55078 75.724609 C 109.26196 75.580209 101.60715 73.413325 99.007812 72.546875 C 98.143478 72.229105 97.522472 71.867255 96.691406 71.542969 C 94.535533 70.70445 92.361479 69.868964 90.419922 68.984375 C 89.610608 68.615645 88.943258 68.224672 88.169922 67.849609 C 87.454927 67.504147 86.533995 67.193901 85.849609 66.84375 C 85.194179 66.508413 84.748984 66.145922 84.121094 65.806641 C 83.73693 65.599011 83.278498 65.402101 82.904297 65.193359 C 80.592643 63.903842 78.470969 62.595827 76.523438 61.285156 C 76.430876 61.222863 76.361303 61.161907 76.269531 61.099609 C 76.076037 60.965587 75.803195 60.839407 75.613281 60.705078 C 75.902096 64.315273 76.372656 67.962604 77.058594 71.626953 C 77.740043 75.267324 78.640735 78.925681 79.785156 82.583984 C 80.120899 82.758694 80.423934 82.937748 80.765625 83.111328 C 82.572818 84.041551 84.47155 84.931477 86.449219 85.794922 C 87.840771 86.411428 89.36004 86.980414 90.835938 87.568359 C 92.704253 88.297189 94.515852 89.03803 96.552734 89.732422 C 97.852404 90.165642 101.75195 91.609375 101.75195 91.609375 L 106.66211 93.341797 L 105.97266 93.244141 L 106.66211 93.486328 L 101.60742 92.763672 C 101.46302 92.763672 97.276111 92.187257 95.832031 91.898438 C 93.844219 91.42202 92.16588 90.748438 90.314453 90.181641 C 89.637353 89.974876 88.890181 89.805495 88.232422 89.587891 C 87.95423 89.495857 87.71428 89.381082 87.439453 89.287109 C 86.234014 88.87546 84.852434 88.569547 83.707031 88.125 C 82.880261 87.804119 82.227662 87.406444 81.431641 87.070312 C 82.795434 90.501472 84.366948 93.655185 86.138672 96.572266 C 87.925719 99.514576 89.910057 102.22287 92.076172 104.75 L 92.220703 104.75 L 97.708984 106.19531 L 96.998047 106.15039 L 97.708984 106.33789 L 93.306641 106.11914 C 95.742215 108.81401 98.374197 111.34262 101.19531 113.77734 C 104.09475 116.27966 107.17634 118.69519 110.39844 121.12305 C 116.84264 125.97876 123.84601 130.88775 131.06641 136.66406 C 132.28485 137.63882 133.40232 138.64561 134.42773 139.67578 C 135.45315 140.70596 136.3864 141.75999 137.23438 142.83008 C 138.93032 144.97025 140.28751 147.17413 141.36719 149.38086 C 142.44686 151.58759 143.24982 153.79807 143.83789 155.94727 C 144.42596 158.09646 144.79841 160.18479 145.01953 162.15234 C 145.24066 164.1199 145.31022 165.96513 145.28906 167.62695 C 145.26791 169.28877 145.15635 170.76802 145.01758 172 C 144.74004 174.46396 144.35156 175.94336 144.35156 175.94336 C 144.35156 175.94336 145.11349 175.16498 145.6875 174.60742 C 146.46667 173.75668 147.4691 172.57261 148.70312 170.70898 C 150.02987 168.70533 151.55978 166.04183 153.16406 162.5625 C 153.9662 160.82284 154.78608 158.87875 155.60938 156.71094 C 156.43267 154.54313 157.25802 152.15302 158.07031 149.51758 C 158.99091 146.59332 159.67542 143.70903 160.15039 140.87305 C 160.54 138.54673 160.70382 136.27585 160.82812 134.01758 C 160.90097 132.60435 160.91282 131.20896 160.89062 129.82422 C 160.88086 129.00443 160.8531 128.19185 160.8125 127.38281 C 160.71967 125.68351 160.6054 123.99204 160.38672 122.3418 C 160.11821 120.31557 159.76078 118.32698 159.32812 116.38086 C 158.89547 114.43474 158.38697 112.53113 157.81836 110.67188 C 156.68115 106.95337 155.30083 103.41439 153.78906 100.08398 C 152.27729 96.753578 150.63335 93.630345 148.97266 90.742188 C 148.10621 89.153698 146.95213 87.565052 145.79688 85.976562 C 145.80732 85.967723 145.81379 85.961957 145.82422 85.953125 C 145.69443 85.785037 145.60102 85.602525 145.46875 85.435547 C 144.11211 83.72296 142.62664 82.068955 141.04492 80.480469 C 139.4632 78.891982 137.78515 77.368817 136.04492 75.917969 C 134.30469 74.467121 132.5021 73.088733 130.66992 71.789062 C 127.00557 69.189721 123.2226 66.905592 119.58984 64.992188 C 115.95708 63.078783 112.47492 61.537129 109.40625 60.417969 C 106.33758 59.262706 103.17827 57.773426 100.16602 56.189453 C 97.153757 54.60548 94.288651 52.926911 91.806641 51.392578 C 86.842619 48.323912 83.412109 45.832031 83.412109 45.832031 C 80.704462 44.026931 78.475601 42.312295 76.564453 40.642578 C 76.430431 40.525487 76.349698 40.413538 76.21875 40.296875 z "
       id="path2274"
       transform="translate(143.41788,709.27353)" />
    <path
       style="fill:#000000;fill-opacity:1;stroke:none;stroke-width:3.72453928;stroke-miterlimit:4;stroke-dasharray:none;stroke-opacity:1"
       d="M 76.21875 40.296875 C 76.349698 40.413538 76.430431 40.525487 76.564453 40.642578 C 78.475601 42.312295 80.704462 44.026931 83.412109 45.832031 C 80.50708 43.895342 78.19059 42.095473 76.21875 40.296875 z "
       id="path2272"
       transform="translate(143.41788,709.27353)" />
    <path
       style="fill:#000000;fill-opacity:0.51621622;stroke:none;stroke-width:3.72453928;stroke-miterlimit:4;stroke-dasharray:none;stroke-opacity:1"
       d="M 63.628906 25.615234 C 62.762456 27.492534 61.968134 29.585959 61.246094 31.896484 C 60.524054 34.207009 59.874505 36.734766 59.296875 39.478516 C 59.94671 40.597676 61.055562 42.365533 62.792969 44.572266 C 63.661672 45.675632 64.687414 46.889825 65.890625 48.185547 C 67.093836 49.481269 68.475227 50.859869 70.054688 52.294922 C 71.609297 53.707395 73.366938 55.175386 75.326172 56.671875 C 75.18844 53.759875 75.182446 50.914451 75.289062 48.160156 C 75.397368 45.362254 75.613529 42.654027 75.902344 40.054688 C 75.987364 40.133635 76.132187 40.217917 76.21875 40.296875 C 74.482384 38.749929 72.959417 37.233318 71.625 35.722656 C 68.754895 32.47348 66.517061 29.225429 63.628906 25.615234 z "
       id="path2270"
       transform="translate(143.41788,709.27353)" />
    <g
       style="fill:#feffff;fill-opacity:1"
       id="g43"
       transform="matrix(1.4440786,0,0,1.4440786,-333.76137,493.00519)">
      <linearGradient
         y2="262.58051"
         x2="441.68719"
         y1="171.88429"
         x1="369.02579"
         gradientUnits="userSpaceOnUse"
         id="linearGradient3548">
        <stop
           id="stop3550"
           style="stop-color:#7CC099"
           offset="0.1296" />
        <stop
           id="stop3552"
           style="stop-color:#6FB594"
           offset="0.3785" />
        <stop
           id="stop3554"
           style="stop-color:#4E9688"
           offset="0.835" />
        <stop
           id="stop3556"
           style="stop-color:#408A83"
           offset="1" />
      </linearGradient>
    </g>
    <g
       style="fill:#feffff;fill-opacity:1"
       id="g56"
       transform="matrix(1.4440786,0,0,1.4440786,-333.76137,493.00519)">
      <g
         style="fill:#feffff;fill-opacity:1"
         id="g58">
        <linearGradient
           gradientTransform="matrix(0.9669,0.2553,-0.2553,0.9669,-399.6603,-163.1002)"
           y2="154.45329"
           x2="918.56207"
           y1="154.45329"
           x1="936.13898"
           gradientUnits="userSpaceOnUse"
           id="linearGradient3561">
          <stop
             id="stop3563"
             style="stop-color:#DBE6E0"
             offset="0" />
          <stop
             id="stop3565"
             style="stop-color:#BCDED3"
             offset="1" />
        </linearGradient>
      </g>
      <g
         style="fill:#feffff;fill-opacity:1"
         id="g67">
        <g
           style="fill:#feffff;fill-opacity:1"
           id="g69">
          <linearGradient
             y2="243.37801"
             x2="442.73761"
             y1="201.9489"
             x1="451.01599"
             gradientUnits="userSpaceOnUse"
             id="linearGradient3570">
            <stop
               id="stop3572"
               style="stop-color:#7CC099"
               offset="0" />
            <stop
               id="stop3574"
               style="stop-color:#78BC98"
               offset="0.2568" />
            <stop
               id="stop3576"
               style="stop-color:#6CB193"
               offset="0.5165" />
            <stop
               id="stop3578"
               style="stop-color:#589F8C"
               offset="0.7767" />
            <stop
               id="stop3580"
               style="stop-color:#408A83"
               offset="1" />
          </linearGradient>
        </g>
        <g
           style="fill:#feffff;fill-opacity:1"
           id="g84">
          <linearGradient
             y2="234.5722"
             x2="457.47629"
             y1="234.5722"
             x1="457.62369"
             gradientUnits="userSpaceOnUse"
             id="linearGradient3584">
            <stop
               id="stop3586"
               style="stop-color:#DBE6E0"
               offset="0" />
            <stop
               id="stop3588"
               style="stop-color:#BCDED3"
               offset="1" />
          </linearGradient>
        </g>
        <g
           style="fill:#feffff;fill-opacity:1"
           id="g93">
          <linearGradient
             y2="223.4929"
             x2="457.62369"
             y1="223.4929"
             x1="467.88159"
             gradientUnits="userSpaceOnUse"
             id="linearGradient3592">
            <stop
               id="stop3594"
               style="stop-color:#DBE6E0"
               offset="0" />
            <stop
               id="stop3596"
               style="stop-color:#BCDED3"
               offset="1" />
          </linearGradient>
        </g>
        <g
           style="fill:#feffff;fill-opacity:1"
           id="g102">
          <linearGradient
             y2="235.823"
             x2="452.43719"
             y1="235.823"
             x1="457.47629"
             gradientUnits="userSpaceOnUse"
             id="linearGradient3600">
            <stop
               id="stop3602"
               style="stop-color:#DBE6E0"
               offset="0" />
            <stop
               id="stop3604"
               style="stop-color:#BCDED3"
               offset="1" />
          </linearGradient>
        </g>
      </g>
      <linearGradient
         y2="227.27921"
         x2="460.47461"
         y1="227.27921"
         x1="452.19159"
         gradientUnits="userSpaceOnUse"
         id="linearGradient3607">
        <stop
           id="stop3609"
           style="stop-color:#6AA583"
           offset="0" />
        <stop
           id="stop3611"
           style="stop-color:#4C9E96"
           offset="1" />
      </linearGradient>
    </g>
    <g
       style="fill:#feffff;fill-opacity:1"
       id="g138"
       transform="matrix(1.4440786,0,0,1.4440786,-333.76137,493.00519)">
      <linearGradient
         y2="252.7919"
         x2="422.0509"
         y1="260.93829"
         x1="415.2153"
         gradientUnits="userSpaceOnUse"
         id="linearGradient3635">
        <stop
           id="stop3637"
           style="stop-color:#4C9E96"
           offset="0" />
        <stop
           id="stop3639"
           style="stop-color:#489790"
           offset="0.4859" />
        <stop
           id="stop3641"
           style="stop-color:#408A83"
           offset="1" />
      </linearGradient>
    </g>
  </g>
</svg>
