<?xml version="1.0" encoding="UTF-8" standalone="no"?>
<!-- Created with Inkscape (http://www.inkscape.org/) -->

<svg
   xmlns:dc="http://purl.org/dc/elements/1.1/"
   xmlns:cc="http://creativecommons.org/ns#"
   xmlns:rdf="http://www.w3.org/1999/02/22-rdf-syntax-ns#"
   xmlns:svg="http://www.w3.org/2000/svg"
   xmlns="http://www.w3.org/2000/svg"
   xmlns:sodipodi="http://sodipodi.sourceforge.net/DTD/sodipodi-0.dtd"
   xmlns:inkscape="http://www.inkscape.org/namespaces/inkscape"
   width="96"
   height="96"
   viewBox="0 0 25.399999 25.400001"
   version="1.1"
   id="svg8"
   inkscape:version="0.92.3 (2405546, 2018-03-11)"
   sodipodi:docname="MediaBrowserIconAirable.svg">
  <defs
     id="defs2" />
  <sodipodi:namedview
     id="base"
     pagecolor="#ffffff"
     bordercolor="#666666"
     borderopacity="1.0"
     inkscape:pageopacity="0.0"
     inkscape:pageshadow="2"
     inkscape:zoom="7.9195959"
     inkscape:cx="12.366716"
     inkscape:cy="58.901736"
     inkscape:document-units="mm"
     inkscape:current-layer="layer1"
     showgrid="true"
     units="px"
     inkscape:window-width="2792"
     inkscape:window-height="1698"
     inkscape:window-x="88"
     inkscape:window-y="44"
     inkscape:window-maximized="1">
    <inkscape:grid
       type="xygrid"
       id="grid815" />
  </sodipodi:namedview>
  <metadata
     id="metadata5">
    <rdf:RDF>
      <cc:Work
         rdf:about="">
        <dc:format>image/svg+xml</dc:format>
        <dc:type
           rdf:resource="http://purl.org/dc/dcmitype/StillImage" />
        <dc:title></dc:title>
      </cc:Work>
    </rdf:RDF>
  </metadata>
  <g
     inkscape:label="Layer 1"
     inkscape:groupmode="layer"
     id="layer1"
     transform="translate(0,-271.59998)">
    <path
       style="fill:#808080;stroke-width:0.99999994;fill-opacity:1"
       d="m 11.71525,295.52375 c -1.262524,-0.11989 -2.4371381,-0.4226 -3.5766391,-0.92163 -2.6099423,-1.1429 -4.7863242,-3.38259 -5.8667202,-6.03684 -0.5848379,-1.43697 -0.8168005,-2.64908 -0.8168005,-4.268 0,-1.39185 0.1415035,-2.30393 0.5467858,-3.52369 0.5928209,-1.78477 1.4972102,-3.22603 2.8549395,-4.54952 1.7523449,-1.70825 3.912092,-2.75964 6.3667075,-3.09933 0.708043,-0.098 2.242325,-0.098 2.950328,0 2.454644,0.33969 4.614367,1.39108 6.366714,3.09933 1.850447,1.80391 2.975993,4.03339 3.330882,6.59832 0.09795,0.70787 0.09795,2.24224 0,2.95011 -0.288844,2.08749 -1.10284,3.97841 -2.416759,5.61406 -0.4613,0.574 -1.372438,1.45579 -1.95715,1.89409 -1.585855,1.1883 -3.380796,1.92764 -5.303196,2.18401 -0.587982,0.0789 -1.936303,0.1105 -2.479092,0.0588 z m 1.890855,-2.04923 c 3.174891,-0.32014 5.963496,-2.26436 7.37341,-5.14091 2.236351,-4.56229 0.338099,-10.07055 -4.244605,-12.31701 -4.562411,-2.23628 -10.0707499,-0.33799 -12.3170314,4.24469 -2.2363329,4.56228 -0.3381117,10.07052 4.244598,12.31702 0.9254842,0.45363 2.0768864,0.78989 3.0548574,0.89196 0.497425,0.0527 1.395772,0.0537 1.888771,0.0115 z m -2.166663,-1.10454 c -1.267125,-0.17879 -2.0726418,-0.82804 -2.3644136,-1.90552 -0.1028136,-0.37966 -0.1261256,-1.04757 -0.049167,-1.40809 0.22431,-1.05098 1.0612796,-1.77203 2.2883956,-1.971 0.141667,-0.0237 0.918737,-0.0415 1.726777,-0.0415 l 1.469232,-0.002 -0.01556,-0.64539 c -0.01422,-0.5897 -0.02443,-0.66495 -0.121124,-0.87264 -0.292338,-0.62858 -0.808637,-0.87023 -1.859396,-0.87023 -0.871493,0 -1.294407,0.14479 -1.748291,0.59862 -0.281877,0.28183 -0.178604,0.32417 -0.9285479,-0.38036 l -0.4997517,-0.46946 0.2155618,-0.22042 c 0.7805518,-0.79836 1.7869228,-1.12282 3.2888378,-1.06058 1.272886,0.053 2.054727,0.31738 2.674977,0.90517 0.242341,0.22966 0.333483,0.35368 0.481826,0.6556 0.329234,0.67017 0.317616,0.52169 0.335153,4.2755 l 0.01554,3.32935 h -0.90196 -0.902004 l -0.01165,-0.39094 -0.01172,-0.39091 -0.242123,0.2049 c -0.314741,0.26625 -0.719524,0.4766 -1.118274,0.58092 -0.365159,0.0956 -1.29879,0.13797 -1.722326,0.0783 z m 2.047551,-1.59458 c 0.481849,-0.18679 0.812021,-0.50311 0.937398,-0.89785 0.0262,-0.0825 0.05632,-0.47809 0.0665,-0.87815 l 0.01868,-0.72719 -1.161576,0.009 c -0.788425,0.006 -1.261126,0.0192 -1.471468,0.0575 -0.510498,0.091 -0.799062,0.27668 -1.003256,0.64529 -0.111719,0.2017 -0.120972,0.25013 -0.120062,0.62832 0.0013,0.36365 0.01337,0.43336 0.110676,0.61952 0.272183,0.5206 0.684704,0.67682 1.732311,0.65613 0.559945,-0.0115 0.689938,-0.0279 0.890736,-0.10431 z m -3.5882653,-9.87213 -0.5656376,-0.56673 0.2447756,-0.2266 c 0.6118003,-0.5663 1.4515843,-0.96637 2.3627563,-1.12537 0.545382,-0.0951 1.465068,-0.0576 1.999438,0.0823 0.733766,0.19174 1.472932,0.58373 2.016315,1.06968 l 0.204881,0.18324 -0.573145,0.57523 c -0.315206,0.31631 -0.584161,0.57523 -0.597676,0.57523 -0.01342,0 -0.140724,-0.0931 -0.282724,-0.20705 -1.055902,-0.84748 -2.559743,-0.91322 -3.702971,-0.16201 -0.161386,0.10587 -0.328551,0.2323 -0.371484,0.28102 -0.04292,0.049 -0.0985,0.0879 -0.123475,0.0879 -0.02495,0 -0.299954,-0.25509 -0.6110533,-0.56673 z m -2.1781382,-2.17804 c -0.3100604,-0.31079 -0.5568856,-0.58373 -0.5485074,-0.60669 0.00832,-0.0233 0.1350755,-0.14839 0.2815787,-0.2789 2.7151852,-2.4157 6.7002492,-2.69417 9.6953872,-0.67726 0.508055,0.34224 1.163467,0.88431 1.163467,0.96254 0,0.0239 -0.251987,0.29803 -0.559984,0.60659 l -0.55999,0.56087 -0.2698,-0.24574 c -0.563238,-0.51273 -1.460517,-1.03821 -2.182728,-1.278 -0.715944,-0.23766 -1.095602,-0.29378 -1.979835,-0.29335 -0.626666,0.002 -0.905989,0.0189 -1.186843,0.0747 -1.111256,0.22413 -2.0986858,0.70918 -2.9565039,1.45192 l -0.3324971,0.28784 z"
       id="path946"
       inkscape:connector-curvature="0" />
  </g>
</svg>
