<?xml version="1.0" encoding="UTF-8" standalone="no"?>
<svg
   xmlns:dc="http://purl.org/dc/elements/1.1/"
   xmlns:cc="http://creativecommons.org/ns#"
   xmlns:rdf="http://www.w3.org/1999/02/22-rdf-syntax-ns#"
   xmlns:svg="http://www.w3.org/2000/svg"
   xmlns="http://www.w3.org/2000/svg"
   xmlns:sodipodi="http://sodipodi.sourceforge.net/DTD/sodipodi-0.dtd"
   xmlns:inkscape="http://www.inkscape.org/namespaces/inkscape"
   viewBox="0 0 50 50"
   width="90"
   height="90"
   fill="#000000"
   version="1.1"
   id="svg840"
   sodipodi:docname="MediaBrowserIconNapster.svg"
   inkscape:version="0.92.3 (2405546, 2018-03-11)">
  <metadata
     id="metadata846">
    <rdf:RDF>
      <cc:Work
         rdf:about="">
        <dc:format>image/svg+xml</dc:format>
        <dc:type
           rdf:resource="http://purl.org/dc/dcmitype/StillImage" />
        <dc:title></dc:title>
      </cc:Work>
    </rdf:RDF>
  </metadata>
  <defs
     id="defs844" />
  <sodipodi:namedview
     pagecolor="#ffffff"
     bordercolor="#666666"
     borderopacity="1"
     objecttolerance="10"
     gridtolerance="10"
     guidetolerance="10"
     inkscape:pageopacity="0"
     inkscape:pageshadow="2"
     inkscape:window-width="2792"
     inkscape:window-height="1698"
     id="namedview842"
     showgrid="false"
     inkscape:zoom="5.2444444"
     inkscape:cx="45.633179"
     inkscape:cy="18.895952"
     inkscape:window-x="88"
     inkscape:window-y="44"
     inkscape:window-maximized="1"
     inkscape:current-layer="svg840" />
  <path
     d="M 25 1 C 18.302 1 12.324313 3.7769688 9.1953125 8.2929688 C 7.9103125 8.0089688 7.102 8 7 8 L 5 8 C 4.447 8 4 8.448 4 9 L 4 16.027344 C 2.087 17.645344 1 19.977 1 22.5 C 1 25.042 2.1029687 27.387859 4.0429688 29.005859 C 4.5749688 40.073859 13.878 49 25 49 C 36.122 49 45.425031 40.073859 45.957031 29.005859 C 47.897031 27.387859 49 25.042 49 22.5 C 49 19.978 47.913 17.645344 46 16.027344 L 46 9 C 46 8.448 45.553 8 45 8 L 43 8 C 42.898 8 42.089687 8.0089688 40.804688 8.2929688 C 37.675688 3.7769688 31.698 1 25 1 z M 25 6 C 29.773 6 34.038938 7.7961719 36.335938 10.701172 C 35.619937 11.098172 34.846625 11.57225 34.015625 12.15625 L 33.988281 12.175781 C 31.975281 11.113781 28.929 10 25 10 C 21.071 10 18.023719 11.112828 16.011719 12.173828 L 15.984375 12.154297 C 15.153375 11.571297 14.382016 11.098172 13.666016 10.701172 C 15.963016 7.7971719 20.227 6 25 6 z M 41 14.050781 L 41 26.572266 L 40.962891 28.765625 C 40.558891 37.166625 33.398 44 25 44 C 16.602 44 9.4411094 37.166625 9.0371094 28.765625 L 9 26.572266 L 9 14.052734 C 9.829 14.336734 11.269375 14.953094 13.109375 16.246094 L 15.345703 17.818359 C 15.728703 18.086359 16.243797 18.055187 16.591797 17.742188 C 16.622797 17.714188 19.695 15 25 15 C 30.261 15 33.380203 17.717187 33.408203 17.742188 C 33.597203 17.912188 33.838125 18 34.078125 18 C 34.278125 18 34.478344 17.940359 34.652344 17.818359 L 36.888672 16.246094 C 38.728672 14.953094 40.172 14.334781 41 14.050781 z M 13.5 27 C 13.224 27 13 27.224 13 27.5 C 13 29.985 15.015 32 17.5 32 L 23.5 32 C 23.776 32 24 31.776 24 31.5 C 24 29.014 21.985 27 19.5 27 L 13.5 27 z M 30.5 27 C 28.015 27 26 29.015 26 31.5 C 26 31.776 26.224 32 26.5 32 L 32.5 32 C 34.985 32 37 29.985 37 27.5 C 37 27.224 36.776 27 36.5 27 L 30.5 27 z M 20.470703 34 C 20.039703 34 19.832109 34.587625 20.162109 34.890625 C 20.857109 35.528625 24.375 37 25 37 C 25.625 37 29.141891 35.528625 29.837891 34.890625 C 30.166891 34.587625 29.96225 34 29.53125 34 L 20.470703 34 z M 20.964844 37.994141 A 1.0001 1.0001 0 0 0 20.552734 39.894531 C 20.552734 39.894531 22.666667 41 25 41 C 27.333333 41 29.447266 39.894531 29.447266 39.894531 A 1.0001163 1.0001163 0 1 0 28.552734 38.105469 C 28.552734 38.105469 26.666667 39 25 39 C 23.333333 39 21.447266 38.105469 21.447266 38.105469 A 1.0001 1.0001 0 0 0 20.964844 37.994141 z"
     id="path838"
     style="fill:#808080;fill-opacity:1" />
</svg>
