<svg xmlns="http://www.w3.org/2000/svg" height="24px" viewBox="0 -960 960 960" width="24px" fill="#808080"><path d="M480-291q98.62-83.08 149.31-160.54T680-596.69q0-89.23-56-146.27Q568-800 480-800t-144 57.04q-56 57.04-56 146.27 0 67.69 50.69 145.15Q381.38-374.08 480-291Zm0 76Q350.15-315.54 285.08-411.42 220-507.31 220-596.69q0-115.39 72.62-189.35Q365.23-860 480-860t187.38 73.96Q740-712.08 740-596.69q0 89.38-65.08 185.07Q609.85-315.92 480-215Zm0-312.69q29.92 0 51.11-21.2 21.2-21.19 21.2-51.11 0-29.92-21.2-51.11-21.19-21.2-51.11-21.2-29.92 0-51.11 21.2-21.2 21.19-21.2 51.11 0 29.92 21.2 51.11 21.19 21.2 51.11 21.2ZM220-100v-60h520v60H220Zm260-500Z"/></svg>