<?xml version="1.0" encoding="UTF-8" standalone="no"?>
<svg
   width="96"
   height="96"
   id="svg4874"
   version="1.1"
   inkscape:version="1.1.2 (0a00cf5339, 2022-02-04)"
   viewBox="0 0 96 96.000001"
   sodipodi:docname="vibration.svg"
   xmlns:inkscape="http://www.inkscape.org/namespaces/inkscape"
   xmlns:sodipodi="http://sodipodi.sourceforge.net/DTD/sodipodi-0.dtd"
   xmlns="http://www.w3.org/2000/svg"
   xmlns:svg="http://www.w3.org/2000/svg"
   xmlns:rdf="http://www.w3.org/1999/02/22-rdf-syntax-ns#"
   xmlns:cc="http://creativecommons.org/ns#"
   xmlns:dc="http://purl.org/dc/elements/1.1/">
  <defs
     id="defs4876" />
  <sodipodi:namedview
     id="base"
     pagecolor="#ffffff"
     bordercolor="#666666"
     borderopacity="1.0"
     inkscape:pageopacity="0.0"
     inkscape:pageshadow="2"
     inkscape:zoom="5.6199993"
     inkscape:cx="55.782925"
     inkscape:cy="50.889686"
     inkscape:document-units="px"
     inkscape:current-layer="g4780"
     showgrid="false"
     showborder="true"
     fit-margin-top="0"
     fit-margin-left="0"
     fit-margin-right="0"
     fit-margin-bottom="0"
     inkscape:snap-bbox="true"
     inkscape:bbox-paths="true"
     inkscape:bbox-nodes="true"
     inkscape:snap-bbox-edge-midpoints="true"
     inkscape:snap-bbox-midpoints="true"
     inkscape:object-paths="true"
     inkscape:snap-intersection-paths="true"
     inkscape:object-nodes="true"
     inkscape:snap-smooth-nodes="true"
     inkscape:snap-midpoints="true"
     inkscape:snap-object-midpoints="true"
     inkscape:snap-center="true"
     showguides="true"
     inkscape:guide-bbox="true"
     inkscape:snap-global="true"
     inkscape:document-rotation="0"
     inkscape:window-width="1466"
     inkscape:window-height="933"
     inkscape:window-x="70"
     inkscape:window-y="27"
     inkscape:window-maximized="1"
     inkscape:pagecheckerboard="0">
    <inkscape:grid
       type="xygrid"
       id="grid5451"
       empspacing="8" />
    <sodipodi:guide
       orientation="1,0"
       position="8,-8.0000001"
       id="guide4063" />
    <sodipodi:guide
       orientation="1,0"
       position="4,-8.0000001"
       id="guide4065" />
    <sodipodi:guide
       orientation="0,1"
       position="-8,88.000001"
       id="guide4067" />
    <sodipodi:guide
       orientation="0,1"
       position="-8,92.000001"
       id="guide4069" />
    <sodipodi:guide
       orientation="0,1"
       position="104,4"
       id="guide4071" />
    <sodipodi:guide
       orientation="0,1"
       position="-5,8.0000001"
       id="guide4073" />
    <sodipodi:guide
       orientation="1,0"
       position="88,-8.0000001"
       id="guide4077" />
    <sodipodi:guide
       orientation="0,1"
       position="-8,84.000001"
       id="guide4074" />
    <sodipodi:guide
       orientation="1,0"
       position="12,-8.0000001"
       id="guide4076" />
    <sodipodi:guide
       orientation="1,0"
       position="84,-8.0000001"
       id="guide4080" />
    <sodipodi:guide
       position="48,-8.0000001"
       orientation="1,0"
       id="guide4170" />
    <sodipodi:guide
       position="-8,48"
       orientation="0,1"
       id="guide4172" />
    <sodipodi:guide
       position="92,-8.0000001"
       orientation="1,0"
       id="guide4760" />
  </sodipodi:namedview>
  <metadata
     id="metadata4879">
    <rdf:RDF>
      <cc:Work
         rdf:about="">
        <dc:format>image/svg+xml</dc:format>
        <dc:type
           rdf:resource="http://purl.org/dc/dcmitype/StillImage" />
      </cc:Work>
    </rdf:RDF>
  </metadata>
  <g
     inkscape:label="Layer 1"
     inkscape:groupmode="layer"
     id="layer1"
     transform="translate(67.857146,-78.50504)">
    <g
       transform="matrix(0,-1,-1,0,373.50506,516.50504)"
       id="g4845"
       style="display:inline">
      <g
         inkscape:export-ydpi="90"
         inkscape:export-xdpi="90"
         inkscape:export-filename="next01.png"
         transform="matrix(-0.9996045,0,0,1,575.94296,-611.00001)"
         id="g4778"
         inkscape:label="Layer 1">
        <g
           transform="matrix(-1,0,0,1,575.99999,611)"
           id="g4780"
           style="display:inline">
          <rect
             style="color:#000000;display:inline;overflow:visible;visibility:visible;fill:none;stroke:none;stroke-width:4;marker:none;enable-background:accumulate"
             id="rect4782"
             width="96"
             height="96.037987"
             x="345.36221"
             y="341.96448"
             transform="matrix(0,1,1,0,0,0)" />
          <g
             id="g1141"
             transform="translate(0,-4)">
            <g
               id="g1007"
               transform="matrix(0,-0.9996045,1.0003957,0,-3.5344014,783.19142)">
              <path
                 style="color:#000000;display:inline;overflow:visible;visibility:visible;fill:#808080;fill-opacity:1;fill-rule:nonzero;stroke:none;stroke-width:0.8;marker:none;enable-background:accumulate"
                 d="m 410.99179,429.36224 h -4.0016 c 0,0 4.20227,-5.47167 4.00158,-9.91267 -0.20069,-4.44101 -7.79075,-11.58811 -8.00316,-16.04945 -0.21242,-4.46134 4.00158,-10.0379 4.00158,-10.0379 h 4.0016 c 0,0 -4.2233,5.64195 -4.00158,10.1058 0.22172,4.46386 7.80091,11.5671 8.00316,15.99708 0.20225,4.42997 -4.00158,9.89714 -4.00158,9.89714 z"
                 id="path4182"
                 inkscape:connector-curvature="0"
                 sodipodi:nodetypes="cczzcczzc" />
              <path
                 style="color:#000000;display:inline;overflow:visible;visibility:visible;fill:#808080;fill-opacity:1;fill-rule:nonzero;stroke:none;stroke-width:0.8;marker:none;enable-background:accumulate"
                 d="m 410.99179,393.36224 h -4.0016 c 0,0 4.20227,-5.47167 4.00158,-9.91267 -0.20069,-4.44101 -7.79075,-11.58811 -8.00316,-16.04945 -0.21242,-4.46134 4.00158,-10.0379 4.00158,-10.0379 h 4.0016 c 0,0 -4.2233,5.64195 -4.00158,10.1058 0.22172,4.46386 7.80091,11.5671 8.00316,15.99708 0.20225,4.42997 -4.00158,9.89714 -4.00158,9.89714 z"
                 id="path843"
                 inkscape:connector-curvature="0"
                 sodipodi:nodetypes="cczzcczzc" />
            </g>
            <g
               id="g1099"
               transform="matrix(0,-0.9996045,1.0003957,0,-3.5344014,791.19142)">
              <path
                 style="color:#000000;display:inline;overflow:visible;visibility:visible;fill:#808080;fill-opacity:1;fill-rule:nonzero;stroke:none;stroke-width:0.8;marker:none;enable-background:accumulate"
                 d="m 410.99179,429.36224 h -4.0016 c 0,0 4.20227,-5.47167 4.00158,-9.91267 -0.20069,-4.44101 -7.79075,-11.58811 -8.00316,-16.04945 -0.21242,-4.46134 4.00158,-10.0379 4.00158,-10.0379 h 4.0016 c 0,0 -4.2233,5.64195 -4.00158,10.1058 0.22172,4.46386 7.80091,11.5671 8.00316,15.99708 0.20225,4.42997 -4.00158,9.89714 -4.00158,9.89714 z"
                 id="path1095"
                 inkscape:connector-curvature="0"
                 sodipodi:nodetypes="cczzcczzc" />
              <path
                 style="color:#000000;display:inline;overflow:visible;visibility:visible;fill:#808080;fill-opacity:1;fill-rule:nonzero;stroke:none;stroke-width:0.8;marker:none;enable-background:accumulate"
                 d="m 410.99179,393.36224 h -4.0016 c 0,0 4.20227,-5.47167 4.00158,-9.91267 -0.20069,-4.44101 -7.79075,-11.58811 -8.00316,-16.04945 -0.21242,-4.46134 4.00158,-10.0379 4.00158,-10.0379 h 4.0016 c 0,0 -4.2233,5.64195 -4.00158,10.1058 0.22172,4.46386 7.80091,11.5671 8.00316,15.99708 0.20225,4.42997 -4.00158,9.89714 -4.00158,9.89714 z"
                 id="path1097"
                 inkscape:connector-curvature="0"
                 sodipodi:nodetypes="cczzcczzc" />
            </g>
          </g>
          <g
             id="g1149"
             transform="translate(0,4)">
            <g
               id="g1013"
               transform="matrix(0,-0.9996045,1.0003957,0,-3.5344014,821.19142)">
              <path
                 style="color:#000000;display:inline;overflow:visible;visibility:visible;fill:#808080;fill-opacity:1;fill-rule:nonzero;stroke:none;stroke-width:0.8;marker:none;enable-background:accumulate"
                 d="m 410.99179,429.36224 h -4.0016 c 0,0 4.20227,-5.47167 4.00158,-9.91267 -0.20069,-4.44101 -7.79075,-11.58811 -8.00316,-16.04945 -0.21242,-4.46134 4.00158,-10.0379 4.00158,-10.0379 h 4.0016 c 0,0 -4.2233,5.64195 -4.00158,10.1058 0.22172,4.46386 7.80091,11.5671 8.00316,15.99708 0.20225,4.42997 -4.00158,9.89714 -4.00158,9.89714 z"
                 id="path1009"
                 inkscape:connector-curvature="0"
                 sodipodi:nodetypes="cczzcczzc" />
              <path
                 style="color:#000000;display:inline;overflow:visible;visibility:visible;fill:#808080;fill-opacity:1;fill-rule:nonzero;stroke:none;stroke-width:0.8;marker:none;enable-background:accumulate"
                 d="m 410.99179,393.36224 h -4.0016 c 0,0 4.20227,-5.47167 4.00158,-9.91267 -0.20069,-4.44101 -7.79075,-11.58811 -8.00316,-16.04945 -0.21242,-4.46134 4.00158,-10.0379 4.00158,-10.0379 h 4.0016 c 0,0 -4.2233,5.64195 -4.00158,10.1058 0.22172,4.46386 7.80091,11.5671 8.00316,15.99708 0.20225,4.42997 -4.00158,9.89714 -4.00158,9.89714 z"
                 id="path1011"
                 inkscape:connector-curvature="0"
                 sodipodi:nodetypes="cczzcczzc" />
            </g>
            <g
               id="g1105"
               transform="matrix(0,-0.9996045,1.0003957,0,-3.5344014,813.19142)">
              <path
                 style="color:#000000;display:inline;overflow:visible;visibility:visible;fill:#808080;fill-opacity:1;fill-rule:nonzero;stroke:none;stroke-width:0.8;marker:none;enable-background:accumulate"
                 d="m 410.99179,429.36224 h -4.0016 c 0,0 4.20227,-5.47167 4.00158,-9.91267 -0.20069,-4.44101 -7.79075,-11.58811 -8.00316,-16.04945 -0.21242,-4.46134 4.00158,-10.0379 4.00158,-10.0379 h 4.0016 c 0,0 -4.2233,5.64195 -4.00158,10.1058 0.22172,4.46386 7.80091,11.5671 8.00316,15.99708 0.20225,4.42997 -4.00158,9.89714 -4.00158,9.89714 z"
                 id="path1101"
                 inkscape:connector-curvature="0"
                 sodipodi:nodetypes="cczzcczzc" />
              <path
                 style="color:#000000;display:inline;overflow:visible;visibility:visible;fill:#808080;fill-opacity:1;fill-rule:nonzero;stroke:none;stroke-width:0.8;marker:none;enable-background:accumulate"
                 d="m 410.99179,393.36224 h -4.0016 c 0,0 4.20227,-5.47167 4.00158,-9.91267 -0.20069,-4.44101 -7.79075,-11.58811 -8.00316,-16.04945 -0.21242,-4.46134 4.00158,-10.0379 4.00158,-10.0379 h 4.0016 c 0,0 -4.2233,5.64195 -4.00158,10.1058 0.22172,4.46386 7.80091,11.5671 8.00316,15.99708 0.20225,4.42997 -4.00158,9.89714 -4.00158,9.89714 z"
                 id="path1103"
                 inkscape:connector-curvature="0"
                 sodipodi:nodetypes="cczzcczzc" />
            </g>
          </g>
        </g>
      </g>
    </g>
  </g>
</svg>
