<?xml version="1.0" encoding="UTF-8" standalone="no"?>
<svg
   xmlns:dc="http://purl.org/dc/elements/1.1/"
   xmlns:cc="http://creativecommons.org/ns#"
   xmlns:rdf="http://www.w3.org/1999/02/22-rdf-syntax-ns#"
   xmlns:svg="http://www.w3.org/2000/svg"
   xmlns="http://www.w3.org/2000/svg"
   xmlns:xlink="http://www.w3.org/1999/xlink"
   xmlns:sodipodi="http://sodipodi.sourceforge.net/DTD/sodipodi-0.dtd"
   xmlns:inkscape="http://www.inkscape.org/namespaces/inkscape"
   id="Layer_1"
   data-name="Layer 1"
   viewBox="0 0 632.82275 151.68896"
   version="1.1"
   sodipodi:docname="logo-wide.svg"
   width="632.82275"
   height="151.689"
   inkscape:version="1.0.2 (e86c870879, 2021-01-15)">
  <metadata
     id="metadata108">
    <rdf:RDF>
      <cc:Work
         rdf:about="">
        <dc:format>image/svg+xml</dc:format>
        <dc:type
           rdf:resource="http://purl.org/dc/dcmitype/StillImage" />
        <dc:title>Artboard 1 copy 5 Kopie 2</dc:title>
      </cc:Work>
    </rdf:RDF>
  </metadata>
  <sodipodi:namedview
     pagecolor="#ffffff"
     bordercolor="#666666"
     borderopacity="1"
     objecttolerance="10"
     gridtolerance="10"
     guidetolerance="10"
     inkscape:pageopacity="0"
     inkscape:pageshadow="2"
     inkscape:window-width="1464"
     inkscape:window-height="933"
     id="namedview106"
     showgrid="false"
     lock-margins="true"
     fit-margin-top="5"
     fit-margin-left="5"
     fit-margin-right="5"
     fit-margin-bottom="5"
     inkscape:zoom="0.93224406"
     inkscape:cx="433.08783"
     inkscape:cy="37.558497"
     inkscape:window-x="72"
     inkscape:window-y="27"
     inkscape:window-maximized="1"
     inkscape:current-layer="Layer_1"
     inkscape:document-rotation="0" />
  <defs
     id="defs69">
    <style
       id="style2">.cls-1{fill:url(#New_Gradient_Swatch_1);}.cls-2{fill:url(#linear-gradient);}.cls-3{fill:url(#linear-gradient-2);}.cls-4{fill:url(#linear-gradient-3);}.cls-5{fill:url(#linear-gradient-4);}.cls-6{fill:url(#linear-gradient-5);}.cls-7{fill:url(#linear-gradient-6);}.cls-8{fill:url(#linear-gradient-7);}.cls-9{fill:url(#linear-gradient-8);}.cls-10{fill:url(#linear-gradient-9);}.cls-11{fill:url(#New_Gradient_Swatch_2);}.cls-12{fill:#676767;}</style>
    <linearGradient
       id="New_Gradient_Swatch_1"
       x1="282.06"
       y1="231.14"
       x2="354.72"
       y2="321.84"
       gradientUnits="userSpaceOnUse"
       gradientTransform="translate(-278.17306,-221.79)">
      <stop
         offset="0.13"
         stop-color="#9fc8a4"
         id="stop4" />
      <stop
         offset="0.4"
         stop-color="#92bc9e"
         id="stop6" />
      <stop
         offset="0.9"
         stop-color="#719b8f"
         id="stop8" />
      <stop
         offset="1"
         stop-color="#69938c"
         id="stop10" />
    </linearGradient>
    <linearGradient
       id="linear-gradient"
       x1="252.74001"
       y1="539.15997"
       x2="235.17"
       y2="539.15997"
       gradientTransform="matrix(0.97,0.26,-0.26,0.97,272.36,-301.35)"
       gradientUnits="userSpaceOnUse">
      <stop
         offset="0"
         stop-color="#e3eae4"
         id="stop13" />
      <stop
         offset="1"
         stop-color="#cde2d8"
         id="stop15" />
    </linearGradient>
    <linearGradient
       id="linear-gradient-2"
       x1="364.04999"
       y1="261.20999"
       x2="355.76999"
       y2="302.63"
       gradientUnits="userSpaceOnUse"
       gradientTransform="translate(-278.17306,-221.79)">
      <stop
         offset="0"
         stop-color="#9fc8a4"
         id="stop18" />
      <stop
         offset="0.27"
         stop-color="#9bc4a2"
         id="stop20" />
      <stop
         offset="0.54"
         stop-color="#8fb89d"
         id="stop22" />
      <stop
         offset="0.82"
         stop-color="#7ba494"
         id="stop24" />
      <stop
         offset="1"
         stop-color="#69938c"
         id="stop26" />
    </linearGradient>
    <linearGradient
       id="linear-gradient-3"
       x1="370.64999"
       y1="293.82999"
       x2="370.51001"
       y2="293.82999"
       xlink:href="#linear-gradient"
       gradientTransform="translate(-278.17306,-221.79)" />
    <linearGradient
       id="linear-gradient-4"
       x1="380.91"
       y1="282.75"
       x2="370.64999"
       y2="282.75"
       xlink:href="#linear-gradient"
       gradientTransform="translate(-278.17306,-221.79)" />
    <linearGradient
       id="linear-gradient-5"
       x1="370.51001"
       y1="295.07999"
       x2="365.47"
       y2="295.07999"
       xlink:href="#linear-gradient"
       gradientTransform="translate(-278.17306,-221.79)" />
    <linearGradient
       id="linear-gradient-6"
       x1="365.22"
       y1="286.54001"
       x2="373.5"
       y2="286.54001"
       gradientUnits="userSpaceOnUse"
       gradientTransform="translate(-278.17306,-221.79)">
      <stop
         offset="0"
         stop-color="#89ae8e"
         id="stop32" />
      <stop
         offset="1"
         stop-color="#79a79f"
         id="stop34" />
    </linearGradient>
    <linearGradient
       id="linear-gradient-7"
       x1="330.54999"
       y1="350.38"
       x2="312.60999"
       y2="365.42001"
       gradientTransform="rotate(1.3,10830.334,-11455.762)"
       gradientUnits="userSpaceOnUse">
      <stop
         offset="0"
         stop-color="#9fc8a4"
         id="stop37" />
      <stop
         offset="1"
         stop-color="#8cc1b6"
         id="stop39" />
    </linearGradient>
    <linearGradient
       id="linear-gradient-8"
       x1="304.51001"
       y1="356.13"
       x2="328.32999"
       y2="356.13"
       gradientTransform="rotate(1.3,10830.334,-11455.762)"
       gradientUnits="userSpaceOnUse">
      <stop
         offset="0"
         stop-color="#9fc8a4"
         id="stop42" />
      <stop
         offset="0.25"
         stop-color="#99c2a1"
         id="stop44" />
      <stop
         offset="0.59"
         stop-color="#88b19a"
         id="stop46" />
      <stop
         offset="0.97"
         stop-color="#6b958d"
         id="stop48" />
      <stop
         offset="1"
         stop-color="#69938c"
         id="stop50" />
    </linearGradient>
    <linearGradient
       id="linear-gradient-9"
       x1="328.23999"
       y1="320.20001"
       x2="335.07999"
       y2="312.04999"
       gradientUnits="userSpaceOnUse"
       gradientTransform="translate(-278.17306,-221.79)">
      <stop
         offset="0"
         stop-color="#79a79f"
         id="stop53" />
      <stop
         offset="0.49"
         stop-color="#74a099"
         id="stop55" />
      <stop
         offset="1"
         stop-color="#69938c"
         id="stop57" />
    </linearGradient>
    <linearGradient
       id="New_Gradient_Swatch_2"
       x1="338.64001"
       y1="262.42001"
       x2="306.78"
       y2="298.69"
       gradientUnits="userSpaceOnUse"
       gradientTransform="translate(-278.17306,-221.79)">
      <stop
         offset="0"
         stop-color="#9fc8a4"
         id="stop60" />
      <stop
         offset="0.46"
         stop-color="#9ac6a8"
         id="stop62" />
      <stop
         offset="0.98"
         stop-color="#8dc1b5"
         id="stop64" />
      <stop
         offset="1"
         stop-color="#8cc1b6"
         id="stop66" />
    </linearGradient>
    <linearGradient
       id="SVGID_1_"
       gradientUnits="userSpaceOnUse"
       x1="369.02579"
       y1="171.88429"
       x2="441.68719"
       y2="262.58051"
       gradientTransform="translate(0.07830056,-0.01787594)">
      <stop
         offset="0.1296"
         style="stop-color:#7CC099"
         id="stop46-3" />
      <stop
         offset="0.3785"
         style="stop-color:#6FB594"
         id="stop48-6" />
      <stop
         offset="0.835"
         style="stop-color:#4E9688"
         id="stop50-7" />
      <stop
         offset="1"
         style="stop-color:#408A83"
         id="stop52" />
    </linearGradient>
    <linearGradient
       id="SVGID_2_"
       gradientUnits="userSpaceOnUse"
       x1="936.13898"
       y1="154.45329"
       x2="918.56207"
       y2="154.45329"
       gradientTransform="matrix(0.9669,0.2553,-0.2553,0.9669,-399.582,-163.11807)">
      <stop
         offset="0"
         style="stop-color:#DBE6E0"
         id="stop61" />
      <stop
         offset="1"
         style="stop-color:#BCDED3"
         id="stop63" />
    </linearGradient>
    <linearGradient
       id="SVGID_3_"
       gradientUnits="userSpaceOnUse"
       x1="451.01599"
       y1="201.9489"
       x2="442.73761"
       y2="243.37801"
       gradientTransform="translate(0.07830056,-0.01787594)">
      <stop
         offset="0"
         style="stop-color:#7CC099"
         id="stop72" />
      <stop
         offset="0.2568"
         style="stop-color:#78BC98"
         id="stop74" />
      <stop
         offset="0.5165"
         style="stop-color:#6CB193"
         id="stop76" />
      <stop
         offset="0.7767"
         style="stop-color:#589F8C"
         id="stop78" />
      <stop
         offset="1"
         style="stop-color:#408A83"
         id="stop80" />
    </linearGradient>
    <linearGradient
       id="SVGID_4_"
       gradientUnits="userSpaceOnUse"
       x1="457.62369"
       y1="234.5722"
       x2="457.47629"
       y2="234.5722"
       gradientTransform="translate(0.07830056,-0.01787594)">
      <stop
         offset="0"
         style="stop-color:#DBE6E0"
         id="stop87" />
      <stop
         offset="1"
         style="stop-color:#BCDED3"
         id="stop89" />
    </linearGradient>
    <linearGradient
       id="SVGID_5_"
       gradientUnits="userSpaceOnUse"
       x1="467.88159"
       y1="223.4929"
       x2="457.62369"
       y2="223.4929"
       gradientTransform="translate(0.07830056,-0.01787594)">
      <stop
         offset="0"
         style="stop-color:#DBE6E0"
         id="stop96" />
      <stop
         offset="1"
         style="stop-color:#BCDED3"
         id="stop98" />
    </linearGradient>
    <linearGradient
       id="SVGID_6_"
       gradientUnits="userSpaceOnUse"
       x1="457.47629"
       y1="235.823"
       x2="452.43719"
       y2="235.823"
       gradientTransform="translate(0.07830056,-0.01787594)">
      <stop
         offset="0"
         style="stop-color:#DBE6E0"
         id="stop105" />
      <stop
         offset="1"
         style="stop-color:#BCDED3"
         id="stop107" />
    </linearGradient>
    <linearGradient
       id="SVGID_7_"
       gradientUnits="userSpaceOnUse"
       x1="452.19159"
       y1="227.27921"
       x2="460.47461"
       y2="227.27921"
       gradientTransform="translate(0.07830056,-0.01787594)">
      <stop
         offset="0"
         style="stop-color:#6AA583"
         id="stop112" />
      <stop
         offset="1"
         style="stop-color:#4C9E96"
         id="stop114" />
    </linearGradient>
    <linearGradient
       id="SVGID_8_"
       gradientUnits="userSpaceOnUse"
       x1="473.17111"
       y1="268.90411"
       x2="455.23529"
       y2="283.95389"
       gradientTransform="matrix(0.9997,0.0227,-0.0227,0.9997,-36.3231,-7.9385759)">
      <stop
         offset="0"
         style="stop-color:#7CC099"
         id="stop119" />
      <stop
         offset="1"
         style="stop-color:#57BAAE"
         id="stop121" />
    </linearGradient>
    <linearGradient
       id="SVGID_9_"
       gradientUnits="userSpaceOnUse"
       x1="447.13129"
       y1="274.66199"
       x2="470.95151"
       y2="274.66199"
       gradientTransform="matrix(0.9997,0.0227,-0.0227,0.9997,-36.3231,-7.9385759)">
      <stop
         offset="0"
         style="stop-color:#7CC099"
         id="stop126" />
      <stop
         offset="0.2327"
         style="stop-color:#76BA97"
         id="stop128" />
      <stop
         offset="0.5485"
         style="stop-color:#65AB90"
         id="stop130" />
      <stop
         offset="0.9106"
         style="stop-color:#489186"
         id="stop132" />
      <stop
         offset="1"
         style="stop-color:#408A83"
         id="stop134" />
    </linearGradient>
    <linearGradient
       id="SVGID_10_"
       gradientUnits="userSpaceOnUse"
       x1="415.2153"
       y1="260.93829"
       x2="422.0509"
       y2="252.7919"
       gradientTransform="translate(0.07830056,-0.01787594)">
      <stop
         offset="0"
         style="stop-color:#4C9E96"
         id="stop141" />
      <stop
         offset="0.4859"
         style="stop-color:#489790"
         id="stop143" />
      <stop
         offset="1"
         style="stop-color:#408A83"
         id="stop145" />
    </linearGradient>
    <linearGradient
       id="SVGID_11_"
       gradientUnits="userSpaceOnUse"
       x1="425.60641"
       y1="203.1666"
       x2="393.7475"
       y2="239.4308"
       gradientTransform="translate(0.07830056,-0.01787594)">
      <stop
         offset="0"
         style="stop-color:#7CC099"
         id="stop152" />
      <stop
         offset="0.3183"
         style="stop-color:#77BF9C"
         id="stop154" />
      <stop
         offset="0.6757"
         style="stop-color:#6ABDA3"
         id="stop156" />
      <stop
         offset="1"
         style="stop-color:#57BAAE"
         id="stop158" />
    </linearGradient>
  </defs>
  <title
     id="title71">Artboard 1 copy 5 Kopie 2</title>
  <g
     transform="matrix(0.99921713,0,0,0.99921713,-364.93376,-162.36887)"
     id="g41">
    <g
       id="g43">
      <linearGradient
         id="linearGradient3548"
         gradientUnits="userSpaceOnUse"
         x1="369.02579"
         y1="171.88429"
         x2="441.68719"
         y2="262.58051">
        <stop
           offset="0.1296"
           style="stop-color:#7CC099"
           id="stop3550" />
        <stop
           offset="0.3785"
           style="stop-color:#6FB594"
           id="stop3552" />
        <stop
           offset="0.835"
           style="stop-color:#4E9688"
           id="stop3554" />
        <stop
           offset="1"
           style="stop-color:#408A83"
           id="stop3556" />
      </linearGradient>
      <path
         style="fill:url(#SVGID_1_)"
         inkscape:connector-curvature="0"
         d="m 433.7,212.6 c -5.9,-10.1 -19,-17.9 -27.5,-21 -8.5,-3.2 -18,-10.1 -18,-10.1 -7.5,-5 -9.7,-9 -13.7,-14 -1.2,2.6 -2.2,5.8 -3,9.6 1.8,3.1 8.7,13.4 28.1,21.5 1.7,0.7 6.9,2.8 7,2.9 l 6.5,2.6 -6.7,-1.9 c -0.2,-0.1 -5.5,-1.6 -7.3,-2.2 -17.3,-6.3 -25,-15.1 -28,-19.9 -0.8,4.9 -1.1,10.6 -0.7,16.5 5.2,4.7 14,11 26.9,15.4 0.9,0.3 3.6,1.3 3.6,1.3 l 3.4,1.2 -3.5,-0.5 c -0.1,0 -3,-0.4 -4,-0.6 -12.1,-2.9 -20.5,-8.4 -26.1,-13.3 0.5,4.3 1.4,8.6 2.8,13 0.3,1 0.7,2.1 1.1,3 4.4,2 9.6,3.9 15.4,5.2 1.1,0.2 4.3,1.1 4.3,1.1 l 3.8,1 -4,-0.2 c -0.1,0 -3.4,-0.2 -4.5,-0.4 -5.1,-0.7 -9.8,-2 -13.9,-3.6 6.6,13.7 18.8,21.4 35.2,27.5 18.7,7 19.4,25 19.4,25 0,0 5.1,-3.8 9.6,-18.4 5.1,-16.2 -0.3,-30.6 -6.2,-40.7 z"
         id="path54" />
    </g>
    <g
       id="g56">
      <g
         id="g58">
        <linearGradient
           id="linearGradient3561"
           gradientUnits="userSpaceOnUse"
           x1="936.13898"
           y1="154.45329"
           x2="918.56207"
           y2="154.45329"
           gradientTransform="matrix(0.9669,0.2553,-0.2553,0.9669,-399.6603,-163.1002)">
          <stop
             offset="0"
             style="stop-color:#DBE6E0"
             id="stop3563" />
          <stop
             offset="1"
             style="stop-color:#BCDED3"
             id="stop3565" />
        </linearGradient>
        <path
           style="fill:url(#SVGID_2_)"
           inkscape:connector-curvature="0"
           d="m 458.6,233.8 c 4.9,-3.6 6.9,-7.8 8.5,-12.5 0.7,-2.1 1.3,-5 0.3,-8.1 -0.8,-2.5 -6.5,-6.2 -11.2,-4.7 -5.1,1.7 -6.1,8.1 -6.5,10.9 -0.6,4.3 0.4,10.9 2.8,17.6 -0.1,0 2.1,-0.2 6.1,-3.2 z"
           id="path65" />
      </g>
      <g
         id="g67">
        <g
           id="g69">
          <linearGradient
             id="linearGradient3570"
             gradientUnits="userSpaceOnUse"
             x1="451.01599"
             y1="201.9489"
             x2="442.73761"
             y2="243.37801">
            <stop
               offset="0"
               style="stop-color:#7CC099"
               id="stop3572" />
            <stop
               offset="0.2568"
               style="stop-color:#78BC98"
               id="stop3574" />
            <stop
               offset="0.5165"
               style="stop-color:#6CB193"
               id="stop3576" />
            <stop
               offset="0.7767"
               style="stop-color:#589F8C"
               id="stop3578" />
            <stop
               offset="1"
               style="stop-color:#408A83"
               id="stop3580" />
          </linearGradient>
          <path
             style="fill:url(#SVGID_3_)"
             inkscape:connector-curvature="0"
             d="m 449.7,219.4 c 0.4,-2.8 1.4,-9.2 6.5,-10.9 4.2,-1.4 9.3,1.5 10.8,3.9 -1.5,-3.9 -5.6,-6.6 -9,-8.3 -4.8,-2.5 -10.8,-2.9 -15.7,-1.7 -4.6,1.1 -7,3.6 -10.9,6.9 0.8,1.1 1.6,2.2 2.2,3.3 4.6,8 9,18.6 8.2,30.6 3,-5 9.7,-6.1 10.6,-6.2 -2.4,-6.6 -3.4,-13.3 -2.7,-17.6 z"
             id="path82" />
        </g>
        <g
           id="g84">
          <linearGradient
             id="linearGradient3584"
             gradientUnits="userSpaceOnUse"
             x1="457.62369"
             y1="234.5722"
             x2="457.47629"
             y2="234.5722">
            <stop
               offset="0"
               style="stop-color:#DBE6E0"
               id="stop3586" />
            <stop
               offset="1"
               style="stop-color:#BCDED3"
               id="stop3588" />
          </linearGradient>
          <path
             style="fill:url(#SVGID_4_)"
             inkscape:connector-curvature="0"
             d="m 457.6,234.5 c -0.1,0 -0.1,0.1 -0.1,0.1 0,0 0.1,0 0.1,-0.1 z"
             id="path91-5" />
        </g>
        <g
           id="g93">
          <linearGradient
             id="linearGradient3592"
             gradientUnits="userSpaceOnUse"
             x1="467.88159"
             y1="223.4929"
             x2="457.62369"
             y2="223.4929">
            <stop
               offset="0"
               style="stop-color:#DBE6E0"
               id="stop3594" />
            <stop
               offset="1"
               style="stop-color:#BCDED3"
               id="stop3596" />
          </linearGradient>
          <path
             style="fill:url(#SVGID_5_)"
             inkscape:connector-curvature="0"
             d="m 467.4,213.2 c -0.1,-0.2 -0.2,-0.5 -0.4,-0.8 0.7,1.7 0.8,3.7 0.1,5.9 -1.5,4.9 -1.8,7.1 -6.1,12.9 -1,1.3 -2.2,2.4 -3.4,3.2 0.3,-0.2 0.6,-0.4 1,-0.7 4.9,-3.6 6.9,-7.8 8.5,-12.5 0.7,-2 1.2,-4.9 0.3,-8 z"
             id="path100" />
        </g>
        <g
           id="g102">
          <linearGradient
             id="linearGradient3600"
             gradientUnits="userSpaceOnUse"
             x1="457.47629"
             y1="235.823"
             x2="452.43719"
             y2="235.823">
            <stop
               offset="0"
               style="stop-color:#DBE6E0"
               id="stop3602" />
            <stop
               offset="1"
               style="stop-color:#BCDED3"
               id="stop3604" />
          </linearGradient>
          <path
             style="fill:url(#SVGID_6_)"
             inkscape:connector-curvature="0"
             d="m 452.4,237 c 0,0 0,0 0,0 0,0 1.8,-0.2 5,-2.4 -2.5,1.7 -4.9,2.4 -4.9,2.4 0,0 0,0 -0.1,0 z"
             id="path109" />
        </g>
      </g>
      <linearGradient
         id="linearGradient3607"
         gradientUnits="userSpaceOnUse"
         x1="452.19159"
         y1="227.27921"
         x2="460.47461"
         y2="227.27921">
        <stop
           offset="0"
           style="stop-color:#6AA583"
           id="stop3609" />
        <stop
           offset="1"
           style="stop-color:#4C9E96"
           id="stop3611" />
      </linearGradient>
      <path
         style="fill:url(#SVGID_7_)"
         inkscape:connector-curvature="0"
         d="m 458.2,217.6 c -1,-0.3 -2,0 -2.8,0.6 -0.2,0.3 -0.3,0.6 -0.4,0.9 -0.4,1.6 0.5,3.3 2.2,3.7 0.7,0.2 1.3,0.1 1.9,-0.1 -0.9,6.9 -5.9,12.4 -6.9,13.5 0.1,0.4 0.2,0.5 0.2,0.7 0.3,0 0.4,-0.1 0.9,-0.2 1.7,-1.9 6.7,-7.9 7,-15.5 0.5,-1.5 -0.5,-3.1 -2.1,-3.6 z"
         id="path116" />
    </g>
    <linearGradient
       id="linearGradient3614"
       gradientUnits="userSpaceOnUse"
       x1="473.17111"
       y1="268.90411"
       x2="455.23529"
       y2="283.95389"
       gradientTransform="matrix(0.9997,0.0227,-0.0227,0.9997,-36.4014,-7.9207)">
      <stop
         offset="0"
         style="stop-color:#7CC099"
         id="stop3616" />
      <stop
         offset="1"
         style="stop-color:#57BAAE"
         id="stop3618" />
    </linearGradient>
    <path
       style="fill:url(#SVGID_8_)"
       inkscape:connector-curvature="0"
       d="m 405.5,261.4 c 1.5,12.7 7.5,31.7 27.8,47.9 0,0 10.1,-15.4 0.4,-32.5 -9.7,-17.1 -23.8,-22.7 -28.8,-24.5 -0.2,3.6 0.4,6.8 0.6,9.1 z"
       id="path123" />
    <linearGradient
       id="linearGradient3621"
       gradientUnits="userSpaceOnUse"
       x1="447.13129"
       y1="274.66199"
       x2="470.95151"
       y2="274.66199"
       gradientTransform="matrix(0.9997,0.0227,-0.0227,0.9997,-36.4014,-7.9207)">
      <stop
         offset="0"
         style="stop-color:#7CC099"
         id="stop3623" />
      <stop
         offset="0.2327"
         style="stop-color:#76BA97"
         id="stop3625" />
      <stop
         offset="0.5485"
         style="stop-color:#65AB90"
         id="stop3627" />
      <stop
         offset="0.9106"
         style="stop-color:#489186"
         id="stop3629" />
      <stop
         offset="1"
         style="stop-color:#408A83"
         id="stop3631" />
    </linearGradient>
    <path
       style="fill:url(#SVGID_9_)"
       inkscape:connector-curvature="0"
       d="m 423.7,272.8 c -5.7,-10 -12.8,-16.8 -18.8,-20.5 -0.1,3.2 0.4,7 0.6,9.1 1.2,10.8 5.8,26.1 19.6,40.4 2.4,-5.5 5.5,-16.8 -1.4,-29 z"
       id="path136" />
    <g
       id="g138">
      <linearGradient
         id="linearGradient3635"
         gradientUnits="userSpaceOnUse"
         x1="415.2153"
         y1="260.93829"
         x2="422.0509"
         y2="252.7919">
        <stop
           offset="0"
           style="stop-color:#4C9E96"
           id="stop3637" />
        <stop
           offset="0.4859"
           style="stop-color:#489790"
           id="stop3639" />
        <stop
           offset="1"
           style="stop-color:#408A83"
           id="stop3641" />
      </linearGradient>
      <path
         style="fill:url(#SVGID_10_)"
         inkscape:connector-curvature="0"
         d="m 411.9,246.7 c -2,-0.8 -4.9,-1.6 -6.8,-2.4 -0.3,2.5 -0.2,5.1 -0.2,8.1 4.4,1.6 16.1,6.2 25.5,19.3 0,-0.1 0,-0.2 0,-0.3 -0.2,-2.3 -1.1,-18.3 -18.5,-24.7 z"
         id="path147" />
    </g>
    <g
       id="g149">
      <linearGradient
         id="linearGradient3645"
         gradientUnits="userSpaceOnUse"
         x1="425.60641"
         y1="203.1666"
         x2="393.7475"
         y2="239.4308">
        <stop
           offset="0"
           style="stop-color:#7CC099"
           id="stop3647" />
        <stop
           offset="0.3183"
           style="stop-color:#77BF9C"
           id="stop3649" />
        <stop
           offset="0.6757"
           style="stop-color:#6ABDA3"
           id="stop3651" />
        <stop
           offset="1"
           style="stop-color:#57BAAE"
           id="stop3653" />
      </linearGradient>
      <path
         style="fill:url(#SVGID_11_)"
         inkscape:connector-curvature="0"
         d="m 433.7,212.6 c -5.9,-10.1 -19,-17.9 -27.5,-21 -8.5,-3.2 -18,-10.1 -18,-10.1 -2.1,-1.4 -3.8,-2.7 -5.2,-4 -0.4,3.6 -0.6,7.5 -0.4,11.6 4.2,3.2 9.7,6.5 16.9,9.5 1.7,0.7 6.9,2.8 7,2.9 l 6.5,2.6 -6.7,-1.9 c -0.2,-0.1 -5.5,-1.6 -7.3,-2.2 -6.8,-2.5 -12.1,-5.3 -16.2,-8.2 0.4,5 1.3,10.1 2.9,15.2 3.4,1.8 7.2,3.4 11.6,4.9 0.9,0.3 3.6,1.3 3.6,1.3 l 3.4,1.2 -3.5,-0.5 c -0.1,0 -3,-0.4 -4,-0.6 -3.7,-0.9 -7,-2 -10,-3.3 1.9,4.8 4.4,8.8 7.4,12.3 0.1,0 0.1,0 0.1,0 l 3.8,1 -3.2,-0.2 c 6.9,7.7 16.3,13.3 26.3,21.3 13.5,10.8 9.2,27.2 9.2,27.2 0,0 0.8,-0.6 1.5,-1.5 1.8,-2.1 5.1,-7 8.1,-16.9 5,-16.1 -0.4,-30.5 -6.3,-40.6 z"
         id="path160" />
    </g>
  </g>
  <path
     class="cls-12"
     d="m 162.96869,47.905865 c 2.9505,-0.737624 6.87466,-1.534258 11.80199,-2.360397 a 99.844798,99.844798 0 0 1 16.93585,-1.268714 36.49764,36.49764 0 0 1 14.2804,2.448912 22.187733,22.187733 0 0 1 9.08753,6.786143 26.111893,26.111893 0 0 1 4.7798,10.474262 61.39983,61.39983 0 0 1 1.38674,13.454264 V 117.92114 H 208.34733 V 80.213801 a 60.042602,60.042602 0 0 0 -0.91466,-11.388916 19.119217,19.119217 0 0 0 -2.95049,-7.61228 11.801986,11.801986 0 0 0 -5.54694,-4.248715 24.813675,24.813675 0 0 0 -8.58594,-1.298219 c -1.38673,0 -2.9505,0 -4.30772,0 l -4.21921,0.35406 c -1.35723,0.147525 -2.53743,0.29505 -3.59961,0.501584 l -2.30139,0.41307 V 117.80312 H 163.0277 Z"
     id="path95"
     style="fill:#fafafa;fill-opacity:1;stroke-width:1" />
  <path
     class="cls-12"
     d="m 254.08002,131.37541 a 26.554468,26.554468 0 0 0 3.95367,1.32772 19.325751,19.325751 0 0 0 4.7798,0.6196 18.853672,18.853672 0 0 0 11.80199,-3.39307 34.520808,34.520808 0 0 0 8.20238,-12.00852 374.41799,374.41799 0 0 1 -16.72932,-34.314268 313.2542,313.2542 0 0 1 -12.30357,-37.79586 h 13.86734 c 1.03267,4.160201 2.24237,8.644956 3.68812,13.454265 1.44574,4.809309 2.95049,9.766143 4.7798,14.752482 1.82931,4.986339 3.65862,10.179213 5.66495,15.254066 2.00634,5.074854 4.1602,9.972678 6.40258,14.752475 q 5.25188,-14.54594 9.14654,-28.855847 3.89465,-14.309908 7.34674,-29.504965 h 13.30673 q -5.01584,20.417436 -11.09386,39.182593 c -4.07169,12.510105 -8.43842,24.253079 -13.15922,35.140409 a 76.712906,76.712906 0 0 1 -5.75346,10.76931 33.134075,33.134075 0 0 1 -6.60912,7.40575 24.135061,24.135061 0 0 1 -8.11386,4.30772 34.815858,34.815858 0 0 1 -10.17921,1.38674 29.829519,29.829519 0 0 1 -3.18654,-0.20654 c -1.12119,-0.14752 -2.21287,-0.32455 -3.27505,-0.56059 -1.06218,-0.23604 -2.03584,-0.50159 -2.9505,-0.76713 a 10.857827,10.857827 0 0 1 -1.88831,-0.70812 z"
     id="path97"
     style="fill:#fafafa;fill-opacity:1;stroke-width:1" />
  <path
     class="cls-12"
     d="m 347.96482,47.905865 c 2.95049,-0.737624 6.87465,-1.534258 11.80198,-2.360397 a 98.25153,98.25153 0 0 1 16.84734,-1.268714 31.806351,31.806351 0 0 1 11.65446,1.888318 20.358425,20.358425 0 0 1 7.90733,5.458419 c 0.64911,-0.442574 1.65228,-1.091683 2.9505,-1.917822 a 33.606154,33.606154 0 0 1 5.13386,-2.448913 55.144778,55.144778 0 0 1 6.81565,-2.065348 34.609323,34.609323 0 0 1 8.02535,-0.914654 32.602985,32.602985 0 0 1 13.60178,2.448912 19.502781,19.502781 0 0 1 8.26139,6.845153 27.351102,27.351102 0 0 1 4.01268,10.533272 81.315681,81.315681 0 0 1 1.03267,13.336244 V 117.92114 H 433.11614 V 80.213801 a 83.676078,83.676078 0 0 0 -0.6196,-10.975846 21.214069,21.214069 0 0 0 -2.3604,-7.612281 10.710302,10.710302 0 0 0 -4.72079,-4.514259 17.702978,17.702978 0 0 0 -7.67129,-1.327724 24.84318,24.84318 0 0 0 -10.41525,2.625942 35.405957,35.405957 0 0 0 -5.901,3.216041 34.137243,34.137243 0 0 1 1.32773,6.786142 68.038447,68.038447 0 0 1 0.56059,9.028519 V 117.92114 H 390.42246 V 80.213801 a 77.952115,77.952115 0 0 0 -0.67861,-10.975846 22.423773,22.423773 0 0 0 -2.44892,-7.612281 10.798817,10.798817 0 0 0 -4.69128,-4.514259 17.289909,17.289909 0 0 0 -7.58278,-1.445744 c -1.29822,0 -2.68495,0 -4.1602,0 l -4.21921,0.35406 c -1.32772,0.147525 -2.56693,0.29505 -3.68812,0.501584 l -2.21287,0.41307 V 117.80312 H 347.8468 Z"
     id="path99"
     style="fill:#fafafa;fill-opacity:1;stroke-width:1" />
  <path
     class="cls-12"
     d="m 600.08474,44.01121 a 37.825364,37.825364 0 0 1 13.1297,2.006337 20.50595,20.50595 0 0 1 13.21823,14.427929 41.30695,41.30695 0 0 1 1.38673,11.152876 v 44.788528 c -1.12119,0.26555 -2.9505,0.73763 -4.83881,1.03268 -1.88832,0.29505 -4.01268,0.64911 -6.5206,0.91465 -2.50792,0.26555 -5.19287,0.53109 -8.11386,0.76713 -2.921,0.23604 -5.901,0.35406 -8.67446,0.35406 a 45.909724,45.909724 0 0 1 -11.21189,-1.26871 24.90219,24.90219 0 0 1 -8.85149,-3.92416 18.145553,18.145553 0 0 1 -5.90099,-7.16971 24.84318,24.84318 0 0 1 -2.06535,-10.651288 20.476445,20.476445 0 0 1 2.41941,-10.267728 19.266741,19.266741 0 0 1 6.5796,-6.933666 30.154073,30.154073 0 0 1 9.70714,-3.894656 53.462995,53.462995 0 0 1 11.59545,-1.209703 37.707344,37.707344 0 0 1 4.01267,0.206535 c 1.38674,0.147524 2.71446,0.324554 3.95367,0.560594 l 3.27505,0.619604 1.94733,0.41307 v -3.599606 a 28.383775,28.383775 0 0 0 -0.70812,-6.314062 14.752482,14.752482 0 0 0 -2.47842,-5.546933 12.834659,12.834659 0 0 0 -4.92733,-3.894656 19.296246,19.296246 0 0 0 -8.11386,-1.445743 56.561016,56.561016 0 0 0 -11.00535,1.062179 32.45546,32.45546 0 0 0 -7.14021,2.389902 L 578.66413,47.93537 a 36.8517,36.8517 0 0 1 8.85149,-2.950497 73.083796,73.083796 0 0 1 12.56912,-0.973663 z m 1.12118,64.61587 c 2.9505,0 5.901,0 8.11387,-0.20654 a 35.199422,35.199422 0 0 0 5.90099,-0.76713 V 86.173804 a 16.611295,16.611295 0 0 0 -4.51426,-1.180198 49.922399,49.922399 0 0 0 -7.55327,-0.501585 45.614674,45.614674 0 0 0 -6.16654,0.442575 19.148722,19.148722 0 0 0 -5.90099,1.711288 12.65763,12.65763 0 0 0 -4.51426,3.599605 9.4710934,9.4710934 0 0 0 -1.7998,6.048518 10.415252,10.415252 0 0 0 4.42574,9.648123 23.161397,23.161397 0 0 0 12.00852,2.68495 z"
     id="path101"
     style="fill:#fafafa;fill-opacity:1;stroke-width:1" />
  <path
     class="cls-12"
     d="m 479.61597,82.013604 a 46.647348,46.647348 0 0 1 2.77346,-16.729314 34.668333,34.668333 0 0 1 7.37624,-11.801986 29.504964,29.504964 0 0 1 10.53328,-7.081192 32.898035,32.898035 0 0 1 12.18555,-2.360397 q 14.57545,0 22.33525,9.087529 c 5.16337,6.048518 7.75981,15.283572 7.75981,27.646152 v 2.212872 a 21.273079,21.273079 0 0 1 0,2.448912 h -49.50933 a 26.554468,26.554468 0 0 0 6.5206,17.05387 c 3.80614,3.86515 9.70713,5.90099 17.70298,5.90099 a 46.912893,46.912893 0 0 0 11.44792,-1.1802 44.257446,44.257446 0 0 0 7.81882,-2.9505 l 1.7998,10.82833 a 41.30695,41.30695 0 0 1 -9.08753,3.30455 57.77072,57.77072 0 0 1 -13.36575,1.26872 42.634673,42.634673 0 0 1 -16.28674,-2.71446 30.272093,30.272093 0 0 1 -11.3004,-7.81882 31.983381,31.983381 0 0 1 -6.60911,-11.801979 50.660023,50.660023 0 0 1 -2.09485,-15.313077 z M 529.1253,74.932413 A 21.627139,21.627139 0 0 0 524.75856,60.593 a 15.047532,15.047532 0 0 0 -12.39208,-5.635448 17.083374,17.083374 0 0 0 -7.84832,1.740793 18.116048,18.116048 0 0 0 -5.901,4.51426 20.978029,20.978029 0 0 0 -3.68812,6.373072 31.658826,31.658826 0 0 0 -1.71128,7.346736 z"
     id="path103"
     style="fill:#fafafa;fill-opacity:1;stroke-width:1" />
</svg>
