<svg xmlns="http://www.w3.org/2000/svg" height="24px" viewBox="0 -960 960 960" width="24px" fill="#808080"><path d="m449.08-333.85 104-104 104 104L699.23-376l-104-104 104-104-42.15-42.15-104 104-104-104L406.92-584l104 104-104 104 42.16 42.15ZM363.46-180q-17.17 0-32.54-7.58-15.36-7.58-25.3-20.96L100-480l205.62-271.46q9.94-13.38 25.3-20.96 15.37-7.58 32.54-7.58h424.23q29.83 0 51.07 21.24Q860-737.52 860-707.69v455.38q0 29.83-21.24 51.07Q817.52-180 787.69-180H363.46ZM175-480l178.46 235.38q1.92 2.31 4.42 3.47 2.5 1.15 5.58 1.15h424.23q5.39 0 8.85-3.46t3.46-8.85v-455.38q0-5.39-3.46-8.85t-8.85-3.46H363.46q-3.08 0-5.58 1.15-2.5 1.16-4.42 3.47L175-480Zm400.38 0Z"/></svg>