<?xml version="1.0" encoding="UTF-8" standalone="no"?>
<svg
   height="24px"
   viewBox="0 -960 960 960"
   width="24px"
   fill="#808080"
   version="1.1"
   id="svg4"
   sodipodi:docname="state-interface.svg"
   inkscape:version="1.2.2 (b0a8486541, 2022-12-01)"
   xmlns:inkscape="http://www.inkscape.org/namespaces/inkscape"
   xmlns:sodipodi="http://sodipodi.sourceforge.net/DTD/sodipodi-0.dtd"
   xmlns="http://www.w3.org/2000/svg"
   xmlns:svg="http://www.w3.org/2000/svg">
  <defs
     id="defs8" />
  <sodipodi:namedview
     id="namedview6"
     pagecolor="#ffffff"
     bordercolor="#666666"
     borderopacity="1.0"
     inkscape:showpageshadow="2"
     inkscape:pageopacity="0.0"
     inkscape:pagecheckerboard="0"
     inkscape:deskcolor="#d1d1d1"
     showgrid="false"
     inkscape:zoom="38.843169"
     inkscape:cx="16.643853"
     inkscape:cy="15.974495"
     inkscape:window-width="1728"
     inkscape:window-height="1006"
     inkscape:window-x="0"
     inkscape:window-y="0"
     inkscape:window-maximized="1"
     inkscape:current-layer="svg4" />
  <path
     d="m 212.31,-140 c -19.94667,0 -36.98667,-7.06333 -51.12,-21.19 C 147.06333,-175.32333 140,-192.36333 140,-212.31 v -375.38 c 0,-19.94667 7.06333,-36.98667 21.19,-51.12 14.13333,-14.12667 31.17333,-21.19 51.12,-21.19 h 142.3 v 60 h -142.3 c -3.59333,0 -6.54333,1.15333 -8.85,3.46 -2.30667,2.30667 -3.46,5.25667 -3.46,8.85 v 375.38 c 0,3.59333 1.15333,6.54333 3.46,8.85 2.30667,2.30667 5.25667,3.46 8.85,3.46 h 535.38 c 3.59333,0 6.54333,-1.15333 8.85,-3.46 2.30667,-2.30667 3.46,-5.25667 3.46,-8.85 v -375.38 c 0,-3.59333 -1.15333,-6.54333 -3.46,-8.85 -2.30667,-2.30667 -5.25667,-3.46 -8.85,-3.46 h -142.3 v -60 h 142.3 c 19.94667,0 36.98667,7.06333 51.12,21.19 14.12667,14.13333 21.19,31.17333 21.19,51.12 v 375.38 c 0,19.94667 -7.06333,36.98667 -21.19,51.12 -14.13333,14.12667 -31.17333,21.19 -51.12,21.19 z M 480,-333.85 333.85,-480 376,-522.15 l 74,73.38 V -930 h 60 v 481.23 l 74,-73.38 42.15,42.15 z m -290.2,87.77 c -19.94667,0 -3.59333,-60 0,-60 h 623.4 c 3.59333,0 7.94667,60 -12,60 z"
     id="path2"
     sodipodi:nodetypes="scsscsccssssssssssssccscsscssccccccccccsssss" />
</svg>
