<svg xmlns="http://www.w3.org/2000/svg" height="24px" viewBox="0 -960 960 960" width="24px" fill="#808080"><path d="M480.07-100q-78.84 0-148.21-29.93-69.37-29.92-120.68-81.22T129.93-331.8Q100-401.15 100-480q0-79.38 29.77-148.23t81.46-120.54l42.15 42.15q-44 44-68.69 101.88Q160-546.86 160-480q0 134 93 227t227 93q134 0 227-93t93-227q0-67-24.69-124.81t-68.69-101.81l42.15-42.15q51.69 51.69 81.46 120.54Q860-559.38 860-479.83q0 78.6-29.92 147.97t-81.21 120.68q-51.29 51.31-120.63 81.25Q558.9-100 480.07-100ZM450-440v-420h60v420h-60Z"/></svg>