<svg xmlns="http://www.w3.org/2000/svg" height="24px" viewBox="0 -960 960 960" width="24px" fill="#808080"><path d="M318.08-63.08 351-156.16h-69.84l46.15-129.23h84.61l-39.53 92.31h76.46l-101.54 130h-29.23ZM567.31-100l26.07-74.62h-72.23l39.54-110.77h84.62l-31.93 73.85h75.46L596.54-100h-29.23ZM300-330q-87.15 0-148.58-61.42Q90-452.85 90-540q0-80.31 53.65-139.61 53.66-59.31 133.5-69.16 30.85-56.61 84.43-88.92Q415.15-870 480-870q88.08 0 152.27 57.31 64.19 57.31 76.27 142.92 71.31 5.23 116.38 54.12Q870-566.77 870-500q0 70.77-49.62 120.38Q770.77-330 700-330H300Zm0-60h400q45.85 0 77.92-32.08Q810-454.15 810-500t-32.08-77.92Q745.85-610 700-610h-50v-30q0-70.23-49.88-120.12Q550.23-810 480-810q-51.08 0-93.08 27.73t-63.15 74.42L316.46-690H298q-61.23 2-104.62 45.38Q150-601.23 150-540q0 62.23 43.88 106.12Q237.77-390 300-390Zm180-210Z"/></svg>