<?xml version="1.0" encoding="UTF-8" standalone="no"?>
<svg
   xmlns:dc="http://purl.org/dc/elements/1.1/"
   xmlns:cc="http://creativecommons.org/ns#"
   xmlns:rdf="http://www.w3.org/1999/02/22-rdf-syntax-ns#"
   xmlns:svg="http://www.w3.org/2000/svg"
   xmlns="http://www.w3.org/2000/svg"
   xmlns:xlink="http://www.w3.org/1999/xlink"
   xmlns:sodipodi="http://sodipodi.sourceforge.net/DTD/sodipodi-0.dtd"
   xmlns:inkscape="http://www.inkscape.org/namespaces/inkscape"
   id="Layer_1"
   data-name="Layer 1"
   viewBox="0 0 627.4837 152.8588"
   version="1.1"
   sodipodi:docname="logo-wide.svg"
   width="627.4837"
   height="152.85881"
   inkscape:version="1.0.2 (e86c870879, 2021-01-15)">
  <metadata
     id="metadata108">
    <rdf:RDF>
      <cc:Work
         rdf:about="">
        <dc:format>image/svg+xml</dc:format>
        <dc:type
           rdf:resource="http://purl.org/dc/dcmitype/StillImage" />
        <dc:title>Artboard 1 copy 5 Kopie 2</dc:title>
      </cc:Work>
    </rdf:RDF>
  </metadata>
  <sodipodi:namedview
     pagecolor="#ffffff"
     bordercolor="#666666"
     borderopacity="1"
     objecttolerance="10"
     gridtolerance="10"
     guidetolerance="10"
     inkscape:pageopacity="0"
     inkscape:pageshadow="2"
     inkscape:window-width="1464"
     inkscape:window-height="933"
     id="namedview106"
     showgrid="false"
     lock-margins="true"
     fit-margin-top="5"
     fit-margin-left="5"
     fit-margin-right="5"
     fit-margin-bottom="5"
     inkscape:zoom="0.44479926"
     inkscape:cx="345.35853"
     inkscape:cy="-84.130894"
     inkscape:window-x="72"
     inkscape:window-y="27"
     inkscape:window-maximized="1"
     inkscape:current-layer="Layer_1"
     inkscape:document-rotation="0" />
  <defs
     id="defs69">
    <style
       id="style2">.cls-1{fill:url(#New_Gradient_Swatch_1);}.cls-2{fill:url(#linear-gradient);}.cls-3{fill:url(#linear-gradient-2);}.cls-4{fill:url(#linear-gradient-3);}.cls-5{fill:url(#linear-gradient-4);}.cls-6{fill:url(#linear-gradient-5);}.cls-7{fill:url(#linear-gradient-6);}.cls-8{fill:url(#linear-gradient-7);}.cls-9{fill:url(#linear-gradient-8);}.cls-10{fill:url(#linear-gradient-9);}.cls-11{fill:url(#New_Gradient_Swatch_2);}.cls-12{fill:#676767;}</style>
    <linearGradient
       id="New_Gradient_Swatch_1"
       x1="282.06"
       y1="231.14"
       x2="354.72"
       y2="321.84"
       gradientUnits="userSpaceOnUse"
       gradientTransform="translate(-278.17306,-221.79)">
      <stop
         offset="0.13"
         stop-color="#9fc8a4"
         id="stop4" />
      <stop
         offset="0.4"
         stop-color="#92bc9e"
         id="stop6" />
      <stop
         offset="0.9"
         stop-color="#719b8f"
         id="stop8" />
      <stop
         offset="1"
         stop-color="#69938c"
         id="stop10" />
    </linearGradient>
    <linearGradient
       id="linear-gradient"
       x1="252.74001"
       y1="539.15997"
       x2="235.17"
       y2="539.15997"
       gradientTransform="matrix(0.97,0.26,-0.26,0.97,272.36,-301.35)"
       gradientUnits="userSpaceOnUse">
      <stop
         offset="0"
         stop-color="#e3eae4"
         id="stop13" />
      <stop
         offset="1"
         stop-color="#cde2d8"
         id="stop15" />
    </linearGradient>
    <linearGradient
       id="linear-gradient-2"
       x1="364.04999"
       y1="261.20999"
       x2="355.76999"
       y2="302.63"
       gradientUnits="userSpaceOnUse"
       gradientTransform="translate(-278.17306,-221.79)">
      <stop
         offset="0"
         stop-color="#9fc8a4"
         id="stop18" />
      <stop
         offset="0.27"
         stop-color="#9bc4a2"
         id="stop20" />
      <stop
         offset="0.54"
         stop-color="#8fb89d"
         id="stop22" />
      <stop
         offset="0.82"
         stop-color="#7ba494"
         id="stop24" />
      <stop
         offset="1"
         stop-color="#69938c"
         id="stop26" />
    </linearGradient>
    <linearGradient
       id="linear-gradient-3"
       x1="370.64999"
       y1="293.82999"
       x2="370.51001"
       y2="293.82999"
       xlink:href="#linear-gradient"
       gradientTransform="translate(-278.17306,-221.79)" />
    <linearGradient
       id="linear-gradient-4"
       x1="380.91"
       y1="282.75"
       x2="370.64999"
       y2="282.75"
       xlink:href="#linear-gradient"
       gradientTransform="translate(-278.17306,-221.79)" />
    <linearGradient
       id="linear-gradient-5"
       x1="370.51001"
       y1="295.07999"
       x2="365.47"
       y2="295.07999"
       xlink:href="#linear-gradient"
       gradientTransform="translate(-278.17306,-221.79)" />
    <linearGradient
       id="linear-gradient-6"
       x1="365.22"
       y1="286.54001"
       x2="373.5"
       y2="286.54001"
       gradientUnits="userSpaceOnUse"
       gradientTransform="translate(-278.17306,-221.79)">
      <stop
         offset="0"
         stop-color="#89ae8e"
         id="stop32" />
      <stop
         offset="1"
         stop-color="#79a79f"
         id="stop34" />
    </linearGradient>
    <linearGradient
       id="linear-gradient-7"
       x1="330.54999"
       y1="350.38"
       x2="312.60999"
       y2="365.42001"
       gradientTransform="rotate(1.3,10830.334,-11455.762)"
       gradientUnits="userSpaceOnUse">
      <stop
         offset="0"
         stop-color="#9fc8a4"
         id="stop37" />
      <stop
         offset="1"
         stop-color="#8cc1b6"
         id="stop39" />
    </linearGradient>
    <linearGradient
       id="linear-gradient-8"
       x1="304.51001"
       y1="356.13"
       x2="328.32999"
       y2="356.13"
       gradientTransform="rotate(1.3,10830.334,-11455.762)"
       gradientUnits="userSpaceOnUse">
      <stop
         offset="0"
         stop-color="#9fc8a4"
         id="stop42" />
      <stop
         offset="0.25"
         stop-color="#99c2a1"
         id="stop44" />
      <stop
         offset="0.59"
         stop-color="#88b19a"
         id="stop46" />
      <stop
         offset="0.97"
         stop-color="#6b958d"
         id="stop48" />
      <stop
         offset="1"
         stop-color="#69938c"
         id="stop50" />
    </linearGradient>
    <linearGradient
       id="linear-gradient-9"
       x1="328.23999"
       y1="320.20001"
       x2="335.07999"
       y2="312.04999"
       gradientUnits="userSpaceOnUse"
       gradientTransform="translate(-278.17306,-221.79)">
      <stop
         offset="0"
         stop-color="#79a79f"
         id="stop53" />
      <stop
         offset="0.49"
         stop-color="#74a099"
         id="stop55" />
      <stop
         offset="1"
         stop-color="#69938c"
         id="stop57" />
    </linearGradient>
    <linearGradient
       id="New_Gradient_Swatch_2"
       x1="338.64001"
       y1="262.42001"
       x2="306.78"
       y2="298.69"
       gradientUnits="userSpaceOnUse"
       gradientTransform="translate(-278.17306,-221.79)">
      <stop
         offset="0"
         stop-color="#9fc8a4"
         id="stop60" />
      <stop
         offset="0.46"
         stop-color="#9ac6a8"
         id="stop62" />
      <stop
         offset="0.98"
         stop-color="#8dc1b5"
         id="stop64" />
      <stop
         offset="1"
         stop-color="#8cc1b6"
         id="stop66" />
    </linearGradient>
    <linearGradient
       id="SVGID_1_"
       gradientUnits="userSpaceOnUse"
       x1="369.02579"
       y1="171.88429"
       x2="441.68719"
       y2="262.58051"
       gradientTransform="translate(0.07829967,-0.01787472)">
      <stop
         offset="0.1296"
         style="stop-color:#7CC099"
         id="stop46-3" />
      <stop
         offset="0.3785"
         style="stop-color:#6FB594"
         id="stop48-6" />
      <stop
         offset="0.835"
         style="stop-color:#4E9688"
         id="stop50-7" />
      <stop
         offset="1"
         style="stop-color:#408A83"
         id="stop52" />
    </linearGradient>
    <linearGradient
       id="SVGID_2_"
       gradientUnits="userSpaceOnUse"
       x1="936.13898"
       y1="154.45329"
       x2="918.56207"
       y2="154.45329"
       gradientTransform="matrix(0.9669,0.2553,-0.2553,0.9669,-399.582,-163.11807)">
      <stop
         offset="0"
         style="stop-color:#DBE6E0"
         id="stop61" />
      <stop
         offset="1"
         style="stop-color:#BCDED3"
         id="stop63" />
    </linearGradient>
    <linearGradient
       id="SVGID_3_"
       gradientUnits="userSpaceOnUse"
       x1="451.01599"
       y1="201.9489"
       x2="442.73761"
       y2="243.37801"
       gradientTransform="translate(0.07829967,-0.01787472)">
      <stop
         offset="0"
         style="stop-color:#7CC099"
         id="stop72" />
      <stop
         offset="0.2568"
         style="stop-color:#78BC98"
         id="stop74" />
      <stop
         offset="0.5165"
         style="stop-color:#6CB193"
         id="stop76" />
      <stop
         offset="0.7767"
         style="stop-color:#589F8C"
         id="stop78" />
      <stop
         offset="1"
         style="stop-color:#408A83"
         id="stop80" />
    </linearGradient>
    <linearGradient
       id="SVGID_4_"
       gradientUnits="userSpaceOnUse"
       x1="457.62369"
       y1="234.5722"
       x2="457.47629"
       y2="234.5722"
       gradientTransform="translate(0.07829967,-0.01787472)">
      <stop
         offset="0"
         style="stop-color:#DBE6E0"
         id="stop87" />
      <stop
         offset="1"
         style="stop-color:#BCDED3"
         id="stop89" />
    </linearGradient>
    <linearGradient
       id="SVGID_5_"
       gradientUnits="userSpaceOnUse"
       x1="467.88159"
       y1="223.4929"
       x2="457.62369"
       y2="223.4929"
       gradientTransform="translate(0.07829967,-0.01787472)">
      <stop
         offset="0"
         style="stop-color:#DBE6E0"
         id="stop96" />
      <stop
         offset="1"
         style="stop-color:#BCDED3"
         id="stop98" />
    </linearGradient>
    <linearGradient
       id="SVGID_6_"
       gradientUnits="userSpaceOnUse"
       x1="457.47629"
       y1="235.823"
       x2="452.43719"
       y2="235.823"
       gradientTransform="translate(0.07829967,-0.01787472)">
      <stop
         offset="0"
         style="stop-color:#DBE6E0"
         id="stop105" />
      <stop
         offset="1"
         style="stop-color:#BCDED3"
         id="stop107" />
    </linearGradient>
    <linearGradient
       id="SVGID_7_"
       gradientUnits="userSpaceOnUse"
       x1="452.19159"
       y1="227.27921"
       x2="460.47461"
       y2="227.27921"
       gradientTransform="translate(0.07829967,-0.01787472)">
      <stop
         offset="0"
         style="stop-color:#6AA583"
         id="stop112" />
      <stop
         offset="1"
         style="stop-color:#4C9E96"
         id="stop114" />
    </linearGradient>
    <linearGradient
       id="SVGID_8_"
       gradientUnits="userSpaceOnUse"
       x1="473.17111"
       y1="268.90411"
       x2="455.23529"
       y2="283.95389"
       gradientTransform="matrix(0.9997,0.0227,-0.0227,0.9997,-36.3231,-7.9385747)">
      <stop
         offset="0"
         style="stop-color:#7CC099"
         id="stop119" />
      <stop
         offset="1"
         style="stop-color:#57BAAE"
         id="stop121" />
    </linearGradient>
    <linearGradient
       id="SVGID_9_"
       gradientUnits="userSpaceOnUse"
       x1="447.13129"
       y1="274.66199"
       x2="470.95151"
       y2="274.66199"
       gradientTransform="matrix(0.9997,0.0227,-0.0227,0.9997,-36.3231,-7.9385747)">
      <stop
         offset="0"
         style="stop-color:#7CC099"
         id="stop126" />
      <stop
         offset="0.2327"
         style="stop-color:#76BA97"
         id="stop128" />
      <stop
         offset="0.5485"
         style="stop-color:#65AB90"
         id="stop130" />
      <stop
         offset="0.9106"
         style="stop-color:#489186"
         id="stop132" />
      <stop
         offset="1"
         style="stop-color:#408A83"
         id="stop134" />
    </linearGradient>
    <linearGradient
       id="SVGID_10_"
       gradientUnits="userSpaceOnUse"
       x1="415.2153"
       y1="260.93829"
       x2="422.0509"
       y2="252.7919"
       gradientTransform="translate(0.07829967,-0.01787472)">
      <stop
         offset="0"
         style="stop-color:#4C9E96"
         id="stop141" />
      <stop
         offset="0.4859"
         style="stop-color:#489790"
         id="stop143" />
      <stop
         offset="1"
         style="stop-color:#408A83"
         id="stop145" />
    </linearGradient>
    <linearGradient
       id="SVGID_11_"
       gradientUnits="userSpaceOnUse"
       x1="425.60641"
       y1="203.1666"
       x2="393.7475"
       y2="239.4308"
       gradientTransform="translate(0.07829967,-0.01787472)">
      <stop
         offset="0"
         style="stop-color:#7CC099"
         id="stop152" />
      <stop
         offset="0.3183"
         style="stop-color:#77BF9C"
         id="stop154" />
      <stop
         offset="0.6757"
         style="stop-color:#6ABDA3"
         id="stop156" />
      <stop
         offset="1"
         style="stop-color:#57BAAE"
         id="stop158" />
    </linearGradient>
  </defs>
  <title
     id="title71">Artboard 1 copy 5 Kopie 2</title>
  <g
     transform="matrix(0.99921713,0,0,0.99921713,-364.93376,-162.36887)"
     id="g41">
    <g
       id="g43">
      <linearGradient
         id="linearGradient3548"
         gradientUnits="userSpaceOnUse"
         x1="369.02579"
         y1="171.88429"
         x2="441.68719"
         y2="262.58051">
        <stop
           offset="0.1296"
           style="stop-color:#7CC099"
           id="stop3550" />
        <stop
           offset="0.3785"
           style="stop-color:#6FB594"
           id="stop3552" />
        <stop
           offset="0.835"
           style="stop-color:#4E9688"
           id="stop3554" />
        <stop
           offset="1"
           style="stop-color:#408A83"
           id="stop3556" />
      </linearGradient>
      <path
         style="fill:url(#SVGID_1_)"
         inkscape:connector-curvature="0"
         d="m 433.7,212.6 c -5.9,-10.1 -19,-17.9 -27.5,-21 -8.5,-3.2 -18,-10.1 -18,-10.1 -7.5,-5 -9.7,-9 -13.7,-14 -1.2,2.6 -2.2,5.8 -3,9.6 1.8,3.1 8.7,13.4 28.1,21.5 1.7,0.7 6.9,2.8 7,2.9 l 6.5,2.6 -6.7,-1.9 c -0.2,-0.1 -5.5,-1.6 -7.3,-2.2 -17.3,-6.3 -25,-15.1 -28,-19.9 -0.8,4.9 -1.1,10.6 -0.7,16.5 5.2,4.7 14,11 26.9,15.4 0.9,0.3 3.6,1.3 3.6,1.3 l 3.4,1.2 -3.5,-0.5 c -0.1,0 -3,-0.4 -4,-0.6 -12.1,-2.9 -20.5,-8.4 -26.1,-13.3 0.5,4.3 1.4,8.6 2.8,13 0.3,1 0.7,2.1 1.1,3 4.4,2 9.6,3.9 15.4,5.2 1.1,0.2 4.3,1.1 4.3,1.1 l 3.8,1 -4,-0.2 c -0.1,0 -3.4,-0.2 -4.5,-0.4 -5.1,-0.7 -9.8,-2 -13.9,-3.6 6.6,13.7 18.8,21.4 35.2,27.5 18.7,7 19.4,25 19.4,25 0,0 5.1,-3.8 9.6,-18.4 5.1,-16.2 -0.3,-30.6 -6.2,-40.7 z"
         id="path54" />
    </g>
    <g
       id="g56">
      <g
         id="g58">
        <linearGradient
           id="linearGradient3561"
           gradientUnits="userSpaceOnUse"
           x1="936.13898"
           y1="154.45329"
           x2="918.56207"
           y2="154.45329"
           gradientTransform="matrix(0.9669,0.2553,-0.2553,0.9669,-399.6603,-163.1002)">
          <stop
             offset="0"
             style="stop-color:#DBE6E0"
             id="stop3563" />
          <stop
             offset="1"
             style="stop-color:#BCDED3"
             id="stop3565" />
        </linearGradient>
        <path
           style="fill:url(#SVGID_2_)"
           inkscape:connector-curvature="0"
           d="m 458.6,233.8 c 4.9,-3.6 6.9,-7.8 8.5,-12.5 0.7,-2.1 1.3,-5 0.3,-8.1 -0.8,-2.5 -6.5,-6.2 -11.2,-4.7 -5.1,1.7 -6.1,8.1 -6.5,10.9 -0.6,4.3 0.4,10.9 2.8,17.6 -0.1,0 2.1,-0.2 6.1,-3.2 z"
           id="path65" />
      </g>
      <g
         id="g67">
        <g
           id="g69">
          <linearGradient
             id="linearGradient3570"
             gradientUnits="userSpaceOnUse"
             x1="451.01599"
             y1="201.9489"
             x2="442.73761"
             y2="243.37801">
            <stop
               offset="0"
               style="stop-color:#7CC099"
               id="stop3572" />
            <stop
               offset="0.2568"
               style="stop-color:#78BC98"
               id="stop3574" />
            <stop
               offset="0.5165"
               style="stop-color:#6CB193"
               id="stop3576" />
            <stop
               offset="0.7767"
               style="stop-color:#589F8C"
               id="stop3578" />
            <stop
               offset="1"
               style="stop-color:#408A83"
               id="stop3580" />
          </linearGradient>
          <path
             style="fill:url(#SVGID_3_)"
             inkscape:connector-curvature="0"
             d="m 449.7,219.4 c 0.4,-2.8 1.4,-9.2 6.5,-10.9 4.2,-1.4 9.3,1.5 10.8,3.9 -1.5,-3.9 -5.6,-6.6 -9,-8.3 -4.8,-2.5 -10.8,-2.9 -15.7,-1.7 -4.6,1.1 -7,3.6 -10.9,6.9 0.8,1.1 1.6,2.2 2.2,3.3 4.6,8 9,18.6 8.2,30.6 3,-5 9.7,-6.1 10.6,-6.2 -2.4,-6.6 -3.4,-13.3 -2.7,-17.6 z"
             id="path82" />
        </g>
        <g
           id="g84">
          <linearGradient
             id="linearGradient3584"
             gradientUnits="userSpaceOnUse"
             x1="457.62369"
             y1="234.5722"
             x2="457.47629"
             y2="234.5722">
            <stop
               offset="0"
               style="stop-color:#DBE6E0"
               id="stop3586" />
            <stop
               offset="1"
               style="stop-color:#BCDED3"
               id="stop3588" />
          </linearGradient>
          <path
             style="fill:url(#SVGID_4_)"
             inkscape:connector-curvature="0"
             d="m 457.6,234.5 c -0.1,0 -0.1,0.1 -0.1,0.1 0,0 0.1,0 0.1,-0.1 z"
             id="path91-5" />
        </g>
        <g
           id="g93">
          <linearGradient
             id="linearGradient3592"
             gradientUnits="userSpaceOnUse"
             x1="467.88159"
             y1="223.4929"
             x2="457.62369"
             y2="223.4929">
            <stop
               offset="0"
               style="stop-color:#DBE6E0"
               id="stop3594" />
            <stop
               offset="1"
               style="stop-color:#BCDED3"
               id="stop3596" />
          </linearGradient>
          <path
             style="fill:url(#SVGID_5_)"
             inkscape:connector-curvature="0"
             d="m 467.4,213.2 c -0.1,-0.2 -0.2,-0.5 -0.4,-0.8 0.7,1.7 0.8,3.7 0.1,5.9 -1.5,4.9 -1.8,7.1 -6.1,12.9 -1,1.3 -2.2,2.4 -3.4,3.2 0.3,-0.2 0.6,-0.4 1,-0.7 4.9,-3.6 6.9,-7.8 8.5,-12.5 0.7,-2 1.2,-4.9 0.3,-8 z"
             id="path100" />
        </g>
        <g
           id="g102">
          <linearGradient
             id="linearGradient3600"
             gradientUnits="userSpaceOnUse"
             x1="457.47629"
             y1="235.823"
             x2="452.43719"
             y2="235.823">
            <stop
               offset="0"
               style="stop-color:#DBE6E0"
               id="stop3602" />
            <stop
               offset="1"
               style="stop-color:#BCDED3"
               id="stop3604" />
          </linearGradient>
          <path
             style="fill:url(#SVGID_6_)"
             inkscape:connector-curvature="0"
             d="m 452.4,237 c 0,0 0,0 0,0 0,0 1.8,-0.2 5,-2.4 -2.5,1.7 -4.9,2.4 -4.9,2.4 0,0 0,0 -0.1,0 z"
             id="path109" />
        </g>
      </g>
      <linearGradient
         id="linearGradient3607"
         gradientUnits="userSpaceOnUse"
         x1="452.19159"
         y1="227.27921"
         x2="460.47461"
         y2="227.27921">
        <stop
           offset="0"
           style="stop-color:#6AA583"
           id="stop3609" />
        <stop
           offset="1"
           style="stop-color:#4C9E96"
           id="stop3611" />
      </linearGradient>
      <path
         style="fill:url(#SVGID_7_)"
         inkscape:connector-curvature="0"
         d="m 458.2,217.6 c -1,-0.3 -2,0 -2.8,0.6 -0.2,0.3 -0.3,0.6 -0.4,0.9 -0.4,1.6 0.5,3.3 2.2,3.7 0.7,0.2 1.3,0.1 1.9,-0.1 -0.9,6.9 -5.9,12.4 -6.9,13.5 0.1,0.4 0.2,0.5 0.2,0.7 0.3,0 0.4,-0.1 0.9,-0.2 1.7,-1.9 6.7,-7.9 7,-15.5 0.5,-1.5 -0.5,-3.1 -2.1,-3.6 z"
         id="path116" />
    </g>
    <linearGradient
       id="linearGradient3614"
       gradientUnits="userSpaceOnUse"
       x1="473.17111"
       y1="268.90411"
       x2="455.23529"
       y2="283.95389"
       gradientTransform="matrix(0.9997,0.0227,-0.0227,0.9997,-36.4014,-7.9207)">
      <stop
         offset="0"
         style="stop-color:#7CC099"
         id="stop3616" />
      <stop
         offset="1"
         style="stop-color:#57BAAE"
         id="stop3618" />
    </linearGradient>
    <path
       style="fill:url(#SVGID_8_)"
       inkscape:connector-curvature="0"
       d="m 405.5,261.4 c 1.5,12.7 7.5,31.7 27.8,47.9 0,0 10.1,-15.4 0.4,-32.5 -9.7,-17.1 -23.8,-22.7 -28.8,-24.5 -0.2,3.6 0.4,6.8 0.6,9.1 z"
       id="path123" />
    <linearGradient
       id="linearGradient3621"
       gradientUnits="userSpaceOnUse"
       x1="447.13129"
       y1="274.66199"
       x2="470.95151"
       y2="274.66199"
       gradientTransform="matrix(0.9997,0.0227,-0.0227,0.9997,-36.4014,-7.9207)">
      <stop
         offset="0"
         style="stop-color:#7CC099"
         id="stop3623" />
      <stop
         offset="0.2327"
         style="stop-color:#76BA97"
         id="stop3625" />
      <stop
         offset="0.5485"
         style="stop-color:#65AB90"
         id="stop3627" />
      <stop
         offset="0.9106"
         style="stop-color:#489186"
         id="stop3629" />
      <stop
         offset="1"
         style="stop-color:#408A83"
         id="stop3631" />
    </linearGradient>
    <path
       style="fill:url(#SVGID_9_)"
       inkscape:connector-curvature="0"
       d="m 423.7,272.8 c -5.7,-10 -12.8,-16.8 -18.8,-20.5 -0.1,3.2 0.4,7 0.6,9.1 1.2,10.8 5.8,26.1 19.6,40.4 2.4,-5.5 5.5,-16.8 -1.4,-29 z"
       id="path136" />
    <g
       id="g138">
      <linearGradient
         id="linearGradient3635"
         gradientUnits="userSpaceOnUse"
         x1="415.2153"
         y1="260.93829"
         x2="422.0509"
         y2="252.7919">
        <stop
           offset="0"
           style="stop-color:#4C9E96"
           id="stop3637" />
        <stop
           offset="0.4859"
           style="stop-color:#489790"
           id="stop3639" />
        <stop
           offset="1"
           style="stop-color:#408A83"
           id="stop3641" />
      </linearGradient>
      <path
         style="fill:url(#SVGID_10_)"
         inkscape:connector-curvature="0"
         d="m 411.9,246.7 c -2,-0.8 -4.9,-1.6 -6.8,-2.4 -0.3,2.5 -0.2,5.1 -0.2,8.1 4.4,1.6 16.1,6.2 25.5,19.3 0,-0.1 0,-0.2 0,-0.3 -0.2,-2.3 -1.1,-18.3 -18.5,-24.7 z"
         id="path147" />
    </g>
    <g
       id="g149">
      <linearGradient
         id="linearGradient3645"
         gradientUnits="userSpaceOnUse"
         x1="425.60641"
         y1="203.1666"
         x2="393.7475"
         y2="239.4308">
        <stop
           offset="0"
           style="stop-color:#7CC099"
           id="stop3647" />
        <stop
           offset="0.3183"
           style="stop-color:#77BF9C"
           id="stop3649" />
        <stop
           offset="0.6757"
           style="stop-color:#6ABDA3"
           id="stop3651" />
        <stop
           offset="1"
           style="stop-color:#57BAAE"
           id="stop3653" />
      </linearGradient>
      <path
         style="fill:url(#SVGID_11_)"
         inkscape:connector-curvature="0"
         d="m 433.7,212.6 c -5.9,-10.1 -19,-17.9 -27.5,-21 -8.5,-3.2 -18,-10.1 -18,-10.1 -2.1,-1.4 -3.8,-2.7 -5.2,-4 -0.4,3.6 -0.6,7.5 -0.4,11.6 4.2,3.2 9.7,6.5 16.9,9.5 1.7,0.7 6.9,2.8 7,2.9 l 6.5,2.6 -6.7,-1.9 c -0.2,-0.1 -5.5,-1.6 -7.3,-2.2 -6.8,-2.5 -12.1,-5.3 -16.2,-8.2 0.4,5 1.3,10.1 2.9,15.2 3.4,1.8 7.2,3.4 11.6,4.9 0.9,0.3 3.6,1.3 3.6,1.3 l 3.4,1.2 -3.5,-0.5 c -0.1,0 -3,-0.4 -4,-0.6 -3.7,-0.9 -7,-2 -10,-3.3 1.9,4.8 4.4,8.8 7.4,12.3 0.1,0 0.1,0 0.1,0 l 3.8,1 -3.2,-0.2 c 6.9,7.7 16.3,13.3 26.3,21.3 13.5,10.8 9.2,27.2 9.2,27.2 0,0 0.8,-0.6 1.5,-1.5 1.8,-2.1 5.1,-7 8.1,-16.9 5,-16.1 -0.4,-30.5 -6.3,-40.6 z"
         id="path160" />
    </g>
  </g>
  <path
     class="cls-12"
     d="m 122.9687,44.751323 c 3.1705,-0.792624 7.38725,-1.648658 12.68198,-2.536396 a 107.28953,107.28953 0 0 1 18.19863,-1.363313 39.219015,39.219015 0 0 1 15.3452,2.63151 23.842117,23.842117 0 0 1 9.76512,7.292138 28.058875,28.058875 0 0 1 5.1362,11.255255 65.977987,65.977987 0 0 1 1.49014,14.457454 V 119.98716 H 171.73091 V 79.468236 a 64.51956,64.51956 0 0 0 -0.98286,-12.238109 20.544803,20.544803 0 0 0 -3.17049,-8.179875 12.681978,12.681978 0 0 0 -5.96053,-4.565512 26.663858,26.663858 0 0 0 -9.22614,-1.395017 c -1.49013,0 -3.17049,0 -4.62892,0 l -4.53381,0.380459 c -1.45843,0.158524 -2.72662,0.31705 -3.868,0.538984 l -2.47299,0.443869 v 65.407295 h -13.85506 z"
     id="path95"
     style="stroke-width:1" />
  <path
     class="cls-12"
     d="m 220.87357,134.44461 a 28.534449,28.534449 0 0 0 4.24846,1.42672 20.766738,20.766738 0 0 0 5.1362,0.6658 20.259459,20.259459 0 0 0 12.68198,-3.64607 37.094784,37.094784 0 0 0 8.81397,-12.9039 402.33574,402.33574 0 0 1 -17.9767,-36.872856 336.61139,336.61139 0 0 1 -13.22096,-40.614032 h 14.90132 c 1.10967,4.470397 2.40958,9.289548 3.96312,14.457454 1.55354,5.167906 3.1705,10.494336 5.1362,15.852471 1.9657,5.358136 3.93141,10.938206 6.08735,16.391456 2.15594,5.45325 4.4704,10.716271 6.87997,15.852467 q 5.64348,-15.630532 9.82853,-31.00743 4.18506,-15.376897 7.89453,-31.704943 h 14.29893 q -5.38983,21.93982 -11.92105,42.104165 c -4.37529,13.442895 -9.06762,26.061458 -14.14041,37.760588 a 82.432854,82.432854 0 0 1 -6.18247,11.5723 35.604651,35.604651 0 0 1 -7.1019,7.95795 25.934644,25.934644 0 0 1 -8.71886,4.62892 37.411833,37.411833 0 0 1 -10.93821,1.49013 32.053698,32.053698 0 0 1 -3.42413,-0.22194 c -1.20479,-0.15852 -2.37787,-0.34875 -3.51925,-0.60239 -1.14138,-0.25364 -2.18764,-0.53898 -3.17049,-0.82433 a 11.667419,11.667419 0 0 1 -2.02912,-0.76092 z"
     id="path97"
     style="stroke-width:1" />
  <path
     class="cls-12"
     d="m 321.7587,44.751323 c 3.17049,-0.792624 7.38725,-1.648658 12.68197,-2.536396 a 105.57746,105.57746 0 0 1 18.10352,-1.363313 34.177929,34.177929 0 0 1 12.52346,2.029117 21.876411,21.876411 0 0 1 8.49693,5.865414 c 0.6975,-0.475574 1.77547,-1.173083 3.17049,-2.060821 a 36.111931,36.111931 0 0 1 5.51666,-2.63151 59.256539,59.256539 0 0 1 7.32384,-2.219346 37.189899,37.189899 0 0 1 8.62374,-0.982854 35.033963,35.033963 0 0 1 14.61599,2.63151 20.956968,20.956968 0 0 1 8.87738,7.355548 29.390483,29.390483 0 0 1 4.31187,11.318665 87.378821,87.378821 0 0 1 1.10967,14.330634 V 119.98716 H 413.25916 V 79.468236 a 89.915219,89.915219 0 0 0 -0.6658,-11.79424 22.795854,22.795854 0 0 0 -2.5364,-8.179875 11.508894,11.508894 0 0 0 -5.07279,-4.850856 19.022966,19.022966 0 0 0 -8.24328,-1.426723 26.695563,26.695563 0 0 0 -11.19185,2.821741 38.045932,38.045932 0 0 0 -6.34098,3.455838 36.682619,36.682619 0 0 1 1.42672,7.292137 73.1116,73.1116 0 0 1 0.60239,9.701713 V 119.98716 H 367.38211 V 79.468236 a 83.764464,83.764464 0 0 0 -0.72921,-11.79424 24.095757,24.095757 0 0 0 -2.63151,-8.179875 11.604009,11.604009 0 0 0 -5.04109,-4.850856 18.579097,18.579097 0 0 0 -8.14817,-1.553542 c -1.39502,0 -2.88515,0 -4.47039,0 l -4.53381,0.380459 c -1.42672,0.158524 -2.75833,0.31705 -3.96312,0.538984 l -2.37787,0.443869 v 65.407295 h -13.85506 z"
     id="path99"
     style="stroke-width:1" />
  <path
     class="cls-12"
     d="m 592.67744,40.56627 a 40.645738,40.645738 0 0 1 14.10869,2.155936 22.034935,22.034935 0 0 1 14.20382,15.503717 44.386921,44.386921 0 0 1 1.49014,11.984469 V 118.3385 c -1.20479,0.28534 -3.1705,0.79262 -5.19962,1.10967 -2.02911,0.31705 -4.31187,0.69751 -7.00679,0.98285 -2.69492,0.28534 -5.58007,0.57069 -8.71886,0.82433 -3.13879,0.25364 -6.34099,0.38046 -9.32125,0.38046 a 49.332892,49.332892 0 0 1 -12.04788,-1.36332 26.758972,26.758972 0 0 1 -9.51148,-4.21675 19.49854,19.49854 0 0 1 -6.34099,-7.7043 26.695563,26.695563 0 0 1 -2.21935,-11.445486 22.003231,22.003231 0 0 1 2.59981,-11.03332 20.703328,20.703328 0 0 1 7.0702,-7.450662 32.402452,32.402452 0 0 1 10.43093,-4.185052 57.449357,57.449357 0 0 1 12.46004,-1.299903 40.518917,40.518917 0 0 1 4.31187,0.221935 c 1.49013,0.158524 2.91685,0.348754 4.24846,0.602394 l 3.51925,0.665803 2.09253,0.443869 v -3.868003 a 30.500156,30.500156 0 0 0 -0.76092,-6.784857 15.852472,15.852472 0 0 0 -2.66321,-5.96053 13.791651,13.791651 0 0 0 -5.29473,-4.185052 20.735033,20.735033 0 0 0 -8.71886,-1.553543 60.778377,60.778377 0 0 0 -11.82594,1.141378 34.875437,34.875437 0 0 0 -7.6726,2.568101 l -2.25105,-11.445484 a 39.599474,39.599474 0 0 1 9.51148,-3.170495 78.533143,78.533143 0 0 1 13.50631,-1.046263 z m 1.20479,69.43383 c 3.17049,0 6.34098,0 8.71886,-0.22194 a 37.823997,37.823997 0 0 0 6.34099,-0.82433 V 85.872634 a 17.849883,17.849883 0 0 0 -4.85086,-1.268198 53.644764,53.644764 0 0 0 -8.11647,-0.538984 49.015843,49.015843 0 0 0 -6.62633,0.475574 20.576509,20.576509 0 0 0 -6.34099,1.838887 13.601421,13.601421 0 0 0 -4.85086,3.868003 10.177287,10.177287 0 0 0 -1.93399,6.499513 11.191845,11.191845 0 0 0 4.75574,10.367521 24.888381,24.888381 0 0 0 12.90391,2.88515 z"
     id="path101"
     style="stroke-width:1" />
  <path
     class="cls-12"
     d="m 463.22616,81.402237 a 50.125516,50.125516 0 0 1 2.98026,-17.976703 37.253309,37.253309 0 0 1 7.92624,-12.681977 31.704943,31.704943 0 0 1 11.31866,-7.609187 35.351012,35.351012 0 0 1 13.09414,-2.536395 q 15.66224,0 24.00065,9.765123 c 5.54836,6.499513 8.3384,16.42316 8.3384,29.707531 v 2.377872 a 22.859265,22.859265 0 0 1 0,2.63151 h -53.2009 a 28.534449,28.534449 0 0 0 7.00679,18.325459 c 4.08994,4.15334 10.43093,6.34099 19.02297,6.34099 a 50.41086,50.41086 0 0 0 12.30152,-1.2682 47.557415,47.557415 0 0 0 8.4018,-3.1705 l 1.93401,11.63572 a 44.386921,44.386921 0 0 1 -9.76512,3.55095 62.078279,62.078279 0 0 1 -14.36235,1.36331 45.813643,45.813643 0 0 1 -17.50112,-2.91685 32.529272,32.529272 0 0 1 -12.143,-8.40181 34.368159,34.368159 0 0 1 -7.1019,-12.681978 54.437388,54.437388 0 0 1 -2.25105,-16.454865 z m 53.20089,-7.609186 a 23.239724,23.239724 0 0 0 -4.69233,-15.408603 16.169521,16.169521 0 0 0 -13.31608,-6.055644 18.357163,18.357163 0 0 0 -8.43351,1.870592 19.466836,19.466836 0 0 0 -6.34099,4.850856 22.542215,22.542215 0 0 0 -3.96312,6.848268 34.019404,34.019404 0 0 0 -1.83889,7.894531 z"
     id="path103"
     style="stroke-width:1" />
</svg>
