<?xml version="1.0" encoding="UTF-8" standalone="no"?>
<svg
   xmlns:dc="http://purl.org/dc/elements/1.1/"
   xmlns:cc="http://creativecommons.org/ns#"
   xmlns:rdf="http://www.w3.org/1999/02/22-rdf-syntax-ns#"
   xmlns:svg="http://www.w3.org/2000/svg"
   xmlns="http://www.w3.org/2000/svg"
   xmlns:xlink="http://www.w3.org/1999/xlink"
   xmlns:sodipodi="http://sodipodi.sourceforge.net/DTD/sodipodi-0.dtd"
   xmlns:inkscape="http://www.inkscape.org/namespaces/inkscape"
   id="Layer_1"
   data-name="Layer 1"
   viewBox="0 0 517.96637 151.68899"
   version="1.1"
   sodipodi:docname="logo-wide.svg"
   width="517.96637"
   height="151.689"
   inkscape:version="1.0.2 (e86c870879, 2021-01-15)">
  <metadata
     id="metadata108">
    <rdf:RDF>
      <cc:Work
         rdf:about="">
        <dc:format>image/svg+xml</dc:format>
        <dc:type
           rdf:resource="http://purl.org/dc/dcmitype/StillImage" />
        <dc:title>Artboard 1 copy 5 Kopie 2</dc:title>
      </cc:Work>
    </rdf:RDF>
  </metadata>
  <sodipodi:namedview
     pagecolor="#ffffff"
     bordercolor="#666666"
     borderopacity="1"
     objecttolerance="10"
     gridtolerance="10"
     guidetolerance="10"
     inkscape:pageopacity="0"
     inkscape:pageshadow="2"
     inkscape:window-width="1464"
     inkscape:window-height="933"
     id="namedview106"
     showgrid="false"
     lock-margins="true"
     fit-margin-top="5"
     fit-margin-left="5"
     fit-margin-right="5"
     fit-margin-bottom="5"
     inkscape:zoom="1.1720962"
     inkscape:cx="275.63348"
     inkscape:cy="26.003982"
     inkscape:window-x="72"
     inkscape:window-y="27"
     inkscape:window-maximized="1"
     inkscape:current-layer="Layer_1"
     inkscape:document-rotation="0" />
  <defs
     id="defs69">
    <style
       id="style2">.cls-1{fill:url(#New_Gradient_Swatch_1);}.cls-2{fill:url(#linear-gradient);}.cls-3{fill:url(#linear-gradient-2);}.cls-4{fill:url(#linear-gradient-3);}.cls-5{fill:url(#linear-gradient-4);}.cls-6{fill:url(#linear-gradient-5);}.cls-7{fill:url(#linear-gradient-6);}.cls-8{fill:url(#linear-gradient-7);}.cls-9{fill:url(#linear-gradient-8);}.cls-10{fill:url(#linear-gradient-9);}.cls-11{fill:url(#New_Gradient_Swatch_2);}.cls-12{fill:#676767;}</style>
    <linearGradient
       id="New_Gradient_Swatch_1"
       x1="282.06"
       y1="231.14"
       x2="354.72"
       y2="321.84"
       gradientUnits="userSpaceOnUse"
       gradientTransform="translate(-278.17306,-221.79)">
      <stop
         offset="0.13"
         stop-color="#9fc8a4"
         id="stop4" />
      <stop
         offset="0.4"
         stop-color="#92bc9e"
         id="stop6" />
      <stop
         offset="0.9"
         stop-color="#719b8f"
         id="stop8" />
      <stop
         offset="1"
         stop-color="#69938c"
         id="stop10" />
    </linearGradient>
    <linearGradient
       id="linear-gradient"
       x1="252.74001"
       y1="539.15997"
       x2="235.17"
       y2="539.15997"
       gradientTransform="matrix(0.97,0.26,-0.26,0.97,272.36,-301.35)"
       gradientUnits="userSpaceOnUse">
      <stop
         offset="0"
         stop-color="#e3eae4"
         id="stop13" />
      <stop
         offset="1"
         stop-color="#cde2d8"
         id="stop15" />
    </linearGradient>
    <linearGradient
       id="linear-gradient-2"
       x1="364.04999"
       y1="261.20999"
       x2="355.76999"
       y2="302.63"
       gradientUnits="userSpaceOnUse"
       gradientTransform="translate(-278.17306,-221.79)">
      <stop
         offset="0"
         stop-color="#9fc8a4"
         id="stop18" />
      <stop
         offset="0.27"
         stop-color="#9bc4a2"
         id="stop20" />
      <stop
         offset="0.54"
         stop-color="#8fb89d"
         id="stop22" />
      <stop
         offset="0.82"
         stop-color="#7ba494"
         id="stop24" />
      <stop
         offset="1"
         stop-color="#69938c"
         id="stop26" />
    </linearGradient>
    <linearGradient
       id="linear-gradient-3"
       x1="370.64999"
       y1="293.82999"
       x2="370.51001"
       y2="293.82999"
       xlink:href="#linear-gradient"
       gradientTransform="translate(-278.17306,-221.79)" />
    <linearGradient
       id="linear-gradient-4"
       x1="380.91"
       y1="282.75"
       x2="370.64999"
       y2="282.75"
       xlink:href="#linear-gradient"
       gradientTransform="translate(-278.17306,-221.79)" />
    <linearGradient
       id="linear-gradient-5"
       x1="370.51001"
       y1="295.07999"
       x2="365.47"
       y2="295.07999"
       xlink:href="#linear-gradient"
       gradientTransform="translate(-278.17306,-221.79)" />
    <linearGradient
       id="linear-gradient-6"
       x1="365.22"
       y1="286.54001"
       x2="373.5"
       y2="286.54001"
       gradientUnits="userSpaceOnUse"
       gradientTransform="translate(-278.17306,-221.79)">
      <stop
         offset="0"
         stop-color="#89ae8e"
         id="stop32" />
      <stop
         offset="1"
         stop-color="#79a79f"
         id="stop34" />
    </linearGradient>
    <linearGradient
       id="linear-gradient-7"
       x1="330.54999"
       y1="350.38"
       x2="312.60999"
       y2="365.42001"
       gradientTransform="rotate(1.3,10830.334,-11455.762)"
       gradientUnits="userSpaceOnUse">
      <stop
         offset="0"
         stop-color="#9fc8a4"
         id="stop37" />
      <stop
         offset="1"
         stop-color="#8cc1b6"
         id="stop39" />
    </linearGradient>
    <linearGradient
       id="linear-gradient-8"
       x1="304.51001"
       y1="356.13"
       x2="328.32999"
       y2="356.13"
       gradientTransform="rotate(1.3,10830.334,-11455.762)"
       gradientUnits="userSpaceOnUse">
      <stop
         offset="0"
         stop-color="#9fc8a4"
         id="stop42" />
      <stop
         offset="0.25"
         stop-color="#99c2a1"
         id="stop44" />
      <stop
         offset="0.59"
         stop-color="#88b19a"
         id="stop46" />
      <stop
         offset="0.97"
         stop-color="#6b958d"
         id="stop48" />
      <stop
         offset="1"
         stop-color="#69938c"
         id="stop50" />
    </linearGradient>
    <linearGradient
       id="linear-gradient-9"
       x1="328.23999"
       y1="320.20001"
       x2="335.07999"
       y2="312.04999"
       gradientUnits="userSpaceOnUse"
       gradientTransform="translate(-278.17306,-221.79)">
      <stop
         offset="0"
         stop-color="#79a79f"
         id="stop53" />
      <stop
         offset="0.49"
         stop-color="#74a099"
         id="stop55" />
      <stop
         offset="1"
         stop-color="#69938c"
         id="stop57" />
    </linearGradient>
    <linearGradient
       id="New_Gradient_Swatch_2"
       x1="338.64001"
       y1="262.42001"
       x2="306.78"
       y2="298.69"
       gradientUnits="userSpaceOnUse"
       gradientTransform="translate(-278.17306,-221.79)">
      <stop
         offset="0"
         stop-color="#9fc8a4"
         id="stop60" />
      <stop
         offset="0.46"
         stop-color="#9ac6a8"
         id="stop62" />
      <stop
         offset="0.98"
         stop-color="#8dc1b5"
         id="stop64" />
      <stop
         offset="1"
         stop-color="#8cc1b6"
         id="stop66" />
    </linearGradient>
    <linearGradient
       id="SVGID_1_"
       gradientUnits="userSpaceOnUse"
       x1="369.02579"
       y1="171.88429"
       x2="441.68719"
       y2="262.58051"
       gradientTransform="translate(0.07829804,-0.01787545)">
      <stop
         offset="0.1296"
         style="stop-color:#7CC099"
         id="stop46-3" />
      <stop
         offset="0.3785"
         style="stop-color:#6FB594"
         id="stop48-6" />
      <stop
         offset="0.835"
         style="stop-color:#4E9688"
         id="stop50-7" />
      <stop
         offset="1"
         style="stop-color:#408A83"
         id="stop52" />
    </linearGradient>
    <linearGradient
       id="SVGID_2_"
       gradientUnits="userSpaceOnUse"
       x1="936.13898"
       y1="154.45329"
       x2="918.56207"
       y2="154.45329"
       gradientTransform="matrix(0.9669,0.2553,-0.2553,0.9669,-399.582,-163.11807)">
      <stop
         offset="0"
         style="stop-color:#DBE6E0"
         id="stop61" />
      <stop
         offset="1"
         style="stop-color:#BCDED3"
         id="stop63" />
    </linearGradient>
    <linearGradient
       id="SVGID_3_"
       gradientUnits="userSpaceOnUse"
       x1="451.01599"
       y1="201.9489"
       x2="442.73761"
       y2="243.37801"
       gradientTransform="translate(0.07829804,-0.01787545)">
      <stop
         offset="0"
         style="stop-color:#7CC099"
         id="stop72" />
      <stop
         offset="0.2568"
         style="stop-color:#78BC98"
         id="stop74" />
      <stop
         offset="0.5165"
         style="stop-color:#6CB193"
         id="stop76" />
      <stop
         offset="0.7767"
         style="stop-color:#589F8C"
         id="stop78" />
      <stop
         offset="1"
         style="stop-color:#408A83"
         id="stop80" />
    </linearGradient>
    <linearGradient
       id="SVGID_4_"
       gradientUnits="userSpaceOnUse"
       x1="457.62369"
       y1="234.5722"
       x2="457.47629"
       y2="234.5722"
       gradientTransform="translate(0.07829804,-0.01787545)">
      <stop
         offset="0"
         style="stop-color:#DBE6E0"
         id="stop87" />
      <stop
         offset="1"
         style="stop-color:#BCDED3"
         id="stop89" />
    </linearGradient>
    <linearGradient
       id="SVGID_5_"
       gradientUnits="userSpaceOnUse"
       x1="467.88159"
       y1="223.4929"
       x2="457.62369"
       y2="223.4929"
       gradientTransform="translate(0.07829804,-0.01787545)">
      <stop
         offset="0"
         style="stop-color:#DBE6E0"
         id="stop96" />
      <stop
         offset="1"
         style="stop-color:#BCDED3"
         id="stop98" />
    </linearGradient>
    <linearGradient
       id="SVGID_6_"
       gradientUnits="userSpaceOnUse"
       x1="457.47629"
       y1="235.823"
       x2="452.43719"
       y2="235.823"
       gradientTransform="translate(0.07829804,-0.01787545)">
      <stop
         offset="0"
         style="stop-color:#DBE6E0"
         id="stop105" />
      <stop
         offset="1"
         style="stop-color:#BCDED3"
         id="stop107" />
    </linearGradient>
    <linearGradient
       id="SVGID_7_"
       gradientUnits="userSpaceOnUse"
       x1="452.19159"
       y1="227.27921"
       x2="460.47461"
       y2="227.27921"
       gradientTransform="translate(0.07829804,-0.01787545)">
      <stop
         offset="0"
         style="stop-color:#6AA583"
         id="stop112" />
      <stop
         offset="1"
         style="stop-color:#4C9E96"
         id="stop114" />
    </linearGradient>
    <linearGradient
       id="SVGID_8_"
       gradientUnits="userSpaceOnUse"
       x1="473.17111"
       y1="268.90411"
       x2="455.23529"
       y2="283.95389"
       gradientTransform="matrix(0.9997,0.0227,-0.0227,0.9997,-36.323102,-7.9385754)">
      <stop
         offset="0"
         style="stop-color:#7CC099"
         id="stop119" />
      <stop
         offset="1"
         style="stop-color:#57BAAE"
         id="stop121" />
    </linearGradient>
    <linearGradient
       id="SVGID_9_"
       gradientUnits="userSpaceOnUse"
       x1="447.13129"
       y1="274.66199"
       x2="470.95151"
       y2="274.66199"
       gradientTransform="matrix(0.9997,0.0227,-0.0227,0.9997,-36.323102,-7.9385754)">
      <stop
         offset="0"
         style="stop-color:#7CC099"
         id="stop126" />
      <stop
         offset="0.2327"
         style="stop-color:#76BA97"
         id="stop128" />
      <stop
         offset="0.5485"
         style="stop-color:#65AB90"
         id="stop130" />
      <stop
         offset="0.9106"
         style="stop-color:#489186"
         id="stop132" />
      <stop
         offset="1"
         style="stop-color:#408A83"
         id="stop134" />
    </linearGradient>
    <linearGradient
       id="SVGID_10_"
       gradientUnits="userSpaceOnUse"
       x1="415.2153"
       y1="260.93829"
       x2="422.0509"
       y2="252.7919"
       gradientTransform="translate(0.07829804,-0.01787545)">
      <stop
         offset="0"
         style="stop-color:#4C9E96"
         id="stop141" />
      <stop
         offset="0.4859"
         style="stop-color:#489790"
         id="stop143" />
      <stop
         offset="1"
         style="stop-color:#408A83"
         id="stop145" />
    </linearGradient>
    <linearGradient
       id="SVGID_11_"
       gradientUnits="userSpaceOnUse"
       x1="425.60641"
       y1="203.1666"
       x2="393.7475"
       y2="239.4308"
       gradientTransform="translate(0.07829804,-0.01787545)">
      <stop
         offset="0"
         style="stop-color:#7CC099"
         id="stop152" />
      <stop
         offset="0.3183"
         style="stop-color:#77BF9C"
         id="stop154" />
      <stop
         offset="0.6757"
         style="stop-color:#6ABDA3"
         id="stop156" />
      <stop
         offset="1"
         style="stop-color:#57BAAE"
         id="stop158" />
    </linearGradient>
    <linearGradient
       id="SVGID_1_-3"
       gradientUnits="userSpaceOnUse"
       x1="369.02579"
       y1="171.88429"
       x2="441.68719"
       y2="262.58051"
       gradientTransform="translate(94.47314,79.301403)">
      <stop
         offset="0.1296"
         style="stop-color:#7CC099"
         id="stop46-3-6" />
      <stop
         offset="0.3785"
         style="stop-color:#6FB594"
         id="stop48-6-7" />
      <stop
         offset="0.835"
         style="stop-color:#4E9688"
         id="stop50-7-5" />
      <stop
         offset="1"
         style="stop-color:#408A83"
         id="stop52-3" />
    </linearGradient>
    <linearGradient
       id="SVGID_2_-5"
       gradientUnits="userSpaceOnUse"
       x1="936.13898"
       y1="154.45329"
       x2="918.56207"
       y2="154.45329"
       gradientTransform="matrix(0.9669,0.2553,-0.2553,0.9669,-305.18715,-83.798787)">
      <stop
         offset="0"
         style="stop-color:#DBE6E0"
         id="stop61-6" />
      <stop
         offset="1"
         style="stop-color:#BCDED3"
         id="stop63-2" />
    </linearGradient>
    <linearGradient
       id="SVGID_3_-9"
       gradientUnits="userSpaceOnUse"
       x1="451.01599"
       y1="201.9489"
       x2="442.73761"
       y2="243.37801"
       gradientTransform="translate(94.47314,79.301403)">
      <stop
         offset="0"
         style="stop-color:#7CC099"
         id="stop72-1" />
      <stop
         offset="0.2568"
         style="stop-color:#78BC98"
         id="stop74-2" />
      <stop
         offset="0.5165"
         style="stop-color:#6CB193"
         id="stop76-7" />
      <stop
         offset="0.7767"
         style="stop-color:#589F8C"
         id="stop78-0" />
      <stop
         offset="1"
         style="stop-color:#408A83"
         id="stop80-9" />
    </linearGradient>
    <linearGradient
       id="SVGID_4_-3"
       gradientUnits="userSpaceOnUse"
       x1="457.62369"
       y1="234.5722"
       x2="457.47629"
       y2="234.5722"
       gradientTransform="translate(94.47314,79.301403)">
      <stop
         offset="0"
         style="stop-color:#DBE6E0"
         id="stop87-6" />
      <stop
         offset="1"
         style="stop-color:#BCDED3"
         id="stop89-0" />
    </linearGradient>
    <linearGradient
       id="SVGID_5_-6"
       gradientUnits="userSpaceOnUse"
       x1="467.88159"
       y1="223.4929"
       x2="457.62369"
       y2="223.4929"
       gradientTransform="translate(94.47314,79.301403)">
      <stop
         offset="0"
         style="stop-color:#DBE6E0"
         id="stop96-2" />
      <stop
         offset="1"
         style="stop-color:#BCDED3"
         id="stop98-6" />
    </linearGradient>
    <linearGradient
       id="SVGID_6_-1"
       gradientUnits="userSpaceOnUse"
       x1="457.47629"
       y1="235.823"
       x2="452.43719"
       y2="235.823"
       gradientTransform="translate(94.47314,79.301403)">
      <stop
         offset="0"
         style="stop-color:#DBE6E0"
         id="stop105-8" />
      <stop
         offset="1"
         style="stop-color:#BCDED3"
         id="stop107-7" />
    </linearGradient>
    <linearGradient
       id="SVGID_7_-9"
       gradientUnits="userSpaceOnUse"
       x1="452.19159"
       y1="227.27921"
       x2="460.47461"
       y2="227.27921"
       gradientTransform="translate(94.47314,79.301403)">
      <stop
         offset="0"
         style="stop-color:#6AA583"
         id="stop112-2" />
      <stop
         offset="1"
         style="stop-color:#4C9E96"
         id="stop114-0" />
    </linearGradient>
    <linearGradient
       id="SVGID_8_-2"
       gradientUnits="userSpaceOnUse"
       x1="473.17111"
       y1="268.90411"
       x2="455.23529"
       y2="283.95389"
       gradientTransform="matrix(0.9997,0.0227,-0.0227,0.9997,58.071739,71.380703)">
      <stop
         offset="0"
         style="stop-color:#7CC099"
         id="stop119-3" />
      <stop
         offset="1"
         style="stop-color:#57BAAE"
         id="stop121-7" />
    </linearGradient>
    <linearGradient
       id="SVGID_9_-5"
       gradientUnits="userSpaceOnUse"
       x1="447.13129"
       y1="274.66199"
       x2="470.95151"
       y2="274.66199"
       gradientTransform="matrix(0.9997,0.0227,-0.0227,0.9997,58.071739,71.380703)">
      <stop
         offset="0"
         style="stop-color:#7CC099"
         id="stop126-9" />
      <stop
         offset="0.2327"
         style="stop-color:#76BA97"
         id="stop128-2" />
      <stop
         offset="0.5485"
         style="stop-color:#65AB90"
         id="stop130-2" />
      <stop
         offset="0.9106"
         style="stop-color:#489186"
         id="stop132-8" />
      <stop
         offset="1"
         style="stop-color:#408A83"
         id="stop134-9" />
    </linearGradient>
    <linearGradient
       id="SVGID_10_-7"
       gradientUnits="userSpaceOnUse"
       x1="415.2153"
       y1="260.93829"
       x2="422.0509"
       y2="252.7919"
       gradientTransform="translate(94.47314,79.301403)">
      <stop
         offset="0"
         style="stop-color:#4C9E96"
         id="stop141-3" />
      <stop
         offset="0.4859"
         style="stop-color:#489790"
         id="stop143-6" />
      <stop
         offset="1"
         style="stop-color:#408A83"
         id="stop145-1" />
    </linearGradient>
    <linearGradient
       id="SVGID_11_-2"
       gradientUnits="userSpaceOnUse"
       x1="425.60641"
       y1="203.1666"
       x2="393.7475"
       y2="239.4308"
       gradientTransform="translate(94.47314,79.301403)">
      <stop
         offset="0"
         style="stop-color:#7CC099"
         id="stop152-9" />
      <stop
         offset="0.3183"
         style="stop-color:#77BF9C"
         id="stop154-3" />
      <stop
         offset="0.6757"
         style="stop-color:#6ABDA3"
         id="stop156-1" />
      <stop
         offset="1"
         style="stop-color:#57BAAE"
         id="stop158-9" />
    </linearGradient>
    <linearGradient
       id="SVGID_1_-1"
       gradientUnits="userSpaceOnUse"
       x1="369.02579"
       y1="171.88429"
       x2="441.68719"
       y2="262.58051"
       gradientTransform="translate(0.57847467,1.6853429)">
      <stop
         offset="0.1296"
         style="stop-color:#7CC099"
         id="stop46-3-3" />
      <stop
         offset="0.3785"
         style="stop-color:#6FB594"
         id="stop48-6-2" />
      <stop
         offset="0.835"
         style="stop-color:#4E9688"
         id="stop50-7-1" />
      <stop
         offset="1"
         style="stop-color:#408A83"
         id="stop52-5" />
    </linearGradient>
    <linearGradient
       id="SVGID_2_-9"
       gradientUnits="userSpaceOnUse"
       x1="936.13898"
       y1="154.45329"
       x2="918.56207"
       y2="154.45329"
       gradientTransform="matrix(0.9669,0.2553,-0.2553,0.9669,-399.08181,-161.41482)">
      <stop
         offset="0"
         style="stop-color:#DBE6E0"
         id="stop61-9" />
      <stop
         offset="1"
         style="stop-color:#BCDED3"
         id="stop63-1" />
    </linearGradient>
    <linearGradient
       id="SVGID_3_-4"
       gradientUnits="userSpaceOnUse"
       x1="451.01599"
       y1="201.9489"
       x2="442.73761"
       y2="243.37801"
       gradientTransform="translate(0.57847467,1.6853429)">
      <stop
         offset="0"
         style="stop-color:#7CC099"
         id="stop72-9" />
      <stop
         offset="0.2568"
         style="stop-color:#78BC98"
         id="stop74-1" />
      <stop
         offset="0.5165"
         style="stop-color:#6CB193"
         id="stop76-0" />
      <stop
         offset="0.7767"
         style="stop-color:#589F8C"
         id="stop78-7" />
      <stop
         offset="1"
         style="stop-color:#408A83"
         id="stop80-5" />
    </linearGradient>
    <linearGradient
       id="SVGID_4_-8"
       gradientUnits="userSpaceOnUse"
       x1="457.62369"
       y1="234.5722"
       x2="457.47629"
       y2="234.5722"
       gradientTransform="translate(0.57847467,1.6853429)">
      <stop
         offset="0"
         style="stop-color:#DBE6E0"
         id="stop87-7" />
      <stop
         offset="1"
         style="stop-color:#BCDED3"
         id="stop89-04" />
    </linearGradient>
    <linearGradient
       id="SVGID_5_-8"
       gradientUnits="userSpaceOnUse"
       x1="467.88159"
       y1="223.4929"
       x2="457.62369"
       y2="223.4929"
       gradientTransform="translate(0.57847467,1.6853429)">
      <stop
         offset="0"
         style="stop-color:#DBE6E0"
         id="stop96-0" />
      <stop
         offset="1"
         style="stop-color:#BCDED3"
         id="stop98-4" />
    </linearGradient>
    <linearGradient
       id="SVGID_6_-2"
       gradientUnits="userSpaceOnUse"
       x1="457.47629"
       y1="235.823"
       x2="452.43719"
       y2="235.823"
       gradientTransform="translate(0.57847467,1.6853429)">
      <stop
         offset="0"
         style="stop-color:#DBE6E0"
         id="stop105-9" />
      <stop
         offset="1"
         style="stop-color:#BCDED3"
         id="stop107-6" />
    </linearGradient>
    <linearGradient
       id="SVGID_7_-1"
       gradientUnits="userSpaceOnUse"
       x1="452.19159"
       y1="227.27921"
       x2="460.47461"
       y2="227.27921"
       gradientTransform="translate(0.57847467,1.6853429)">
      <stop
         offset="0"
         style="stop-color:#6AA583"
         id="stop112-0" />
      <stop
         offset="1"
         style="stop-color:#4C9E96"
         id="stop114-4" />
    </linearGradient>
    <linearGradient
       id="SVGID_8_-22"
       gradientUnits="userSpaceOnUse"
       x1="473.17111"
       y1="268.90411"
       x2="455.23529"
       y2="283.95389"
       gradientTransform="matrix(0.9997,0.0227,-0.0227,0.9997,-35.822926,-6.235357)">
      <stop
         offset="0"
         style="stop-color:#7CC099"
         id="stop119-2" />
      <stop
         offset="1"
         style="stop-color:#57BAAE"
         id="stop121-0" />
    </linearGradient>
    <linearGradient
       id="SVGID_9_-55"
       gradientUnits="userSpaceOnUse"
       x1="447.13129"
       y1="274.66199"
       x2="470.95151"
       y2="274.66199"
       gradientTransform="matrix(0.9997,0.0227,-0.0227,0.9997,-35.822926,-6.235357)">
      <stop
         offset="0"
         style="stop-color:#7CC099"
         id="stop126-2" />
      <stop
         offset="0.2327"
         style="stop-color:#76BA97"
         id="stop128-9" />
      <stop
         offset="0.5485"
         style="stop-color:#65AB90"
         id="stop130-0" />
      <stop
         offset="0.9106"
         style="stop-color:#489186"
         id="stop132-2" />
      <stop
         offset="1"
         style="stop-color:#408A83"
         id="stop134-8" />
    </linearGradient>
    <linearGradient
       id="SVGID_10_-3"
       gradientUnits="userSpaceOnUse"
       x1="415.2153"
       y1="260.93829"
       x2="422.0509"
       y2="252.7919"
       gradientTransform="translate(0.57847467,1.6853429)">
      <stop
         offset="0"
         style="stop-color:#4C9E96"
         id="stop141-8" />
      <stop
         offset="0.4859"
         style="stop-color:#489790"
         id="stop143-0" />
      <stop
         offset="1"
         style="stop-color:#408A83"
         id="stop145-4" />
    </linearGradient>
    <linearGradient
       id="SVGID_11_-0"
       gradientUnits="userSpaceOnUse"
       x1="425.60641"
       y1="203.1666"
       x2="393.7475"
       y2="239.4308"
       gradientTransform="translate(0.57847467,1.6853429)">
      <stop
         offset="0"
         style="stop-color:#7CC099"
         id="stop152-91" />
      <stop
         offset="0.3183"
         style="stop-color:#77BF9C"
         id="stop154-9" />
      <stop
         offset="0.6757"
         style="stop-color:#6ABDA3"
         id="stop156-6" />
      <stop
         offset="1"
         style="stop-color:#57BAAE"
         id="stop158-2" />
    </linearGradient>
  </defs>
  <title
     id="title71">Artboard 1 copy 5 Kopie 2</title>
  <g
     transform="matrix(0.99921713,0,0,0.99921713,-364.93376,-162.36887)"
     id="g41">
    <g
       id="g43">
      <linearGradient
         id="linearGradient3548"
         gradientUnits="userSpaceOnUse"
         x1="369.02579"
         y1="171.88429"
         x2="441.68719"
         y2="262.58051">
        <stop
           offset="0.1296"
           style="stop-color:#7CC099"
           id="stop3550" />
        <stop
           offset="0.3785"
           style="stop-color:#6FB594"
           id="stop3552" />
        <stop
           offset="0.835"
           style="stop-color:#4E9688"
           id="stop3554" />
        <stop
           offset="1"
           style="stop-color:#408A83"
           id="stop3556" />
      </linearGradient>
      <path
         style="fill:url(#SVGID_1_)"
         inkscape:connector-curvature="0"
         d="m 433.7,212.6 c -5.9,-10.1 -19,-17.9 -27.5,-21 -8.5,-3.2 -18,-10.1 -18,-10.1 -7.5,-5 -9.7,-9 -13.7,-14 -1.2,2.6 -2.2,5.8 -3,9.6 1.8,3.1 8.7,13.4 28.1,21.5 1.7,0.7 6.9,2.8 7,2.9 l 6.5,2.6 -6.7,-1.9 c -0.2,-0.1 -5.5,-1.6 -7.3,-2.2 -17.3,-6.3 -25,-15.1 -28,-19.9 -0.8,4.9 -1.1,10.6 -0.7,16.5 5.2,4.7 14,11 26.9,15.4 0.9,0.3 3.6,1.3 3.6,1.3 l 3.4,1.2 -3.5,-0.5 c -0.1,0 -3,-0.4 -4,-0.6 -12.1,-2.9 -20.5,-8.4 -26.1,-13.3 0.5,4.3 1.4,8.6 2.8,13 0.3,1 0.7,2.1 1.1,3 4.4,2 9.6,3.9 15.4,5.2 1.1,0.2 4.3,1.1 4.3,1.1 l 3.8,1 -4,-0.2 c -0.1,0 -3.4,-0.2 -4.5,-0.4 -5.1,-0.7 -9.8,-2 -13.9,-3.6 6.6,13.7 18.8,21.4 35.2,27.5 18.7,7 19.4,25 19.4,25 0,0 5.1,-3.8 9.6,-18.4 5.1,-16.2 -0.3,-30.6 -6.2,-40.7 z"
         id="path54" />
    </g>
    <g
       id="g56">
      <g
         id="g58">
        <linearGradient
           id="linearGradient3561"
           gradientUnits="userSpaceOnUse"
           x1="936.13898"
           y1="154.45329"
           x2="918.56207"
           y2="154.45329"
           gradientTransform="matrix(0.9669,0.2553,-0.2553,0.9669,-399.6603,-163.1002)">
          <stop
             offset="0"
             style="stop-color:#DBE6E0"
             id="stop3563" />
          <stop
             offset="1"
             style="stop-color:#BCDED3"
             id="stop3565" />
        </linearGradient>
        <path
           style="fill:url(#SVGID_2_)"
           inkscape:connector-curvature="0"
           d="m 458.6,233.8 c 4.9,-3.6 6.9,-7.8 8.5,-12.5 0.7,-2.1 1.3,-5 0.3,-8.1 -0.8,-2.5 -6.5,-6.2 -11.2,-4.7 -5.1,1.7 -6.1,8.1 -6.5,10.9 -0.6,4.3 0.4,10.9 2.8,17.6 -0.1,0 2.1,-0.2 6.1,-3.2 z"
           id="path65" />
      </g>
      <g
         id="g67">
        <g
           id="g69">
          <linearGradient
             id="linearGradient3570"
             gradientUnits="userSpaceOnUse"
             x1="451.01599"
             y1="201.9489"
             x2="442.73761"
             y2="243.37801">
            <stop
               offset="0"
               style="stop-color:#7CC099"
               id="stop3572" />
            <stop
               offset="0.2568"
               style="stop-color:#78BC98"
               id="stop3574" />
            <stop
               offset="0.5165"
               style="stop-color:#6CB193"
               id="stop3576" />
            <stop
               offset="0.7767"
               style="stop-color:#589F8C"
               id="stop3578" />
            <stop
               offset="1"
               style="stop-color:#408A83"
               id="stop3580" />
          </linearGradient>
          <path
             style="fill:url(#SVGID_3_)"
             inkscape:connector-curvature="0"
             d="m 449.7,219.4 c 0.4,-2.8 1.4,-9.2 6.5,-10.9 4.2,-1.4 9.3,1.5 10.8,3.9 -1.5,-3.9 -5.6,-6.6 -9,-8.3 -4.8,-2.5 -10.8,-2.9 -15.7,-1.7 -4.6,1.1 -7,3.6 -10.9,6.9 0.8,1.1 1.6,2.2 2.2,3.3 4.6,8 9,18.6 8.2,30.6 3,-5 9.7,-6.1 10.6,-6.2 -2.4,-6.6 -3.4,-13.3 -2.7,-17.6 z"
             id="path82" />
        </g>
        <g
           id="g84">
          <linearGradient
             id="linearGradient3584"
             gradientUnits="userSpaceOnUse"
             x1="457.62369"
             y1="234.5722"
             x2="457.47629"
             y2="234.5722">
            <stop
               offset="0"
               style="stop-color:#DBE6E0"
               id="stop3586" />
            <stop
               offset="1"
               style="stop-color:#BCDED3"
               id="stop3588" />
          </linearGradient>
          <path
             style="fill:url(#SVGID_4_)"
             inkscape:connector-curvature="0"
             d="m 457.6,234.5 c -0.1,0 -0.1,0.1 -0.1,0.1 0,0 0.1,0 0.1,-0.1 z"
             id="path91-5" />
        </g>
        <g
           id="g93">
          <linearGradient
             id="linearGradient3592"
             gradientUnits="userSpaceOnUse"
             x1="467.88159"
             y1="223.4929"
             x2="457.62369"
             y2="223.4929">
            <stop
               offset="0"
               style="stop-color:#DBE6E0"
               id="stop3594" />
            <stop
               offset="1"
               style="stop-color:#BCDED3"
               id="stop3596" />
          </linearGradient>
          <path
             style="fill:url(#SVGID_5_)"
             inkscape:connector-curvature="0"
             d="m 467.4,213.2 c -0.1,-0.2 -0.2,-0.5 -0.4,-0.8 0.7,1.7 0.8,3.7 0.1,5.9 -1.5,4.9 -1.8,7.1 -6.1,12.9 -1,1.3 -2.2,2.4 -3.4,3.2 0.3,-0.2 0.6,-0.4 1,-0.7 4.9,-3.6 6.9,-7.8 8.5,-12.5 0.7,-2 1.2,-4.9 0.3,-8 z"
             id="path100" />
        </g>
        <g
           id="g102">
          <linearGradient
             id="linearGradient3600"
             gradientUnits="userSpaceOnUse"
             x1="457.47629"
             y1="235.823"
             x2="452.43719"
             y2="235.823">
            <stop
               offset="0"
               style="stop-color:#DBE6E0"
               id="stop3602" />
            <stop
               offset="1"
               style="stop-color:#BCDED3"
               id="stop3604" />
          </linearGradient>
          <path
             style="fill:url(#SVGID_6_)"
             inkscape:connector-curvature="0"
             d="m 452.4,237 c 0,0 0,0 0,0 0,0 1.8,-0.2 5,-2.4 -2.5,1.7 -4.9,2.4 -4.9,2.4 0,0 0,0 -0.1,0 z"
             id="path109" />
        </g>
      </g>
      <linearGradient
         id="linearGradient3607"
         gradientUnits="userSpaceOnUse"
         x1="452.19159"
         y1="227.27921"
         x2="460.47461"
         y2="227.27921">
        <stop
           offset="0"
           style="stop-color:#6AA583"
           id="stop3609" />
        <stop
           offset="1"
           style="stop-color:#4C9E96"
           id="stop3611" />
      </linearGradient>
      <path
         style="fill:url(#SVGID_7_)"
         inkscape:connector-curvature="0"
         d="m 458.2,217.6 c -1,-0.3 -2,0 -2.8,0.6 -0.2,0.3 -0.3,0.6 -0.4,0.9 -0.4,1.6 0.5,3.3 2.2,3.7 0.7,0.2 1.3,0.1 1.9,-0.1 -0.9,6.9 -5.9,12.4 -6.9,13.5 0.1,0.4 0.2,0.5 0.2,0.7 0.3,0 0.4,-0.1 0.9,-0.2 1.7,-1.9 6.7,-7.9 7,-15.5 0.5,-1.5 -0.5,-3.1 -2.1,-3.6 z"
         id="path116" />
    </g>
    <linearGradient
       id="linearGradient3614"
       gradientUnits="userSpaceOnUse"
       x1="473.17111"
       y1="268.90411"
       x2="455.23529"
       y2="283.95389"
       gradientTransform="matrix(0.9997,0.0227,-0.0227,0.9997,-36.4014,-7.9207)">
      <stop
         offset="0"
         style="stop-color:#7CC099"
         id="stop3616" />
      <stop
         offset="1"
         style="stop-color:#57BAAE"
         id="stop3618" />
    </linearGradient>
    <path
       style="fill:url(#SVGID_8_)"
       inkscape:connector-curvature="0"
       d="m 405.5,261.4 c 1.5,12.7 7.5,31.7 27.8,47.9 0,0 10.1,-15.4 0.4,-32.5 -9.7,-17.1 -23.8,-22.7 -28.8,-24.5 -0.2,3.6 0.4,6.8 0.6,9.1 z"
       id="path123" />
    <linearGradient
       id="linearGradient3621"
       gradientUnits="userSpaceOnUse"
       x1="447.13129"
       y1="274.66199"
       x2="470.95151"
       y2="274.66199"
       gradientTransform="matrix(0.9997,0.0227,-0.0227,0.9997,-36.4014,-7.9207)">
      <stop
         offset="0"
         style="stop-color:#7CC099"
         id="stop3623" />
      <stop
         offset="0.2327"
         style="stop-color:#76BA97"
         id="stop3625" />
      <stop
         offset="0.5485"
         style="stop-color:#65AB90"
         id="stop3627" />
      <stop
         offset="0.9106"
         style="stop-color:#489186"
         id="stop3629" />
      <stop
         offset="1"
         style="stop-color:#408A83"
         id="stop3631" />
    </linearGradient>
    <path
       style="fill:url(#SVGID_9_)"
       inkscape:connector-curvature="0"
       d="m 423.7,272.8 c -5.7,-10 -12.8,-16.8 -18.8,-20.5 -0.1,3.2 0.4,7 0.6,9.1 1.2,10.8 5.8,26.1 19.6,40.4 2.4,-5.5 5.5,-16.8 -1.4,-29 z"
       id="path136" />
    <g
       id="g138">
      <linearGradient
         id="linearGradient3635"
         gradientUnits="userSpaceOnUse"
         x1="415.2153"
         y1="260.93829"
         x2="422.0509"
         y2="252.7919">
        <stop
           offset="0"
           style="stop-color:#4C9E96"
           id="stop3637" />
        <stop
           offset="0.4859"
           style="stop-color:#489790"
           id="stop3639" />
        <stop
           offset="1"
           style="stop-color:#408A83"
           id="stop3641" />
      </linearGradient>
      <path
         style="fill:url(#SVGID_10_)"
         inkscape:connector-curvature="0"
         d="m 411.9,246.7 c -2,-0.8 -4.9,-1.6 -6.8,-2.4 -0.3,2.5 -0.2,5.1 -0.2,8.1 4.4,1.6 16.1,6.2 25.5,19.3 0,-0.1 0,-0.2 0,-0.3 -0.2,-2.3 -1.1,-18.3 -18.5,-24.7 z"
         id="path147" />
    </g>
    <g
       id="g149">
      <linearGradient
         id="linearGradient3645"
         gradientUnits="userSpaceOnUse"
         x1="425.60641"
         y1="203.1666"
         x2="393.7475"
         y2="239.4308">
        <stop
           offset="0"
           style="stop-color:#7CC099"
           id="stop3647" />
        <stop
           offset="0.3183"
           style="stop-color:#77BF9C"
           id="stop3649" />
        <stop
           offset="0.6757"
           style="stop-color:#6ABDA3"
           id="stop3651" />
        <stop
           offset="1"
           style="stop-color:#57BAAE"
           id="stop3653" />
      </linearGradient>
      <path
         style="fill:url(#SVGID_11_)"
         inkscape:connector-curvature="0"
         d="m 433.7,212.6 c -5.9,-10.1 -19,-17.9 -27.5,-21 -8.5,-3.2 -18,-10.1 -18,-10.1 -2.1,-1.4 -3.8,-2.7 -5.2,-4 -0.4,3.6 -0.6,7.5 -0.4,11.6 4.2,3.2 9.7,6.5 16.9,9.5 1.7,0.7 6.9,2.8 7,2.9 l 6.5,2.6 -6.7,-1.9 c -0.2,-0.1 -5.5,-1.6 -7.3,-2.2 -6.8,-2.5 -12.1,-5.3 -16.2,-8.2 0.4,5 1.3,10.1 2.9,15.2 3.4,1.8 7.2,3.4 11.6,4.9 0.9,0.3 3.6,1.3 3.6,1.3 l 3.4,1.2 -3.5,-0.5 c -0.1,0 -3,-0.4 -4,-0.6 -3.7,-0.9 -7,-2 -10,-3.3 1.9,4.8 4.4,8.8 7.4,12.3 0.1,0 0.1,0 0.1,0 l 3.8,1 -3.2,-0.2 c 6.9,7.7 16.3,13.3 26.3,21.3 13.5,10.8 9.2,27.2 9.2,27.2 0,0 0.8,-0.6 1.5,-1.5 1.8,-2.1 5.1,-7 8.1,-16.9 5,-16.1 -0.4,-30.5 -6.3,-40.6 z"
         id="path160" />
    </g>
  </g>
  <path
     class="cls-12"
     d="m 162.96869,71.494877 c 2.2215,-0.555374 5.17608,-1.155175 8.88595,-1.777191 a 75.17509,75.17509 0 0 1 12.75134,-0.955239 27.479783,27.479783 0 0 1 10.75199,1.843833 16.705574,16.705574 0 0 1 6.84218,5.109419 19.660152,19.660152 0 0 1 3.5988,7.886276 46.229126,46.229126 0 0 1 1.04411,10.129977 v 30.478788 h -9.70791 V 95.820149 a 45.207242,45.207242 0 0 0 -0.68866,-8.574937 14.39523,14.39523 0 0 0 -2.22149,-5.731435 8.8859448,8.8859448 0 0 0 -4.17638,-3.19894 18.682699,18.682699 0 0 0 -6.46453,-0.977453 c -1.04409,0 -2.22149,0 -3.24336,0 l -3.17673,0.266578 c -1.02189,0.111073 -1.91047,0.222149 -2.71023,0.377653 l -1.73275,0.311008 v 45.829257 h -9.70789 z"
     id="path95"
     style="stroke-width:1" />
  <path
     class="cls-12"
     d="m 231.56819,134.34072 a 19.993375,19.993375 0 0 0 2.97679,0.99966 14.550734,14.550734 0 0 0 3.59881,0.46651 14.195297,14.195297 0 0 0 8.88594,-2.5547 25.991387,25.991387 0 0 0 6.17573,-9.04145 281.90658,281.90658 0 0 1 -12.59582,-25.835879 235.85518,235.85518 0 0 1 -9.2636,-28.45724 h 10.44098 c 0.77752,3.132294 1.68834,6.508953 2.77687,10.129975 1.08851,3.621024 2.22149,7.353119 3.5988,11.107431 1.37732,3.754312 2.75464,7.664124 4.26525,11.485083 1.51062,3.82096 3.1323,7.50862 4.82063,11.10743 q 3.95424,-10.95193 6.8866,-21.726132 2.93237,-10.774209 5.5315,-22.214862 h 10.01891 q -3.77653,15.372684 -8.35279,29.501335 c -3.06566,9.419099 -6.35346,18.260609 -9.90783,26.457899 a 57.75864,57.75864 0 0 1 -4.3319,8.10842 24.947289,24.947289 0 0 1 -4.97613,5.57593 18.171757,18.171757 0 0 1 -6.10908,3.24338 26.213535,26.213535 0 0 1 -7.66413,1.0441 22.459224,22.459224 0 0 1 -2.39919,-0.15551 c -0.84419,-0.11108 -1.66612,-0.24437 -2.46587,-0.42209 -0.79973,-0.17772 -1.53283,-0.37765 -2.22148,-0.57759 a 8.1750687,8.1750687 0 0 1 -1.42175,-0.53316 z"
     id="path97"
     style="stroke-width:1" />
  <path
     class="cls-12"
     d="m 302.25588,71.494877 c 2.22148,-0.555374 5.17606,-1.155175 8.88594,-1.777191 a 73.975486,73.975486 0 0 1 12.68469,-0.955239 23.94762,23.94762 0 0 1 8.77487,1.421751 15.328254,15.328254 0 0 1 5.95359,4.109749 c 0.48871,-0.333223 1.24402,-0.82195 2.22147,-1.443965 a 25.302727,25.302727 0 0 1 3.86539,-1.843834 41.519575,41.519575 0 0 1 5.13163,-1.55504 26.058032,26.058032 0 0 1 6.04244,-0.688661 24.547421,24.547421 0 0 1 10.24107,1.843833 14.684023,14.684023 0 0 1 6.22015,5.153848 20.593178,20.593178 0 0 1 3.02121,7.930707 61.224155,61.224155 0 0 1 0.77753,10.041117 v 30.478788 h -9.7079 V 95.820149 a 63.001345,63.001345 0 0 0 -0.46651,-8.26393 15.972484,15.972484 0 0 0 -1.77718,-5.731434 8.0639942,8.0639942 0 0 0 -3.55439,-3.398874 13.328917,13.328917 0 0 0 -5.77585,-0.999668 18.704913,18.704913 0 0 0 -7.84186,1.977123 26.657834,26.657834 0 0 0 -4.44296,2.421419 25.702594,25.702594 0 0 1 0.99965,5.109418 51.22747,51.22747 0 0 1 0.42209,6.797749 v 30.478788 h -9.70788 V 95.820149 a 58.691664,58.691664 0 0 0 -0.51096,-8.26393 16.883294,16.883294 0 0 0 -1.84382,-5.731434 8.130639,8.130639 0 0 0 -3.53216,-3.398874 13.017908,13.017908 0 0 0 -5.70923,-1.088527 c -0.97745,0 -2.02154,0 -3.13229,0 l -3.17673,0.266578 c -0.99966,0.111073 -1.93268,0.222149 -2.77686,0.377653 l -1.66611,0.311008 v 45.829257 h -9.70789 z"
     id="path99"
     style="stroke-width:1" />
  <path
     class="cls-12"
     d="m 492.08186,68.562513 a 28.479451,28.479451 0 0 1 9.88561,1.510611 15.439329,15.439329 0 0 1 9.95226,10.863067 31.100805,31.100805 0 0 1 1.0441,8.397218 v 33.722161 c -0.84416,0.19993 -2.22148,0.55537 -3.64324,0.77752 -1.42174,0.22215 -3.02122,0.48872 -4.90948,0.68866 -1.88827,0.19993 -3.90981,0.39986 -6.10909,0.57758 -2.19928,0.17772 -4.44297,0.26658 -6.53117,0.26658 a 34.566324,34.566324 0 0 1 -8.44164,-0.95524 18.749342,18.749342 0 0 1 -6.66446,-2.95457 13.66214,13.66214 0 0 1 -4.44297,-5.39821 18.704913,18.704913 0 0 1 -1.55505,-8.01957 15.417113,15.417113 0 0 1 1.82162,-7.73077 14.506304,14.506304 0 0 1 4.95392,-5.220493 22.703588,22.703588 0 0 1 7.30869,-2.93236 40.253329,40.253329 0 0 1 8.73045,-0.910811 28.390592,28.390592 0 0 1 3.02121,0.155506 c 1.04411,0.111072 2.04376,0.244362 2.97678,0.422082 l 2.46586,0.46651 1.46618,0.311009 v -2.710214 a 21.370697,21.370697 0 0 0 -0.53316,-4.753979 11.10743,11.10743 0 0 0 -1.86604,-4.176395 9.6634649,9.6634649 0 0 0 -3.70987,-2.932361 14.52852,14.52852 0 0 0 -6.1091,-1.088528 42.585889,42.585889 0 0 0 -8.28615,0.799735 24.436346,24.436346 0 0 0 -5.37599,1.799404 l -1.57726,-8.019565 a 27.746361,27.746361 0 0 1 6.66445,-2.221486 55.02621,55.02621 0 0 1 9.46354,-0.733091 z m 0.84417,48.650547 c 2.22149,0 4.44297,0 6.10909,-0.15551 a 26.502329,26.502329 0 0 0 4.44297,-0.57758 v -16.17242 a 12.506967,12.506967 0 0 0 -3.39888,-0.888599 37.587545,37.587545 0 0 0 -5.687,-0.37765 34.344175,34.344175 0 0 0 -4.64291,0.33322 14.417445,14.417445 0 0 0 -4.44297,1.288469 9.5301755,9.5301755 0 0 0 -3.39888,2.71021 7.1309705,7.1309705 0 0 0 -1.35508,4.55405 7.8418459,7.8418459 0 0 0 3.33223,7.26426 17.438667,17.438667 0 0 0 9.04143,2.02155 z"
     id="path101"
     style="stroke-width:1" />
  <path
     class="cls-12"
     d="m 401.37859,97.175261 a 35.121695,35.121695 0 0 1 2.08819,-12.595832 26.102462,26.102462 0 0 1 5.55373,-8.885945 22.214861,22.214861 0 0 1 7.93069,-5.331567 24.76957,24.76957 0 0 1 9.17475,-1.777188 q 10.97414,0 16.81664,6.842177 c 3.8876,4.554046 5.84251,11.507297 5.84251,20.815325 v 1.66612 a 16.016915,16.016915 0 0 1 0,1.84383 h -37.27655 a 19.993375,19.993375 0 0 0 4.9095,12.840189 c 2.86571,2.91014 7.30869,4.44297 13.32892,4.44297 a 35.321629,35.321629 0 0 0 8.61937,-0.88859 33.322291,33.322291 0 0 0 5.88693,-2.22149 l 1.3551,8.15285 a 31.100805,31.100805 0 0 1 -6.84217,2.48807 43.496697,43.496697 0 0 1 -10.06334,0.95523 32.100474,32.100474 0 0 1 -12.2626,-2.04376 22.792448,22.792448 0 0 1 -8.5083,-5.88694 24.080911,24.080911 0 0 1 -4.97611,-8.88594 38.142917,38.142917 0 0 1 -1.57726,-11.529509 z m 37.27653,-5.331573 a 16.283493,16.283493 0 0 0 -3.2878,-10.796423 11.329579,11.329579 0 0 0 -9.33023,-4.243038 12.862406,12.862406 0 0 0 -5.90916,1.310677 13.639925,13.639925 0 0 0 -4.44296,3.398873 15.794766,15.794766 0 0 0 -2.77686,4.79841 23.836545,23.836545 0 0 0 -1.28847,5.531501 z"
     id="path103"
     style="stroke-width:1" />
</svg>
