<?xml version="1.0" encoding="UTF-8" standalone="no"?>
<svg
   xmlns:dc="http://purl.org/dc/elements/1.1/"
   xmlns:cc="http://creativecommons.org/ns#"
   xmlns:rdf="http://www.w3.org/1999/02/22-rdf-syntax-ns#"
   xmlns:svg="http://www.w3.org/2000/svg"
   xmlns="http://www.w3.org/2000/svg"
   xmlns:sodipodi="http://sodipodi.sourceforge.net/DTD/sodipodi-0.dtd"
   xmlns:inkscape="http://www.inkscape.org/namespaces/inkscape"
   width="256"
   height="256"
   viewBox="0 0 256 256"
   id="svg2"
   version="1.1"
   inkscape:version="1.0.1 (1.0.1+r74)"
   sodipodi:docname="concentrate.svg">
  <defs
     id="defs4" />
  <sodipodi:namedview
     id="base"
     pagecolor="#ffffff"
     bordercolor="#666666"
     borderopacity="1.0"
     inkscape:pageopacity="0.0"
     inkscape:pageshadow="2"
     inkscape:zoom="2.0704471"
     inkscape:cx="115.75638"
     inkscape:cy="121.69523"
     inkscape:document-units="px"
     inkscape:current-layer="layer1"
     showgrid="true"
     units="px"
     inkscape:window-width="1380"
     inkscape:window-height="873"
     inkscape:window-x="60"
     inkscape:window-y="27"
     inkscape:window-maximized="1"
     inkscape:document-rotation="0">
    <inkscape:grid
       type="xygrid"
       id="grid4136" />
  </sodipodi:namedview>
  <metadata
     id="metadata7">
    <rdf:RDF>
      <cc:Work
         rdf:about="">
        <dc:format>image/svg+xml</dc:format>
        <dc:type
           rdf:resource="http://purl.org/dc/dcmitype/StillImage" />
        <dc:title />
      </cc:Work>
    </rdf:RDF>
  </metadata>
  <g
     inkscape:label="Layer 1"
     inkscape:groupmode="layer"
     id="layer1"
     transform="translate(0,-796.36216)">
    <path
       id="path4140"
       style="opacity:1;fill:#808080;fill-opacity:1;stroke:none;stroke-width:2;stroke-miterlimit:4;stroke-dasharray:none;stroke-opacity:1"
       d="M 127.86133 36 A 92.000023 92.000023 0 0 0 36 128 A 92.000023 92.000023 0 0 0 128 220 A 92.000023 92.000023 0 0 0 220 128 A 92.000023 92.000023 0 0 0 128 36 A 92.000023 92.000023 0 0 0 127.86133 36 z M 127.88281 46 A 82.000023 82.000023 0 0 1 128 46 A 82.000023 82.000023 0 0 1 210 128 A 82.000023 82.000023 0 0 1 128 210 A 82.000023 82.000023 0 0 1 46 128 A 82.000023 82.000023 0 0 1 127.88281 46 z M 127.79688 58 A 70 70 0 0 0 58 128 A 70 70 0 0 0 128 198 A 70 70 0 0 0 198 128 A 70 70 0 0 0 128 58 A 70 70 0 0 0 127.79688 58 z M 128 73 A 55.000023 55.000023 0 0 1 183 128 A 55.000023 55.000023 0 0 1 128 183 A 55.000023 55.000023 0 0 1 73 128 A 55.000023 55.000023 0 0 1 128 73 z M 127.74414 93 A 35.000023 35.000023 0 0 0 93 128 A 35.000023 35.000023 0 0 0 128 163 A 35.000023 35.000023 0 0 0 163 128 A 35.000023 35.000023 0 0 0 128 93 A 35.000023 35.000023 0 0 0 127.74414 93 z M 128 108 A 20.000023 20.000023 0 0 1 148 128 A 20.000023 20.000023 0 0 1 128 148 A 20.000023 20.000023 0 0 1 108 128 A 20.000023 20.000023 0 0 1 128 108 z "
       transform="translate(0,796.36216)" />
  </g>
</svg>
