<?xml version="1.0" encoding="UTF-8" standalone="no"?>
<svg
   xmlns:dc="http://purl.org/dc/elements/1.1/"
   xmlns:cc="http://creativecommons.org/ns#"
   xmlns:rdf="http://www.w3.org/1999/02/22-rdf-syntax-ns#"
   xmlns:svg="http://www.w3.org/2000/svg"
   xmlns="http://www.w3.org/2000/svg"
   xmlns:sodipodi="http://sodipodi.sourceforge.net/DTD/sodipodi-0.dtd"
   xmlns:inkscape="http://www.inkscape.org/namespaces/inkscape"
   width="256"
   height="256"
   viewBox="0 0 256 256"
   id="svg2"
   version="1.1"
   inkscape:version="1.0.1 (1.0.1+r74)"
   sodipodi:docname="relax.svg">
  <defs
     id="defs4" />
  <sodipodi:namedview
     id="base"
     pagecolor="#ffffff"
     bordercolor="#666666"
     borderopacity="1.0"
     inkscape:pageopacity="0.0"
     inkscape:pageshadow="2"
     inkscape:zoom="1.1480033"
     inkscape:cx="56.435095"
     inkscape:cy="139.24953"
     inkscape:document-units="px"
     inkscape:current-layer="layer1"
     showgrid="true"
     units="px"
     inkscape:window-width="1380"
     inkscape:window-height="873"
     inkscape:window-x="60"
     inkscape:window-y="27"
     inkscape:window-maximized="1"
     inkscape:document-rotation="0">
    <inkscape:grid
       type="xygrid"
       id="grid4136" />
  </sodipodi:namedview>
  <metadata
     id="metadata7">
    <rdf:RDF>
      <cc:Work
         rdf:about="">
        <dc:format>image/svg+xml</dc:format>
        <dc:type
           rdf:resource="http://purl.org/dc/dcmitype/StillImage" />
        <dc:title />
      </cc:Work>
    </rdf:RDF>
  </metadata>
  <g
     inkscape:label="Layer 1"
     inkscape:groupmode="layer"
     id="layer1"
     transform="translate(0,-796.36216)">
    <path
       id="path4140"
       style="opacity:1;fill:#808080;fill-opacity:1;stroke:none;stroke-width:2;stroke-miterlimit:4;stroke-dasharray:none;stroke-opacity:1"
       d="M 127.86133 36 A 92.000023 92.000023 0 0 0 36 128 A 92.000023 92.000023 0 0 0 128 220 A 92.000023 92.000023 0 0 0 220 128 A 92.000023 92.000023 0 0 0 128 36 A 92.000023 92.000023 0 0 0 127.86133 36 z M 87 86.572266 C 109.88037 86.572266 128.42857 105.11963 128 128 C 127.57143 150.88037 146.11963 169.42773 169 169.42773 C 191.12817 169.42773 209.2011 152.08002 210.17188 130.24219 C 210.1953 129.49734 210.2113 128.74967 210.21484 128 C 210.22189 128.7522 210.20487 129.49986 210.17188 130.24219 C 208.78032 174.49311 172.53769 210 128 210 C 82.712639 210 45.999432 173.28736 45.785156 128 C 45.570883 105.11963 64.119633 86.572266 87 86.572266 z "
       transform="translate(0,796.36216)" />
  </g>
</svg>
