<?xml version="1.0" encoding="UTF-8" standalone="no"?>
<svg
   xmlns:dc="http://purl.org/dc/elements/1.1/"
   xmlns:cc="http://creativecommons.org/ns#"
   xmlns:rdf="http://www.w3.org/1999/02/22-rdf-syntax-ns#"
   xmlns:svg="http://www.w3.org/2000/svg"
   xmlns="http://www.w3.org/2000/svg"
   xmlns:sodipodi="http://sodipodi.sourceforge.net/DTD/sodipodi-0.dtd"
   xmlns:inkscape="http://www.inkscape.org/namespaces/inkscape"
   viewBox="0 0 96 96.000001"
   version="1.1"
   id="svg4874"
   height="96"
   width="96"
   sodipodi:docname="ph.svg"
   inkscape:version="1.0.2 (e86c870879, 2021-01-15)">
  <sodipodi:namedview
     pagecolor="#ffffff"
     bordercolor="#666666"
     borderopacity="1"
     objecttolerance="10"
     gridtolerance="10"
     guidetolerance="10"
     inkscape:pageopacity="0"
     inkscape:pageshadow="2"
     inkscape:window-width="1464"
     inkscape:window-height="933"
     id="namedview29"
     showgrid="true"
     inkscape:zoom="7.2916667"
     inkscape:cx="48"
     inkscape:cy="48"
     inkscape:window-x="72"
     inkscape:window-y="27"
     inkscape:window-maximized="1"
     inkscape:current-layer="svg4874"
     inkscape:document-rotation="0">
    <inkscape:grid
       type="xygrid"
       id="grid854" />
  </sodipodi:namedview>
  <defs
     id="defs4876" />
  <metadata
     id="metadata4879">
    <rdf:RDF>
      <cc:Work
         rdf:about="">
        <dc:format>image/svg+xml</dc:format>
        <dc:type
           rdf:resource="http://purl.org/dc/dcmitype/StillImage" />
        <dc:title />
      </cc:Work>
    </rdf:RDF>
  </metadata>
  <path
     d="m 51.41408,53.73909 c -0.862857,0.873888 -2.057979,1.419555 -3.382974,1.42862 l -0.0018,7.1e-5 c -2.649911,0.01805 -4.811802,-2.114796 -4.828491,-4.763721 -0.01511,-2.401076 3.02705,-27.146345 4.588738,-30.548106 8.9e-4,-6e-6 0.0018,-7.1e-5 0.0026,-9.19e-4 0.0011,-7.83e-4 0.0027,-0.0027 0.0035,-0.0036 0.0012,-0.0015 0.0016,-0.002 0.0027,-0.0027 9.13e-4,-9.26e-4 0.0026,-0.0018 0.0035,-0.0018 1.653697,3.34979 4.982191,28.090365 4.997289,30.491397 0.0084,1.32452 -0.522113,2.526668 -1.384952,3.400582 z"
     id="path4197"
     style="color:#000000;display:inline;overflow:visible;visibility:visible;fill:#808080;fill-opacity:1;fill-rule:nonzero;stroke:none;stroke-width:3;marker:none;enable-background:accumulate" />
  <rect
     transform="rotate(90)"
     y="-95.999985"
     x="8.5593265e-06"
     height="96"
     width="96"
     id="rect4782"
     style="color:#000000;display:inline;overflow:visible;visibility:visible;fill:none;stroke:none;stroke-width:3.99921;marker:none;enable-background:accumulate" />
  <circle
     cy="48"
     cx="47.999989"
     id="path833"
     style="fill:none;fill-opacity:1;stroke:#808080;stroke-width:4;stroke-miterlimit:4;stroke-dasharray:none;stroke-opacity:1"
     r="40" />
  <path
     id="path947"
     style="opacity:1;fill:none;stroke:#808080;stroke-width:8;stroke-linecap:butt;stroke-linejoin:round;stroke-miterlimit:4;stroke-dasharray:none;stroke-opacity:1"
     d="m 16.498171,48 c 0,-2.174747 0.220373,-4.298024 0.640005,-6.348717 0.419633,-2.050693 1.038525,-4.028803 1.835565,-5.913216 0.79704,-1.884414 1.772226,-3.675131 2.904448,-5.351039 1.132221,-1.675908 2.421477,-3.237007 3.846654,-4.662185 1.425178,-1.425177 2.986277,-2.714433 4.662185,-3.846654 1.675908,-1.132222 3.466625,-2.107408 5.351039,-2.904448 1.884413,-0.79704 3.862523,-1.415932 5.913216,-1.835565"
     sodipodi:nodetypes="cssssssc" />
  <path
     id="path950"
     style="opacity:1;fill:none;stroke:#808080;stroke-width:8;stroke-linecap:butt;stroke-linejoin:round;stroke-miterlimit:4;stroke-dasharray:none;stroke-opacity:1"
     d="m 54.348717,17.138176 c 2.050693,0.419633 4.028803,1.038525 5.913216,1.835565 1.884414,0.79704 3.675131,1.772226 5.351039,2.904448 1.675908,1.132221 3.237007,2.421477 4.662185,3.846654 1.425177,1.425178 2.714433,2.986277 3.846654,4.662185 1.132222,1.675908 2.107408,3.466625 2.904448,5.351039 0.79704,1.884413 1.415932,3.862523 1.835565,5.913216 0.419632,2.050693 0.640005,4.17397 0.640005,6.348717"
     sodipodi:nodetypes="cssssssc" />
</svg>
