<?xml version="1.0" encoding="UTF-8" standalone="no"?>
<!-- Created with Inkscape (http://www.inkscape.org/) -->

<svg
   id="svg4874"
   height="96"
   viewBox="0 0 96 96.000001"
   width="96"
   version="1.1"
   sodipodi:docname="window-open.svg"
   inkscape:version="1.1.2 (0a00cf5339, 2022-02-04)"
   xmlns:inkscape="http://www.inkscape.org/namespaces/inkscape"
   xmlns:sodipodi="http://sodipodi.sourceforge.net/DTD/sodipodi-0.dtd"
   xmlns="http://www.w3.org/2000/svg"
   xmlns:svg="http://www.w3.org/2000/svg"
   xmlns:rdf="http://www.w3.org/1999/02/22-rdf-syntax-ns#"
   xmlns:cc="http://creativecommons.org/ns#"
   xmlns:dc="http://purl.org/dc/elements/1.1/">
  <defs
     id="defs9" />
  <sodipodi:namedview
     id="namedview7"
     pagecolor="#ffffff"
     bordercolor="#666666"
     borderopacity="1.0"
     inkscape:pageshadow="2"
     inkscape:pageopacity="0.0"
     inkscape:pagecheckerboard="0"
     showgrid="true"
     inkscape:zoom="2.2194323"
     inkscape:cx="11.489425"
     inkscape:cy="68.485981"
     inkscape:window-width="1466"
     inkscape:window-height="933"
     inkscape:window-x="70"
     inkscape:window-y="27"
     inkscape:window-maximized="1"
     inkscape:current-layer="svg4874">
    <inkscape:grid
       type="xygrid"
       id="grid861" />
  </sodipodi:namedview>
  <metadata
     id="metadata4879">
    <rdf:RDF>
      <cc:Work
         rdf:about="">
        <dc:format>image/svg+xml</dc:format>
        <dc:type
           rdf:resource="http://purl.org/dc/dcmitype/StillImage" />
      </cc:Work>
    </rdf:RDF>
  </metadata>
  <g
     id="layer1"
     transform="translate(67.857 -78.505)">
    <rect
       id="rect4782"
       style="color:#000000;fill:none"
       transform="rotate(90)"
       height="96"
       width="96"
       y="-28.143"
       x="78.505" />
    <path
       id="path4643"
       style="color-rendering:auto;text-decoration-color:#000000;color:#000000;font-variant-numeric:normal;shape-rendering:auto;solid-color:#000000;text-decoration-line:none;fill:#808080;font-variant-position:normal;mix-blend-mode:normal;block-progression:tb;font-feature-settings:normal;shape-padding:0;font-variant-alternates:normal;text-indent:0;font-variant-caps:normal;image-rendering:auto;white-space:normal;text-decoration-style:solid;font-variant-ligatures:none;isolation:auto;text-transform:none"
       d="m-43.869 86.504-0.01172 0.002c-5.0328 0.05818-8.7136-0.12027-11.725 1.541-1.5055 0.83064-2.6968 2.2356-3.3555 3.9902-0.65866 1.7547-0.89648 3.8364-0.89648 6.4668v56.002c0 2.6304 0.23782 4.7121 0.89648 6.4668 0.65866 1.7546 1.85 3.1596 3.3555 3.9902 3.011 1.6613 6.6918 1.4848 11.725 1.543h0.01172 48.023 0.011719c5.0328-0.0582 8.7136 0.11832 11.725-1.543 1.5055-0.83064 2.6968-2.2356 3.3555-3.9902 0.65866-1.7547 0.89648-3.8364 0.89648-6.4668v-56.002c0-2.6304-0.23782-4.7121-0.89648-6.4668-0.66-1.759-1.851-3.163-3.356-3.994-3.011-1.661-6.6922-1.483-11.725-1.541l-0.011719-0.002h-48.023zm0.01172 4h48c5.0383 0.05877 8.3519 0.23688 9.8164 1.0449 0.73364 0.40478 1.1527 0.85491 1.543 1.8945 0.39025 1.0396 0.64062 2.691 0.64062 5.0605v56.002c0 2.3696-0.25037 4.0209-0.64062 5.0606-0.39025 1.0396-0.80933 1.4898-1.543 1.8945-1.4645 0.80804-4.7782 0.98616-9.8164 1.0449h-47.977-0.02344c-5.0383-0.0588-8.3519-0.23688-9.8164-1.0449-0.73364-0.40478-1.1508-0.85491-1.541-1.8945-0.39025-1.0396-0.64258-2.691-0.64258-5.0606v-56.002c0-2.3696 0.25232-4.0209 0.64258-5.0605 0.39025-1.0396 0.80738-1.4898 1.541-1.8945 1.4645-0.80804 4.7782-0.98616 9.8164-1.0449z" />
  </g>
  <g
     id="g1449"
     transform="matrix(-0.78565286,0,0,0.78565286,72.177621,16.288596)"
     style="stroke-width:1.27283">
    <path
       id="path4237"
       d="m 15.500006,49.750872 h 43.749997 v -3.5 H 15.500006 Z"
       style="fill:#808080;stroke-width:1.27283"
       inkscape:connector-curvature="0" />
    <path
       id="path5588-9-2-96-04"
       d="m 52.254379,37.500085 0.007,20.999999 c 3.193837,-1.460113 6.445249,-3.093913 9.755374,-4.898863 3.279237,-1.809324 6.442449,-3.675437 9.487624,-5.600262 -3.045,-1.886237 -6.208212,-3.734499 -9.487624,-5.543824 -3.312225,-1.805913 -6.565387,-3.457913 -9.760624,-4.95705 z"
       style="color:#000000;fill:#808080;stroke-width:1.27283"
       inkscape:connector-curvature="0" />
  </g>
  <g
     id="g1504"
     transform="matrix(0.78565286,0,0,0.78565286,23.822379,4.288596)"
     style="stroke-width:1.27283">
    <path
       id="path1500"
       d="m 15.500006,49.750872 h 43.749997 v -3.5 H 15.500006 Z"
       style="fill:#808080;stroke-width:1.27283"
       inkscape:connector-curvature="0" />
    <path
       id="path1502"
       d="m 52.254379,37.500085 0.007,20.999999 c 3.193837,-1.460113 6.445249,-3.093913 9.755374,-4.898863 3.279237,-1.809324 6.442449,-3.675437 9.487624,-5.600262 -3.045,-1.886237 -6.208212,-3.734499 -9.487624,-5.543824 -3.312225,-1.805913 -6.565387,-3.457913 -9.760624,-4.95705 z"
       style="color:#000000;fill:#808080;stroke-width:1.27283"
       inkscape:connector-curvature="0" />
  </g>
</svg>
