<?xml version="1.0" encoding="UTF-8" standalone="no"?>
<!-- Created with Inkscape (http://www.inkscape.org/) -->

<svg
   xmlns:dc="http://purl.org/dc/elements/1.1/"
   xmlns:cc="http://creativecommons.org/ns#"
   xmlns:rdf="http://www.w3.org/1999/02/22-rdf-syntax-ns#"
   xmlns:svg="http://www.w3.org/2000/svg"
   xmlns="http://www.w3.org/2000/svg"
   xmlns:sodipodi="http://sodipodi.sourceforge.net/DTD/sodipodi-0.dtd"
   xmlns:inkscape="http://www.inkscape.org/namespaces/inkscape"
   width="96"
   height="96"
   viewBox="0 0 25.399999 25.400001"
   version="1.1"
   id="svg8"
   inkscape:version="0.92.3 (2405546, 2018-03-11)"
   sodipodi:docname="MediaBrowserIconVTuner.svg">
  <defs
     id="defs2" />
  <sodipodi:namedview
     id="base"
     pagecolor="#ffffff"
     bordercolor="#666666"
     borderopacity="1.0"
     inkscape:pageopacity="0.0"
     inkscape:pageshadow="2"
     inkscape:zoom="5.6"
     inkscape:cx="7.55591"
     inkscape:cy="67.715205"
     inkscape:document-units="mm"
     inkscape:current-layer="layer1"
     showgrid="true"
     units="px"
     inkscape:window-width="2792"
     inkscape:window-height="1698"
     inkscape:window-x="88"
     inkscape:window-y="44"
     inkscape:window-maximized="1">
    <inkscape:grid
       type="xygrid"
       id="grid815" />
  </sodipodi:namedview>
  <metadata
     id="metadata5">
    <rdf:RDF>
      <cc:Work
         rdf:about="">
        <dc:format>image/svg+xml</dc:format>
        <dc:type
           rdf:resource="http://purl.org/dc/dcmitype/StillImage" />
        <dc:title></dc:title>
      </cc:Work>
    </rdf:RDF>
  </metadata>
  <g
     inkscape:label="Layer 1"
     inkscape:groupmode="layer"
     id="layer1"
     transform="translate(0,-271.59998)">
    <g
       id="g868"
       transform="matrix(0.4384269,0,0,0.4384269,7.5142976,159.08228)"
       style="stroke-width:2.28088212;fill:#808080;fill-opacity:1">
      <path
         sodipodi:nodetypes="ccsscsscccsscccccccccccscscscssscscssccccc"
         inkscape:connector-curvature="0"
         id="path864"
         d="m 20.242078,272.36549 c -0.09168,-0.14834 0.01903,-0.47492 0.24602,-0.72573 1.412216,-1.56048 1.585561,-4.06623 0.432885,-6.2575 -0.919729,-1.74843 -0.912935,-1.71979 -0.408028,-1.71979 0.212146,0 0.718162,0.56554 1.12448,1.25677 0.63124,1.07386 0.738756,1.54557 0.738756,3.24114 0,1.61218 -0.119507,2.19299 -0.637146,3.0966 -0.665059,1.16095 -1.213538,1.5671 -1.496967,1.10851 z m -1.173179,-1.26017 c 0,-0.14787 0.253013,-0.69768 0.56225,-1.2218 0.652,-1.10506 0.584846,-3.01082 -0.134085,-3.80523 -0.534522,-0.59064 -0.551373,-1.09291 -0.03667,-1.09291 0.584975,0 1.460643,1.9374 1.460175,3.23061 -5.3e-4,1.33451 -0.730388,2.94915 -1.388653,3.07187 -0.254661,0.0475 -0.463021,-0.0347 -0.463021,-0.18254 z m -0.915022,-1.52138 c 0.24664,-0.86225 0.24115,-1.66742 -0.02053,-3.01106 l -0.180353,-0.92604 0.577924,0.55649 c 1.045588,1.0068 0.89639,3.65025 -0.22696,4.02118 -0.288679,0.0953 -0.32105,-0.0428 -0.150077,-0.64057 z M 0.58431741,267.55758 c -0.93791991,-1.51758 -1.24490406,-3.1701 -0.89701374,-4.82867 0.33173751,-1.58157 1.19610695,-3.03519 1.80481983,-3.03519 0.4967743,0 0.4781537,0.17249 -0.1098397,1.01749 -0.67198186,0.96569 -1.0999187,2.31794 -1.09299111,3.45376 0.00608,0.9967 0.78750371,3.00664 1.28955571,3.31693 0.4203451,0.25979 0.3600915,0.94307 -0.083162,0.94307 -0.2064126,0 -0.61652839,-0.39033 -0.91136899,-0.86739 z m 1.43985939,-0.78626 c -1.05724754,-1.62143 -0.9824493,-4.63249 0.1403175,-5.64858 0.7715301,-0.69822 0.8859028,-0.25872 0.265942,1.02195 -0.6969541,1.43972 -0.7033731,2.18193 -0.030288,3.50215 0.2910416,0.57086 0.5291666,1.19135 0.5291666,1.37886 0,0.53447 -0.4784513,0.4 -0.9051381,-0.25438 z m 1.3326335,-1.02876 c -0.5011663,-0.71552 -0.5580232,-2.29788 -0.1173202,-3.26512 0.3133976,-0.68783 0.9747756,-0.77792 0.7695047,-0.10482 -0.2939079,0.96376 -0.3044169,2.34842 -0.021831,2.87644 0.4594868,0.85856 -0.07924,1.28032 -0.6303535,0.4935 z"
         style="fill:#808080;stroke-width:2.28088212;fill-opacity:1" />
      <path
         inkscape:connector-curvature="0"
         id="path862"
         d="m 9.4116078,311.38647 c -3.8029338,-0.74888 -4.7106928,-1.08372 -7.2175637,-2.6623 -2.86049273,-1.80125 -4.5514697,-3.73503 -6.2357327,-7.13109 -1.2983427,-2.61792 -1.6311197,-4.25432 -1.6066227,-7.9004 0.02257,-3.35947 0.275399,-4.65706 1.3661337,-7.01146 2.048399,-4.42156 5.6507877,-7.70573 10.1613913,-9.2638 2.3569071,-0.81413 2.8409811,-1.07293 3.0114441,-1.61001 0.0821,-0.25868 -0.627196,-2.7667 -1.576219,-5.57337 -1.4445748,-4.27225 -1.6620048,-5.13858 -1.3355171,-5.32129 0.5594041,-0.31306 0.4806411,-0.72112 -0.1391897,-0.72112 -0.627871,0 -0.715154,-0.73898 -0.114507,-0.96947 0.2280627,-0.0875 0.5531357,-0.0206 0.7223848,0.1486 0.169249,0.16925 1.148621,2.85653 2.176382,5.97173 1.6804302,5.09347 1.8208742,5.6765 1.3942822,5.78805 -0.4770002,0.12474 -0.6531542,0.82562 -0.2674223,1.06402 0.113825,0.0703 1.2151523,0.16105 2.4473973,0.20157 3.080031,0.10128 6.761748,1.16151 8.855025,2.55 4.591371,3.04549 7.211516,7.08092 8.10318,12.48014 0.379997,2.30097 0.0076,6.19015 -0.824174,8.60779 -0.697103,2.02617 -2.695787,5.01641 -4.541579,6.7947 -1.992244,1.91938 -5.459817,3.73549 -8.216376,4.30325 -1.870858,0.38533 -4.869371,0.50914 -6.1627172,0.25446 z m 6.5848092,-1.31651 c 6.984493,-1.69345 12.312995,-8.37709 12.328989,-15.46447 0.004,-1.7931 -0.264798,-2.36802 -1.10734,-2.36802 -0.383593,0 -0.476639,0.21877 -0.478247,1.12448 -0.0011,0.61846 -0.125349,1.89838 -0.276109,2.84427 -0.232677,1.45983 -0.411528,1.83977 -1.183201,2.51354 -0.623996,0.54483 -0.98611,1.15158 -1.154697,1.9348 -0.19159,0.89008 -0.60352,1.49018 -1.872888,2.72842 -2.587119,2.52367 -2.880011,2.12265 -2.001694,-2.74066 0.255809,-1.41644 0.395827,-2.7559 0.311152,-2.97656 -0.118422,-0.3086 -0.606435,-0.40121 -2.11424,-0.40121 -1.301584,0 -2.057747,-0.11744 -2.250337,-0.34949 -0.360339,-0.43419 -0.599758,-5.88382 -0.293841,-6.68844 0.123314,-0.32434 0.498917,-0.6765 0.834676,-0.78259 0.335756,-0.10609 0.777097,-0.42971 0.980755,-0.71916 0.330001,-0.46901 0.57468,-0.50951 2.248958,-0.37222 1.678287,0.13762 1.951281,0.24013 2.559399,0.9611 1.019226,1.20837 2.507351,1.0091 1.83574,-0.24581 -0.157368,-0.29405 -0.462282,-0.53464 -0.677582,-0.53464 -0.215302,0 -0.627385,-0.38695 -0.915744,-0.85989 -0.454647,-0.74568 -0.52442,-0.7829 -0.525277,-0.2802 -0.0016,0.88842 -0.45584,0.97058 -0.846452,0.15307 -0.437732,-0.91614 -1.389754,-1.10314 -1.791777,-0.35195 -0.160489,0.29987 -0.52573,0.54522 -0.811652,0.54522 -0.545304,0 -1.578192,-0.86751 -1.578192,-1.32551 0,-0.14694 0.238125,-0.47106 0.529167,-0.72026 0.291041,-0.24919 0.529166,-0.60895 0.529166,-0.79946 0,-0.19051 0.188725,-0.4188 0.419389,-0.50731 0.320333,-0.12293 0.379163,-0.37537 0.24907,-1.06882 -0.09368,-0.49934 -0.232105,-1.06889 -0.307617,-1.26568 -0.278615,-0.72605 0.77539,-0.90943 2.286629,-0.39782 0.791414,0.26792 1.531845,0.4297 1.645405,0.35952 1.136446,-0.70236 -5.602574,-4.55458 -7.497147,-4.28559 -0.37039,0.0526 -0.769585,0.387 -0.974876,0.81666 -0.309036,0.6468 -0.490979,0.7276 -1.638294,0.7276 -1.07043,0 -1.32014,0.0929 -1.463483,0.54455 -0.127731,0.40245 -0.356782,0.52328 -0.877725,0.46302 -0.6395462,-0.074 -0.7123692,-0.19803 -0.7855352,-1.3383 -0.07569,-1.17957 -0.125961,-1.25677 -0.818475,-1.25677 -0.79861,0 -3.2536058,0.77949 -4.2835857,1.36008 -0.987005,0.55637 -2.093339,1.61164 -2.093339,1.99672 0,0.4466 0.577674,0.4346 2.3812499,-0.0495 1.8919868,-0.50783 3.7041668,-0.52354 3.7041668,-0.0321 0,0.41893 -1.008856,0.85223 -2.4499088,1.05222 -1.235755,0.1715 -2.5771739,1.09592 -2.5771739,1.77602 0,0.75104 0.569494,0.62754 1.3229159,-0.2869 0.516988,-0.62748 0.942746,-0.83713 1.9493278,-0.95987 1.539704,-0.18776 1.809769,0.0903 1.578975,1.62563 -0.221849,1.47583 -0.690122,1.89937 -2.3259968,2.10376 -1.7339249,0.21663 -2.2128639,0.69958 -2.5009229,2.52182 -0.21049,1.33156 -0.56664,1.84399 -1.287619,1.85266 -0.185503,0.002 -0.450446,0.3017 -0.588764,0.66551 -0.304306,0.80038 -1.20266273,0.8853 -1.39957973,0.13229 -0.153613,-0.58742 -0.96444797,-0.70514 -1.45791997,-0.21167 -0.174625,0.17463 -0.3175,0.62939 -0.3175,1.01059 0,0.52786 0.204937,0.7833 0.85968797,1.07156 0.472829,0.20816 0.90236,0.6166 0.954513,0.90764 0.178778,0.99767 0.567633,1.14606 3.50140373,1.33621 2.5262996,0.16374 2.9555277,0.26042 3.2926137,0.74168 0.213188,0.30437 0.387615,0.80998 0.387615,1.12359 0,0.82182 0.466252,1.08399 2.166774,1.21837 2.1830102,0.1725 2.3311432,0.37187 2.3311432,3.13756 0,2.48879 -0.05525,2.59986 -1.432113,2.87924 -0.7382652,0.1498 -0.8295722,0.27936 -0.9491372,1.34684 -0.100655,0.89864 -0.274658,1.24356 -0.727604,1.44227 -0.481535,0.21126 -0.595313,0.47376 -0.595313,1.37345 0,0.61175 0.148828,1.20551 0.330729,1.31946 1.017481,0.63741 4.9373242,0.60154 7.7092892,-0.0706 z M 0.93069207,293.00816 c -0.09777,-0.1582 -0.06624,-0.39916 0.07006,-0.53547 0.350912,-0.35091 2.156586,-0.37761 2.49727,-0.0369 0.49417,0.49417 -0.02916,0.86004 -1.23017,0.86004 -0.637667,0 -1.239391,-0.12944 -1.33717046,-0.28764 z M 17.008456,283.45661 c -0.438673,-0.43867 -0.407458,-1.53789 0.04367,-1.53789 0.510106,0 1.019153,0.68055 0.91414,1.22213 -0.112879,0.58214 -0.547989,0.72558 -0.957813,0.31576 z m -3.098932,-3.12539 c -0.239133,-0.38693 0.09129,-0.79375 0.644676,-0.79375 0.539811,0 1.164489,0.61618 0.896432,0.88424 -0.269407,0.2694 -1.358191,0.20547 -1.541108,-0.0905 z m -9.029978,25.88534 c -0.503998,-2.51163 -1.0010879,-3.39576 -1.9092229,-3.39576 -0.839105,0 -1.415868,-0.96516 -2.01275003,-3.36816 -0.5310077,-2.1378 -0.6440517,-2.35076 -1.4366587,-2.70646 -0.59635697,-0.26762 -0.90687997,-0.61897 -1.01211997,-1.14517 -0.09254,-0.4627 -0.389282,-0.84938 -0.759979,-0.99032 -0.580056,-0.22054 -1.216021,-1.05751 -1.141741,-1.50261 0.213445,-1.27899 -0.935036,-1.64557 -1.276989,-0.40759 -0.8091817,2.92949 0.793002,8.32179 3.495795,11.76542 1.71164797,2.18082 5.7392026,5.02704 6.3082686,4.45797 0.14417,-0.14416 0.04224,-1.22801 -0.254603,-2.70732 z m 8.588232,-31.09071 c -0.396885,-0.10503 -0.4055,-0.22955 -0.08483,-1.22608 0.196302,-0.61005 0.620027,-1.97238 0.941607,-3.02741 0.510384,-1.67443 0.664078,-1.91823 1.209313,-1.91823 0.378828,0 0.624618,-0.15617 0.624618,-0.39687 0,-0.21828 -0.178594,-0.39688 -0.396876,-0.39688 -0.492553,0 -0.525748,-0.68768 -0.04215,-0.87325 0.195099,-0.0749 0.514808,-0.0372 0.710467,0.0837 0.38199,0.23608 0.234154,0.93412 -1.217874,5.75045 -0.639025,2.11963 -0.76449,2.26381 -1.744269,2.00453 z"
         style="fill:#808080;stroke-width:2.28088212;fill-opacity:1" />
    </g>
  </g>
</svg>
