<?xml version="1.0" encoding="UTF-8"?>
<!-- Created with Inkscape (http://www.inkscape.org/) -->
<svg id="svg4479" width="90" height="90" version="1.1" viewBox="0 0 90 90" xmlns="http://www.w3.org/2000/svg" xmlns:cc="http://creativecommons.org/ns#" xmlns:dc="http://purl.org/dc/elements/1.1/" xmlns:rdf="http://www.w3.org/1999/02/22-rdf-syntax-ns#">
 <metadata id="metadata4484">
  <rdf:RDF>
   <cc:Work rdf:about="">
    <dc:format>image/svg+xml</dc:format>
    <dc:type rdf:resource="http://purl.org/dc/dcmitype/StillImage"/>
    <dc:title/>
   </cc:Work>
  </rdf:RDF>
 </metadata>
 <g id="layer1" transform="translate(833.57 -695.93)">
  <rect id="rect4821" x="-833.57" y="695.93" width="90" height="90" style="fill:none"/>
  <path id="circle4113-5" d="m-788.57 699.93c-22.645 0-41.003 18.358-41.003 41.003s18.358 41.003 41.003 41.003c22.645 0 40.997-18.358 40.997-41.003s-18.352-41.003-40.997-41.003zm-6.3914 19.413c12.597 0 24.974 3.3577 35.787 9.7094 1.6046 0.9425 2.1418 3.0115 1.1992 4.616-0.6281 1.0689-1.7547 1.6591-2.9105 1.6591-0.5793 0-1.1693-0.1444-1.7056-0.46-9.7796-5.7441-20.972-8.7838-32.37-8.7838-6.1581 0-12.258 0.8787-18.127 2.6079-1.787 0.526-3.6587-0.4971-4.1852-2.2819-0.5255-1.785 0.4968-3.6593 2.2818-4.1853 6.4877-1.9115 13.227-2.8814 20.03-2.8814zm0 13.964c10.689 0 21.111 2.9824 30.141 8.6268 1.4207 0.8876 1.854 2.7594 0.9662 4.1795-0.5753 0.9201-1.5676 1.4261-2.5787 1.4261-0.5492 0-1.1009-0.1475-1.6006-0.4598-8.0651-5.0409-17.377-7.707-26.928-7.707-5.3065 0-10.543 0.8178-15.56 2.4274-1.5948 0.5106-3.3009-0.367-3.8127-1.9618-0.5116-1.5946 0.3671-3.3008 1.9617-3.8127 5.6165-1.8014 11.474-2.7185 17.41-2.7185zm0 13.819c8.8197 0 17.31 2.653 24.547 7.672 1.2238 0.8485 1.523 2.5254 0.6751 3.7488-0.5234 0.7548-1.3635 1.1582-2.2178 1.1582-0.5297 0-1.0621-0.1537-1.5308-0.4771-6.3316-4.3911-13.757-6.7116-21.474-6.7116-4.4635 0-8.8307 0.7731-12.981 2.2934-1.3979 0.5123-2.9451-0.2093-3.4575-1.6065-0.5122-1.3982 0.2026-2.9456 1.6007-3.4577 4.7463-1.739 9.7392-2.6195 14.838-2.6195z" style="fill:#808080"/>
 </g>
</svg>
