<?xml version="1.0" encoding="UTF-8" standalone="no"?>
<!-- Generator: Adobe Illustrator 22.0.1, SVG Export Plug-In . SVG Version: 6.00 Build 0)  -->

<svg
   xmlns:dc="http://purl.org/dc/elements/1.1/"
   xmlns:cc="http://creativecommons.org/ns#"
   xmlns:rdf="http://www.w3.org/1999/02/22-rdf-syntax-ns#"
   xmlns:svg="http://www.w3.org/2000/svg"
   xmlns="http://www.w3.org/2000/svg"
   xmlns:sodipodi="http://sodipodi.sourceforge.net/DTD/sodipodi-0.dtd"
   xmlns:inkscape="http://www.inkscape.org/namespaces/inkscape"
   version="1.1"
   x="0px"
   y="0px"
   viewBox="56 56 96 96"
   xml:space="preserve"
   id="svg12"
   sodipodi:docname="MediaBrowserIconTuneIn.svg"
   width="96"
   height="96"
   inkscape:version="0.92.3 (2405546, 2018-03-11)"><metadata
   id="metadata18"><rdf:RDF><cc:Work
       rdf:about=""><dc:format>image/svg+xml</dc:format><dc:type
         rdf:resource="http://purl.org/dc/dcmitype/StillImage" /><dc:title></dc:title></cc:Work></rdf:RDF></metadata><defs
   id="defs16">
	
</defs><sodipodi:namedview
   pagecolor="#ffffff"
   bordercolor="#666666"
   borderopacity="1"
   objecttolerance="10"
   gridtolerance="10"
   guidetolerance="10"
   inkscape:pageopacity="0"
   inkscape:pageshadow="2"
   inkscape:window-width="2792"
   inkscape:window-height="1698"
   id="namedview14"
   showgrid="true"
   inkscape:zoom="7.5853273"
   inkscape:cx="58.524091"
   inkscape:cy="41.923043"
   inkscape:window-x="88"
   inkscape:window-y="44"
   inkscape:window-maximized="1"
   inkscape:current-layer="svg12"><inkscape:grid
     type="xygrid"
     id="grid828" /></sodipodi:namedview>
<style
   type="text/css"
   id="style2">
	.st0{display:none;}
	.st1{fill:#1C203C;}
</style>
<g
   id="Other_Stuff"
   class="st0"
   style="display:none"
   transform="translate(0,8)">
</g>
<g
   id="Clear_Space"
   transform="translate(0,8)">
</g>
<g
   style="stroke-width:2.24266672;fill:#808080;fill-opacity:1"
   id="Logo__x2013__Horizontal_1A_12_"
   transform="matrix(0.44589774,0,0,0.44589774,34.439953,59.410226)">
		<g
   style="stroke-width:2.24266672;fill:#808080;fill-opacity:1"
   id="Logo_2_">
			<path
   style="fill:#808080;stroke-width:2.24266672;fill-opacity:1"
   inkscape:connector-curvature="0"
   id="path6"
   d="m 95,96.8 v 4 c 0,0.4 -0.4,0.8 -0.8,0.8 h -5 c -0.2,0 -0.4,0.2 -0.4,0.4 v 21.2 c 0,0.4 -0.4,0.8 -0.8,0.8 h -4 c -0.4,0 -0.8,-0.4 -0.8,-0.8 V 102 c 0,-0.2 -0.2,-0.4 -0.4,-0.4 h -5 c -0.4,0 -0.8,-0.4 -0.8,-0.8 v -4 C 77,96.4 77.4,96 77.8,96 h 16.4 c 0.4,0 0.8,0.4 0.8,0.8 z M 117,96 h -4 c -0.4,0 -0.8,0.4 -0.8,0.8 v 18.8 c 0,1.8 -1.4,3.2 -3.9,3.2 -2.4,0 -3.8,-1.4 -3.8,-3.2 V 96.8 c 0,-0.4 -0.4,-0.8 -0.8,-0.8 h -4 c -0.4,0 -0.8,0.4 -0.8,0.8 v 18.8 c 0,4.8 4,8.8 9.4,8.8 5.5,0 9.5,-4 9.5,-8.8 V 96.8 c 0,-0.4 -0.4,-0.8 -0.8,-0.8 z m 22.6,0 h -4 c -0.4,0 -0.8,0.4 -0.8,0.8 v 15 c 0,0.2 -0.3,0.3 -0.4,0.1 l -5.5,-15.2 c -0.1,-0.4 -0.4,-0.7 -1,-0.7 h -4.8 c -0.4,0 -0.8,0.4 -0.8,0.8 v 26.4 c 0,0.4 0.4,0.8 0.8,0.8 h 4 c 0.4,0 0.8,-0.4 0.8,-0.8 v -13.8 c 0,-0.2 0.3,-0.3 0.4,-0.1 l 5.4,14 c 0.1,0.3 0.4,0.7 1.1,0.7 h 4.7 c 0.4,0 0.8,-0.4 0.8,-0.8 V 96.8 C 140.4,96.4 140,96 139.6,96 Z m 20.7,22.4 h -9.5 c -0.2,0 -0.4,-0.2 -0.4,-0.4 v -4.8 c 0,-0.2 0.2,-0.4 0.4,-0.4 h 9 c 0.4,0 0.8,-0.4 0.8,-0.8 v -4 c 0,-0.4 -0.4,-0.8 -0.8,-0.8 h -9 c -0.2,0 -0.4,-0.2 -0.4,-0.4 V 102 c 0,-0.2 0.2,-0.4 0.4,-0.4 h 9.3 c 0.4,0 0.8,-0.4 0.8,-0.8 v -4 c 0,-0.4 -0.4,-0.8 -0.8,-0.8 h -14.5 c -0.4,0 -0.8,0.4 -0.8,0.8 v 26.4 c 0,0.4 0.4,0.8 0.8,0.8 h 14.7 c 0.4,0 0.8,-0.4 0.8,-0.8 v -4 c 0,-0.4 -0.4,-0.8 -0.8,-0.8 z M 256,59 v 62 c 0,1.7 -1.3,3 -3,3 h -69 v 17 c 0,1.7 -1.3,3 -3,3 H 59 c -1.7,0 -3,-1.3 -3,-3 V 79 c 0,-1.7 1.3,-3 3,-3 H 178 V 59 c 0,-1.7 1.3,-3 3,-3 h 72 c 1.7,0 3,1.3 3,3 z M 178,82 H 62.5 C 62.2,82 62,82.2 62,82.5 v 55 c 0,0.3 0.2,0.5 0.5,0.5 h 115 c 0.3,0 0.5,-0.2 0.5,-0.5 z m 35.8,17.4 c 0,-0.4 -0.4,-0.8 -0.8,-0.8 h -3.4 c -0.2,0 -0.4,-0.2 -0.4,-0.4 V 81.8 c 0,-0.2 0.2,-0.4 0.4,-0.4 h 3 c 0.4,0 0.8,-0.4 0.8,-0.8 v -3.8 c 0,-0.4 -0.4,-0.8 -0.8,-0.8 h -12.4 c -0.4,0 -0.8,0.4 -0.8,0.8 v 3.8 c 0,0.4 0.4,0.8 0.8,0.8 h 3 c 0.2,0 0.4,0.2 0.4,0.4 v 16.4 c 0,0.2 -0.2,0.4 -0.4,0.4 h -3.4 c -0.4,0 -0.8,0.4 -0.8,0.8 v 3.8 c 0,0.4 0.4,0.8 0.8,0.8 H 213 c 0.4,0 0.8,-0.4 0.8,-0.8 z m 22.4,-22.6 c 0,-0.4 -0.4,-0.8 -0.8,-0.8 h -4 c -0.4,0 -0.8,0.4 -0.8,0.8 v 15 c 0,0.2 -0.3,0.3 -0.4,0.1 l -5.5,-15.2 c -0.1,-0.4 -0.4,-0.7 -1,-0.7 H 219 c -0.4,0 -0.8,0.4 -0.8,0.8 v 26.4 c 0,0.4 0.4,0.8 0.8,0.8 h 4 c 0.4,0 0.8,-0.4 0.8,-0.8 V 89.4 c 0,-0.2 0.3,-0.3 0.4,-0.1 l 5.4,14 c 0.1,0.3 0.4,0.7 1.1,0.7 h 4.7 c 0.4,0 0.8,-0.4 0.8,-0.8 z"
   class="st1" />
		</g>
	</g>
<g
   id="Anatomy"
   class="st0"
   style="display:none"
   transform="translate(0,8)">
</g>
</svg>