<?xml version="1.0" encoding="UTF-8" standalone="no"?>
<!-- Created with Inkscape (http://www.inkscape.org/) -->

<svg
   xmlns:dc="http://purl.org/dc/elements/1.1/"
   xmlns:cc="http://creativecommons.org/ns#"
   xmlns:rdf="http://www.w3.org/1999/02/22-rdf-syntax-ns#"
   xmlns:svg="http://www.w3.org/2000/svg"
   xmlns="http://www.w3.org/2000/svg"
   xmlns:sodipodi="http://sodipodi.sourceforge.net/DTD/sodipodi-0.dtd"
   xmlns:inkscape="http://www.inkscape.org/namespaces/inkscape"
   width="90"
   height="90"
   viewBox="0 0 23.812499 23.812501"
   version="1.1"
   id="svg2587"
   inkscape:version="0.92.4 (5da689c313, 2019-01-14)"
   sodipodi:docname="MediaBrowserIconRadioParadise.svg">
  <defs
     id="defs2581" />
  <sodipodi:namedview
     id="base"
     pagecolor="#ffffff"
     bordercolor="#666666"
     borderopacity="1.0"
     inkscape:pageopacity="0.0"
     inkscape:pageshadow="2"
     inkscape:zoom="11.2"
     inkscape:cx="36.204625"
     inkscape:cy="30.640804"
     inkscape:document-units="mm"
     inkscape:current-layer="layer1"
     showgrid="true"
     units="px"
     inkscape:window-width="2792"
     inkscape:window-height="1698"
     inkscape:window-x="88"
     inkscape:window-y="44"
     inkscape:window-maximized="1">
    <inkscape:grid
       type="xygrid"
       id="grid3148" />
  </sodipodi:namedview>
  <metadata
     id="metadata2584">
    <rdf:RDF>
      <cc:Work
         rdf:about="">
        <dc:format>image/svg+xml</dc:format>
        <dc:type
           rdf:resource="http://purl.org/dc/dcmitype/StillImage" />
        <dc:title></dc:title>
      </cc:Work>
    </rdf:RDF>
  </metadata>
  <g
     inkscape:label="Layer 1"
     inkscape:groupmode="layer"
     id="layer1"
     transform="translate(0,-273.18748)">
    <path
       style="fill:#808080;fill-opacity:1;stroke-width:0.99999994"
       d="m 8.7721659,294.15425 c -1.2580716,-0.17778 -2.224263,-0.48217 -3.3256351,-1.0477 -1.8838796,-0.96734 -3.1697351,-2.41191 -3.7849119,-4.25208 -0.3742294,-1.11942 -0.4844433,-2.06684 -0.3523979,-3.02924 0.2237349,-1.63068 0.7032736,-2.86059 1.6429879,-4.21393 0.1408933,-0.20291 0.2082328,-0.25974 0.2423542,-0.20453 0.038997,0.0631 0.1109934,0.0617 0.4121856,-0.007 0.2007144,-0.0463 0.5255422,-0.0844 0.7218392,-0.0846 0.3010208,-1.8e-4 0.3811418,0.0224 0.5117035,0.14436 0.3072203,0.28697 0.3084814,0.29111 1.4158327,4.65203 0.3578382,1.40922 0.4015392,1.63659 0.3421366,1.78 -0.1012342,0.24439 -0.3273836,0.37559 -0.9214989,0.53459 -0.2938914,0.0786 -0.5469348,0.15559 -0.5623186,0.17097 -0.03271,0.0327 0.08543,0.55207 0.1489664,0.65488 0.032231,0.0521 0.7188697,-0.10121 2.6707447,-0.59635 1.4450475,-0.36661 2.6337177,-0.67292 2.6414897,-0.68069 0.02818,-0.0282 -0.150583,-0.63464 -0.202324,-0.68639 -0.03229,-0.0323 -0.266031,0.003 -0.5957963,0.0912 -0.978145,0.26016 -1.3382185,0.25125 -1.4881678,-0.0368 -0.095909,-0.18427 -0.5806438,-2.0826 -0.645728,-2.52885 -0.075336,-0.51652 -0.07093,-1.96028 0.00778,-2.55009 0.1372184,-1.02823 0.6409087,-1.98181 1.1604857,-2.19704 0.2247244,-0.0931 0.2935361,-0.0187 0.2199782,0.23778 -0.09983,0.34809 -0.067606,0.65918 0.1017743,0.9825 0.1945023,0.3713 0.4390944,0.51932 0.8581017,0.51932 0.5328072,0 0.8969302,-0.35607 0.9374872,-0.91678 0.04838,-0.66881 -0.259357,-1.3031 -0.781,-1.60973 -0.2452365,-0.14407 -0.3337991,-0.16292 -0.7687811,-0.16292 -0.4221202,0 -0.5385405,0.023 -0.8235676,0.16301 -0.3763672,0.18481 -0.7714427,0.55355 -0.9848779,0.91919 -0.2868261,0.49139 -0.5672545,1.67523 -0.6341802,2.67722 -0.011627,0.17408 -0.1132825,-0.15524 -0.4106448,-1.33025 -0.217356,-0.85888 -0.4161837,-1.58346 -0.4418402,-1.61016 -0.036258,-0.0378 -1.5594331,0.39351 -2.2283352,0.63088 -0.1657951,0.0588 0.6104328,-0.7265 1.1567427,-1.17032 1.7428709,-1.4159 3.883851,-2.36973 6.2174923,-2.76999 0.738605,-0.12669 2.665942,-0.17596 3.3963,-0.0869 4.02345,0.49091 6.89228,2.80666 7.599343,6.13427 0.180045,0.84734 0.179588,2.09006 -0.0011,2.94969 -0.624732,2.97245 -2.695214,5.53159 -5.765378,7.12611 l -0.641287,0.33305 -0.584066,-2.29698 c -0.321237,-1.26334 -0.574211,-2.30683 -0.562163,-2.31888 0.01202,-0.0116 0.101646,0.0349 0.199117,0.10426 0.507878,0.36163 1.381355,0.56336 2.006777,0.46345 1.337331,-0.21364 2.328565,-1.08928 2.779657,-2.4555 0.136657,-0.41388 0.153041,-0.55126 0.151961,-1.27364 -0.0014,-0.97228 -0.110869,-1.45357 -0.518778,-2.28207 -0.448211,-0.91035 -1.254064,-1.61146 -2.157049,-1.87669 -0.396668,-0.11656 -1.242274,-0.11902 -1.72521,-0.006 -0.785994,0.18531 -1.532306,0.73011 -1.968687,1.43709 l -0.210514,0.34107 -0.106858,-0.42655 c -0.05877,-0.2346 -0.129559,-0.44969 -0.157306,-0.47797 -0.02933,-0.0298 -0.360585,0.0258 -0.791396,0.13292 -1.241222,0.30889 -1.188607,0.29058 -1.146542,0.39913 0.02082,0.0537 0.593728,2.2848 1.273134,4.95795 0.679405,2.67314 1.317272,5.16748 1.417481,5.54298 0.100209,0.37549 0.16982,0.69508 0.154692,0.71021 -0.05215,0.0521 -0.64855,0.19615 -1.311889,0.31677 -0.871774,0.1585 -2.9249612,0.2017 -3.7883326,0.0796 z m 6.7838511,-6.29647 c -0.677491,-0.18848 -1.15062,-0.74422 -1.485537,-1.74492 -0.538074,-1.60773 -0.252728,-2.99676 0.712646,-3.46907 0.416938,-0.20399 0.857321,-0.24478 1.24665,-0.1154 0.898391,0.29839 1.620644,1.73789 1.629155,3.247 0.0039,0.68811 -0.09611,1.09428 -0.369745,1.50182 -0.333929,0.49737 -1.104503,0.75551 -1.733169,0.58063 z"
       id="path928"
       inkscape:connector-curvature="0" />
  </g>
</svg>
