<?xml version="1.0" encoding="UTF-8" standalone="no"?>
<!-- Created with Inkscape (http://www.inkscape.org/) -->

<svg
   xmlns:dc="http://purl.org/dc/elements/1.1/"
   xmlns:cc="http://creativecommons.org/ns#"
   xmlns:rdf="http://www.w3.org/1999/02/22-rdf-syntax-ns#"
   xmlns:svg="http://www.w3.org/2000/svg"
   xmlns="http://www.w3.org/2000/svg"
   xmlns:sodipodi="http://sodipodi.sourceforge.net/DTD/sodipodi-0.dtd"
   xmlns:inkscape="http://www.inkscape.org/namespaces/inkscape"
   width="96"
   height="96"
   viewBox="0 0 25.399999 25.400001"
   version="1.1"
   id="svg8"
   inkscape:version="0.92.3 (2405546, 2018-03-11)"
   sodipodi:docname="MediaBrowserIconSiriusXM.svg">
  <defs
     id="defs2" />
  <sodipodi:namedview
     id="base"
     pagecolor="#ffffff"
     bordercolor="#666666"
     borderopacity="1.0"
     inkscape:pageopacity="0.0"
     inkscape:pageshadow="2"
     inkscape:zoom="2.8"
     inkscape:cx="14.836233"
     inkscape:cy="62.45569"
     inkscape:document-units="mm"
     inkscape:current-layer="layer1"
     showgrid="true"
     units="px"
     inkscape:window-width="2792"
     inkscape:window-height="1698"
     inkscape:window-x="88"
     inkscape:window-y="44"
     inkscape:window-maximized="1">
    <inkscape:grid
       type="xygrid"
       id="grid815" />
  </sodipodi:namedview>
  <metadata
     id="metadata5">
    <rdf:RDF>
      <cc:Work
         rdf:about="">
        <dc:format>image/svg+xml</dc:format>
        <dc:type
           rdf:resource="http://purl.org/dc/dcmitype/StillImage" />
        <dc:title></dc:title>
      </cc:Work>
    </rdf:RDF>
  </metadata>
  <g
     inkscape:label="Layer 1"
     inkscape:groupmode="layer"
     id="layer1"
     transform="translate(0,-271.59998)">
    <path
       style="fill:#808080;stroke-width:1;fill-opacity:1"
       d="m 10.935318,293.4556 c -1.2341568,-0.23368 -2.4703422,-0.72173 -3.5171533,-1.38861 -0.3367136,-0.2145 -0.3987177,-0.30197 -0.3987177,-0.56242 0,-0.68731 0.3251655,-0.69002 1.620602,-0.0135 1.380573,0.72098 2.474727,0.99708 3.961447,0.99963 1.677112,0.003 3.039782,-0.35451 4.378844,-1.14844 0.736909,-0.4369 1.041062,-0.46895 1.261259,-0.13289 0.233232,0.35595 0.06049,0.62234 -0.686001,1.05786 -0.806256,0.47038 -1.650346,0.81451 -2.608702,1.06355 -0.99085,0.25749 -2.983412,0.31948 -4.011578,0.12481 z m 0.04462,-2.29348 c -0.70928,-0.19127 -1.7457688,-0.6897 -2.2131682,-1.06427 -0.4561875,-0.36559 -0.3153145,-1.00317 0.2216483,-1.00317 0.1415198,0 0.3658898,0.0854 0.4986003,0.1898 0.413054,0.32491 1.4128136,0.74584 2.1382356,0.90026 1.31076,0.27901 2.693077,0.0274 3.949185,-0.71883 0.556697,-0.33073 0.70879,-0.3829 0.910014,-0.31213 0.312379,0.10986 0.469552,0.52354 0.284539,0.74891 -0.253709,0.30906 -1.221039,0.86671 -1.942343,1.11972 -1.000854,0.35107 -2.818211,0.41708 -3.846711,0.13971 z m 0.897344,-2.16411 c -0.485242,-0.0817 -1.332599,-0.44198 -1.76662,-0.75103 -0.208705,-0.14861 -0.2767351,-0.27159 -0.2767351,-0.50025 0,-0.62719 0.3721191,-0.68125 1.2745741,-0.1852 1.050337,0.57733 2.316059,0.5364 3.261944,-0.10549 0.522479,-0.35457 0.684395,-0.37281 0.950153,-0.10705 0.129856,0.12986 0.236102,0.30336 0.236102,0.38558 0,0.38361 -1.055558,1.01386 -2.051655,1.22499 -0.680935,0.14433 -0.960167,0.15093 -1.627763,0.0385 z m -9.6479288,-3.27585 c -0.4275265,-0.12973 -0.6464283,-0.28633 -0.7909853,-0.56587 -0.223761,-0.43271 -0.187573,-0.47096 0.445541,-0.47096 0.4856336,0 0.607511,0.0325 0.7044152,0.18763 0.1374807,0.22014 0.6315723,0.25757 0.7097782,0.0538 0.072429,-0.18877 -0.1079977,-0.30956 -0.6406439,-0.42893 -0.9142549,-0.20489 -1.2669696,-0.50298 -1.2669696,-1.07075 0,-0.29595 0.3408919,-0.70707 0.7163582,-0.86396 0.3977376,-0.16617 1.2654724,-0.16617 1.66321,0 0.3262158,0.13631 0.7163582,0.55815 0.7163582,0.77455 0,0.19176 -1.0625043,0.17665 -1.2235435,-0.0174 -0.1347343,-0.16234 -0.5717842,-0.14888 -0.626945,0.0193 -0.035078,0.10695 0.1565748,0.1833 1.0287653,0.40981 0.6051264,0.15716 0.91554,0.48127 0.91554,0.95595 0,0.6661 -0.6909332,1.11502 -1.688688,1.09719 -0.2321944,-0.004 -0.5301801,-0.0403 -0.6621908,-0.0804 z m 7.7318814,7.1e-4 c -0.4171773,-0.17829 -0.5025722,-0.44581 -0.5025722,-1.5744 v -1.05801 h 0.5125909 0.5125907 l 0.02685,0.9147 0.02685,0.91471 h 0.277219 c 0.339229,0 0.403732,-0.17851 0.41705,-1.15415 l 0.0094,-0.68507 0.492533,0.0284 0.492534,0.0283 0.0261,1.28997 0.0261,1.28997 H 11.7598 c -0.420051,0 -0.518635,-0.0295 -0.518635,-0.15527 0,-0.14171 -0.01574,-0.14102 -0.18035,0.008 -0.211962,0.19183 -0.812993,0.27541 -1.0995806,0.15291 z m 2.9125004,-0.0905 c -0.368346,-0.16729 -0.506778,-0.3384 -0.506778,-0.62639 0,-0.0971 0.126687,-0.13305 0.46908,-0.13305 0.257993,0 0.469079,0.0407 0.469079,0.0905 0,0.13812 0.342866,0.29128 0.509192,0.22746 0.08113,-0.0312 0.14752,-0.11257 0.14752,-0.18097 0,-0.12829 -0.0384,-0.14509 -0.750528,-0.32823 -0.686197,-0.17648 -0.919829,-0.5024 -0.736699,-1.02773 0.137086,-0.39324 0.512077,-0.56356 1.240829,-0.56356 0.516437,0 0.650439,0.0364 0.895911,0.24289 0.158755,0.13358 0.288646,0.32355 0.288646,0.42217 0,0.15208 -0.06966,0.17929 -0.459041,0.17929 -0.321494,0 -0.475225,-0.0421 -0.513045,-0.14072 -0.0546,-0.14227 -0.351897,-0.19271 -0.465611,-0.079 -0.09052,0.0905 0.122385,0.31345 0.299939,0.31405 0.311885,9.5e-4 0.874222,0.20502 1.050035,0.38084 0.110351,0.11035 0.181539,0.3103 0.181539,0.50989 0,0.40031 -0.232317,0.65513 -0.720982,0.79082 -0.520753,0.14461 -0.962731,0.11988 -1.399086,-0.0783 z m -8.0850649,-1.20507 0.0261,-1.28997 0.4925346,-0.0284 0.4925337,-0.0283 v 1.31832 1.31834 H 5.2811979 4.762563 Z m 1.2926172,-0.0235 v -1.31342 h 0.4690804 c 0.4442104,0 0.4690795,0.0131 0.4690795,0.24718 v 0.2472 l 0.194441,-0.2472 c 0.1309462,-0.16647 0.2841249,-0.24718 0.4690804,-0.24718 0.2703513,0 0.2746385,0.008 0.2746385,0.51598 0,0.50856 -0.00398,0.51599 -0.2761282,0.51599 -0.4023695,0 -0.5682158,0.29361 -0.5682158,1.00595 v 0.58892 H 6.5972702 6.0812823 Z m 2.0639516,0 v -1.31342 h 0.5159879 0.5159879 v 1.31342 1.31342 H 8.6612218 8.1452339 Z m 6.7547481,1.25734 c 0,-0.0309 0.232195,-0.38556 0.515988,-0.78826 0.283794,-0.40271 0.515988,-0.77102 0.515988,-0.81847 0,-0.0475 -0.211086,-0.3927 -0.469079,-0.7672 -0.257995,-0.37451 -0.469081,-0.69866 -0.469081,-0.72033 0,-0.0217 0.308312,-0.0394 0.685138,-0.0394 h 0.685136 l 0.192687,0.39784 0.192688,0.39785 0.202966,-0.39785 0.202967,-0.39784 h 0.7132 c 0.557388,0 0.692976,0.0257 0.620628,0.11727 -0.385752,0.48867 -0.962378,1.32651 -0.962378,1.39834 0,0.0483 0.20362,0.3919 0.452489,0.76366 0.248868,0.37176 0.483554,0.7287 0.521524,0.7932 0.05272,0.0896 -0.09816,0.11727 -0.638323,0.11727 h -0.707358 l -0.226315,-0.44532 -0.226314,-0.4453 -0.216349,0.4453 -0.21635,0.44532 h -0.684922 c -0.376708,0 -0.684925,-0.0253 -0.684925,-0.0561 z m 3.752639,-1.53879 v -1.59487 h 0.562896 c 0.508336,0 0.562896,0.019 0.562896,0.19597 0,0.18859 0.01087,0.18682 0.288647,-0.0469 0.189274,-0.15926 0.400814,-0.24288 0.614462,-0.24288 0.372633,0 0.831373,0.20862 0.910149,0.4139 0.04228,0.11017 0.115587,0.0813 0.349646,-0.13725 0.341378,-0.31889 0.853094,-0.37131 1.311358,-0.13434 0.469632,0.24285 0.559825,0.5517 0.559825,1.91698 v 1.22427 h -0.609804 -0.609803 l -0.0012,-0.91471 c -0.0016,-1.14835 -0.04881,-1.33687 -0.334711,-1.33687 -0.330142,0 -0.414532,0.26612 -0.414532,1.30725 v 0.94433 h -0.609802 -0.609805 l -0.0012,-0.91471 c -0.0016,-1.14835 -0.04881,-1.33687 -0.334712,-1.33687 -0.33014,0 -0.41453,0.26612 -0.41453,1.30725 v 0.94433 H 19.262534 18.65273 Z M 4.7678588,282.66818 c 0,-0.22175 0.028146,-0.23453 0.5159879,-0.23453 0.4878431,0 0.5159879,0.0128 0.5159879,0.23453 0,0.22175 -0.028146,0.23454 -0.5159879,0.23454 -0.487844,0 -0.5159879,-0.0128 -0.5159879,-0.23454 z m 3.3773751,0 c 0,-0.22175 0.028146,-0.23453 0.5159879,-0.23453 0.487843,0 0.5159879,0.0128 0.5159879,0.23453 0,0.22175 -0.028146,0.23454 -0.5159879,0.23454 -0.487843,0 -0.5159879,-0.0128 -0.5159879,-0.23454 z m 15.3304421,-0.17587 c -0.02987,-0.0778 -0.03961,-0.21787 -0.02164,-0.31118 0.04128,-0.21435 0.558529,-0.23865 0.615778,-0.029 0.03089,0.11315 0.02103,0.11594 -0.05034,0.0142 -0.128558,-0.18325 -0.441527,-0.0936 -0.441527,0.12651 0,0.22008 0.312969,0.30975 0.441527,0.12649 0.0714,-0.10175 0.08135,-0.099 0.05091,0.0142 -0.05205,0.1936 -0.52504,0.24026 -0.594724,0.0587 z m 0.149192,-0.19939 c 0,-0.0602 0.06333,-0.10945 0.140724,-0.10945 0.0774,0 0.140724,0.0492 0.140724,0.10945 0,0.0602 -0.06333,0.10944 -0.140724,0.10944 -0.0774,0 -0.140724,-0.0492 -0.140724,-0.10944 z m -9.193965,-1.08076 c -1.068455,-0.71502 -2.494651,-0.7335 -3.50851,-0.0455 -0.584048,0.39635 -1.0884711,0.28087 -1.0884711,-0.2492 0,-0.77309 1.9415741,-1.50159 3.4374221,-1.28975 0.755387,0.10697 1.714835,0.54742 2.043613,0.93816 0.291697,0.34666 0.293292,0.36967 0.0473,0.68241 -0.24945,0.31712 -0.412958,0.31078 -0.931351,-0.0362 z m -5.8168292,-1.82783 c -0.2055989,-0.24773 -0.1385357,-0.6284 0.152691,-0.86671 0.4593686,-0.3759 1.7352842,-0.93909 2.5078362,-1.10697 1.053099,-0.22884 2.485705,-0.15574 3.460486,0.17657 0.889303,0.30318 1.845588,0.86805 2.032111,1.20038 0.124375,0.22158 0.122099,0.27233 -0.02209,0.4924 -0.219456,0.33493 -0.514965,0.31373 -1.132378,-0.0813 -0.863375,-0.5523 -1.8272,-0.82794 -2.917419,-0.83434 -1.129746,-0.007 -1.937414,0.21257 -2.8797007,0.78159 -0.6644277,0.40124 -1.0095065,0.46968 -1.2015325,0.2383 z m -1.4820521,-1.84789 c -0.1790697,-0.17906 -0.1315523,-0.61295 0.089703,-0.81908 0.1112546,-0.10366 0.5355242,-0.36183 0.9428212,-0.57374 2.7730091,-1.44267 6.0212471,-1.4858 8.7448991,-0.11611 1.326952,0.66731 1.605682,0.96567 1.315643,1.40833 -0.20037,0.3058 -0.579254,0.27116 -1.213882,-0.11099 -0.79225,-0.47707 -1.772654,-0.8597 -2.665711,-1.04035 -1.064803,-0.21541 -3.048245,-0.14844 -3.992213,0.13477 -0.7133842,0.21404 -1.8810291,0.74246 -2.3003297,1.04103 -0.2956323,0.21051 -0.7490744,0.248 -0.9209305,0.0761 z"
       id="path830"
       inkscape:connector-curvature="0" />
  </g>
</svg>
