<?xml version="1.0" encoding="utf-8"?>
<!-- Generator: Adobe Illustrator 20.0.0, SVG Export Plug-In . SVG Version: 6.00 Build 0)  -->
<svg version="1.1" id="Layer_1" xmlns="http://www.w3.org/2000/svg" xmlns:xlink="http://www.w3.org/1999/xlink" x="0px" y="0px"
	 width="284px" height="67.8px" viewBox="0 0 284 67.8" style="enable-background:new 0 0 284 67.8;" xml:space="preserve">
<style type="text/css">
	.st0{fill:#09102B;}
	.st1{fill:#FFFFFF;}
	.st2{fill:#41CD52;}
</style>
<polygon class="st0" points="191.9,55.5 191.9,12.7 204.7,0 12.8,0 0,12.7 0,55.5 0,59 0,67.8 8.8,67.8 12,67.8 191.9,67.8 
	191.9,59 "/>
<g>
	<g>
		<path class="st1" d="M25.5,22h9.1c2.5,0,4.3,0.5,5.5,1.5s1.8,2.6,1.8,4.8c0,1.4-0.2,2.6-0.7,3.4s-1.2,1.5-2.2,2
			c2.3,0.9,3.4,2.8,3.4,5.6c0,4.6-2.6,6.8-7.7,6.8h-9.4V22H25.5z M34.4,25.4h-5v6.9h5.2c2.3,0,3.4-1.2,3.4-3.6
			C38,26.5,36.8,25.4,34.4,25.4z M34.7,35.6h-5.2v7.1h5.3c1.3,0,2.3-0.3,2.9-0.8s1-1.5,1-2.8s-0.4-2.2-1.1-2.8
			C36.7,35.9,35.8,35.6,34.7,35.6z"/>
		<path class="st1" d="M57.2,28.5H61v17.6h-3.8V45c-1.7,1-3.3,1.5-4.7,1.5c-2.4,0-4-0.7-4.9-2c-0.8-1.3-1.2-3.6-1.2-6.8v-9.2h3.8
			v9.2c0,2.1,0.2,3.5,0.5,4.3c0.4,0.7,1.2,1.1,2.5,1.1s2.4-0.2,3.5-0.7l0.5-0.2L57.2,28.5L57.2,28.5z"/>
		<path class="st1" d="M65.7,25.5v-4h3.8v4H65.7z M65.7,46.1V28.5h3.8v17.6H65.7z"/>
		<path class="st1" d="M74.4,46.1V21.2h3.8v24.9H74.4z"/>
		<path class="st1" d="M92.5,31.8h-4.9v7.7c0,1.4,0.1,2.4,0.3,2.8c0.2,0.5,0.8,0.7,1.6,0.7l2.9-0.1l0.2,3.1
			c-1.6,0.3-2.8,0.5-3.6,0.5c-2,0-3.4-0.5-4.1-1.4s-1.1-2.6-1.1-5.2v-8.2h-2.3v-3.2h2.3v-5.1h3.8v5.1h4.9
			C92.5,28.5,92.5,31.8,92.5,31.8z"/>
		<path class="st1" d="M102,28.5h3.8l2.8,14.3h0.7l3.3-14h3.9l3.3,14h0.7l2.8-14.3h3.8l-3.7,17.6h-6.1L114.6,34l-2.7,12.1h-6.2
			L102,28.5z"/>
		<path class="st1" d="M130.4,25.5v-4h3.8v4H130.4z M130.4,46.1V28.5h3.8v17.6H130.4z"/>
		<path class="st1" d="M148.4,31.8h-4.9v7.7c0,1.4,0.1,2.4,0.3,2.8c0.2,0.5,0.8,0.7,1.6,0.7l2.9-0.1l0.2,3.1
			c-1.6,0.3-2.8,0.5-3.6,0.5c-2,0-3.4-0.5-4.1-1.4s-1.1-2.6-1.1-5.1v-8.2h-2.3v-3.3h2.3v-5.1h3.8v5.1h4.9L148.4,31.8L148.4,31.8z"/>
		<path class="st1" d="M155.3,46.1h-3.8V21.2h3.8v8.3c1.7-0.9,3.3-1.3,4.8-1.3c2.3,0,3.9,0.7,4.8,2s1.3,3.5,1.3,6.6v9.4h-3.8v-9.4
			c0-1.9-0.2-3.2-0.6-4s-1.2-1.2-2.5-1.2c-1.1,0-2.3,0.2-3.4,0.6l-0.6,0.2L155.3,46.1L155.3,46.1z"/>
	</g>
</g>
<polygon class="st2" points="275,0 271.8,0 204.5,0 204.5,0 191.7,12.7 191.7,55.5 191.7,59 191.7,67.8 200.6,67.8 203.8,67.8 
	271,67.8 271,67.8 283.8,55 283.8,12.3 283.8,8.8 283.8,0 "/>
<path class="st1" d="M226,53.1c-6.1,0-10.3-1.6-12.7-4.9c-2.4-3.3-3.6-8.4-3.6-15.5s1.2-12.3,3.6-15.7s6.6-5.1,12.6-5.1
	s10.2,1.7,12.6,5.1s3.6,8.6,3.6,15.7c0,4.7-0.5,8.4-1.5,11.3s-2.6,5.1-4.9,6.6l4.9,7.9l-6,2.8l-5.2-8.5
	C228.8,53,227.6,53.1,226,53.1z M218.4,44c1.3,2.3,3.8,3.4,7.6,3.4c3.8,0,6.2-1.1,7.6-3.4c1.3-2.2,2-6,2-11.3s-0.7-9.2-2-11.6
	c-1.4-2.4-3.9-3.6-7.6-3.6s-6.2,1.2-7.5,3.6c-1.4,2.4-2,6.3-2,11.5C216.5,38,217.1,41.7,218.4,44z"/>
<path class="st1" d="M264.7,28h-8v12.8c0,2.4,0.2,3.9,0.5,4.7s1.2,1.2,2.7,1.2l4.8-0.2l0.3,5.1c-2.6,0.5-4.6,0.8-5.9,0.8
	c-3.3,0-5.6-0.8-6.8-2.3s-1.8-4.4-1.8-8.6V28H246v-5.4h4.5v-8.5h6.3v8.5h8V28H264.7z"/>
</svg>
