<?xml version="1.0" encoding="utf-8"?>
<!-- Generator: Adobe Illustrator 20.0.0, SVG Export Plug-In . SVG Version: 6.00 Build 0)  -->
<svg version="1.1" id="Layer_1" xmlns="http://www.w3.org/2000/svg" xmlns:xlink="http://www.w3.org/1999/xlink" x="0px" y="0px"
	 width="92.1px" height="100.4px" viewBox="0 0 92.1 100.4" style="enable-background:new 0 0 92.1 100.4;" xml:space="preserve">
<style type="text/css">
	.st0{fill:#09102B;}
	.st1{fill:#FFFFFF;}
	.st2{fill:#41CD52;}
</style>
<polygon class="st0" points="12.1,67.8 8.8,67.8 0,67.8 0,94.5 0,96.1 0,100.4 4.2,100.4 5.8,100.4 86,100.4 92.1,94.3 92.1,55 
	79.3,67.8 "/>
<g>
	<path class="st1" d="M12.4,78.4h4.4c1.2,0,2.1,0.2,2.7,0.7c0.6,0.5,0.9,1.2,0.9,2.3c0,0.7-0.1,1.2-0.3,1.6s-0.6,0.7-1,1
		c1.1,0.4,1.7,1.3,1.7,2.7c0,2.2-1.2,3.3-3.7,3.3h-4.5V78.4H12.4z M16.6,80h-2.4v3.3h2.5c1.1,0,1.7-0.6,1.7-1.7
		C18.4,80.6,17.8,80,16.6,80z M16.7,84.9h-2.5v3.4h2.6c0.6,0,1.1-0.1,1.4-0.4c0.3-0.3,0.5-0.7,0.5-1.3s-0.2-1.1-0.5-1.3
		C17.7,85.1,17.3,84.9,16.7,84.9z"/>
	<path class="st1" d="M27.6,81.5h1.8v8.4h-1.8v-0.5c-0.8,0.5-1.6,0.7-2.3,0.7c-1.2,0-1.9-0.3-2.3-0.9c-0.4-0.6-0.6-1.7-0.6-3.3v-4.4
		h1.8v4.4c0,1,0.1,1.7,0.3,2s0.6,0.5,1.2,0.5c0.6,0,1.2-0.1,1.7-0.3l0.3-0.1L27.6,81.5L27.6,81.5z"/>
	<path class="st1" d="M31.6,80.1v-1.9h1.8v1.9H31.6z M31.6,90v-8.4h1.8V90H31.6z"/>
	<path class="st1" d="M35.8,90V78h1.8v12H35.8z"/>
	<path class="st1" d="M44.5,83.1h-2.3v3.7c0,0.7,0.1,1.1,0.2,1.4c0.1,0.2,0.4,0.3,0.8,0.3l1.4-0.1l0.1,1.5c-0.8,0.1-1.3,0.2-1.7,0.2
		c-1,0-1.6-0.2-2-0.7c-0.4-0.4-0.5-1.3-0.5-2.5V83h-1.1v-1.6h1.1v-2.5h1.8v2.5h2.3L44.5,83.1L44.5,83.1z"/>
	<path class="st1" d="M49.1,81.5h1.8l1.3,6.9h0.3l1.6-6.7H56l1.6,6.7h0.3l1.3-6.9H61l-1.8,8.4h-2.9L55,84.1l-1.3,5.8h-2.9L49.1,81.5
		z"/>
	<path class="st1" d="M62.7,80.1v-1.9h1.8v1.9H62.7z M62.7,90v-8.4h1.8V90H62.7z"/>
	<path class="st1" d="M71.4,83.1h-2.3v3.7c0,0.7,0.1,1.1,0.2,1.4c0.1,0.2,0.4,0.3,0.8,0.3l1.4-0.1l0.1,1.5c-0.8,0.1-1.3,0.2-1.7,0.2
		c-1,0-1.6-0.2-2-0.7c-0.4-0.4-0.5-1.3-0.5-2.5V83h-1.1v-1.6h1.1v-2.5h1.8v2.5h2.3L71.4,83.1L71.4,83.1z"/>
	<path class="st1" d="M74.7,90h-1.8V78h1.8v4c0.8-0.4,1.6-0.6,2.3-0.6c1.1,0,1.9,0.3,2.3,1c0.4,0.6,0.6,1.7,0.6,3.2v4.5h-1.8v-4.5
		c0-0.9-0.1-1.6-0.3-1.9c-0.2-0.4-0.6-0.6-1.2-0.6c-0.5,0-1.1,0.1-1.6,0.3l-0.3,0.1V90z"/>
</g>
<polygon class="st2" points="83.2,0 80,0 12.8,0 12.8,0 0,12.8 0,55.5 0,59 0,67.8 8.8,67.8 12.1,67.8 79.3,67.8 79.3,67.8 92.1,55 
	92.1,12.3 92.1,8.8 92.1,0 "/>
<path class="st1" d="M34.3,53.1c-6.1,0-10.3-1.6-12.7-4.9S18,39.8,18,32.7s1.2-12.3,3.6-15.7s6.6-5.1,12.6-5.1s10.2,1.7,12.6,5.1
	c2.4,3.4,3.6,8.6,3.6,15.7c0,4.7-0.5,8.4-1.5,11.3s-2.6,5.1-4.9,6.6l4.9,7.9l-6,2.8l-5.2-8.5C37.1,53,35.9,53.1,34.3,53.1z M26.7,44
	c1.3,2.3,3.8,3.4,7.6,3.4s6.2-1.1,7.6-3.4c1.3-2.2,2-6,2-11.3s-0.7-9.2-2-11.6s-3.8-3.6-7.5-3.6s-6.2,1.2-7.5,3.6
	c-1.4,2.4-2,6.3-2,11.5C24.7,38,25.4,41.8,26.7,44z"/>
<path class="st1" d="M73,28h-8v12.8c0,2.4,0.2,3.9,0.5,4.7c0.3,0.8,1.2,1.2,2.7,1.2l4.8-0.2l0.3,5.1c-2.6,0.5-4.6,0.8-5.9,0.8
	c-3.3,0-5.6-0.8-6.8-2.3s-1.8-4.4-1.8-8.6V28h-4.5v-5.4h4.5v-8.5h6.3v8.5h8L73,28L73,28z"/>
</svg>
