<?xml version="1.0" encoding="UTF-8" standalone="no"?>
<!-- Created with Inkscape (http://www.inkscape.org/) -->

<svg
   xmlns:dc="http://purl.org/dc/elements/1.1/"
   xmlns:cc="http://creativecommons.org/ns#"
   xmlns:rdf="http://www.w3.org/1999/02/22-rdf-syntax-ns#"
   xmlns:svg="http://www.w3.org/2000/svg"
   xmlns="http://www.w3.org/2000/svg"
   xmlns:sodipodi="http://sodipodi.sourceforge.net/DTD/sodipodi-0.dtd"
   xmlns:inkscape="http://www.inkscape.org/namespaces/inkscape"
   width="96"
   height="96"
   id="svg4874"
   version="1.1"
   inkscape:version="0.92.2 (5c3e80d, 2017-08-06)"
   viewBox="0 0 96 96.000001"
   sodipodi:docname="magic.svg">
  <defs
     id="defs4876" />
  <sodipodi:namedview
     id="base"
     pagecolor="#ffffff"
     bordercolor="#666666"
     borderopacity="1.0"
     inkscape:pageopacity="0.0"
     inkscape:pageshadow="2"
     inkscape:zoom="22.627417"
     inkscape:cx="54.176835"
     inkscape:cy="72.222857"
     inkscape:document-units="px"
     inkscape:current-layer="g4780"
     showgrid="false"
     showborder="true"
     fit-margin-top="0"
     fit-margin-left="0"
     fit-margin-right="0"
     fit-margin-bottom="0"
     inkscape:snap-bbox="true"
     inkscape:bbox-paths="true"
     inkscape:bbox-nodes="true"
     inkscape:snap-bbox-edge-midpoints="true"
     inkscape:snap-bbox-midpoints="true"
     inkscape:object-paths="true"
     inkscape:snap-intersection-paths="true"
     inkscape:object-nodes="true"
     inkscape:snap-smooth-nodes="true"
     inkscape:snap-midpoints="true"
     inkscape:snap-object-midpoints="true"
     inkscape:snap-center="true"
     showguides="true"
     inkscape:guide-bbox="true"
     inkscape:snap-global="true"
     inkscape:window-width="2880"
     inkscape:window-height="1698"
     inkscape:window-x="0"
     inkscape:window-y="44"
     inkscape:window-maximized="1">
    <inkscape:grid
       type="xygrid"
       id="grid5451"
       empspacing="8" />
    <sodipodi:guide
       orientation="1,0"
       position="8,-8.0000001"
       id="guide4063"
       inkscape:locked="false" />
    <sodipodi:guide
       orientation="1,0"
       position="4,-8.0000001"
       id="guide4065"
       inkscape:locked="false" />
    <sodipodi:guide
       orientation="0,1"
       position="-8,88.000001"
       id="guide4067"
       inkscape:locked="false" />
    <sodipodi:guide
       orientation="0,1"
       position="-8,92.000001"
       id="guide4069"
       inkscape:locked="false" />
    <sodipodi:guide
       orientation="0,1"
       position="104,4"
       id="guide4071"
       inkscape:locked="false" />
    <sodipodi:guide
       orientation="0,1"
       position="-5,8.0000001"
       id="guide4073"
       inkscape:locked="false" />
    <sodipodi:guide
       orientation="1,0"
       position="92,-8.0000001"
       id="guide4075"
       inkscape:locked="false" />
    <sodipodi:guide
       orientation="1,0"
       position="88,-8.0000001"
       id="guide4077"
       inkscape:locked="false" />
    <sodipodi:guide
       orientation="0,1"
       position="-8,84.000001"
       id="guide4074"
       inkscape:locked="false" />
    <sodipodi:guide
       orientation="1,0"
       position="12,-8.0000001"
       id="guide4076"
       inkscape:locked="false" />
    <sodipodi:guide
       orientation="0,1"
       position="-5,12"
       id="guide4078"
       inkscape:locked="false" />
    <sodipodi:guide
       orientation="1,0"
       position="84,-9.0000001"
       id="guide4080"
       inkscape:locked="false" />
    <sodipodi:guide
       position="48,-8.0000001"
       orientation="1,0"
       id="guide4170"
       inkscape:locked="false" />
    <sodipodi:guide
       position="-8,48"
       orientation="0,1"
       id="guide4172"
       inkscape:locked="false" />
  </sodipodi:namedview>
  <metadata
     id="metadata4879">
    <rdf:RDF>
      <cc:Work
         rdf:about="">
        <dc:format>image/svg+xml</dc:format>
        <dc:type
           rdf:resource="http://purl.org/dc/dcmitype/StillImage" />
        <dc:title />
      </cc:Work>
    </rdf:RDF>
  </metadata>
  <g
     inkscape:label="Layer 1"
     inkscape:groupmode="layer"
     id="layer1"
     transform="translate(67.857146,-78.50504)">
    <g
       transform="matrix(0,-1,-1,0,373.50506,516.50504)"
       id="g4845"
       style="display:inline">
      <g
         inkscape:export-ydpi="90"
         inkscape:export-xdpi="90"
         inkscape:export-filename="next01.png"
         transform="matrix(-0.9996045,0,0,1,575.94296,-611.00001)"
         id="g4778"
         inkscape:label="Layer 1">
        <g
           transform="matrix(-1,0,0,1,575.99999,611)"
           id="g4780"
           style="display:inline">
          <rect
             style="color:#000000;display:inline;overflow:visible;visibility:visible;fill:none;stroke:none;stroke-width:4;marker:none;enable-background:accumulate"
             id="rect4782"
             width="96.037987"
             height="96"
             x="-438.00244"
             y="345.36221"
             transform="scale(-1,1)" />
          <g
             id="g1894"
             transform="matrix(0.8660254,0.49980225,-0.50019783,0.8660254,249.00681,-142.21407)">
            <path
               style="color:#000000;font-style:normal;font-variant:normal;font-weight:normal;font-stretch:normal;font-size:medium;line-height:normal;font-family:sans-serif;font-variant-ligatures:normal;font-variant-position:normal;font-variant-caps:normal;font-variant-numeric:normal;font-variant-alternates:normal;font-feature-settings:normal;text-indent:0;text-align:start;text-decoration:none;text-decoration-line:none;text-decoration-style:solid;text-decoration-color:#000000;letter-spacing:normal;word-spacing:normal;text-transform:none;writing-mode:lr-tb;direction:ltr;text-orientation:mixed;dominant-baseline:auto;baseline-shift:baseline;text-anchor:start;white-space:normal;shape-padding:0;clip-rule:nonzero;display:inline;overflow:visible;visibility:visible;opacity:1;isolation:auto;mix-blend-mode:normal;color-interpolation:sRGB;color-interpolation-filters:linearRGB;solid-color:#000000;solid-opacity:1;vector-effect:none;fill:#808080;fill-opacity:1;fill-rule:nonzero;stroke:none;stroke-width:3.00094485;stroke-linecap:butt;stroke-linejoin:miter;stroke-miterlimit:4;stroke-dasharray:none;stroke-dashoffset:0;stroke-opacity:1;color-rendering:auto;image-rendering:auto;shape-rendering:auto;text-rendering:auto;enable-background:accumulate"
               d="m 29.755859,6.5097656 c -0.654123,0.047511 -1.307124,0.2389046 -1.908203,0.5859375 l -5.195312,2.9999999 c -2.13716,1.23389 -2.881855,4.012097 -1.648438,6.148438 l 17.476563,30.271484 c 3.009096,-0.472374 6.067623,-1.095125 9.109375,-1.910156 2.084295,-0.558488 4.092919,-1.18961 6.037109,-1.861328 L 33.996094,8.7421875 C 33.225208,7.4069744 31.85184,6.6144936 30.408203,6.5097656 c -0.216545,-0.015709 -0.434302,-0.015837 -0.652344,0 z m 0.453125,2.9746094 c 0.475623,0.029654 0.919634,0.2958079 1.1875,0.759766 l 5.5,9.52539 -7.792968,4.5 -5.5,-9.527343 C 23.17493,13.999856 23.410844,13.121464 24.152344,12.693359 L 29.349609,9.6933594 C 29.627675,9.5328181 29.923611,9.4665826 30.208984,9.484375 Z m 26.746094,39.025391 c -1.814693,0.583376 -3.660039,1.143112 -5.560547,1.652343 -3.249871,0.870815 -6.450488,1.575325 -9.576172,2.134766 l 20.185547,34.960937 c 1.233417,2.136341 4.011278,2.880375 6.148438,1.646485 l 5.197265,-3 c 2.137169,-1.233895 2.879902,-4.010144 1.646485,-6.146485 z m 9.941406,23.220703 5.5,9.527343 c 0.428586,0.742332 0.194634,1.618765 -0.546875,2.046876 l -5.197265,3 c -0.7415,0.428104 -1.620243,0.195456 -2.048828,-0.546876 l -5.5,-9.527343 z"
               transform="matrix(-0.50019783,-0.8660254,-0.86636805,0.5,455.57862,410.93144)"
               id="rect1888"
               inkscape:connector-curvature="0"
               sodipodi:nodetypes="scccccccsssccccccsccccccccccccccc" />
          </g>
          <path
             sodipodi:type="star"
             style="fill:#808080;fill-opacity:1;stroke:none;stroke-width:1;stroke-miterlimit:4;stroke-dasharray:none;stroke-opacity:1"
             id="path1903"
             sodipodi:sides="5"
             sodipodi:cx="12"
             sodipodi:cy="63.807842"
             sodipodi:r1="11.632512"
             sodipodi:r2="5.8162556"
             sodipodi:arg1="1.3326172"
             sodipodi:arg2="1.9609357"
             inkscape:flatsided="false"
             inkscape:rounded="0"
             inkscape:randomized="0"
             d="m 14.7445,75.111959 -4.9565227,-5.924918 -7.6907342,0.72414 4.1032818,-6.544833 -3.0652651,-7.090552 7.4924902,1.879988 5.796296,-5.106341 0.527332,7.70673 6.647573,3.934659 -7.166581,2.883033 z"
             transform="matrix(0,-1,-1.0003957,0,433.33151,433.80227)"
             inkscape:transform-center-x="-0.84809303"
             inkscape:transform-center-y="0.27286362" />
          <path
             sodipodi:type="star"
             style="fill:#808080;fill-opacity:1;stroke:none;stroke-width:1;stroke-miterlimit:4;stroke-dasharray:none;stroke-opacity:1"
             id="path1905"
             sodipodi:sides="5"
             sodipodi:cx="14.86737"
             sodipodi:cy="34.318844"
             sodipodi:r1="6.986371"
             sodipodi:r2="3.4931855"
             sodipodi:arg1="0.97303794"
             sodipodi:arg2="1.6013565"
             inkscape:flatsided="false"
             inkscape:rounded="0"
             inkscape:randomized="0"
             d="m 18.799236,40.093773 -4.038602,-2.283375 -4.170535,2.032424 0.923622,-4.54654 -3.2217163,-3.338361 4.6094313,-0.526542 2.179405,-4.095644 1.925164,4.22112 4.568662,0.807113 -3.419615,3.135337 z"
             transform="matrix(0,-1,-1.0003957,0,435.29822,435.88751)"
             inkscape:transform-center-x="-0.065962241"
             inkscape:transform-center-y="-0.6040865" />
          <path
             sodipodi:type="star"
             style="fill:#808080;fill-opacity:1;stroke:none;stroke-width:1;stroke-miterlimit:4;stroke-dasharray:none;stroke-opacity:1"
             id="path1907"
             sodipodi:sides="5"
             sodipodi:cx="69.667763"
             sodipodi:cy="48"
             sodipodi:r1="7.9908891"
             sodipodi:r2="3.9954443"
             sodipodi:arg1="0.86871607"
             sodipodi:arg2="1.4970346"
             inkscape:flatsided="false"
             inkscape:rounded="0"
             inkscape:randomized="0"
             d="m 74.828338,54.101047 -4.866132,-2.116467 -4.502178,2.808746 0.509162,-5.28199 -4.062526,-3.413877 5.180811,-1.147982 1.9914,-4.918638 2.692755,4.572498 5.293279,0.373992 -3.516597,3.973941 z"
             transform="matrix(0,-1,-1.0003957,0,423.1292,432.66883)"
             inkscape:transform-center-x="0.18198021"
             inkscape:transform-center-y="-0.58791341" />
          <path
             sodipodi:type="star"
             style="fill:#808080;fill-opacity:1;stroke:none;stroke-width:1;stroke-miterlimit:4;stroke-dasharray:none;stroke-opacity:1"
             id="path1909"
             sodipodi:sides="5"
             sodipodi:cx="8"
             sodipodi:cy="11.999999"
             sodipodi:r1="7.0902119"
             sodipodi:r2="3.5451059"
             sodipodi:arg1="0.97138318"
             sodipodi:arg2="1.5997017"
             inkscape:flatsided="false"
             inkscape:rounded="0"
             inkscape:randomized="0"
             d="M 12,17.854152 7.8975417,15.543624 3.6684378,17.613258 4.598151,12.997596 1.3229474,9.6150309 6,9.0729227 8.2049168,4.912749 l 1.9608642,4.2806207 4.637917,0.8114363 -3.465172,3.187677 z"
             transform="matrix(0,-1,-1.0003957,0,435.19471,439.528)"
             inkscape:transform-center-x="-0.06331877"
             inkscape:transform-center-y="-0.61654618" />
          <path
             style="fill:#808080;fill-opacity:1;stroke:none;stroke-width:1.5;stroke-miterlimit:4;stroke-dasharray:none;stroke-opacity:1"
             d="M 67.513672 10.917969 C 66.493152 10.917305 65.434004 10.953809 64.369141 10.996094 L 63.826172 12.373047 L 65.064453 14.210938 C 65.438421 14.244894 65.830087 14.264111 66.193359 14.306641 C 69.750679 14.723066 72.787297 15.544697 75.117188 16.794922 C 77.447076 18.045147 79.094458 19.763523 79.673828 21.923828 C 80.253028 24.084403 79.685229 26.394797 78.292969 28.642578 C 76.900689 30.890369 74.681094 33.122225 71.808594 35.261719 C 66.063594 39.540696 57.688946 43.452776 47.978516 46.054688 C 38.262796 48.657997 28.345412 49.532279 20.576172 48.769531 C 16.691562 48.388152 13.343288 47.602974 10.798828 46.375 C 8.2543682 45.147036 6.4596556 43.424899 5.9785156 41.189453 C 5.5911256 39.389645 6.2567856 37.391466 7.3847656 35.351562 C 8.5127356 33.31166 10.146742 31.211204 11.919922 29.259766 C 13.049542 28.016587 14.196023 27.034758 15.345703 25.978516 C 14.198123 26.64999 13.202239 27.096549 11.849609 28.130859 C 8.3114598 30.836369 5.6074594 33.583556 3.9746094 36.195312 C 2.3417594 38.80707 1.78282 41.231781 2.375 43.441406 C 2.96752 45.653121 4.6644394 47.502933 7.3808594 48.960938 C 10.097289 50.418941 13.808222 51.447488 18.226562 51.964844 C 27.063252 52.999564 38.717849 52.005538 51.005859 48.712891 C 63.293889 45.420372 73.884061 40.453139 81.019531 35.138672 C 84.587271 32.481433 87.286616 29.736177 88.910156 27.115234 C 90.533686 24.494281 91.079048 22.043686 90.486328 19.832031 C 89.893818 17.620326 88.196889 15.770503 85.480469 14.3125 C 82.764049 12.854487 79.053106 11.827912 74.634766 11.310547 C 72.425596 11.051864 70.041501 10.919613 67.513672 10.917969 z M 62.724609 11.078125 C 61.674769 11.140476 60.621418 11.20698 59.537109 11.310547 C 56.933931 11.559183 54.230913 11.939605 51.466797 12.429688 L 54.220703 15.048828 L 54.150391 14.304688 C 57.352761 13.998794 60.375476 13.925484 63.158203 14.064453 L 62.142578 12.558594 L 62.724609 11.078125 z "
             transform="matrix(0,-1,-1.0003957,0,438.00245,441.36222)"
             id="path1945" />
          <path
             sodipodi:type="star"
             style="fill:#808080;fill-opacity:1;stroke:none;stroke-width:1.5;stroke-miterlimit:4;stroke-dasharray:none;stroke-opacity:1"
             id="path1970"
             sodipodi:sides="5"
             sodipodi:cx="46.3125"
             sodipodi:cy="5.5"
             sodipodi:r1="13.101168"
             sodipodi:r2="6.5505843"
             sodipodi:arg1="0.51914607"
             sodipodi:arg2="1.1474646"
             inkscape:flatsided="false"
             inkscape:rounded="0"
             inkscape:randomized="0"
             d="m 57.687499,11.999999 -8.684017,-0.527665 -5.35778,6.854543 -2.18167,-8.4220481 -8.174703,-2.9773817 7.335671,-4.6774469 0.305536,-8.6946667 6.715363,5.53122727 8.363535,-2.39621797 -3.185348,8.0959334 z"
             transform="matrix(0,-0.87442092,-0.87476693,0,429.6294,425.38564)"
             inkscape:transform-center-x="0.72060319"
             inkscape:transform-center-y="0.38571588" />
        </g>
      </g>
    </g>
  </g>
</svg>
