<?xml version="1.0" encoding="UTF-8" standalone="no"?>
<!-- Created with Inkscape (http://www.inkscape.org/) -->

<svg
   xmlns:dc="http://purl.org/dc/elements/1.1/"
   xmlns:cc="http://creativecommons.org/ns#"
   xmlns:rdf="http://www.w3.org/1999/02/22-rdf-syntax-ns#"
   xmlns:svg="http://www.w3.org/2000/svg"
   xmlns="http://www.w3.org/2000/svg"
   xmlns:sodipodi="http://sodipodi.sourceforge.net/DTD/sodipodi-0.dtd"
   xmlns:inkscape="http://www.inkscape.org/namespaces/inkscape"
   width="96"
   height="96"
   id="svg4874"
   version="1.1"
   inkscape:version="0.92.2 (5c3e80d, 2017-08-06)"
   viewBox="0 0 96 96.000001"
   sodipodi:docname="magic.svg">
  <defs
     id="defs4876" />
  <sodipodi:namedview
     id="base"
     pagecolor="#ffffff"
     bordercolor="#666666"
     borderopacity="1.0"
     inkscape:pageopacity="0.0"
     inkscape:pageshadow="2"
     inkscape:zoom="2.8284272"
     inkscape:cx="72.011163"
     inkscape:cy="30.205758"
     inkscape:document-units="px"
     inkscape:current-layer="g4780"
     showgrid="false"
     showborder="true"
     fit-margin-top="0"
     fit-margin-left="0"
     fit-margin-right="0"
     fit-margin-bottom="0"
     inkscape:snap-bbox="true"
     inkscape:bbox-paths="true"
     inkscape:bbox-nodes="true"
     inkscape:snap-bbox-edge-midpoints="true"
     inkscape:snap-bbox-midpoints="true"
     inkscape:object-paths="true"
     inkscape:snap-intersection-paths="true"
     inkscape:object-nodes="true"
     inkscape:snap-smooth-nodes="true"
     inkscape:snap-midpoints="true"
     inkscape:snap-object-midpoints="true"
     inkscape:snap-center="true"
     showguides="false"
     inkscape:guide-bbox="true"
     inkscape:snap-global="true"
     inkscape:window-width="2880"
     inkscape:window-height="1698"
     inkscape:window-x="0"
     inkscape:window-y="44"
     inkscape:window-maximized="1">
    <inkscape:grid
       type="xygrid"
       id="grid5451"
       empspacing="8"
       snapvisiblegridlinesonly="true"
       enabled="true" />
    <sodipodi:guide
       orientation="1,0"
       position="8,-8.0000001"
       id="guide4063"
       inkscape:locked="false" />
    <sodipodi:guide
       orientation="1,0"
       position="4,-8.0000001"
       id="guide4065"
       inkscape:locked="false" />
    <sodipodi:guide
       orientation="0,1"
       position="-8,88.000001"
       id="guide4067"
       inkscape:locked="false" />
    <sodipodi:guide
       orientation="0,1"
       position="-8,92.000001"
       id="guide4069"
       inkscape:locked="false" />
    <sodipodi:guide
       orientation="0,1"
       position="104,4"
       id="guide4071"
       inkscape:locked="false" />
    <sodipodi:guide
       orientation="0,1"
       position="-5,8.0000001"
       id="guide4073"
       inkscape:locked="false" />
    <sodipodi:guide
       orientation="1,0"
       position="92,-8.0000001"
       id="guide4075"
       inkscape:locked="false" />
    <sodipodi:guide
       orientation="1,0"
       position="88,-8.0000001"
       id="guide4077"
       inkscape:locked="false" />
    <sodipodi:guide
       orientation="0,1"
       position="-8,84.000001"
       id="guide4074"
       inkscape:locked="false" />
    <sodipodi:guide
       orientation="1,0"
       position="12,-8.0000001"
       id="guide4076"
       inkscape:locked="false" />
    <sodipodi:guide
       orientation="0,1"
       position="-5,12"
       id="guide4078"
       inkscape:locked="false" />
    <sodipodi:guide
       orientation="1,0"
       position="84,-9.0000001"
       id="guide4080"
       inkscape:locked="false" />
    <sodipodi:guide
       position="48,-8.0000001"
       orientation="1,0"
       id="guide4170"
       inkscape:locked="false" />
    <sodipodi:guide
       position="-8,48"
       orientation="0,1"
       id="guide4172"
       inkscape:locked="false" />
  </sodipodi:namedview>
  <metadata
     id="metadata4879">
    <rdf:RDF>
      <cc:Work
         rdf:about="">
        <dc:format>image/svg+xml</dc:format>
        <dc:type
           rdf:resource="http://purl.org/dc/dcmitype/StillImage" />
        <dc:title />
      </cc:Work>
    </rdf:RDF>
  </metadata>
  <g
     inkscape:label="Layer 1"
     inkscape:groupmode="layer"
     id="layer1"
     transform="translate(67.857146,-78.50504)">
    <g
       transform="matrix(0,-1,-1,0,373.50506,516.50504)"
       id="g4845"
       style="display:inline">
      <g
         inkscape:export-ydpi="90"
         inkscape:export-xdpi="90"
         inkscape:export-filename="next01.png"
         transform="matrix(-0.9996045,0,0,1,575.94296,-611.00001)"
         id="g4778"
         inkscape:label="Layer 1">
        <g
           transform="matrix(-1,0,0,1,575.99999,611)"
           id="g4780"
           style="display:inline">
          <rect
             style="color:#000000;display:inline;overflow:visible;visibility:visible;fill:none;stroke:none;stroke-width:4;marker:none;enable-background:accumulate"
             id="rect4782"
             width="96.037987"
             height="96"
             x="-438.00244"
             y="345.36221"
             transform="scale(-1,1)" />
          <g
             id="g1894"
             transform="matrix(0.8660254,0.49980225,-0.50019783,0.8660254,249.00681,-142.21407)">
            <path
               style="fill:none;fill-opacity:1;stroke:#808080;stroke-width:3.00094485;stroke-miterlimit:4;stroke-dasharray:none;stroke-opacity:1"
               d="M 30.308594 7.9980469 C 29.732649 7.9577855 29.137407 8.0829062 28.597656 8.3945312 L 23.402344 11.394531 C 21.96301 12.225531 21.473687 14.052853 22.304688 15.492188 L 40.070312 46.263672 C 42.564163 45.825188 45.083421 45.27706 47.589844 44.605469 C 49.160416 44.184634 50.68081 43.717115 52.173828 43.230469 L 32.695312 9.4921875 C 32.175937 8.5926036 31.268502 8.0651491 30.308594 7.9980469 z M 52.939453 44.556641 C 51.325707 45.088407 49.681399 45.5984 47.978516 46.054688 C 45.608831 46.68964 43.228725 47.217784 40.869141 47.648438 L 42.587891 50.625 C 45.343918 50.105213 48.154312 49.47698 51.005859 48.712891 C 52.265992 48.375244 53.496223 48.01012 54.71875 47.638672 L 52.939453 44.556641 z M 55.492188 48.976562 C 54.146813 49.389444 52.784982 49.789545 51.394531 50.162109 C 48.681709 50.88902 46.00943 51.484656 43.378906 51.994141 L 63.304688 86.507812 C 64.135688 87.947147 65.96301 88.436469 67.402344 87.605469 L 72.597656 84.605469 C 74.03699 83.774469 74.526313 81.947147 73.695312 80.507812 L 55.492188 48.976562 z "
               transform="matrix(-0.50019783,-0.8660254,-0.86636805,0.5,455.57862,410.93144)"
               id="rect1888" />
            <path
               style="fill:#808080;fill-opacity:1;stroke:none;stroke-width:3.00094485;stroke-miterlimit:4;stroke-dasharray:none;stroke-opacity:1"
               d="m 38.195312,19.019531 -10.390624,6 12.265624,21.244141 c 2.493851,-0.438484 5.013109,-0.986612 7.519532,-1.658203 1.570572,-0.420835 3.090966,-0.888354 4.583984,-1.375 z m 17.296876,29.957031 c -1.345375,0.412882 -2.707206,0.812983 -4.097657,1.185547 -2.712822,0.726911 -5.385101,1.322547 -8.015625,1.832032 l 14.425782,24.986328 10.390624,-6 z"
               id="rect1890"
               transform="matrix(-0.50019783,-0.8660254,-0.86636805,0.5,455.57862,410.93144)"
               inkscape:connector-curvature="0"
               sodipodi:nodetypes="cccccccccccc" />
          </g>
          <path
             sodipodi:type="star"
             style="fill:#808080;fill-opacity:1;stroke:none;stroke-width:1;stroke-miterlimit:4;stroke-dasharray:none;stroke-opacity:1"
             id="path1903"
             sodipodi:sides="5"
             sodipodi:cx="12"
             sodipodi:cy="63.807842"
             sodipodi:r1="11.632512"
             sodipodi:r2="5.8162556"
             sodipodi:arg1="1.3326172"
             sodipodi:arg2="1.9609357"
             inkscape:flatsided="false"
             inkscape:rounded="0"
             inkscape:randomized="0"
             d="m 14.7445,75.111959 -4.9565227,-5.924918 -7.6907342,0.72414 4.1032818,-6.544833 -3.0652651,-7.090552 7.4924902,1.879988 5.796296,-5.106341 0.527332,7.70673 6.647573,3.934659 -7.166581,2.883033 z"
             transform="matrix(0,-1,-1.0003957,0,433.33151,433.80227)"
             inkscape:transform-center-x="-0.84809303"
             inkscape:transform-center-y="0.27286362" />
          <path
             sodipodi:type="star"
             style="fill:#808080;fill-opacity:1;stroke:none;stroke-width:1;stroke-miterlimit:4;stroke-dasharray:none;stroke-opacity:1"
             id="path1905"
             sodipodi:sides="5"
             sodipodi:cx="14.86737"
             sodipodi:cy="34.318844"
             sodipodi:r1="6.986371"
             sodipodi:r2="3.4931855"
             sodipodi:arg1="0.97303794"
             sodipodi:arg2="1.6013565"
             inkscape:flatsided="false"
             inkscape:rounded="0"
             inkscape:randomized="0"
             d="m 18.799236,40.093773 -4.038602,-2.283375 -4.170535,2.032424 0.923622,-4.54654 -3.2217163,-3.338361 4.6094313,-0.526542 2.179405,-4.095644 1.925164,4.22112 4.568662,0.807113 -3.419615,3.135337 z"
             transform="matrix(0,-1,-1.0003957,0,435.29822,435.88751)"
             inkscape:transform-center-x="-0.065962241"
             inkscape:transform-center-y="-0.6040865" />
          <path
             sodipodi:type="star"
             style="fill:#808080;fill-opacity:1;stroke:none;stroke-width:1;stroke-miterlimit:4;stroke-dasharray:none;stroke-opacity:1"
             id="path1907"
             sodipodi:sides="5"
             sodipodi:cx="69.667763"
             sodipodi:cy="48"
             sodipodi:r1="7.9908891"
             sodipodi:r2="3.9954443"
             sodipodi:arg1="0.86871607"
             sodipodi:arg2="1.4970346"
             inkscape:flatsided="false"
             inkscape:rounded="0"
             inkscape:randomized="0"
             d="m 74.828338,54.101047 -4.866132,-2.116467 -4.502178,2.808746 0.509162,-5.28199 -4.062526,-3.413877 5.180811,-1.147982 1.9914,-4.918638 2.692755,4.572498 5.293279,0.373992 -3.516597,3.973941 z"
             transform="matrix(0,-1,-1.0003957,0,423.1292,432.66883)"
             inkscape:transform-center-x="0.18198021"
             inkscape:transform-center-y="-0.58791341" />
          <path
             sodipodi:type="star"
             style="fill:#808080;fill-opacity:1;stroke:none;stroke-width:1;stroke-miterlimit:4;stroke-dasharray:none;stroke-opacity:1"
             id="path1909"
             sodipodi:sides="5"
             sodipodi:cx="8"
             sodipodi:cy="11.999999"
             sodipodi:r1="7.0902119"
             sodipodi:r2="3.5451059"
             sodipodi:arg1="0.97138318"
             sodipodi:arg2="1.5997017"
             inkscape:flatsided="false"
             inkscape:rounded="0"
             inkscape:randomized="0"
             d="M 12,17.854152 7.8975417,15.543624 3.6684378,17.613258 4.598151,12.997596 1.3229474,9.6150309 6,9.0729227 8.2049168,4.912749 l 1.9608642,4.2806207 4.637917,0.8114363 -3.465172,3.187677 z"
             transform="matrix(0,-1,-1.0003957,0,435.19471,439.528)"
             inkscape:transform-center-x="-0.06331877"
             inkscape:transform-center-y="-0.61654618" />
          <path
             style="fill:#808080;fill-opacity:1;stroke:none;stroke-width:1.5;stroke-miterlimit:4;stroke-dasharray:none;stroke-opacity:1"
             d="M 67.513672 10.917969 C 64.985843 10.916324 62.314284 11.045287 59.537109 11.310547 C 56.933931 11.559183 54.230913 11.939606 51.466797 12.429688 L 54.220703 15.048828 L 54.150391 14.304688 C 58.555851 13.883874 62.636049 13.890175 66.193359 14.306641 C 69.750679 14.723066 72.787297 15.544697 75.117188 16.794922 C 77.447077 18.045147 79.094458 19.763523 79.673828 21.923828 C 80.253028 24.084403 79.685229 26.394797 78.292969 28.642578 C 76.900689 30.890369 74.681094 33.122225 71.808594 35.261719 C 66.063594 39.540696 57.688946 43.452777 47.978516 46.054688 C 38.262796 48.657997 28.345412 49.532279 20.576172 48.769531 C 16.691562 48.388152 13.343288 47.602974 10.798828 46.375 C 8.2543681 45.147036 6.4596556 43.424899 5.9785156 41.189453 C 5.5911256 39.389645 6.2567856 37.391465 7.3847656 35.351562 C 8.5127356 33.31166 10.146742 31.211204 11.919922 29.259766 C 13.049542 28.016587 14.196023 27.034758 15.345703 25.978516 C 14.198123 26.64999 13.202239 27.096549 11.849609 28.130859 C 8.3114594 30.836369 5.6074594 33.583556 3.9746094 36.195312 C 2.3417594 38.807069 1.78282 41.231781 2.375 43.441406 C 2.96752 45.653121 4.6644394 47.502934 7.3808594 48.960938 C 10.097289 50.418941 13.808222 51.447488 18.226562 51.964844 C 27.063252 52.999564 38.717849 52.005538 51.005859 48.712891 C 63.293889 45.420373 73.884061 40.453139 81.019531 35.138672 C 84.587271 32.481433 87.286616 29.736177 88.910156 27.115234 C 90.533686 24.494281 91.079048 22.043686 90.486328 19.832031 C 89.893818 17.620326 88.196889 15.770503 85.480469 14.3125 C 82.764049 12.854487 79.053106 11.827912 74.634766 11.310547 C 72.425596 11.051864 70.041501 10.919613 67.513672 10.917969 z "
             id="path1945"
             transform="matrix(0,-1,-1.0003957,0,438.00245,441.36222)" />
          <path
             sodipodi:type="star"
             style="fill:#808080;fill-opacity:1;stroke:#ffffff;stroke-width:1.5;stroke-miterlimit:4;stroke-dasharray:none;stroke-opacity:1"
             id="path1970"
             sodipodi:sides="5"
             sodipodi:cx="46.3125"
             sodipodi:cy="5.5"
             sodipodi:r1="13.101168"
             sodipodi:r2="6.5505843"
             sodipodi:arg1="0.51914607"
             sodipodi:arg2="1.1474646"
             inkscape:flatsided="false"
             inkscape:rounded="0"
             inkscape:randomized="0"
             d="m 57.687499,11.999999 -8.684017,-0.527665 -5.35778,6.854543 -2.18167,-8.4220481 -8.174703,-2.9773817 7.335671,-4.6774469 0.305536,-8.6946667 6.715363,5.53122727 8.363535,-2.39621797 -3.185348,8.0959334 z"
             transform="matrix(0,-1,-1.0003957,0,430.32036,431.20152)"
             inkscape:transform-center-x="0.82409001"
             inkscape:transform-center-y="0.44110773" />
          <path
             style="color:#000000;font-style:normal;font-variant:normal;font-weight:normal;font-stretch:normal;font-size:medium;line-height:normal;font-family:sans-serif;font-variant-ligatures:normal;font-variant-position:normal;font-variant-caps:normal;font-variant-numeric:normal;font-variant-alternates:normal;font-feature-settings:normal;text-indent:0;text-align:start;text-decoration:none;text-decoration-line:none;text-decoration-style:solid;text-decoration-color:#000000;letter-spacing:normal;word-spacing:normal;text-transform:none;writing-mode:lr-tb;direction:ltr;text-orientation:mixed;dominant-baseline:auto;baseline-shift:baseline;text-anchor:start;white-space:normal;shape-padding:0;clip-rule:nonzero;display:inline;overflow:visible;visibility:visible;opacity:1;isolation:auto;mix-blend-mode:normal;color-interpolation:sRGB;color-interpolation-filters:linearRGB;solid-color:#000000;solid-opacity:1;vector-effect:none;fill:#ff3dff;fill-opacity:1;fill-rule:nonzero;stroke:none;stroke-width:1.50029671;stroke-linecap:butt;stroke-linejoin:miter;stroke-miterlimit:4;stroke-dasharray:none;stroke-dashoffset:0;stroke-opacity:1;color-rendering:auto;image-rendering:auto;shape-rendering:auto;text-rendering:auto;enable-background:accumulate"
             d="m 416.48828,349.14453 c -2.09199,-0.0241 -4.26,0.70397 -6.40039,2.0293 -2.85386,1.76711 -5.7029,4.5987 -8.43945,8.27148 -5.47311,7.34556 -10.49257,18.07774 -13.82813,30.52149 -3.33566,12.44372 -4.35859,24.24678 -3.29297,33.34375 0.53281,4.54848 1.58618,8.42211 3.17383,11.3789 1.58765,2.9568 3.75008,5.02172 6.45508,5.7461 2.70697,0.72518 5.5914,-0.002 8.43164,-1.77735 2.84024,-1.77499 5.68531,-4.60085 8.46484,-8.23437 3.85709,-5.04215 5.06812,-9.08101 5.65235,-10.48633 h -0.002 c 5.9e-4,-0.001 0.003,-0.004 0.004,-0.006 l -1.38867,-0.56836 c -5e-4,0.001 -0.001,0.005 -0.002,0.006 -2.1e-4,5e-4 -0.002,0.001 -0.002,0.002 -0.25972,0.64229 -1.2251,2.1002 -2.58203,3.73438 -1.35774,1.63516 -3.11592,3.50639 -5.00976,5.22656 -1.89385,1.72018 -3.92855,3.2907 -5.8125,4.33203 -1.88396,1.04133 -3.599,1.50968 -4.79688,1.25196 -1.6406,-0.35298 -3.0406,-1.70314 -4.15234,-4.00586 -1.11175,-2.30272 -1.88397,-5.50482 -2.25391,-9.27149 -0.73988,-7.53333 0.11212,-17.31777 2.67188,-26.86719 2.5612,-9.55471 6.42665,-17.78736 10.55078,-23.32226 2.06206,-2.76745 4.19024,-4.85677 6.20703,-6.10547 2.01678,-1.2487 3.87589,-1.65428 5.54492,-1.20703 1.66882,0.44738 3.07556,1.72879 4.19727,3.81836 1.1217,2.08956 1.91896,4.96147 2.32031,8.38867 0.40135,3.42719 0.41248,7.40815 0,11.72461 l 1.49219,0.14258 c 0.42098,-4.40546 0.41463,-8.48566 -0.002,-12.04297 -0.41659,-3.55732 -1.23756,-6.59394 -2.48828,-8.92383 -1.25072,-2.32989 -2.9697,-3.97727 -5.13086,-4.55664 -2.16143,-0.5792 -4.47398,-0.0114 -6.72265,1.38086 -2.24868,1.39228 -4.48076,3.61187 -6.6211,6.48437 -4.28067,5.745 -8.19393,14.11965 -10.79687,23.83008 -2.60434,9.71572 -3.47985,19.63311 -2.7168,27.40235 0.38153,3.88461 1.16803,7.23288 2.39649,9.77734 1.22845,2.54446 2.95117,4.33917 5.1875,4.82031 1.80052,0.38739 3.79913,-0.27827 5.83984,-1.40625 2.04071,-1.12797 4.14154,-2.76197 6.09375,-4.53515 1.24367,-1.12962 2.22654,-2.27611 3.2832,-3.42579 -0.67174,1.14758 -1.11762,2.14347 -2.15234,3.4961 -2.70658,3.53815 -5.45557,6.24215 -8.06836,7.875 -2.61279,1.63285 -5.0395,2.19179 -7.25,1.59961 -2.21259,-0.59252 -4.06291,-2.28944 -5.52149,-5.00586 -1.45858,-2.71643 -2.48634,-6.42736 -3.0039,-10.8457 -1.03513,-8.83669 -0.042,-20.49129 3.25195,-32.7793 3.29382,-12.28803 8.26351,-22.8782 13.58008,-30.01367 2.65829,-3.56774 5.40536,-6.26709 8.02734,-7.89063 2.62199,-1.62353 5.07263,-2.16889 7.28516,-1.57617 2.21258,0.59251 4.0629,2.28944 5.52148,5.00586 1.45859,2.71642 2.48634,6.42736 3.00391,10.8457 0.51757,4.41834 0.53073,9.54331 0,15.09766 -0.26536,2.77718 -0.66654,5.66077 -1.20703,8.61914 l 1.47656,0.26953 c 0.54791,-2.99895 0.95499,-5.92441 1.22461,-8.74609 0.53923,-5.64335 0.52891,-10.86754 -0.004,-15.41602 -0.53281,-4.54849 -1.58422,-8.42406 -3.17187,-11.38086 -1.58765,-2.95679 -3.75007,-5.01976 -6.45508,-5.74414 -0.67623,-0.18116 -1.36517,-0.2732 -2.0625,-0.28125 z"
             id="path943"
             inkscape:connector-curvature="0" />
          <path
             inkscape:connector-curvature="0"
             id="path958"
             d="m 416.48828,349.14453 c -2.09199,-0.0241 -4.26,0.70397 -6.40039,2.0293 -2.85386,1.76711 -5.7029,4.5987 -8.43945,8.27148 -5.47311,7.34556 -10.49257,18.07774 -13.82813,30.52149 -3.33566,12.44372 -4.35859,24.24678 -3.29297,33.34375 0.53281,4.54848 1.58618,8.42211 3.17383,11.3789 1.58765,2.9568 3.75008,5.02172 6.45508,5.7461 2.70697,0.72518 5.5914,-0.002 8.43164,-1.77735 2.84024,-1.77499 5.68531,-4.60085 8.46484,-8.23437 3.85709,-5.04215 5.06812,-9.08101 5.65235,-10.48633 h -0.002 c 5.9e-4,-0.001 0.003,-0.004 0.004,-0.006 l -1.38867,-0.56836 c -5e-4,0.001 -0.001,0.005 -0.002,0.006 -2.1e-4,5e-4 -0.002,0.001 -0.002,0.002 -0.25972,0.64229 -1.2251,2.1002 -2.58203,3.73438 -1.35774,1.63516 -3.11592,3.50639 -5.00976,5.22656 -1.89385,1.72018 -3.92855,3.2907 -5.8125,4.33203 -1.88396,1.04133 -3.599,1.50968 -4.79688,1.25196 -1.6406,-0.35298 -3.0406,-1.70314 -4.15234,-4.00586 -1.11175,-2.30272 -1.88397,-5.50482 -2.25391,-9.27149 -0.73988,-7.53333 0.11212,-17.31777 2.67188,-26.86719 2.5612,-9.55471 6.42665,-17.78736 10.55078,-23.32226 2.06206,-2.76745 4.19024,-4.85677 6.20703,-6.10547 2.01678,-1.2487 3.87589,-1.65428 5.54492,-1.20703 1.66882,0.44738 3.07556,1.72879 4.19727,3.81836 1.1217,2.08956 1.91896,4.96147 2.32031,8.38867 0.40135,3.42719 0.41248,7.40815 0,11.72461 l 1.49219,0.14258 c 0.42098,-4.40546 0.41463,-8.48566 -0.002,-12.04297 -0.41659,-3.55732 -1.23756,-6.59394 -2.48828,-8.92383 -1.25072,-2.32989 -2.9697,-3.97727 -5.13086,-4.55664 -2.16143,-0.5792 -4.47398,-0.0114 -6.72265,1.38086 -2.24868,1.39228 -4.48076,3.61187 -6.6211,6.48437 -4.28067,5.745 -8.19393,14.11965 -10.79687,23.83008 -2.60434,9.71572 -3.47985,19.63311 -2.7168,27.40235 0.38153,3.88461 1.16803,7.23288 2.39649,9.77734 1.22845,2.54446 2.95117,4.33917 5.1875,4.82031 1.80052,0.38739 3.79913,-0.27827 5.83984,-1.40625 2.04071,-1.12797 4.14154,-2.76197 6.09375,-4.53515 1.24367,-1.12962 2.22654,-2.27611 3.2832,-3.42579 -0.67174,1.14758 -1.11762,2.14347 -2.15234,3.4961 -2.70658,3.53815 -5.45557,6.24215 -8.06836,7.875 -2.61279,1.63285 -5.0395,2.19179 -7.25,1.59961 -2.21259,-0.59252 -4.06291,-2.28944 -5.52149,-5.00586 -1.45858,-2.71643 -2.48634,-6.42736 -3.0039,-10.8457 -1.03513,-8.83669 -0.042,-20.49129 3.25195,-32.7793 3.29382,-12.28803 8.26351,-22.8782 13.58008,-30.01367 2.65829,-3.56774 5.40536,-6.26709 8.02734,-7.89063 2.62199,-1.62353 5.07263,-2.16889 7.28516,-1.57617 2.21258,0.59251 4.0629,2.28944 5.52148,5.00586 1.45859,2.71642 2.48634,6.42736 3.00391,10.8457 0.51757,4.41834 0.53073,9.54331 0,15.09766 -0.26536,2.77718 -0.66654,5.66077 -1.20703,8.61914 l 1.47656,0.26953 c 0.54791,-2.99895 0.95499,-5.92441 1.22461,-8.74609 0.53923,-5.64335 0.52891,-10.86754 -0.004,-15.41602 -0.53281,-4.54849 -1.58422,-8.42406 -3.17187,-11.38086 -1.58765,-2.95679 -3.75007,-5.01976 -6.45508,-5.74414 -0.67623,-0.18116 -1.36517,-0.2732 -2.0625,-0.28125 z"
             style="color:#000000;font-style:normal;font-variant:normal;font-weight:normal;font-stretch:normal;font-size:medium;line-height:normal;font-family:sans-serif;font-variant-ligatures:normal;font-variant-position:normal;font-variant-caps:normal;font-variant-numeric:normal;font-variant-alternates:normal;font-feature-settings:normal;text-indent:0;text-align:start;text-decoration:none;text-decoration-line:none;text-decoration-style:solid;text-decoration-color:#000000;letter-spacing:normal;word-spacing:normal;text-transform:none;writing-mode:lr-tb;direction:ltr;text-orientation:mixed;dominant-baseline:auto;baseline-shift:baseline;text-anchor:start;white-space:normal;shape-padding:0;clip-rule:nonzero;display:inline;overflow:visible;visibility:visible;opacity:1;isolation:auto;mix-blend-mode:normal;color-interpolation:sRGB;color-interpolation-filters:linearRGB;solid-color:#000000;solid-opacity:1;vector-effect:none;fill:#003dff;fill-opacity:1;fill-rule:nonzero;stroke:none;stroke-width:1.50029671;stroke-linecap:butt;stroke-linejoin:miter;stroke-miterlimit:4;stroke-dasharray:none;stroke-dashoffset:0;stroke-opacity:1;color-rendering:auto;image-rendering:auto;shape-rendering:auto;text-rendering:auto;enable-background:accumulate" />
        </g>
      </g>
    </g>
  </g>
</svg>
