<?xml version="1.0" encoding="UTF-8" standalone="no"?>
<!-- Created with Inkscape (http://www.inkscape.org/) -->

<svg
   xmlns:dc="http://purl.org/dc/elements/1.1/"
   xmlns:cc="http://creativecommons.org/ns#"
   xmlns:rdf="http://www.w3.org/1999/02/22-rdf-syntax-ns#"
   xmlns:svg="http://www.w3.org/2000/svg"
   xmlns="http://www.w3.org/2000/svg"
   xmlns:sodipodi="http://sodipodi.sourceforge.net/DTD/sodipodi-0.dtd"
   xmlns:inkscape="http://www.inkscape.org/namespaces/inkscape"
   id="svg4874"
   height="96"
   viewBox="0 0 96 96.000001"
   width="96"
   version="1.1"
   sodipodi:docname="awning-010.svg"
   inkscape:version="0.92.3 (2405546, 2018-03-11)">
  <defs
     id="defs875" />
  <sodipodi:namedview
     pagecolor="#ffffff"
     bordercolor="#666666"
     borderopacity="1"
     objecttolerance="10"
     gridtolerance="10"
     guidetolerance="10"
     inkscape:pageopacity="0"
     inkscape:pageshadow="2"
     inkscape:window-width="2880"
     inkscape:window-height="1698"
     id="namedview873"
     showgrid="true"
     inkscape:zoom="56.041668"
     inkscape:cx="72.582805"
     inkscape:cy="69.538211"
     inkscape:window-x="0"
     inkscape:window-y="44"
     inkscape:window-maximized="1"
     inkscape:current-layer="svg4874">
    <inkscape:grid
       type="xygrid"
       id="grid3382" />
  </sodipodi:namedview>
  <metadata
     id="metadata4879">
    <rdf:RDF>
      <cc:Work
         rdf:about="">
        <dc:format>image/svg+xml</dc:format>
        <dc:type
           rdf:resource="http://purl.org/dc/dcmitype/StillImage" />
        <dc:title></dc:title>
      </cc:Work>
    </rdf:RDF>
  </metadata>
  <rect
     x="-2.7465819e-06"
     y="-96"
     width="96"
     height="96"
     transform="rotate(90)"
     style="color:#000000;fill:none"
     id="rect4782" />
  <path
     inkscape:connector-curvature="0"
     d="m 79.10294,17.5322 c -0.66,-1.759 -1.851,-3.163 -3.356,-3.994 -3.011,-1.661 -6.692,-1.483 -11.725,-1.541 h -0.01172 -32.023 -0.01172 l 5e-4,0.0038 c -5.0328,0.05818 -8.7136,-0.12028 -11.725,1.541 -1.5055,0.83064 -2.6968,2.2356 -3.3555,3.9902 -0.65866,1.7547 -0.89648,3.8383 -0.899898,6.531203 -0.0034,2.692903 0.234402,4.774603 0.893062,6.529303 0.65866,1.7546 1.85,3.1596 3.3555,3.9902 3.011,1.6613 6.6918,1.4848 11.725,1.543 h 0.01172 l 32.036191,-0.08721 h 0.01172 c 5.0328,-0.0582 8.7136,0.11832 11.725,-1.543 1.5055,-0.83064 2.6968,-2.2356 3.3555,-3.9902 0.65866,-1.7547 0.89648,-3.8364 0.893303,-6.485648 C 79.99942,21.3706 79.7616,19.2869 79.10294,17.5322 Z m -3.737745,11.568998 c -0.39025,1.0396 -0.80933,1.4878 -1.543,1.8926 -1.4645,0.80804 -4.7782,0.98616 -9.8164,1.0449 l -31.990191,0.08721 h -0.02344 c -5.0383,-0.0588 -8.3519,-0.23688 -9.8164,-1.0449 -0.73364,-0.40478 -1.1508,-0.85296 -1.541,-1.8926 -0.39025,-1.0396 -0.64258,-2.6929 -0.639162,-5.124952 0.0034,-2.432053 0.255738,-4.085353 0.645998,-5.124953 0.39025,-1.0396 0.80738,-1.4878 1.541,-1.8926 1.4645,-0.80804 4.7782,-0.98616 9.8164,-1.0449 h 4.4e-4 32 c 5.0383,0.05877 8.3519,0.23688 9.8164,1.0449 0.73364,0.40478 1.1527,0.85295 1.543,1.8926 0.39025,1.0396 0.64062,2.6929 0.643798,5.081348 0.0032,2.388447 -0.247193,4.041747 -0.637443,5.081347 z"
     style="color:#000000;font-variant-ligatures:none;font-variant-position:normal;font-variant-caps:normal;font-variant-numeric:normal;font-variant-alternates:normal;font-feature-settings:normal;text-indent:0;text-decoration:none;text-decoration-line:none;text-decoration-style:solid;text-decoration-color:#000000;text-transform:none;white-space:normal;shape-padding:0;isolation:auto;mix-blend-mode:normal;solid-color:#000000;fill:#808080;color-rendering:auto;image-rendering:auto;shape-rendering:auto"
     id="path4179"
     sodipodi:nodetypes="ccccccccccccccccccccccccccccccccccccc" />
</svg>
