<?xml version="1.0" encoding="UTF-8" standalone="no"?>
<svg
   xmlns:dc="http://purl.org/dc/elements/1.1/"
   xmlns:cc="http://creativecommons.org/ns#"
   xmlns:rdf="http://www.w3.org/1999/02/22-rdf-syntax-ns#"
   xmlns:svg="http://www.w3.org/2000/svg"
   xmlns="http://www.w3.org/2000/svg"
   xmlns:sodipodi="http://sodipodi.sourceforge.net/DTD/sodipodi-0.dtd"
   xmlns:inkscape="http://www.inkscape.org/namespaces/inkscape"
   width="120.26458mm"
   height="169.68445mm"
   viewBox="0 0 120.26458 169.68445"
   version="1.1"
   id="svg8"
   inkscape:version="1.0.2 (e86c870879, 2021-01-15)"
   sodipodi:docname="wireless-connection.svg">
  <defs
     id="defs2" />
  <sodipodi:namedview
     id="base"
     pagecolor="#ffffff"
     bordercolor="#666666"
     borderopacity="1.0"
     inkscape:pageopacity="0.0"
     inkscape:pageshadow="2"
     inkscape:zoom="2.3237061"
     inkscape:cx="207.97303"
     inkscape:cy="494.1004"
     inkscape:document-units="mm"
     inkscape:current-layer="layer1"
     inkscape:document-rotation="0"
     showgrid="true"
     inkscape:window-width="1464"
     inkscape:window-height="933"
     inkscape:window-x="72"
     inkscape:window-y="27"
     inkscape:window-maximized="1"
     fit-margin-top="10"
     fit-margin-left="10"
     fit-margin-right="10"
     fit-margin-bottom="10"
     lock-margins="true">
    <inkscape:grid
       type="xygrid"
       id="grid974" />
  </sodipodi:namedview>
  <metadata
     id="metadata5">
    <rdf:RDF>
      <cc:Work
         rdf:about="">
        <dc:format>image/svg+xml</dc:format>
        <dc:type
           rdf:resource="http://purl.org/dc/dcmitype/StillImage" />
        <dc:title></dc:title>
      </cc:Work>
    </rdf:RDF>
  </metadata>
  <g
     inkscape:label="Layer 1"
     inkscape:groupmode="layer"
     id="layer1"
     transform="translate(-42.968191,-38.432539)">
    <rect
       style="fill:none;fill-opacity:1;stroke:#808080;stroke-width:1.32291667;stroke-linecap:round;stroke-linejoin:round;stroke-miterlimit:4;stroke-dasharray:none;stroke-opacity:1"
       id="rect833"
       width="100"
       height="100"
       x="53.100483"
       y="43.273163"
       rx="5"
       ry="5" />
    <path
       d="m 82.256559,114.06792 c 0.264583,-0.0662 0.619125,-0.13759 1.058333,-0.21167 a 9.1995624,9.1995624 0 0 1 1.516062,-0.11113 3.2570208,3.2570208 0 0 1 1.280584,0.21696 2.0187708,2.0187708 0 0 1 0.814916,0.60854 2.3415625,2.3415625 0 0 1 0.428625,0.93927 5.3498749,5.3498749 0 0 1 0.124354,1.2065 v 3.63273 h -1.156229 v -3.37079 a 5.6038749,5.6038749 0 0 0 -0.07937,-1.01864 1.7515416,1.7515416 0 0 0 -0.264583,-0.68527 1.0583333,1.0583333 0 0 0 -0.497417,-0.37836 2.1854583,2.1854583 0 0 0 -0.772583,-0.11906 c -0.124354,0 -0.251354,0 -0.383646,0.0132 -0.132292,0.0132 -0.264583,0.0185 -0.381,0.0318 -0.116416,0.0132 -0.227541,0.0265 -0.322791,0.0423 l -0.20373,0.037 v 5.461 h -1.158875 z"
       id="path903"
       style="fill:none;stroke:#808080;stroke-width:0.264583;stroke-opacity:1" />
    <path
       d="m 90.429538,121.55298 a 2.0372916,2.0372916 0 0 0 0.354541,0.11906 1.7012708,1.7012708 0 0 0 0.425979,0.0688 1.6801041,1.6801041 0 0 0 1.058334,-0.30427 3.07975,3.07975 0 0 0 0.732896,-1.07421 33.977791,33.977791 0 0 1 -1.497542,-3.07975 27.008666,27.008666 0 0 1 -1.124479,-3.38666 h 1.243541 c 0.08996,0.37306 0.201084,0.77523 0.328084,1.20385 0.127,0.42863 0.264583,0.87577 0.428625,1.32292 0.164041,0.44714 0.328083,0.91281 0.510646,1.36789 0.182562,0.45509 0.373062,0.89694 0.5715,1.32292 q 0.473604,-1.30704 0.820208,-2.58763 0.346604,-1.28058 0.658812,-2.64583 H 96.1366 q -0.447146,1.82563 -0.994833,3.51102 -0.547688,1.6854 -1.182688,3.15384 a 6.8421249,6.8421249 0 0 1 -0.515937,0.96308 2.8495625,2.8495625 0 0 1 -0.590021,0.6641 2.143125,2.143125 0 0 1 -0.727604,0.38629 3.1406041,3.1406041 0 0 1 -0.915459,0.12436 2.1828125,2.1828125 0 0 1 -0.28575,-0.0185 c -0.0979,-0.0132 -0.195791,-0.0291 -0.291041,-0.0503 -0.09525,-0.0212 -0.182563,-0.0423 -0.264584,-0.0661 a 1.4419791,1.4419791 0 0 1 -0.166687,-0.0635 z"
       id="path905"
       style="fill:none;stroke:#808080;stroke-width:0.264583;stroke-opacity:1" />
    <path
       d="m 98.848579,114.06792 c 0.264583,-0.0662 0.613833,-0.13759 1.058333,-0.21167 a 9.0857916,9.0857916 0 0 1 1.510768,-0.11113 2.8654375,2.8654375 0 0 1 1.04511,0.16669 1.8997083,1.8997083 0 0 1 0.70908,0.49213 c 0.0556,-0.0423 0.14817,-0.10055 0.26459,-0.17463 a 3.159125,3.159125 0 0 1 0.46037,-0.21696 5.0270833,5.0270833 0 0 1 0.60854,-0.18785 3.1485416,3.1485416 0 0 1 0.72231,-0.0794 2.9104166,2.9104166 0 0 1 1.21709,0.21696 1.7568333,1.7568333 0 0 1 0.74083,0.61648 2.38125,2.38125 0 0 1 0.35983,0.94456 6.9691249,6.9691249 0 0 1 0.0952,1.19327 v 3.63273 h -1.15887 v -3.37079 a 7.4321457,7.4321457 0 0 0 -0.0556,-0.9816 1.8520833,1.8520833 0 0 0 -0.21167,-0.68527 0.97895832,0.97895832 0 0 0 -0.42069,-0.40217 1.5875,1.5875 0 0 0 -0.69056,-0.12171 2.238375,2.238375 0 0 0 -0.93398,0.23548 3.1167916,3.1167916 0 0 0 -0.52917,0.2884 3.3363958,3.3363958 0 0 1 0.11907,0.61118 6.5722499,6.5722499 0 0 1 0.0503,0.80698 v 3.63273 h -1.143 v -3.38402 a 6.5166874,6.5166874 0 0 0 -0.0635,-0.9816 2.0081875,2.0081875 0 0 0 -0.21696,-0.68527 0.98424999,0.98424999 0 0 0 -0.42334,-0.40217 1.5372291,1.5372291 0 0 0 -0.67733,-0.13229 c -0.11642,0 -0.24077,0 -0.37306,0.0132 -0.13229,0.0132 -0.26458,0.0185 -0.37836,0.0318 -0.11377,0.0132 -0.23018,0.0265 -0.33072,0.0423 -0.10055,0.0159 -0.16669,0.0291 -0.19844,0.037 v 5.461 h -1.156171 z"
       id="path907"
       style="fill:none;stroke:#808080;stroke-width:0.264583;stroke-opacity:1" />
    <path
       d="m 121.45723,113.71867 a 3.3205208,3.3205208 0 0 1 1.17475,0.18256 1.8679583,1.8679583 0 0 1 0.76993,0.508 1.9473333,1.9473333 0 0 1 0.41804,0.79375 3.8391041,3.8391041 0 0 1 0.12436,1.00277 v 4.01637 c -0.10054,0.0238 -0.26458,0.0635 -0.43392,0.0926 -0.16933,0.0291 -0.36248,0.0556 -0.58737,0.082 -0.2249,0.0265 -0.46567,0.0476 -0.72761,0.0688 -0.26193,0.0212 -0.52916,0.0291 -0.77523,0.0291 a 4.2941874,4.2941874 0 0 1 -1.00806,-0.11112 2.2568958,2.2568958 0 0 1 -0.79375,-0.35454 1.6377708,1.6377708 0 0 1 -0.52917,-0.64029 2.2410208,2.2410208 0 0 1 -0.18785,-0.9578 1.8520833,1.8520833 0 0 1 0.2196,-0.92075 1.7250833,1.7250833 0 0 1 0.59003,-0.62177 2.7384375,2.7384375 0 0 1 0.87047,-0.3466 4.6196249,4.6196249 0 0 1 1.05834,-0.11377 c 0.11377,0 0.23548,0 0.35983,0.0185 0.12436,0.0185 0.24342,0.0291 0.35454,0.0503 l 0.29104,0.0556 0.17463,0.037 v -0.32279 a 2.7278541,2.7278541 0 0 0 -0.0609,-0.56621 1.3229166,1.3229166 0 0 0 -0.2249,-0.49741 1.1509375,1.1509375 0 0 0 -0.44185,-0.34661 1.7197916,1.7197916 0 0 0 -0.72761,-0.13229 5.2916666,5.2916666 0 0 0 -0.98689,0.0952 3.0903333,3.0903333 0 0 0 -0.6403,0.21696 l -0.1852,-0.95779 a 3.2940625,3.2940625 0 0 1 0.79375,-0.26458 6.3208958,6.3208958 0 0 1 1.11125,-0.0953 z m 0.0979,5.79702 c 0.26458,0 0.51594,0 0.72761,-0.0185 a 3.4157708,3.4157708 0 0 0 0.52916,-0.0688 v -1.92087 a 1.5345833,1.5345833 0 0 0 -0.40481,-0.10583 4.4979166,4.4979166 0 0 0 -0.67733,-0.0423 4.5825833,4.5825833 0 0 0 -0.55298,0.037 1.651,1.651 0 0 0 -0.52917,0.15611 1.1244792,1.1244792 0 0 0 -0.40481,0.32279 0.84666666,0.84666666 0 0 0 -0.1614,0.52917 0.92604165,0.92604165 0 0 0 0.39952,0.86518 2.06375,2.06375 0 0 0 1.07421,0.24607 z"
       id="path909"
       style="fill:none;stroke:#808080;stroke-width:0.264583;stroke-opacity:1" />
    <path
       d="m 110.65429,117.1265 a 4.1010416,4.1010416 0 0 1 0.24871,-1.49754 3.175,3.175 0 0 1 0.65881,-1.05834 2.7040416,2.7040416 0 0 1 0.94456,-0.635 2.9739166,2.9739166 0 0 1 1.09538,-0.21166 q 1.30704,0 2.00289,0.81491 0.69586,0.81492 0.69586,2.4818 v 0.19314 a 1.8018125,1.8018125 0 0 1 -0.0132,0.21696 h -4.42648 a 2.3574375,2.3574375 0 0 0 0.58473,1.52929 c 0.33866,0.34925 0.87048,0.52917 1.5875,0.52917 a 4.3259374,4.3259374 0 0 0 1.02658,-0.10584 4.1962916,4.1962916 0 0 0 0.70115,-0.26458 l 0.16404,0.96838 a 3.7888333,3.7888333 0 0 1 -0.81492,0.29898 5.3498749,5.3498749 0 0 1 -1.20121,0.11112 3.8232291,3.8232291 0 0 1 -1.4605,-0.24077 2.7410833,2.7410833 0 0 1 -1.01335,-0.70379 2.8627916,2.8627916 0 0 1 -0.59002,-1.05834 4.4582291,4.4582291 0 0 1 -0.1905,-1.36789 z m 4.43971,-0.63236 a 1.9420416,1.9420416 0 0 0 -0.39159,-1.28852 1.349375,1.349375 0 0 0 -1.11389,-0.5027 1.5213541,1.5213541 0 0 0 -0.70115,0.15345 1.74625,1.74625 0 0 0 -0.52917,0.40482 1.889125,1.889125 0 0 0 -0.32808,0.57414 2.8442708,2.8442708 0 0 0 -0.1561,0.65881 z"
       id="path911"
       style="fill:none;stroke:#808080;stroke-width:0.264583;stroke-opacity:1" />
    <path
       d="m 115.59406,76.076392 a 0.89164582,0.89164582 0 0 0 -0.10583,-0.214312 c -0.40482,-1.016 -1.48696,-1.72773 -2.36803,-2.185459 a 6.1542083,6.1542083 0 0 0 -4.15131,-0.460375 c -1.03981,0.264584 -1.64835,0.769938 -2.44739,1.4605 a 9.1863332,9.1863332 0 0 1 0.64823,0.955146 c 1.52135,2.614083 2.27806,5.191125 2.26483,7.694083 a 4.6407916,4.6407916 0 0 1 2.20927,-0.955146 v 0 h 0.0212 v 0 l 0.10054,-0.02381 0.082,-0.0291 0.0503,-0.01588 v 0 l 0.10848,-0.03969 v 0 a 5.4874583,5.4874583 0 0 0 1.26735,-0.740833 c 1.28323,-0.963083 1.83621,-2.069042 2.23838,-3.309937 a 3.4395833,3.4395833 0 0 0 0.082,-2.135188 z m -0.36248,2.047876 c -0.34925,1.074207 -0.85196,2.201333 -2.13519,3.174999 a 6.6913124,6.6913124 0 0 1 -0.77258,0.502708 v 0 c 0.13758,-0.179916 0.28575,-0.391583 0.43656,-0.632354 l 0.0238,-0.03704 c 0.0714,-0.116417 0.14288,-0.240771 0.21432,-0.370417 l 0.0212,-0.03969 c 0.0635,-0.119062 0.12436,-0.243416 0.18521,-0.370416 a 0.3889375,0.3889375 0 0 1 0.0265,-0.05821 c 0.0609,-0.134937 0.11906,-0.277812 0.17198,-0.420687 0,-0.0291 0.0212,-0.05821 0.0291,-0.08731 0.0476,-0.134937 0.0926,-0.264583 0.13229,-0.418041 a 0.47624999,0.47624999 0 0 1 0.0132,-0.05027 c 0.0397,-0.153458 0.0741,-0.312208 0.10055,-0.470958 l 0.0159,-0.111125 c 0.0238,-0.166688 0.0423,-0.333375 0.0503,-0.505355 a 0.79374999,0.79374999 0 0 0 -1.30969,-0.79375 0.79374999,0.79374999 0 0 0 -0.10848,0.240771 0.79374999,0.79374999 0 0 0 1.08744,0.9525 5.1170416,5.1170416 0 0 1 -0.0979,0.502709 c 0,0.03175 -0.0132,0.06085 -0.0238,0.0926 -0.0397,0.156104 -0.0847,0.306916 -0.13758,0.455083 0,0.0291 -0.0212,0.05821 -0.0344,0.08996 -0.0529,0.145521 -0.11112,0.28575 -0.17197,0.423334 0,0 0,0 0,0.01588 -0.0662,0.140229 -0.13494,0.264583 -0.20638,0.402166 -0.0132,0.02646 -0.0265,0.05292 -0.0423,0.07937 q -0.10319,0.182563 -0.20638,0.34925 l -0.0423,0.0635 c -0.0714,0.10848 -0.14023,0.211667 -0.20902,0.306917 -0.0741,0.100542 -0.14288,0.193146 -0.20902,0.264583 l -0.0291,0.03704 -0.17991,0.219604 v 0 c -0.52917,-1.571625 -0.75671,-3.145896 -0.6059,-4.177771 0.09,-0.619125 0.32808,-2.25425 1.524,-2.645833 a 1.666875,1.666875 0 0 1 0.52917,-0.07937 c 0.98425,0 1.94204,0.743479 2.06375,1.129771 a 3.1167916,3.1167916 0 0 1 -0.10319,1.965854 z"
       id="path913"
       style="fill:none;stroke:#808080;stroke-width:0.264583;stroke-opacity:1" />
    <path
       d="m 106.68554,92.901247 a 14.094354,14.094354 0 0 0 -7.614711,-6.474355 13.163021,13.163021 0 0 0 0.161396,2.394479 c 0,0.0979 0.02117,0.198438 0.0344,0.298979 l 0.01587,0.0979 c 0,0.06879 0.01852,0.137584 0.0291,0.206375 0.01058,0.06879 0.01323,0.08202 0.01852,0.124354 0.0053,0.04233 0.02117,0.124354 0.03175,0.1905 l 0.02381,0.132292 c 0,0.0635 0.02117,0.127 0.0344,0.1905 0.01323,0.0635 0.01852,0.0926 0.02646,0.137583 l 0.03969,0.195792 c 0,0.04762 0.01852,0.0926 0.0291,0.137584 l 0.07144,0.314854 0.03969,0.164041 c 0.01587,0.05821 0.0291,0.119063 0.04498,0.177271 0.01588,0.05821 0.03175,0.124354 0.05027,0.185209 0.01852,0.06085 0.0291,0.105834 0.04233,0.15875 0.01323,0.05292 0.03704,0.129645 0.05821,0.195791 0.02117,0.06615 0.0291,0.100543 0.04233,0.150812 0.01323,0.05027 0.04233,0.13758 0.06615,0.206369 0.02381,0.0688 0.02646,0.0926 0.04233,0.13759 0.01587,0.045 0.04761,0.148161 0.07407,0.22489 0,0.0318 0.0212,0.0635 0.0344,0.0953 0.0979,0.28575 0.20638,0.57679 0.32544,0.87048 l 0.0318,0.0794 c 0.0344,0.09 0.0741,0.177269 0.11113,0.264579 0.0159,0.0318 0.0291,0.0661 0.0423,0.0979 l 0.11906,0.26459 0.045,0.0926 c 0.0423,0.0953 0.0873,0.18786 0.13229,0.280461 0,0.0212 0.0212,0.0423 0.0291,0.0661 0.21696,0.4392 0.45509,0.886349 0.72231,1.322909 l 0.0291,0.0503 0.18521,0.30427 c 0.0159,0.0238 0.0318,0.0476 0.045,0.0714 0.0635,0.10054 0.12965,0.20109 0.1958,0.30163 l 0.0423,0.0661 c 0.0714,0.10584 0.14022,0.211669 0.21431,0.314859 v 0.0132 c 0.32014,0.46037 0.67204,0.92339 1.05834,1.38112 l 0.0582,0.0688 0.26458,0.29369 0.0741,0.0847 0.26459,0.29104 0.0688,0.0741 0.28839,0.30427 v 0 a 22.404916,22.404916 0 0 0 2.17223,1.971153 c 0,0 2.65113,-4.074583 0.0847,-8.572503 z"
       id="path915"
       style="fill:none;stroke:#808080;stroke-width:0.264583;stroke-opacity:1" />
    <path
       d="m 104.68793,89.321434 a 7.0987707,7.0987707 0 0 0 -4.19629,-3.894667 Q 99.753454,85.162184 99.076121,84.86585 c 0,0.306917 0,0.624417 0,0.955146 l 0.185208,0.06615 a 14.321896,14.321896 0 0 1 5.426601,3.434292 z"
       id="path917"
       style="fill:none;stroke:#808080;stroke-width:0.264583;stroke-opacity:1" />
    <path
       d="m 108.35771,86.672955 c 1.32291,-4.273021 -0.11378,-8.083021 -1.67217,-10.757959 -1.5584,-2.674937 -5.02709,-4.725458 -7.265461,-5.55625 -2.238375,-0.830791 -4.7625,-2.669645 -4.7625,-2.669645 -0.06615,-0.04233 -0.127,-0.08731 -0.1905,-0.129646 l -0.08202,-0.05821 -0.103187,-0.07408 -0.08467,-0.06085 -0.08996,-0.06615 c -0.0291,-0.02117 -0.05292,-0.04233 -0.08202,-0.06085 l -0.08731,-0.06879 -0.07408,-0.05821 -0.08996,-0.06879 -0.06615,-0.05556 -0.08996,-0.07408 -0.05821,-0.04762 -0.100541,-0.08731 -0.04233,-0.0344 -0.129645,-0.116417 c -0.971021,-0.878416 -1.489605,-1.690687 -2.264834,-2.645833 a 11.707812,11.707812 0 0 0 -0.79375,2.547938 c 0.296334,0.529166 1.156229,1.825625 3.063875,3.249083 0.03969,0.02646 0.07673,0.05556 0.113771,0.08467 l 0.137583,0.0979 0.127,0.08996 0.137584,0.09525 0.166687,0.11377 0.182563,0.119063 0.193146,0.127 0.129645,0.08202 0.185209,0.113771 0.124354,0.07673 0.264583,0.156104 0.09525,0.05556 0.28575,0.15875 0.121709,0.06615 0.246062,0.132292 0.119063,0.06085 c 0.119062,0.0635 0.238125,0.124354 0.362479,0.185208 h 0.01852 l 0.375708,0.182563 0.121708,0.05556 0.298979,0.134938 0.121709,0.05556 0.423333,0.182563 c 0.455083,0.1905 1.836208,0.751417 1.852083,0.756708 l 1.711855,0.695854 -1.775355,-0.508 c -0.06085,-0.01852 -1.465791,-0.420687 -1.93675,-0.595312 l -0.386291,-0.142875 -0.113771,-0.04498 -0.264583,-0.105834 -0.124355,-0.05027 -0.264583,-0.111125 -0.09525,-0.03969 -0.338667,-0.150812 -0.08731,-0.04233 -0.243417,-0.113771 -0.121708,-0.05821 -0.206375,-0.100542 -0.116417,-0.06085 -0.227541,-0.116416 -0.08731,-0.04762 -0.264583,-0.145521 -0.119063,-0.06615 -0.161396,-0.09525 -0.127,-0.07144 -0.150812,-0.0926 -0.116417,-0.07144 -0.203729,-0.127 -0.145521,-0.0926 -0.132291,-0.08996 -0.119063,-0.07937 a 11.162771,11.162771 0 0 1 -3.190875,-3.143249 19.539479,19.539479 0 0 0 -0.174625,4.355042 19.558,19.558 0 0 0 5.122333,3.286125 l 0.02911,0.01323 0.325437,0.142875 0.05027,0.02117 c 0.238125,0.100542 0.481542,0.198437 0.732896,0.296333 l 0.0926,0.0344 0.28575,0.105833 0.105833,0.03969 0.381,0.13229 c 0.238125,0.07937 0.955146,0.336021 0.963083,0.338667 l 0.886355,0.314854 -0.93398,-0.124354 c -0.03175,0 -0.793749,-0.105833 -1.058333,-0.169332 -0.177271,-0.04233 -0.34925,-0.08731 -0.529166,-0.134939 l -0.116417,-0.03175 q -0.232833,-0.0635 -0.460375,-0.134936 l -0.15875,-0.05027 -0.309563,-0.103188 -0.298979,-0.103188 -0.219604,-0.08202 -0.248708,-0.09525 -0.0979,-0.03969 -0.211667,-0.08731 v 0 a 15.409333,15.409333 0 0 1 -4.2545,-2.645833 18.142479,18.142479 0 0 0 0.738188,3.439583 c 0.08731,0.264583 0.185208,0.529167 0.288396,0.79375 a 20.748625,20.748625 0 0 0 4.087812,1.386417 c 0.251354,0.05821 0.949854,0.235479 1.105958,0.264583 v 0 h 0.03175 l 1.016,0.264583 -1.045104,-0.0635 c -0.03704,0 -0.891646,-0.05556 -1.182687,-0.09525 A 16.486187,16.486187 0 0 1 91.366161,77.59779 c 1.735666,3.6195 4.97152,5.659438 9.318619,7.281333 a 7.7417082,7.7417082 0 0 1 5.12499,6.614584 2.047875,2.047875 0 0 0 0.18256,-0.166688 c 0.0661,-0.06085 0.14023,-0.137583 0.21696,-0.22225 0.44714,-0.529166 1.25412,-1.7145 2.02671,-4.085166 l 0.0159,-0.05556 q 0.0556,-0.124354 0.10584,-0.291042 z"
       id="path919"
       style="fill:none;stroke:#808080;stroke-width:0.26458333;stroke-opacity:1;stroke-miterlimit:4;stroke-dasharray:none" />
    <path
       id="path959"
       style="fill:#808080;fill-opacity:1;stroke-width:0.264583"
       d="m 112.30457,175.54562 v 12.11812 l 3.42356,5.29167 v 10.37146 h 6.4947 v -10.37146 l 3.42356,-5.29167 v -12.11812 z m 0.77825,0.76171 h 11.90625 v 5.29166 h -11.90625 z m 5.43067,7.57008 2.54041,6.00376 h -1.61643 v 4.15634 l -2.5399,-6.00377 h 1.61592 z" />
    <g
       id="g913"
       transform="matrix(0.26458333,0,0,0.26458333,106.27548,143.60076)">
      <rect
         id="rect4782-7"
         style="color:#000000;fill:none"
         transform="rotate(90)"
         height="96"
         width="96"
         y="-96"
         x="-2.7465821e-06" />
      <rect
         id="rect4174"
         style="color:#000000;fill:#808080"
         height="4"
         width="32"
         y="46.005001"
         x="32" />
      <rect
         style="fill:none;stroke:#808080;stroke-width:5;stroke-linecap:round;stroke-linejoin:round;stroke-miterlimit:4;stroke-dasharray:none"
         id="rect837"
         width="63.615005"
         height="20"
         x="16.192497"
         y="38"
         rx="10"
         ry="10" />
    </g>
  </g>
</svg>
