<?xml version="1.0" encoding="UTF-8"?>
<!DOCTYPE svg PUBLIC "-//W3C//DTD SVG 1.1//EN" "http://www.w3.org/Graphics/SVG/1.1/DTD/svg11.dtd">
<svg width="500" height="500" viewBox="0 0 500 500" fill="none" xmlns="http://www.w3.org/2000/svg">
<path d="M353.601 180H353.781L353.961 179.989C382.607 178.266 401.181 181.654 413.234 188.293C424.928 194.734 431.193 204.637 434.361 218.024C437.604 231.722 437.497 248.656 436.455 268.485C436.179 273.743 435.838 279.198 435.486 284.815C434.535 300.005 433.51 316.382 433.5 333.251C426.206 420.747 357.602 449 323.101 449C308.855 449 288.942 443.806 272.622 427.932C256.416 412.17 243.101 385.235 243.101 340.5C243.101 295.602 255.844 255.212 276.139 226.207C296.448 197.182 323.927 180 353.601 180Z" stroke="#676767" stroke-width="12"/>
<rect x="141" y="111" width="212" height="252" rx="60" fill="#C4C4C4"/>
<rect x="195" y="175" width="104" height="61" rx="10" fill="white"/>
<rect x="377.203" y="165.497" width="38" height="29" rx="7" transform="rotate(8 377.203 165.497)" fill="#676767"/>
</svg>
