<?xml version="1.0" encoding="UTF-8" standalone="no"?>
<svg
   xmlns:dc="http://purl.org/dc/elements/1.1/"
   xmlns:cc="http://creativecommons.org/ns#"
   xmlns:rdf="http://www.w3.org/1999/02/22-rdf-syntax-ns#"
   xmlns:svg="http://www.w3.org/2000/svg"
   xmlns="http://www.w3.org/2000/svg"
   xmlns:sodipodi="http://sodipodi.sourceforge.net/DTD/sodipodi-0.dtd"
   xmlns:inkscape="http://www.inkscape.org/namespaces/inkscape"
   width="128"
   height="128"
   viewBox="0 0 128 128"
   version="1.1"
   id="svg10"
   sodipodi:docname="DeviceIconRollerShutter.svg"
   inkscape:version="0.92.3 (2405546, 2018-03-11)">
  <metadata
     id="metadata16">
    <rdf:RDF>
      <cc:Work
         rdf:about="">
        <dc:format>image/svg+xml</dc:format>
        <dc:type
           rdf:resource="http://purl.org/dc/dcmitype/StillImage" />
      </cc:Work>
    </rdf:RDF>
  </metadata>
  <defs
     id="defs14" />
  <sodipodi:namedview
     pagecolor="#ffffff"
     bordercolor="#666666"
     borderopacity="1"
     objecttolerance="10"
     gridtolerance="10"
     guidetolerance="10"
     inkscape:pageopacity="0"
     inkscape:pageshadow="2"
     inkscape:window-width="2880"
     inkscape:window-height="1698"
     id="namedview12"
     showgrid="false"
     inkscape:zoom="5.2149125"
     inkscape:cx="139.1504"
     inkscape:cy="-3.0965549"
     inkscape:window-x="0"
     inkscape:window-y="44"
     inkscape:window-maximized="1"
     inkscape:current-layer="svg10" />
  <g
     fill="#1D1D1B"
     id="g8"
     style="fill:#808080;fill-opacity:1">
    <path
       d="M111 20H17V0h94v20zm-90-4h86V4H21v12zM111 128H17v-12h94v12zm-90-4h86v-4H21v4z"
       id="path2"
       style="fill:#808080;fill-opacity:1" />
    <path
       d="M22 18h4v100h-4zM102 18h4v100h-4z"
       id="path4"
       style="fill:#808080;fill-opacity:1" />
    <path
       d="M24 31h80v2H24zM24 23h80v2H24zM24 39h80v2H24zM24 47h80v2H24zM24 55h80v2H24zM24.5 63h79v2h-79zM24 71h80v2H24z"
       id="path6"
       style="fill:#808080;fill-opacity:1" />
  </g>
</svg>
