<svg width="246" height="246" viewBox="0 0 246 246" fill="none" xmlns="http://www.w3.org/2000/svg">
<rect x="121" y="20" width="4" height="40" fill="#C4C4C4" fill-opacity="0.37"/>
<rect x="121" y="186" width="4" height="40" fill="#C4C4C4" fill-opacity="0.37"/>
<rect x="112.031" y="20.5664" width="4" height="40" transform="rotate(-5 112.031 20.5664)" fill="#C4C4C4" fill-opacity="0.37"/>
<rect x="126.498" y="185.935" width="4" height="40" transform="rotate(-5 126.498 185.935)" fill="#C4C4C4" fill-opacity="0.37"/>
<rect x="103.145" y="21.9121" width="4" height="40" transform="rotate(-10 103.145 21.9121)" fill="#C4C4C4" fill-opacity="0.37"/>
<rect x="131.97" y="185.39" width="4" height="40" transform="rotate(-10 131.97 185.39)" fill="#C4C4C4" fill-opacity="0.37"/>
<rect x="94.4098" y="24.0273" width="4" height="40" transform="rotate(-15 94.4098 24.0273)" fill="#C4C4C4" fill-opacity="0.37"/>
<rect x="137.374" y="184.371" width="4" height="40" transform="rotate(-15 137.374 184.371)" fill="#C4C4C4" fill-opacity="0.37"/>
<rect x="85.8926" y="26.896" width="4" height="40" transform="rotate(-20 85.8926 26.896)" fill="#C4C4C4" fill-opacity="0.37"/>
<rect x="142.668" y="182.885" width="4" height="40" transform="rotate(-20 142.668 182.885)" fill="#C4C4C4" fill-opacity="0.37"/>
<rect x="77.6577" y="30.4956" width="4" height="40" transform="rotate(-25 77.6577 30.4956)" fill="#C4C4C4" fill-opacity="0.37"/>
<rect x="147.812" y="180.943" width="4" height="40" transform="rotate(-25 147.812 180.943)" fill="#C4C4C4" fill-opacity="0.37"/>
<rect x="69.7679" y="34.7993" width="4" height="40" transform="rotate(-30 69.7679 34.7993)" fill="#C4C4C4" fill-opacity="0.37"/>
<rect x="152.768" y="178.56" width="4" height="40" transform="rotate(-30 152.768 178.56)" fill="#C4C4C4" fill-opacity="0.37"/>
<rect x="62.2833" y="39.7744" width="4" height="40" transform="rotate(-35 62.2833 39.7744)" fill="#C4C4C4" fill-opacity="0.37"/>
<rect x="157.497" y="175.754" width="4" height="40" transform="rotate(-35 157.497 175.754)" fill="#C4C4C4" fill-opacity="0.37"/>
<rect x="55.2607" y="45.3833" width="4" height="40" transform="rotate(-40 55.2607 45.3833)" fill="#C4C4C4" fill-opacity="0.37"/>
<rect x="161.964" y="172.546" width="4" height="40" transform="rotate(-40 161.964 172.546)" fill="#C4C4C4" fill-opacity="0.37"/>
<rect x="48.7538" y="51.5825" width="4" height="40" transform="rotate(-45 48.7538 51.5825)" fill="#C4C4C4" fill-opacity="0.37"/>
<rect x="166.134" y="168.962" width="4" height="40" transform="rotate(-45 166.134 168.962)" fill="#C4C4C4" fill-opacity="0.37"/>
<rect x="42.8119" y="58.3247" width="4" height="40" transform="rotate(-50 42.8119 58.3247)" fill="#C4C4C4" fill-opacity="0.37"/>
<rect x="169.975" y="165.028" width="4" height="40" transform="rotate(-50 169.975 165.028)" fill="#C4C4C4" fill-opacity="0.37"/>
<rect x="37.4803" y="65.5596" width="4" height="40" transform="rotate(-55 37.4803 65.5596)" fill="#C4C4C4" fill-opacity="0.37"/>
<rect x="173.46" y="160.773" width="4" height="40" transform="rotate(-55 173.46 160.773)" fill="#C4C4C4" fill-opacity="0.37"/>
<rect x="32.7994" y="73.2319" width="4" height="40" transform="rotate(-60 32.7994 73.2319)" fill="#C4C4C4" fill-opacity="0.37"/>
<rect x="176.56" y="156.232" width="4" height="40" transform="rotate(-60 176.56 156.232)" fill="#C4C4C4" fill-opacity="0.37"/>
<rect x="28.8051" y="81.2827" width="4" height="40" transform="rotate(-65 28.8051 81.2827)" fill="#C4C4C4" fill-opacity="0.37"/>
<rect x="179.252" y="151.438" width="4" height="40" transform="rotate(-65 179.252 151.438)" fill="#C4C4C4" fill-opacity="0.37"/>
<rect x="25.5276" y="89.6514" width="4" height="40" transform="rotate(-70 25.5276 89.6514)" fill="#C4C4C4" fill-opacity="0.37"/>
<rect x="181.517" y="146.426" width="4" height="40" transform="rotate(-70 181.517 146.426)" fill="#C4C4C4" fill-opacity="0.37"/>
<rect x="22.992" y="98.2739" width="4" height="40" transform="rotate(-75 22.992 98.2739)" fill="#C4C4C4" fill-opacity="0.37"/>
<rect x="183.336" y="141.238" width="4" height="40" transform="rotate(-75 183.336 141.238)" fill="#C4C4C4" fill-opacity="0.37"/>
<rect x="21.2175" y="107.083" width="4" height="40" transform="rotate(-80 21.2175 107.083)" fill="#C4C4C4" fill-opacity="0.37"/>
<rect x="184.696" y="135.909" width="4" height="40" transform="rotate(-80 184.696 135.909)" fill="#C4C4C4" fill-opacity="0.37"/>
<rect x="20.2177" y="116.015" width="4" height="40" transform="rotate(-85 20.2177 116.015)" fill="#C4C4C4" fill-opacity="0.37"/>
<rect x="185.586" y="130.483" width="4" height="40" transform="rotate(-85 185.586 130.483)" fill="#C4C4C4" fill-opacity="0.37"/>
<rect x="19.9999" y="125" width="4" height="40" transform="rotate(-90 19.9999 125)" fill="#C4C4C4" fill-opacity="0.37"/>
<rect x="186" y="125" width="4" height="40" transform="rotate(-90 186 125)" fill="#C4C4C4" fill-opacity="0.37"/>
<rect x="20.5659" y="133.97" width="4" height="40" transform="rotate(-95 20.5659 133.97)" fill="#C4C4C4" fill-opacity="0.37"/>
<rect x="185.934" y="119.502" width="4" height="40" transform="rotate(-95 185.934 119.502)" fill="#C4C4C4" fill-opacity="0.37"/>
<rect x="21.9119" y="142.856" width="4" height="40" transform="rotate(-100 21.9119 142.856)" fill="#C4C4C4" fill-opacity="0.37"/>
<rect x="185.39" y="114.03" width="4" height="40" transform="rotate(-100 185.39 114.03)" fill="#C4C4C4" fill-opacity="0.37"/>
<rect x="24.0272" y="151.59" width="4" height="40" transform="rotate(-105 24.0272 151.59)" fill="#C4C4C4" fill-opacity="0.37"/>
<rect x="184.371" y="108.626" width="4" height="40" transform="rotate(-105 184.371 108.626)" fill="#C4C4C4" fill-opacity="0.37"/>
<rect x="26.8956" y="160.108" width="4" height="40" transform="rotate(-110 26.8956 160.108)" fill="#C4C4C4" fill-opacity="0.37"/>
<rect x="182.885" y="103.333" width="4" height="40" transform="rotate(-110 182.885 103.333)" fill="#C4C4C4" fill-opacity="0.37"/>
<rect x="30.4952" y="168.343" width="4" height="40" transform="rotate(-115 30.4952 168.343)" fill="#C4C4C4" fill-opacity="0.37"/>
<rect x="180.942" y="98.188" width="4" height="40" transform="rotate(-115 180.942 98.188)" fill="#C4C4C4" fill-opacity="0.37"/>
<rect x="34.7991" y="176.232" width="4" height="40" transform="rotate(-120 34.7991 176.232)" fill="#C4C4C4" fill-opacity="0.37"/>
<rect x="178.559" y="93.2324" width="4" height="40" transform="rotate(-120 178.559 93.2324)" fill="#C4C4C4" fill-opacity="0.37"/>
<rect x="39.7743" y="183.717" width="4" height="40" transform="rotate(-125 39.7743 183.717)" fill="#C4C4C4" fill-opacity="0.37"/>
<rect x="175.754" y="88.5039" width="4" height="40" transform="rotate(-125 175.754 88.5039)" fill="#C4C4C4" fill-opacity="0.37"/>
<rect x="45.3828" y="190.74" width="4" height="40" transform="rotate(-130 45.3828 190.74)" fill="#C4C4C4" fill-opacity="0.37"/>
<rect x="172.546" y="84.0371" width="4" height="40" transform="rotate(-130 172.546 84.0371)" fill="#C4C4C4" fill-opacity="0.37"/>
<rect x="51.5818" y="197.247" width="4" height="40" transform="rotate(-135 51.5818 197.247)" fill="#C4C4C4" fill-opacity="0.37"/>
<rect x="168.962" y="79.8672" width="4" height="40" transform="rotate(-135 168.962 79.8672)" fill="#C4C4C4" fill-opacity="0.37"/>
<rect x="58.3242" y="203.188" width="4" height="40" transform="rotate(-140 58.3242 203.188)" fill="#C4C4C4" fill-opacity="0.37"/>
<rect x="165.027" y="76.0249" width="4" height="40" transform="rotate(-140 165.027 76.0249)" fill="#C4C4C4" fill-opacity="0.37"/>
<rect x="65.5595" y="208.521" width="4" height="40" transform="rotate(-145 65.5595 208.521)" fill="#C4C4C4" fill-opacity="0.37"/>
<rect x="160.773" y="72.541" width="4" height="40" transform="rotate(-145 160.773 72.541)" fill="#C4C4C4" fill-opacity="0.37"/>
<rect x="73.2316" y="213.201" width="4" height="40" transform="rotate(-150 73.2316 213.201)" fill="#C4C4C4" fill-opacity="0.37"/>
<rect x="156.232" y="69.4409" width="4" height="40" transform="rotate(-150 156.232 69.4409)" fill="#C4C4C4" fill-opacity="0.37"/>
<rect x="81.2825" y="217.195" width="4" height="40" transform="rotate(-155 81.2825 217.195)" fill="#C4C4C4" fill-opacity="0.37"/>
<rect x="151.437" y="66.748" width="4" height="40" transform="rotate(-155 151.437 66.748)" fill="#C4C4C4" fill-opacity="0.37"/>
<rect x="89.6513" y="220.473" width="4" height="40" transform="rotate(-160 89.6513 220.473)" fill="#C4C4C4" fill-opacity="0.37"/>
<rect x="146.427" y="64.4839" width="4" height="40" transform="rotate(-160 146.427 64.4839)" fill="#C4C4C4" fill-opacity="0.37"/>
<rect x="98.273" y="223.008" width="4" height="40" transform="rotate(-165 98.273 223.008)" fill="#C4C4C4" fill-opacity="0.37"/>
<rect x="141.237" y="62.6646" width="4" height="40" transform="rotate(-165 141.237 62.6646)" fill="#C4C4C4" fill-opacity="0.37"/>
<rect x="107.083" y="224.783" width="4" height="40" transform="rotate(-170 107.083 224.783)" fill="#C4C4C4" fill-opacity="0.37"/>
<rect x="135.909" y="61.3047" width="4" height="40" transform="rotate(-170 135.909 61.3047)" fill="#C4C4C4" fill-opacity="0.37"/>
<rect x="116.015" y="225.783" width="4" height="40" transform="rotate(-175 116.015 225.783)" fill="#C4C4C4" fill-opacity="0.37"/>
<rect x="130.483" y="60.4146" width="4" height="40" transform="rotate(-175 130.483 60.4146)" fill="#C4C4C4" fill-opacity="0.37"/>
</svg>
