<?xml version="1.0" encoding="UTF-8"?>
<!-- Created with Inkscape (http://www.inkscape.org/) -->
<svg id="svg4874" width="96" height="96" version="1.1" viewBox="0 0 96 96" xmlns="http://www.w3.org/2000/svg" xmlns:cc="http://creativecommons.org/ns#" xmlns:dc="http://purl.org/dc/elements/1.1/" xmlns:rdf="http://www.w3.org/1999/02/22-rdf-syntax-ns#">
 <defs id="defs4876">
  <clipPath id="clipPath40">
   <path id="path42" d="m0 500h1024v-500h-1024v500z"/>
  </clipPath>
 </defs>
 <metadata id="metadata4879">
  <rdf:RDF>
   <cc:Work rdf:about="">
    <dc:format>image/svg+xml</dc:format>
    <dc:type rdf:resource="http://purl.org/dc/dcmitype/StillImage"/>
    <dc:title/>
   </cc:Work>
  </rdf:RDF>
 </metadata>
 <g id="layer1" transform="translate(67.857 -78.505)">
  <g id="g4845" transform="matrix(0 -1 -1 0 373.51 516.51)">
   <g id="g4778" transform="matrix(-.9996 0 0 1 575.94 -611)">
    <g id="g4780" transform="matrix(-1 0 0 1 576 611)">
     <rect id="rect4782" transform="scale(-1,1)" x="-438" y="345.36" width="96.038" height="96" style="color:#000000;fill:none"/>
     <g id="g36" transform="matrix(0 -.29974 .29986 0 313.82 623.87)" style="fill:#808080;opacity:.98;stroke-width:.975">
      <g id="g38" clip-path="url(#clipPath40)" style="fill:#808080;stroke-width:.975">
       <g id="g44" transform="translate(887.72 387.45)" style="fill:#808080;stroke-width:.975">
        <path id="path46" d="m0 0h-237.43c-8.136 0-14.73-6.594-14.73-14.73v-237.43c0-8.135 6.594-14.731 14.73-14.731h127.83v103.36h-34.782v40.28h34.782v29.705c0 34.472 21.054 53.243 51.806 53.243 14.731 0 27.391-1.096 31.08-1.586v-36.026l-21.328-0.01c-16.724 0-19.963-7.947-19.963-19.609v-25.717h39.887l-5.193-40.28h-34.694v-103.36h68.012c8.135 0 14.73 6.596 14.73 14.731v237.43c0 8.136-6.595 14.73-14.73 14.73" style="fill:#808080"/>
       </g>
      </g>
     </g>
    </g>
   </g>
  </g>
 </g>
</svg>
