<?xml version="1.0" encoding="UTF-8" standalone="no"?>
<!-- Created with Inkscape (http://www.inkscape.org/) -->

<svg
   width="96"
   height="96"
   id="svg4874"
   version="1.1"
   inkscape:version="1.1.2 (0a00cf5339, 2022-02-04)"
   viewBox="0 0 96 96.000001"
   sodipodi:docname="infinity.svg"
   xmlns:inkscape="http://www.inkscape.org/namespaces/inkscape"
   xmlns:sodipodi="http://sodipodi.sourceforge.net/DTD/sodipodi-0.dtd"
   xmlns="http://www.w3.org/2000/svg"
   xmlns:svg="http://www.w3.org/2000/svg"
   xmlns:rdf="http://www.w3.org/1999/02/22-rdf-syntax-ns#"
   xmlns:cc="http://creativecommons.org/ns#"
   xmlns:dc="http://purl.org/dc/elements/1.1/">
  <defs
     id="defs4876" />
  <sodipodi:namedview
     id="base"
     pagecolor="#ffffff"
     bordercolor="#666666"
     borderopacity="1.0"
     inkscape:pageopacity="0.0"
     inkscape:pageshadow="2"
     inkscape:zoom="6.376014"
     inkscape:cx="51.99173"
     inkscape:cy="54.893229"
     inkscape:document-units="px"
     inkscape:current-layer="g4780"
     showgrid="false"
     showborder="true"
     fit-margin-top="0"
     fit-margin-left="0"
     fit-margin-right="0"
     fit-margin-bottom="0"
     inkscape:snap-bbox="true"
     inkscape:bbox-paths="true"
     inkscape:bbox-nodes="true"
     inkscape:snap-bbox-edge-midpoints="true"
     inkscape:snap-bbox-midpoints="true"
     inkscape:object-paths="true"
     inkscape:snap-intersection-paths="true"
     inkscape:object-nodes="true"
     inkscape:snap-smooth-nodes="true"
     inkscape:snap-midpoints="true"
     inkscape:snap-object-midpoints="true"
     inkscape:snap-center="true"
     showguides="true"
     inkscape:guide-bbox="true"
     inkscape:pagecheckerboard="0"
     inkscape:window-width="1466"
     inkscape:window-height="933"
     inkscape:window-x="70"
     inkscape:window-y="27"
     inkscape:window-maximized="1">
    <inkscape:grid
       type="xygrid"
       id="grid5451"
       empspacing="8" />
    <sodipodi:guide
       orientation="1,0"
       position="8,-8.0000001"
       id="guide4063" />
    <sodipodi:guide
       orientation="1,0"
       position="4,-8.0000001"
       id="guide4065" />
    <sodipodi:guide
       orientation="0,1"
       position="-8,88.000001"
       id="guide4067" />
    <sodipodi:guide
       orientation="0,1"
       position="-8,92.000001"
       id="guide4069" />
    <sodipodi:guide
       orientation="0,1"
       position="104,4"
       id="guide4071" />
    <sodipodi:guide
       orientation="0,1"
       position="-5,8.0000001"
       id="guide4073" />
    <sodipodi:guide
       orientation="1,0"
       position="92,-8.0000001"
       id="guide4075" />
    <sodipodi:guide
       orientation="1,0"
       position="88,-8.0000001"
       id="guide4077" />
    <sodipodi:guide
       orientation="0,1"
       position="-8,84.000001"
       id="guide4074" />
    <sodipodi:guide
       orientation="1,0"
       position="12,-8.0000001"
       id="guide4076" />
    <sodipodi:guide
       orientation="0,1"
       position="-5,12"
       id="guide4078" />
    <sodipodi:guide
       orientation="1,0"
       position="84,-9.0000001"
       id="guide4080" />
    <sodipodi:guide
       position="48,-8.0000001"
       orientation="1,0"
       id="guide4170" />
    <sodipodi:guide
       position="-8,48"
       orientation="0,1"
       id="guide4172" />
  </sodipodi:namedview>
  <metadata
     id="metadata4879">
    <rdf:RDF>
      <cc:Work
         rdf:about="">
        <dc:format>image/svg+xml</dc:format>
        <dc:type
           rdf:resource="http://purl.org/dc/dcmitype/StillImage" />
      </cc:Work>
    </rdf:RDF>
  </metadata>
  <g
     inkscape:label="Layer 1"
     inkscape:groupmode="layer"
     id="layer1"
     transform="translate(67.857146,-78.50504)">
    <g
       transform="matrix(0,-1,-1,0,373.50506,516.50504)"
       id="g4845"
       style="display:inline">
      <g
         inkscape:export-ydpi="90"
         inkscape:export-xdpi="90"
         inkscape:export-filename="next01.png"
         transform="matrix(-0.9996045,0,0,1,575.94296,-611.00001)"
         id="g4778"
         inkscape:label="Layer 1">
        <g
           transform="matrix(-1,0,0,1,575.99999,611)"
           id="g4780"
           style="display:inline">
          <rect
             style="color:#000000;display:inline;overflow:visible;visibility:visible;fill:none;stroke:none;stroke-width:4;marker:none;enable-background:accumulate"
             id="rect4782"
             width="96.037987"
             height="96"
             x="-438.00244"
             y="345.36221"
             transform="scale(-1,1)" />
          <path
             style="font-style:normal;font-variant:normal;font-weight:normal;font-stretch:normal;font-size:15px;line-height:125%;font-family:Ubuntu;-inkscape-font-specification:Ubuntu;text-align:center;letter-spacing:0px;word-spacing:0px;writing-mode:lr-tb;text-anchor:middle;fill:#808080;fill-opacity:1;stroke:none"
             d="m 364.0904,368.96573 c -0.0215,-0.0161 -0.0354,-0.0404 -0.0567,-0.0566 -0.0253,-0.0201 -0.057,-0.0305 -0.0821,-0.0508 z"
             id="path4157" />
          <path
             style="font-style:normal;font-variant:normal;font-weight:normal;font-stretch:normal;font-size:15px;line-height:125%;font-family:Ubuntu;-inkscape-font-specification:Ubuntu;text-align:center;letter-spacing:0px;word-spacing:0px;writing-mode:lr-tb;text-anchor:middle;fill:#808080;fill-opacity:1;stroke:none"
             d="m 364.07673,417.80167 -0.13873,0.10742 c 0.0251,-0.0203 0.0569,-0.0307 0.0821,-0.0508 0.0214,-0.0162 0.0353,-0.0405 0.0567,-0.0566 z"
             id="path4344" />
          <path
             style="fill:#808080;stroke-width:0.999998;fill-opacity:1"
             d="m 371.95478,418.30264 c 0.24926,3.13425 0.93495,5.76101 2.17203,8.32048 2.71658,5.62048 7.60074,9.5375 13.08642,10.49507 3.09535,0.54034 6.30444,0.1776 9.12588,-1.03153 1.90511,-0.81642 3.57858,-1.94492 5.1622,-3.48105 0.84546,-0.82012 1.40319,-1.45284 2.08938,-2.37024 2.20576,-2.94909 3.70213,-6.6451 4.21857,-10.41992 0.16497,-1.20584 0.20743,-1.84193 0.20807,-3.11731 0.003,-4.86859 -1.26247,-9.16486 -3.84663,-13.06521 -1.62907,-2.45882 -3.79545,-4.83006 -7.06388,-7.7319 -1.22553,-1.08809 -2.78609,-2.41926 -5.0592,-4.31559 -3.23605,-2.69968 -4.96327,-4.18444 -6.38164,-5.48586 -5.23998,-4.80783 -7.56775,-8.73184 -8.24091,-13.89193 -0.10484,-0.80325 -0.12016,-3.42467 -0.0247,-4.19462 0.49014,-3.94881 2.01911,-7.24057 4.52507,-9.74207 1.44156,-1.43899 2.9441,-2.38759 4.72496,-2.98307 1.1383,-0.38061 2.11473,-0.53885 3.32492,-0.53885 0.4414,0 0.99864,0.0259 1.23824,0.0573 3.50298,0.46163 6.59486,2.53651 8.78395,5.89464 1.33995,2.05555 2.17236,4.37112 2.52957,7.03688 0.10402,0.77665 0.11877,3.44756 0.0233,4.21755 -0.2163,1.74266 -0.60748,3.31581 -1.1992,4.8225 -1.36394,3.47306 -3.61088,6.30686 -8.22394,10.37189 -0.39788,0.35063 -0.71779,0.65237 -0.71086,0.67055 0.005,0.0181 0.47695,0.4206 1.04448,0.8943 1.00693,0.84046 2.28029,1.91591 2.80817,2.37178 l 0.26291,0.227 0.19572,-0.16082 c 1.08304,-0.88997 3.8177,-3.56682 4.82972,-4.72763 1.86172,-2.1354 3.06847,-3.91218 4.08298,-6.01158 2.00131,-4.14141 2.78966,-8.89606 2.21945,-13.3861 -0.4445,-3.50021 -1.65193,-6.76005 -3.54034,-9.55823 -3.0475,-4.51569 -7.50753,-7.38573 -12.43672,-8.00302 -1.24517,-0.15591 -2.89688,-0.13478 -4.20036,0.0536 -4.82084,0.69735 -9.25001,3.67222 -12.21075,8.20137 -1.9621,3.00145 -3.1565,6.57158 -3.48147,10.40634 -0.0321,0.3782 -0.0566,1.26525 -0.0543,1.97124 0.0161,5.0741 1.40517,9.54091 4.20542,13.52364 1.1094,1.57788 2.03567,2.66636 3.71914,4.37041 1.93605,1.95977 3.53183,3.37472 8.28045,7.34227 5.70313,4.76499 7.80641,6.69629 9.61071,8.8249 2.77343,3.27197 4.23575,6.40038 4.74633,10.15421 0.13742,1.01049 0.17299,3.05173 0.0702,4.02251 -0.53219,5.01995 -2.99255,9.44138 -6.59262,11.84745 -1.9309,1.2905 -4.4554,1.96292 -6.68794,1.78137 -1.53195,-0.12456 -2.66833,-0.43993 -4.06799,-1.12884 -2.5496,-1.25492 -4.71691,-3.50238 -6.16332,-6.39123 -2.63176,-5.25627 -2.28598,-11.99321 0.88528,-17.24804 0.64901,-1.07539 1.46719,-2.17354 2.48503,-3.3354 0.96103,-1.097 3.03704,-3.112 4.6482,-4.51163 0.25855,-0.2246 0.47009,-0.42416 0.47009,-0.44346 0,-0.0545 -4.01139,-3.42983 -4.12405,-3.47024 -0.0853,-0.0307 -2.37694,2.093 -3.55767,3.29678 -2.86128,2.91713 -4.71223,5.55335 -5.99019,8.53157 -0.99109,2.30968 -1.59042,4.64899 -1.85367,7.23506 -0.0858,0.84332 -0.12342,3.0609 -0.0645,3.80242 z"
             id="path2480" />
        </g>
      </g>
    </g>
  </g>
</svg>
