<svg width="233" height="231" viewBox="0 0 233 231" fill="none" xmlns="http://www.w3.org/2000/svg">
<g clip-path="url(#clip0)">
<path d="M185.364 216.845L187.228 215.81L188.264 214.981C190.335 212.703 192.199 210.425 193.649 207.732" stroke="white" stroke-linecap="round" stroke-linejoin="round"/>
<path d="M17.3972 145.599C5.79899 125.095 -2.27835 100.242 0.62121 76.0098C2.07099 64.6187 9.52699 44.5289 16.1545 35.0018L17.3972 54.056L8.69854 91.9573L33.3448 145.599L76.0097 192.406L123.852 214.153L171.281 218.088L215.188 198.827L199.655 213.739C180.601 230.515 154.712 233 131.515 229.065C108.319 225.13 84.9154 213.532 65.6541 199.448C46.1857 184.95 29.6168 166.517 17.3972 145.599Z" fill="#040506"/>
<path d="M57.9912 165.896L67.5183 141.25L187.85 179.565L194.477 216.845C194.477 216.845 185.157 232.793 136.279 224.508C87.4009 216.224 53.0205 176.666 53.6418 177.287L57.9912 165.896Z" fill="#3A3A3A"/>
<path d="M6.21322 63.5831C7.24877 52.8133 11.1839 42.2507 17.3972 33.3449C24.0248 23.8178 32.9305 15.9476 43.2861 10.5627L47.6354 8.49156C74.1457 -3.52089 103.763 -1.864 130.066 7.66311L141.043 12.0124C171.695 26.096 197.377 48.8782 214.774 77.6667L220.987 89.2649C234.035 112.047 236.728 148.292 228.029 175.63L226.579 179.98C219.123 196.963 206.49 211.253 190.335 220.573C194.063 216.638 197.584 212.289 200.691 207.732C204.833 198.62 207.318 189.921 209.389 179.98C210.425 173.766 210.425 167.139 209.596 160.925C220.573 150.57 224.301 135.865 223.266 120.953C222.023 106.041 216.431 91.9573 208.768 79.3236C192.613 53.4347 169.624 31.8951 141.664 19.4684C127.995 13.6693 112.461 9.73422 97.3421 10.9769C82.223 12.2196 67.5181 18.2258 59.0265 31.8951C50.535 45.5644 50.3279 61.512 53.6417 76.0098C56.9554 90.5076 64.4114 103.556 73.5243 116.189C72.903 122.403 71.8674 128.616 70.4177 134.622C67.5181 144.978 59.855 168.588 53.6417 177.287C26.9243 150.984 1.65677 104.591 6.21322 63.5831Z" fill="#333233"/>
<path d="M58.6124 31.688C67.311 18.0187 81.8088 11.5982 96.9279 10.5627C112.047 9.52711 127.995 13.2551 141.664 19.0542C169.624 31.4809 193.027 52.192 209.182 78.288C216.845 90.9218 222.851 105.834 224.094 120.746C225.337 135.658 221.195 150.156 209.389 161.132H207.939L75.3884 116.811L73.3173 116.189C64.2044 103.556 58.6124 98.3778 53.2275 75.8027C48.2568 54.4702 50.3279 45.1502 58.6124 31.688Z" fill="#3A3A3A"/>
<path d="M188.678 180.601L209.596 160.925L73.5244 116.189C73.5244 116.189 73.3173 117.225 73.1102 119.503C72.4888 125.095 71.4533 130.48 69.7964 135.865L67.9324 142.285L188.678 180.601Z" fill="#1D1D1B"/>
<path d="M209.804 180.601C208.147 190.335 204.833 199.655 200.069 208.354C198.412 211.253 196.548 213.739 194.477 216.224L190.335 220.159L187.436 179.98L209.596 160.925L210.011 163.618C211.046 169.21 211.046 175.009 209.804 180.601Z" fill="#040506"/>
<path d="M118.26 62.3404C125.095 57.9911 134.208 59.4409 141.043 61.9262C154.505 67.104 167.967 79.9449 171.488 94.2356C176.459 113.911 161.132 122.196 143.528 116.189C129.652 111.219 115.568 97.9636 111.84 83.2587C109.976 75.8027 110.804 66.8969 118.26 62.3404Z" fill="#333233"/>
<path d="M163.914 112.964C171.517 104.726 166.981 88.1745 153.783 75.9951C140.586 63.8158 123.724 60.6207 116.122 68.8587C108.519 77.0966 113.055 93.6482 126.253 105.827C139.45 118.007 156.312 121.202 163.914 112.964Z" fill="#3A3A3A"/>
<path d="M76.2168 101.692C76.0097 106.662 80.5661 111.219 84.5012 113.083C86.7794 114.325 89.2648 114.74 91.7501 113.911C94.2354 113.29 95.8923 111.012 95.8923 108.526C95.8923 103.556 91.543 98.9991 87.6079 97.1351C85.3297 95.8924 82.8443 95.6853 80.359 96.3067C77.8737 96.928 76.2168 99.2062 76.2168 101.692Z" fill="#333233"/>
<path d="M98.792 109.355C98.9991 111.219 100.242 112.876 101.899 113.704C103.763 114.532 106.041 114.325 106.041 112.047C106.041 110.183 104.798 108.319 102.934 107.698C101.07 106.869 98.792 107.076 98.792 109.355Z" fill="#1D1D1B"/>
<path d="M79.9446 104.798C80.1517 107.491 82.0157 109.976 84.501 111.012C87.1935 112.254 90.7144 111.84 90.7144 108.526C90.3001 105.834 88.6432 103.348 86.1579 102.313C83.4655 101.07 79.9446 101.484 79.9446 104.798Z" fill="#1D1D1B"/>
<path d="M97.9633 144.978C98.1704 144.564 98.5846 144.356 98.9989 144.149L100.242 143.735C101.277 143.528 102.313 143.528 103.141 143.942L104.384 144.564L105.005 145.392C105.212 145.806 105.212 146.013 105.212 146.428C105.212 146.635 105.005 147.049 104.798 147.256L103.762 148.084L102.52 148.499C101.484 148.706 100.449 148.706 99.6202 148.292C99.206 148.084 98.7917 148.084 98.3775 147.67C97.9633 147.256 97.7562 147.256 97.7562 146.842C97.5491 146.635 97.5491 146.22 97.5491 145.806C97.5491 145.599 97.7562 145.185 97.9633 144.978Z" fill="#333233"/>
<path d="M98.1706 144.771C98.3777 144.356 98.5848 144.149 98.999 144.149L100.242 143.735C101.07 143.528 102.106 143.528 102.934 143.942L103.763 144.356L104.591 145.185V145.806C104.591 146.22 104.384 146.428 104.177 146.635L103.348 147.256L102.106 147.67C101.277 147.877 100.449 147.67 99.6203 147.463L98.5848 147.049L97.9635 146.22C97.7563 146.013 97.7563 145.806 97.7563 145.599C97.7563 145.185 97.9635 144.978 98.1706 144.771Z" fill="#0000FF"/>
<path d="M144.977 158.854C145.599 159.268 146.22 159.061 146.841 158.647L153.469 152.02C153.883 151.605 153.469 151.191 152.848 150.984L124.059 141.457C123.438 141.25 122.609 141.25 122.195 141.871L115.775 148.706C115.153 149.12 115.775 149.534 116.189 149.741L144.977 158.854Z" fill="#333233"/>
<path d="M144.149 156.162C144.563 156.369 145.185 156.369 145.599 155.955L150.777 150.984C150.984 150.57 150.777 150.363 150.362 150.156L123.852 141.25C123.438 141.043 122.817 141.043 122.402 141.457L117.639 146.635C117.225 147.049 117.639 147.463 118.053 147.463L144.149 156.162Z" fill="#040506"/>
<path d="M184.536 171.902C183.293 173.145 181.429 173.352 179.772 172.731L165.067 168.174C163.618 167.553 162.582 166.517 164.032 165.275L165.689 163.825C166.931 162.789 168.795 162.375 170.452 162.996L183.914 167.346L185.364 167.76C186.814 168.174 187.642 169.21 186.4 170.452L184.536 171.902Z" fill="#333233"/>
<path d="M183.5 170.867C182.465 171.695 181.015 171.902 179.772 171.488L165.482 166.724C164.446 166.517 163.618 165.689 164.653 164.653L165.896 163.618C166.932 162.582 168.381 162.375 169.831 162.789L182.258 166.724L184.122 167.346C185.364 167.76 186.607 168.174 184.743 169.624L183.5 170.867Z" fill="#040506"/>
<path d="M93.407 84.5013C90.7145 77.0453 90.3003 69.1751 92.1643 61.512L94.6497 50.7422C92.1643 58.1982 91.7501 66.4827 93.6141 74.1458L96.0994 75.8027L100.863 77.2524L98.3777 81.6018L96.3065 84.0871L93.407 84.5013Z" fill="#1D1D1B"/>
<path d="M93.6142 74.1458C91.7502 66.4827 92.1644 58.1982 94.6498 50.7422L95.064 50.1209L96.7209 49.2924C97.5493 48.8782 98.3778 48.6711 99.2062 49.0853L105.627 51.9849C106.662 52.3991 107.284 53.4347 107.284 54.4702C107.284 54.6773 107.284 54.8844 107.076 55.0915C105.212 61.0978 105.212 67.7253 107.076 73.7315C106.869 73.1102 105.834 72.9031 105.834 72.9031L99.4133 71.2462C98.1707 71.0391 97.1351 71.2462 96.0996 71.8675C95.064 72.4889 94.2356 73.3173 93.6142 74.1458Z" fill="#484747"/>
<path d="M93.6141 74.1458C94.0283 75.3884 95.0639 76.2169 96.3065 76.424L99.4132 77.2524C100.035 77.4596 100.449 77.8738 99.8274 78.4951L96.9279 82.4302L95.8923 83.2587L93.407 84.5013L99.6203 86.3653H101.07L102.313 85.9511L102.934 84.9156V84.0871C102.934 83.88 102.727 83.6729 102.727 83.4658C102.727 83.2587 105.212 78.9093 106.662 76.424H106.869C107.076 76.0098 107.283 75.3885 107.283 74.9742C107.283 74.7671 107.283 74.3529 107.076 74.1458C106.869 73.5244 105.834 73.3173 105.834 73.3173L99.4132 71.2462C98.1705 71.0391 97.135 71.2462 96.0994 71.8676C95.6852 72.2818 93.8212 73.5244 93.6141 74.1458Z" fill="#333233"/>
<path d="M189.506 118.675C189.921 117.018 190.335 115.361 190.335 113.704L187.85 113.29L186.607 115.775L189.506 118.675Z" fill="#1D1D1B"/>
<path d="M188.057 84.5013L181.636 89.8862H180.394L179.358 90.3004C179.151 90.5075 178.944 90.9218 178.944 91.336V91.9573C178.944 92.1644 178.944 92.3715 179.151 92.5786C181.429 98.5849 182.051 105.212 180.808 111.426C180.601 111.84 180.601 112.254 180.808 112.668C180.808 113.29 181.015 113.704 181.429 114.118L182.465 115.361L183.293 115.982H183.915L189.507 118.468C188.885 117.846 188.471 116.811 188.471 115.982C188.471 115.568 188.678 115.361 188.885 115.154L191.578 112.254C192.199 111.84 193.027 111.84 193.649 112.047L196.134 113.29C196.963 113.497 197.377 113.704 197.998 113.083L198.827 112.254H199.034C199.241 112.254 199.241 112.047 199.448 111.84C199.655 111.633 200.069 110.597 199.655 109.976C199.241 109.355 193.649 107.698 193.649 107.698L190.542 105.627L191.992 94.6498L188.057 84.5013Z" fill="#333233"/>
<path d="M200.276 109.148C201.312 101.899 200.69 94.2356 197.998 87.4009H197.791C197.584 86.7795 197.17 86.3653 196.548 86.1582H196.134L190.542 84.0871C189.714 83.6729 188.885 83.88 188.264 84.5013C187.642 84.9155 187.85 85.5369 187.85 86.1582C190.335 92.1644 190.956 98.5849 189.714 105.005C189.506 106.248 190.956 107.905 191.992 108.319L197.791 111.012C198.619 111.012 199.862 111.012 200.069 109.976L200.276 109.148Z" fill="#484747"/>
<path d="M79.7378 104.798C80.152 107.491 82.016 109.976 84.5013 111.012C87.1938 112.254 90.9218 111.84 90.9218 108.319C90.5076 105.627 88.6436 103.348 86.1582 102.313C83.2587 101.07 79.7378 101.484 79.7378 104.798Z" stroke="#1D1D1B" stroke-miterlimit="10"/>
<path d="M89.8862 110.183C87.8151 111.84 84.7084 111.219 82.8444 109.562C80.152 107.698 79.5306 105.42 80.7733 103.348C81.3946 102.313 82.6373 102.106 83.88 102.106L89.472 105.42C89.2648 105.42 91.336 107.905 89.8862 110.183Z" fill="#FFB600"/>
<path d="M89.9985 109.319C91.0431 107.816 89.9104 105.222 87.4685 103.524C85.0265 101.827 82.2001 101.669 81.1554 103.171C80.1108 104.674 81.2435 107.269 83.6854 108.966C86.1274 110.664 88.9538 110.822 89.9985 109.319Z" fill="#FFCC00"/>
<path d="M90.7145 99.2062C91.1287 99.6204 91.543 99.8276 91.7501 100.242L96.3065 95.2711L94.6496 94.0284L90.3003 98.792L90.7145 99.2062Z" fill="#FFCC00"/>
<path d="M79.9449 112.668L78.7023 111.633L71.4534 119.71L73.1103 120.953L80.3592 112.876L79.9449 112.668Z" fill="#FFCC00"/>
<path d="M95.2712 106.248L101.484 105.834V103.763L94.8569 104.177L95.2712 106.248Z" fill="#FFCC00"/>
<path d="M75.3883 105.005L65.6541 105.627V107.698L75.8025 107.076C75.3883 106.455 75.1812 105.627 75.3883 105.005Z" fill="#FFCC00"/>
<path d="M78.2879 97.7565L72.4888 92.3716L71.0391 94.0284L76.8382 98.9991L78.2879 97.7565Z" fill="#FFCC00"/>
<path d="M94.4424 112.254L94.0282 112.876L92.9927 113.704L99.6202 119.71L101.07 118.053L94.4424 112.254Z" fill="#FFCC00"/>
</g>
<defs>
<clipPath id="clip0">
<rect width="233" height="230.722" fill="white"/>
</clipPath>
</defs>
</svg>
