<?xml version="1.0" encoding="UTF-8"?>
<!-- Created with Inkscape (http://www.inkscape.org/) -->
<svg id="svg4874" width="96" height="96" version="1.1" viewBox="0 0 96 96" xmlns="http://www.w3.org/2000/svg" xmlns:cc="http://creativecommons.org/ns#" xmlns:dc="http://purl.org/dc/elements/1.1/" xmlns:rdf="http://www.w3.org/1999/02/22-rdf-syntax-ns#">
 <metadata id="metadata4879">
  <rdf:RDF>
   <cc:Work rdf:about="">
    <dc:format>image/svg+xml</dc:format>
    <dc:type rdf:resource="http://purl.org/dc/dcmitype/StillImage"/>
    <dc:title/>
   </cc:Work>
  </rdf:RDF>
 </metadata>
 <g id="layer1" transform="translate(67.857 -78.505)">
  <path id="text4185" d="m-10.804 85.691-4.51 0.83311v14.702c-0.64012-0.38115-1.2742-0.75854-2.3108-1.141-1.4094-0.57045-3.0609-0.84658-4.9506-0.84658-2.083 0-3.9656 0.37193-5.6278 1.1275l-2e-3 2e-3h-2e-3c-1.6172 0.75219-2.9992 1.8131-4.129 3.1689-1.1287 1.3545-1.9888 2.9676-2.584 4.8274l-2e-3 4e-3v4e-3c-0.55844 1.8242-0.83504 3.8266-0.83504 6.0011 0 2.3243 0.33133 4.4241 1.0044 6.2936l2e-3 4e-3 2e-3 6e-3c0.70692 1.8603 1.6798 3.4556 2.9207 4.7716l0.0038 2e-3 2e-3 2e-3c1.2754 1.3129 2.7823 2.3307 4.5042 3.0419l0.0118 4e-3c1.7611 0.67447 3.7021 1.0082 5.8145 1.0082 2.5157 0 4.604-0.16157 6.2782-0.49641 1.6412-0.32823 2.9976-0.67636 4.0771-1.0486l0.33286-0.11352v-0.3521-41.802-0.0019zm12.905 0-4.51 0.83311v42.329h4.51v-13.611c0.84319 0.57797 1.6898 1.1682 2.6032 1.9433l0.00383 4e-3 0.00197 2e-3c1.2139 0.99969 2.413 2.1078 3.5941 3.3248l0.00394 8e-3c1.2137 1.2137 2.3568 2.5163 3.4287 3.9097l0.0038 6e-3 0.0059 6e-3c1.1065 1.3563 2.0851 2.7466 2.9399 4.1713l0.1443 0.23858h5.3123l-0.43291-0.74075c-0.77016-1.3203-1.7202-2.7081-2.8476-4.1636-1.0926-1.4932-2.2763-2.932-3.5499-4.3156-1.2392-1.4214-2.5165-2.7354-3.8308-3.9404-1.1197-1.0557-2.1658-1.8757-3.1843-2.6032l2.6533-2.6533c1.1225-1.1225 2.2447-2.2643 3.3671-3.4229l3.3074-3.4152h2e-3c1.0487-1.0849 1.9886-2.0621 2.8207-2.9303l0.79848-0.83312h-5.6086l-0.14644 0.1692c-0.71789 0.82557-1.5824 1.7797-2.5917 2.8611-1.0079 1.0799-2.0889 2.1966-3.242 3.3498l-0.00197 2e-3 -0.00383 4e-3c-1.1188 1.1549-2.2368 2.2906-3.3555 3.4094-0.81058 0.81057-1.4992 1.4796-2.1953 2.1568v-26.096-0.0019zm-51.286 13.493c-3.0776 0-5.5723 0.72675-7.4153 2.2242l-4e-3 4e-3c-1.7993 1.493-2.7264 3.5088-2.7264 5.9088 0 1.2526 0.22764 2.348 0.70613 3.2651 0.46268 0.8868 1.0834 1.6625 1.8529 2.3166l0.0118 0.012c0.75348 0.60278 1.6151 1.1442 2.5821 1.6278l0.0077 4e-3 0.0059 4e-3c0.94592 0.43657 1.9463 0.8725 2.9996 1.3084 1.2978 0.54074 2.3783 1.0085 3.2382 1.4026l0.0038 2e-3 2e-3 2e-3c0.87654 0.38566 1.5653 0.78316 2.0607 1.1794 0.48908 0.39126 0.80781 0.8093 0.98896 1.2622l0.0118 0.0268c0.2158 0.46243 0.33286 1.0388 0.33286 1.7432 0 1.4497-0.53838 2.3584-1.7336 2.9746h-2e-3c-1.2098 0.60451-2.797 0.92547-4.7678 0.92547-1.0994 0-2.0678-0.0728-2.9015-0.21165-0.81108-0.1412-1.5113-0.299-2.0991-0.47139-0.59444-0.21017-1.0659-0.38348-1.4123-0.52166-0.33874-0.17012-0.57873-0.30436-0.63301-0.34056l-0.5599-0.37326-1.2218 4.2406 0.36557 0.18278c0.49986 0.24992 1.3668 0.55101 2.6667 0.94856 9.1e-4 3e-4 0.0029-3.1e-4 0.0038 0 1.3894 0.46257 3.3059 0.67534 5.7914 0.67534 3.3527 0 6.041-0.66123 8.031-2.0376 2.0387-1.3848 3.09-3.5003 3.09-6.155 0-1.3938-0.24453-2.5781-0.76385-3.5383-0.49777-0.95569-1.1536-1.7685-1.9625-2.4243-0.79906-0.68393-1.7274-1.2505-2.7783-1.7009l0.02116 8e-3c-0.98514-0.47433-2.025-0.92912-3.117-1.3661l-0.0059-2e-3c-1.041-0.43078-1.9727-0.82663-2.7976-1.1852-0.76607-0.34821-1.4189-0.71006-1.9645-1.0832-0.49204-0.39562-0.85921-0.8284-1.1121-1.3026-0.24428-0.45802-0.37711-1.0235-0.37711-1.7201 0-0.68878 0.14506-1.2197 0.40982-1.6316l0.0076-0.012c0.28559-0.47598 0.65728-0.84767 1.1333-1.1333l0.0097-6e-3 0.0097-8e-3c0.4876-0.32506 1.0406-0.55394 1.672-0.68688l0.0097-4e-3 0.0077-2e-3c0.68176-0.17043 1.4008-0.25589 2.1588-0.25589 1.9584 0 3.4189 0.18657 4.3349 0.51371h2e-3l0.0038 2e-3c1.0394 0.35843 1.7729 0.64786 2.1626 0.84273l0.54451 0.2713 1.0659-4.1194-0.35595-0.17894c-0.57657-0.28829-1.4747-0.57391-2.7514-0.90238-1.2903-0.34154-2.899-0.5041-4.8428-0.5041zm26.935 4.2387c0.79575 0 1.5507 0.0846 2.2704 0.25589l0.01154 4e-3 0.01154 2e-3c0.73267 0.13956 1.408 0.33037 2.0279 0.57144 0.62895 0.2446 1.1627 0.50385 1.6008 0.77347l0.0077 6e-3 0.0077 4e-3c0.41289 0.23594 0.72079 0.44752 0.99858 0.65032v18.973c-0.49697 0.14457-1.1091 0.29367-2.0241 0.44637-1.0112 0.13894-2.3827 0.21165-4.1001 0.21165-2.9289 0-5.2069-0.91746-6.9574-2.7687l-2e-3 -2e-3c-1.7393-1.8768-2.6321-4.5732-2.6321-8.1772 0-1.52 0.15757-2.9459 0.47332-4.2791l2e-3 -2e-3c0.31318-1.3571 0.81263-2.5049 1.4931-3.4575l2e-3 -6e-3 2e-3 -4e-3c0.67882-0.9843 1.5537-1.7577 2.6456-2.3377 1.1056-0.5683 2.4873-0.8639 4.1617-0.8639z" style="fill:#808080"/>
  <rect id="rect4782" transform="rotate(90)" x="78.505" y="-28.143" width="96" height="96" style="color:#000000;fill:none"/>
  <path id="path4328" d="m5.8573 134.71c-5.8175 4e-5 -10.893 3.199-13.611 7.9503l-43.802-2e-5c-4.5991 9e-5 -8.3012 3.5444-8.3011 7.9468 0 4.4026 3.7021 7.947 8.3011 7.947l43.802-9e-5c2.7176 4.7515 7.7934 7.9514 13.611 7.9508 6.3365 7e-5 11.798-3.8109 14.286-9.2736l-11.666-2e-5 1.025e-4 -13.248 11.666 1e-5c-2.4874-5.4625-7.9492-9.2734-14.286-9.2735zm-57.747 12.792a3.0703 3.1053 0 0 1 3.0705 3.1052 3.0703 3.1053 0 0 1-3.0705 3.1055 3.0703 3.1053 0 0 1-3.0705-3.1055 3.0703 3.1053 0 0 1 3.0705-3.1052z" style="enable-background:new;fill:#808080"/>
 </g>
</svg>
