<svg width="40" height="40" viewBox="0 0 40 40" fill="none" xmlns="http://www.w3.org/2000/svg">
<path d="M20 27.5C24.1421 27.5 27.5 24.1421 27.5 20C27.5 15.8579 24.1421 12.5 20 12.5C15.8579 12.5 12.5 15.8579 12.5 20C12.5 24.1421 15.8579 27.5 20 27.5Z" stroke="#CACACA" stroke-width="2" stroke-linecap="round" stroke-linejoin="round"/>
<path d="M32.3333 24.9998C32.1114 25.5025 32.0453 26.0602 32.1433 26.6008C32.2413 27.1415 32.4991 27.6404 32.8833 28.0332L32.9833 28.1332C33.2932 28.4427 33.5391 28.8104 33.7068 29.215C33.8746 29.6197 33.9609 30.0534 33.9609 30.4915C33.9609 30.9296 33.8746 31.3633 33.7068 31.768C33.5391 32.1726 33.2932 32.5403 32.9833 32.8498C32.6737 33.1598 32.3061 33.4056 31.9014 33.5734C31.4968 33.7411 31.063 33.8275 30.625 33.8275C30.1869 33.8275 29.7531 33.7411 29.3485 33.5734C28.9438 33.4056 28.5762 33.1598 28.2666 32.8498L28.1666 32.7498C27.7738 32.3656 27.2749 32.1079 26.7343 32.0098C26.1936 31.9118 25.636 31.978 25.1333 32.1998C24.6403 32.4111 24.2199 32.7619 23.9238 33.2091C23.6277 33.6562 23.4688 34.1802 23.4666 34.7165V34.9998C23.4666 35.8839 23.1154 36.7317 22.4903 37.3569C21.8652 37.982 21.0173 38.3332 20.1333 38.3332C19.2492 38.3332 18.4014 37.982 17.7763 37.3569C17.1511 36.7317 16.8 35.8839 16.8 34.9998V34.8498C16.7871 34.2982 16.6085 33.7632 16.2875 33.3143C15.9665 32.8655 15.5179 32.5236 15 32.3332C14.4973 32.1113 13.9396 32.0451 13.399 32.1432C12.8583 32.2412 12.3594 32.4989 11.9666 32.8832L11.8666 32.9832C11.557 33.2931 11.1894 33.539 10.7848 33.7067C10.3801 33.8744 9.94634 33.9608 9.50829 33.9608C9.07024 33.9608 8.63648 33.8744 8.23182 33.7067C7.82716 33.539 7.45954 33.2931 7.14996 32.9832C6.84004 32.6736 6.59417 32.306 6.42643 31.9013C6.25868 31.4966 6.17234 31.0629 6.17234 30.6248C6.17234 30.1868 6.25868 29.753 6.42643 29.3484C6.59417 28.9437 6.84004 28.5761 7.14996 28.2665L7.24996 28.1665C7.63419 27.7737 7.89193 27.2748 7.98997 26.7341C8.088 26.1935 8.02182 25.6359 7.79996 25.1332C7.58869 24.6402 7.23788 24.2198 6.79073 23.9237C6.34358 23.6276 5.8196 23.4686 5.28329 23.4665H4.99996C4.1159 23.4665 3.26806 23.1153 2.64294 22.4902C2.01782 21.8651 1.66663 21.0172 1.66663 20.1332C1.66663 19.2491 2.01782 18.4013 2.64294 17.7761C3.26806 17.151 4.1159 16.7998 4.99996 16.7998H5.14996C5.70162 16.7869 6.23663 16.6084 6.68546 16.2874C7.13428 15.9663 7.47615 15.5177 7.66663 14.9998C7.88848 14.4971 7.95466 13.9395 7.85663 13.3989C7.7586 12.8582 7.50085 12.3593 7.11663 11.9665L7.01663 11.8665C6.7067 11.5569 6.46084 11.1893 6.29309 10.7846C6.12535 10.38 6.039 9.94622 6.039 9.50817C6.039 9.07012 6.12535 8.63636 6.29309 8.2317C6.46084 7.82704 6.7067 7.45941 7.01663 7.14984C7.3262 6.83992 7.69383 6.59405 8.09849 6.4263C8.50315 6.25856 8.93691 6.17221 9.37496 6.17221C9.81301 6.17221 10.2468 6.25856 10.6514 6.4263C11.0561 6.59405 11.4237 6.83992 11.7333 7.14984L11.8333 7.24984C12.2261 7.63406 12.725 7.89181 13.2656 7.98984C13.8063 8.08788 14.3639 8.02169 14.8666 7.79984H15C15.4929 7.58856 15.9133 7.23776 16.2094 6.79061C16.5056 6.34346 16.6645 5.81948 16.6666 5.28317V4.99984C16.6666 4.11578 17.0178 3.26794 17.6429 2.64281C18.2681 2.01769 19.1159 1.6665 20 1.6665C20.884 1.6665 21.7319 2.01769 22.357 2.64281C22.9821 3.26794 23.3333 4.11578 23.3333 4.99984V5.14984C23.3354 5.68615 23.4943 6.21013 23.7905 6.65728C24.0866 7.10443 24.507 7.45523 25 7.6665C25.5027 7.88836 26.0603 7.95454 26.6009 7.85651C27.1416 7.75848 27.6405 7.50073 28.0333 7.1165L28.1333 7.0165C28.4429 6.70658 28.8105 6.46072 29.2152 6.29297C29.6198 6.12522 30.0536 6.03888 30.4916 6.03888C30.9297 6.03888 31.3634 6.12522 31.7681 6.29297C32.1728 6.46072 32.5404 6.70658 32.85 7.0165C33.1599 7.32608 33.4057 7.69371 33.5735 8.09837C33.7412 8.50303 33.8276 8.93678 33.8276 9.37484C33.8276 9.81289 33.7412 10.2466 33.5735 10.6513C33.4057 11.056 33.1599 11.4236 32.85 11.7332L32.75 11.8332C32.3657 12.226 32.108 12.7249 32.0099 13.2655C31.9119 13.8062 31.9781 14.3638 32.2 14.8665V14.9998C32.4112 15.4928 32.762 15.9132 33.2092 16.2093C33.6563 16.5054 34.1803 16.6644 34.7166 16.6665H35C35.884 16.6665 36.7319 17.0177 37.357 17.6428C37.9821 18.2679 38.3333 19.1158 38.3333 19.9998C38.3333 20.8839 37.9821 21.7317 37.357 22.3569C36.7319 22.982 35.884 23.3332 35 23.3332H34.85C34.3136 23.3353 33.7897 23.4942 33.3425 23.7903C32.8954 24.0865 32.5446 24.5069 32.3333 24.9998V24.9998Z" stroke="#CACACA" stroke-width="2" stroke-linecap="round" stroke-linejoin="round"/>
</svg>
