<?xml version="1.0" encoding="UTF-8" standalone="no"?>
<svg
   version="1.1"
   id="mdi-z-wave"
   width="24"
   height="24"
   viewBox="0 0 24 24"
   sodipodi:docname="z-wave.svg"
   inkscape:version="1.1.2 (0a00cf5339, 2022-02-04)"
   xmlns:inkscape="http://www.inkscape.org/namespaces/inkscape"
   xmlns:sodipodi="http://sodipodi.sourceforge.net/DTD/sodipodi-0.dtd"
   xmlns="http://www.w3.org/2000/svg"
   xmlns:svg="http://www.w3.org/2000/svg">
  <defs
     id="defs7" />
  <sodipodi:namedview
     id="namedview5"
     pagecolor="#ffffff"
     bordercolor="#666666"
     borderopacity="1.0"
     inkscape:pageshadow="2"
     inkscape:pageopacity="0.0"
     inkscape:pagecheckerboard="0"
     showgrid="false"
     inkscape:zoom="10.070777"
     inkscape:cx="7.7948303"
     inkscape:cy="14.993877"
     inkscape:window-width="1462"
     inkscape:window-height="933"
     inkscape:window-x="74"
     inkscape:window-y="27"
     inkscape:window-maximized="1"
     inkscape:current-layer="mdi-z-wave" />
  <path
     d="M16.3,10.58C13.14,10.58 10.6,13.13 10.6,16.28C10.6,19.43 13.15,22 16.3,22C19.45,22 22,19.43 22,16.28C22,13.13 19.45,10.58 16.3,10.58M18,19.08H13.19L15.81,15H13.31L14.4,13.23H19.18L16.63,17.28H19.18L18,19.08M16.3,3.93V2C8.41,2 2,8.42 2,16.31H3.92C3.94,9.46 9.5,3.93 16.3,3.93M16.3,7.74V5.82C10.5,5.82 5.81,10.53 5.81,16.31H7.73C7.75,11.58 11.59,7.74 16.3,7.74"
     id="path2"
     style="fill:#808080;fill-opacity:1" />
</svg>
